<?xml version="1.0" encoding="utf-8"?>
<!-- Generator: Adobe Illustrator 16.0.0, SVG Export Plug-In . SVG Version: 6.00 Build 0)  -->
<!DOCTYPE svg PUBLIC "-//W3C//DTD SVG 1.1//EN" "http://www.w3.org/Graphics/SVG/1.1/DTD/svg11.dtd">
<svg version="1.1" id="Ebene_1" xmlns="http://www.w3.org/2000/svg" xmlns:xlink="http://www.w3.org/1999/xlink" x="0px" y="0px"
	 width="566.929px" height="128.211px" viewBox="0 0 566.929 128.211" enable-background="new 0 0 566.929 128.211"
	 xml:space="preserve">
<g id="Ebene_2">
</g>
<g id="Layer_1">
	<g>
		<g>
			<g>
				<g enable-background="new    ">
					<g enable-background="new    ">
						<g>
							<g>
								<g>
									<path id="SVGID_1_" fill="#959595" d="M252.629,61.838l3.529,5.301c-0.273-0.412-0.726-0.677-1.179-0.677
										c-0.478,0-0.955,0.295-1.221,1.026l-3.529-5.298c0.267-0.732,0.743-1.029,1.222-1.029
										C251.903,61.161,252.354,61.427,252.629,61.838z"/>
								</g>
							</g>
						</g>
					</g>
					<g enable-background="new    ">
						<g>
							<g>
								<g>
									<path id="SVGID_3_" fill="#959595" d="M311.432,60.064l3.53,5.299c-0.172-0.258-0.422-0.391-0.688-0.391
										c-0.354,0-0.725,0.236-0.964,0.721l-3.526-5.298c0.238-0.483,0.612-0.72,0.965-0.72
										C311.011,59.674,311.261,59.807,311.432,60.064z"/>
								</g>
							</g>
						</g>
					</g>
					<g>
						<path fill="#959595" d="M314.466,41.153l29.807,0.189c0.568,0,4.659,0.663-0.453,1.999c-4.084,1.063-7.429,0.661-8.764,5.979
							l-16.086,64.575c-1.336,5.769,3.152,10.742,8.955,12.301c1.313,0.32,1.393,1.715-0.157,1.8l-19.586-0.724l-23.796,0.805
							c-1.728,0-1.795-1.795,0.084-2.125c5.563-0.566,10.479-5.151,11.549-8.913l15.643-56.077c0.002-0.846-0.435-1.287-0.914-1.287
							c-0.35,0-0.724,0.236-0.965,0.719l-44.043,63.917c-1.22,1.967-3.14,3.271-4.838,3.271c-1.835,0-3.412-1.521-3.578-5.375
							l-4.433-59.588c-0.048-0.826-0.744-1.454-1.438-1.454c-0.478,0-0.956,0.297-1.222,1.029l-15.107,47.273
							c-1.237,3.593-1.325,7.104,0.147,9.646c1.463,2.611,5.229,5.803,9.64,6.701c1.714,0.412,1.628,2.125-0.004,2.209
							l-15.824-0.662l-13.293,0.498c-1.561-0.084-1.393-1.631,0.004-1.883c4.578-0.979,9.826-5.638,12.205-12.267l19.571-62.897
							c0.821-2.376-0.476-5.236-2.852-5.804l-6.055-1.229c-1.063-0.082-1.215-1.632,0.002-1.632l34.736-0.282l3.482,54.755
							l2.548-3.1l33.148-49.172C312.984,43.683,313.968,42.134,314.466,41.153z"/>
					</g>
				</g>
			</g>
		</g>
		<g>
			<g>
				<g enable-background="new    ">
					<g>
						<path fill="#959595" d="M359.425,40.928l40.013,0.331c1.882,0,2.765,3.332-1,3.664c-4.021,0.354-8.226,3.215-9.214,6.641
							l-18.747,64.799c-0.905,3.439,1.593,9.184,8.05,9.67c1.063,0.246,1.061,1.877,0.079,1.877l-23.63-0.906l-22.697,0.686
							c-1.232,0-0.896-1.629,0.154-1.795c3.111-0.567,12.154-4.076,13.88-9.633l20.901-64.693c1.309-4.656-3.016-6.949-7.922-8.095
							C358.23,43.304,358.447,41.011,359.425,40.928z"/>
					</g>
				</g>
			</g>
		</g>
		<g>
			<g>
				<g enable-background="new    ">
					<g>
						<path fill="#959595" d="M464.128,36.898c4.105,0,8.133,0.34,12.004,1.062c2.461,0.496,5.475,1.62,4.738,3.746l-5.906,15.057
							c-0.467,1.534-1.244,2.462-2.031,2.462c-1.094,0-2.207-1.792-2.551-6.244c-0.195-2.436,0.197-11.205-3.146-11.393
							c-0.85-0.046-1.695-0.067-2.543-0.067c-5.363,0-10.688,0.885-15.43,2.396c-18.068,5.767-29.525,15.623-37.079,32.453
							c-7.386,16.19-3.739,33.692,1.478,39.661c3.557,4.066,11.865,6.875,18.252,6.875c3.75,0,6.836-0.971,7.904-3.225
							c3.457-8.307,5.133-18.494,4.809-23.15c0.014-5.647-2.201-6.086-6.41-6.866c-2.951-0.313-3.895-2.228,1.615-2.228
							c0.293,0,0.604,0.006,0.936,0.02c1.771-0.012,3.492-0.018,5.189-0.018c3.881,0,7.602,0.021,11.299,0.039
							c3.473,0.019,6.924,0.035,10.473,0.035c3.246,0,6.576-0.017,10.072-0.06c0.98,0.483,0.896,0.897-0.088,1.384
							c-5.973,0.896-8.352,2.043-8.924,4.254c-2.311,7.85-4.383,16.438-8.123,24.488c-1.33,2.883-7.605,5.626-9.648,6.204
							c-6.354,2.263-16.916,4.063-26.975,4.063c-8.072,0-15.822-1.16-20.813-4.184c-18.713-11.438-22.079-33.127-14.438-47.428
							C400.123,54.96,434.261,36.898,464.128,36.898z"/>
					</g>
				</g>
			</g>
		</g>
		<g opacity="0.78" enable-background="new    ">
			<path d="M558.181,127.465v-4.979h-1.861v-0.668h4.477v0.668h-1.867v4.979H558.181z"/>
			<path d="M561.539,127.465v-5.646h1.125l1.338,4c0.123,0.371,0.213,0.65,0.271,0.836c0.063-0.205,0.164-0.508,0.299-0.905
				l1.352-3.931h1.006v5.646h-0.719v-4.727l-1.643,4.727h-0.674l-1.633-4.809v4.809H561.539z"/>
		</g>
		<g id="Tick">
			<g>
				
					<linearGradient id="SVGID_2_" gradientUnits="userSpaceOnUse" x1="-484.4619" y1="-961.9507" x2="-484.4619" y2="-894.8853" gradientTransform="matrix(1 0 0 -1 547.3599 -835.4922)">
					<stop  offset="0.0604" style="stop-color:#53B848"/>
					<stop  offset="0.5549" style="stop-color:#65CCEC"/>
					<stop  offset="0.5832" style="stop-color:#61C3E7"/>
					<stop  offset="0.6882" style="stop-color:#55A7D8"/>
					<stop  offset="0.7933" style="stop-color:#4D92CD"/>
					<stop  offset="0.8976" style="stop-color:#4886C6"/>
					<stop  offset="1" style="stop-color:#4682C4"/>
				</linearGradient>
				<polygon fill="url(#SVGID_2_)" points="28.491,59.393 52.378,59.393 97.306,126.459 73.637,126.459 				"/>
				
					<linearGradient id="SVGID_4_" gradientUnits="userSpaceOnUse" x1="-472.4546" y1="-961.8877" x2="-365.998" y2="-835.0175" gradientTransform="matrix(1 0 0 -1 547.3599 -835.4922)">
					<stop  offset="0" style="stop-color:#6EBE44"/>
					<stop  offset="0.0011" style="stop-color:#6EBE44"/>
					<stop  offset="0.2454" style="stop-color:#BCDA20"/>
					<stop  offset="0.4194" style="stop-color:#ECEB09"/>
					<stop  offset="0.5055" style="stop-color:#FFF200"/>
					<stop  offset="0.5783" style="stop-color:#FBCA08"/>
					<stop  offset="0.6794" style="stop-color:#F79A11"/>
					<stop  offset="0.7753" style="stop-color:#F47419"/>
					<stop  offset="0.8635" style="stop-color:#F1581F"/>
					<stop  offset="0.9411" style="stop-color:#F04822"/>
					<stop  offset="1" style="stop-color:#EF4223"/>
				</linearGradient>
				<polygon fill="url(#SVGID_4_)" points="158.261,0.001 181.93,0.001 97.553,126.459 74.98,126.459 				"/>
			</g>
			<g>
				
					<linearGradient id="SVGID_5_" gradientUnits="userSpaceOnUse" x1="-512.9521" y1="-961.9497" x2="-512.9521" y2="-894.8853" gradientTransform="matrix(1 0 0 -1 547.3599 -835.4922)">
					<stop  offset="0.0604" style="stop-color:#53B848"/>
					<stop  offset="0.5549" style="stop-color:#65CCEC"/>
					<stop  offset="0.5832" style="stop-color:#61C3E7"/>
					<stop  offset="0.6882" style="stop-color:#55A7D8"/>
					<stop  offset="0.7933" style="stop-color:#4D92CD"/>
					<stop  offset="0.8976" style="stop-color:#4886C6"/>
					<stop  offset="1" style="stop-color:#4682C4"/>
				</linearGradient>
				<polygon fill="url(#SVGID_5_)" points="0,59.393 23.889,59.393 68.816,126.458 45.147,126.458 				"/>
				
					<linearGradient id="SVGID_6_" gradientUnits="userSpaceOnUse" x1="-500.9458" y1="-961.8867" x2="-394.4891" y2="-835.0166" gradientTransform="matrix(1 0 0 -1 547.3599 -835.4922)">
					<stop  offset="0" style="stop-color:#6EBE44"/>
					<stop  offset="0.0011" style="stop-color:#6EBE44"/>
					<stop  offset="0.2454" style="stop-color:#BCDA20"/>
					<stop  offset="0.4194" style="stop-color:#ECEB09"/>
					<stop  offset="0.5055" style="stop-color:#FFF200"/>
					<stop  offset="0.5783" style="stop-color:#FBCA08"/>
					<stop  offset="0.6794" style="stop-color:#F79A11"/>
					<stop  offset="0.7753" style="stop-color:#F47419"/>
					<stop  offset="0.8635" style="stop-color:#F1581F"/>
					<stop  offset="0.9411" style="stop-color:#F04822"/>
					<stop  offset="1" style="stop-color:#EF4223"/>
				</linearGradient>
				<polygon fill="url(#SVGID_6_)" points="129.769,0 153.438,0 69.063,126.458 46.489,126.458 				"/>
			</g>
		</g>
		<g>
			<path fill="#959595" d="M154.313,97.063l-11.644,16.51c-3.452,5.4,3.078,11.041,10.279,12.355
				c0.66,0.512,0.548,2.162-0.415,2.162c-0.105,0-0.219-0.02-0.345-0.063c-0.144-0.063-2.86-1.194-9.034-1.771
				c-1.652-0.156-4.623-0.662-8.245-0.662c-1.248,0-2.571,0.061-3.947,0.213l-13.024,1.834c-1.232-0.082-1.229-1.551,0.002-1.882
				c6.293-0.813,13.835-5.481,18.259-11.771l52.979-73.901c0.875-1.269,2.745-2.007,4.565-2.007c2.279,0,4.474,1.158,4.517,3.887
				l1.745,73.983c0.566,6.204,4.724,8.829,9.962,10.294c0.732,0.494,0.411,1.477-0.086,1.645c-0.34-0.007-6.801-0.105-14.522-1.254
				c-1.807-0.267-3.22-0.421-4.946-0.421c-1.493,0-3.221,0.116-5.64,0.373c-3.029,0.319-1.598,0.366-13.862,0.91
				c-0.466,0.022-0.919-0.099-1.017-0.888c0.109-0.91,1.48-1.348,1.918-1.465c4.9-1.358,7.317-3.816,8.392-9.847
				c1.16-6.631,0.85-12.269,0.694-18.071 M173.393,92.74c2.696,0,5.234,0.016,7.125,0.057L179.816,62
				c-0.133-0.4-0.313-0.605-0.519-0.605c-0.169,0-0.357,0.145-0.546,0.439c-6.558,9.313-15.59,20.729-22.065,29.973
				c-0.415,0.729-0.001,0.979,0.98,0.979c0.157,0.015,0.688,0.02,1.498,0.02c1.393,0,3.607-0.016,6.142-0.027
				C167.84,92.76,170.696,92.74,173.393,92.74"/>
		</g>
		<g>
			<path fill="#959595" d="M551.406,126.374c0.732,0.481,0.398,1.464-0.086,1.632c-0.34-0.006-6.801-0.105-14.521-1.238
				c-1.834-0.271-3.254-0.43-5.002-0.43c-1.479,0-3.189,0.113-5.584,0.366c-3.041,0.317-1.598,0.364-13.877,0.909
				c-0.457,0.021-0.904-0.098-1.002-0.887c0.107-0.908,1.48-1.338,1.906-1.467c4.908-1.348,7.326-3.814,8.404-9.845
				c1.158-6.618,0.838-12.256,0.684-18.069l-26.588-0.152l-11.645,16.512c-3.439,5.393,3.09,11.023,10.289,12.338
				c0.662,0.521,0.539,2.168-0.422,2.168c-0.107,0-0.223-0.021-0.352-0.063c-0.146-0.061-2.859-1.184-9.021-1.773
				c-1.65-0.156-4.625-0.662-8.246-0.662c-1.248,0-2.57,0.059-3.945,0.213l-13.035,1.834c-1.221-0.084-1.219-1.551,0.004-1.881
				c6.305-0.814,13.834-5.473,18.27-11.771l52.98-73.885c0.875-1.274,2.744-2.013,4.563-2.013c2.281,0,4.48,1.163,4.521,3.891
				l1.744,73.972C542,122.283,546.169,124.896,551.406,126.374z M514.792,92.873c2.705,0,5.256,0.016,7.152,0.057l-0.689-30.813
				c-0.137-0.4-0.318-0.605-0.521-0.605c-0.172,0-0.355,0.144-0.539,0.44c-6.568,9.325-15.592,20.739-22.078,29.97
				c-0.404,0.732-0.002,0.98,0.979,0.98c0.191,0.018,0.945,0.021,2.078,0.021c1.377,0,3.32-0.012,5.516-0.021
				C509.218,92.889,512.083,92.873,514.792,92.873"/>
		</g>
	</g>
</g>
</svg>
