<?xml version="1.0" encoding="utf-8"?>
<!-- Generator: Adobe Illustrator 16.0.0, SVG Export Plug-In . SVG Version: 6.00 Build 0)  -->
<!DOCTYPE svg PUBLIC "-//W3C//DTD SVG 1.1//EN" "http://www.w3.org/Graphics/SVG/1.1/DTD/svg11.dtd">
<svg version="1.1" id="Layer_1" xmlns="http://www.w3.org/2000/svg" xmlns:xlink="http://www.w3.org/1999/xlink" x="0px" y="0px"
	 width="615px" height="163.5px" viewBox="0 0 615 163.5" enable-background="new 0 0 615 163.5" xml:space="preserve">
<g id="Layer_1_1_">
	<path opacity="0.7" fill="#FFFFFF" enable-background="new    " d="M60.4,138.3H33.1V55c0-4.2,0.7-8.4,5-11.4
		c3.3-2.4,7-2.6,10.4-2.6h34.2c4.9,0,14.5,0.6,21.3,7.7c7.4,7.7,7.9,19.9,7.9,27c0,6.4-0.3,20.7-6,28.899
		c-6.7,9.5-17.8,10.2-25.5,10.2h-20V138.3z M72.3,94.9c6,0,8.9-3.301,10.2-5.7c1.5-2.9,1.7-6.8,1.7-11.5c0-4.2-0.1-7.8-1.3-10.7
		c-2.4-6-8.1-6.3-9.7-6.3h-9.6c-0.6,0-1.8,0.6-2.2,1c-0.6,0.6-1,1.7-1,2.5V95h11.9V94.9z"/>
	<path opacity="0.7" fill="#FFFFFF" enable-background="new    " d="M146,138.3h-27.3V55c0-4.2,0.7-8.4,5-11.4
		c3.3-2.4,7-2.6,10.4-2.6h34.2c4.9,0,14.5,0.6,21.3,7.7c7.4,7.7,7.9,19.9,7.9,27c0,6.4-0.3,20.7-6,28.899
		c-6.7,9.5-17.8,10.2-25.5,10.2h-20V138.3L146,138.3z M157.9,94.9c6,0,8.9-3.301,10.2-5.7c1.5-2.9,1.7-6.8,1.7-11.5
		c0-4.2-0.1-7.8-1.3-10.7c-2.4-6-8.1-6.3-9.7-6.3h-9.6c-0.6,0-1.8,0.6-2.2,1c-0.6,0.6-1,1.7-1,2.5V95h11.9V94.9z"/>
	<path opacity="0.7" fill="#FFFFFF" enable-background="new    " d="M204.3,17.2h27.3V114.6h-27.3V17.2z"/>
	<path opacity="0.7" fill="#FFFFFF" enable-background="new    " d="M269.4,83.3c0.1,0.601,0.7,2.2,1.4,2.2c0.7,0,1.1-1.7,1.3-2.1
		L283,47.8c1-3.2,3.6-7.8,15.6-7.8c12,0,14.6,4.6,15.6,7.8L325.1,83.4c0.101,0.399,0.601,2.1,1.301,2.1c0.699,0,1.3-1.7,1.399-2.2
		L338.9,40.9H364.8L348,100.7c-2.4,8.2-5.8,14.8-19.5,14.8c-13.5,0-17.4-5.4-18.9-10.7l-9.7-32.1c-0.3-0.8-0.6-2.2-1.1-2.2
		c-0.6,0-0.8,1.4-1.1,2.2l-9.7,32.1c-1.5,5.3-5.4,10.7-18.9,10.7c-13.6,0-17.1-6.5-19.5-14.8l-16.8-59.8h25.9L269.4,83.3z"/>
	<path opacity="0.7" fill="#FFFFFF" enable-background="new    " d="M417.6,40.9c9,0,15,3.2,18.2,6.4c6.101,6,7,14.8,7,20.7v30.9
		c0,3.899-0.3,8.399-3.6,11.8c-3.5,3.6-8.4,3.899-12.5,3.899h-43.4c-4.6,0-9.6-0.3-13.5-3.899c-5.7-5.101-6-14.9-6-20.7
		c0-6.4,0.601-14.2,6.4-18.6c4-3.1,8.8-3.2,13.1-3.2h32.3v-1.1c0-1.3-0.1-3.2-1.399-4.9c-2.101-2.8-5.601-2.9-8.4-2.9h-37V40.9
		H417.6L417.6,40.9z M396.2,85.7c-0.8,0-2.8,0.1-4,1.3c-1,1-1.101,2.2-1.101,3.5c0,1.1,0.101,2.2,1.101,3.2c1,0.8,2.5,1.3,3.8,1.3
		h14.2c1.399,0,3.2-0.3,4-1c1.3-1,1.399-2.4,1.399-3.6V85.8L396.2,85.7L396.2,85.7z"/>
	<path opacity="0.7" fill="#FFFFFF" enable-background="new    " d="M451.1,71.9c0-7.1,0.601-17.4,8.801-24.1c8.1-6.7,20-7,27.3-7
		h18.1V60h-9.5c-5.3,0-10.3,0.7-13.8,5.3c-3.2,4.3-3.6,9.9-3.6,14.1v35.2H451.1V71.9L451.1,71.9z"/>
	<path opacity="0.7" fill="#FFFFFF" enable-background="new    " d="M537.7,114.7c-11,0-20.3,0-26.2-9.601
		c-3.2-5.3-3.8-13.1-3.8-26.399c0-13.5-0.7-24.5,6-31.3c6.8-7,20.899-7.2,34.8-7.2c14.9,0,24.6,0.3,30.5,5
		c7.1,5.7,7.9,16.7,7.9,24.8c0,4.7-0.301,10.2-4.5,13.5c-2.4,1.9-4.7,2.1-7.2,2.1H535c-0.1,1.9,0.3,4.5,1.3,6
		c2.4,3.801,7.4,3.5,12.2,3.5h35.8V114.9L537.7,114.7L537.7,114.7z M555.2,68.2c3.899,0,4.5-2.5,4.5-3.9c0-1.9-1-4.2-5-5
		c-2.2-0.4-5.8-0.6-7.2-0.6c-3.2,0-7.5,0.1-9.5,1.3c-2.8,1.5-3.2,4.5-2.9,8.2H555.2z"/>
	<path fill="#1D71B8" d="M118.7,57.2v-5.1H146v5.1H118.7z M118.7,64.6H146v73.8h-27.3V64.6z"/>
</g>
</svg>
