<?xml version="1.0" encoding="utf-8"?>
<!-- Generator: Adobe Illustrator 16.0.0, SVG Export Plug-In . SVG Version: 6.00 Build 0)  -->
<!DOCTYPE svg PUBLIC "-//W3C//DTD SVG 1.1//EN" "http://www.w3.org/Graphics/SVG/1.1/DTD/svg11.dtd">
<svg version="1.1" id="Ebene_2" xmlns="http://www.w3.org/2000/svg" xmlns:xlink="http://www.w3.org/1999/xlink" x="0px" y="0px"
	 width="566.93px" height="77.199px" viewBox="0 0 566.93 77.199" enable-background="new 0 0 566.93 77.199" xml:space="preserve">
<g>
	<g>
		<path fill="#959595" d="M76.534,26.614l-1.553-0.719c0.097-0.32,0.193-0.719,0.193-1.119c0-1.039-9.127-6.633-24.952-6.633
			c-15.146,0-21.651,3.836-21.651,8.79c0,13.104,57.186-6.072,57.186,22.854c0,10.548-12.428,18.699-37.282,18.699
			c-23.689,0-30.486-6.233-32.72-6.233c-0.583,0-0.874,0.397-1.358,0.64l-1.263-0.24l8.059-13.584l1.554,0.639
			c0,0.322-0.195,0.643-0.195,1.279c0,4.717,12.525,8.07,24.953,8.07c17.671,0,23.69-4.154,23.69-8.552
			c0-15.659-56.41,3.756-56.41-22.771c0-13.425,17.186-19.02,36.021-19.02c16.894,0,28.738,6.073,29.903,6.073
			c1.263,0,1.456-0.318,1.748-0.559l1.553,0.398L76.534,26.614z"/>
		<path fill="#959595" d="M93.229,66.566c2.136,0,2.523-0.639,2.523-2.397V13.03c0-1.758-0.389-2.397-2.523-2.397V9.514h63.012
			c2.33,0,3.301-0.641,3.301-1.759h1.359v13.266h-1.359c0-1.438-0.971-2.077-3.301-2.077H109.54v14.224h30.487
			c2.33,0,3.301-0.64,3.301-2.078h1.359v13.424h-1.359c0-0.641-0.194-1.119-0.777-1.438c-0.484-0.319-1.358-0.479-2.523-0.479
			H109.54v15.663h47.575c2.33,0,3.301-0.641,3.301-1.918h1.359v13.104h-1.359c0-1.119-0.971-1.758-3.301-1.758H93.229V66.566z"/>
		<path fill="#959595" d="M247.888,37.002v1.119c-0.972,0.16-1.846,0.799-1.846,2.559v15.739c0,1.279,0.486,1.758,1.748,1.997v1.119
			c-6.117,2.876-21.068,8.951-37.866,8.951c-22.33,0-41.942-9.112-41.942-29.886c0-20.776,22.913-29.887,43.107-29.887
			c7.963,0,15.535,1.519,21.069,2.957c5.146,1.838,8.932,3.277,9.612,3.277c0.874,0,1.748-0.4,2.136-0.879l1.359,0.479
			l-9.417,13.104l-1.36-0.719c0.097-0.319,0.194-0.8,0.194-1.358c0-2.478-10.485-7.432-23.398-7.432
			c-16.311,0-29.515,6.633-29.515,20.138c0,14.143,13.204,20.772,28.155,20.772c12.234,0,19.419-3.437,22.331-5.193V47.23h-16.698
			c-1.942,0-3.107,0.799-3.107,1.916h-1.36V35.085h1.36c0,1.118,1.165,1.917,3.107,1.917H247.888z"/>
		<path fill="#959595" d="M252.736,67.688v-1.119c1.748-0.079,2.33-0.479,3.688-3.037l26.507-49.063
			c0.484-0.8,1.065-1.679,1.065-2.396c0-0.879-0.773-1.279-2.039-1.438v-1.12h21.168v1.118c-1.457,0.16-2.041,0.64-2.041,1.199
			c0,0.64,0.39,1.278,0.875,2.078l28.155,49.621c1.358,2.478,1.747,3.036,3.785,3.036v1.119h-19.32v-1.119
			c1.265,0,1.748-0.399,1.748-0.799c0-0.879-0.873-1.998-7.379-13.425h-33.303c-5.631,10.388-7.087,11.985-7.087,13.024
			c0,0.719,0.582,1.119,1.456,1.197v1.119L252.736,67.688L252.736,67.688z M303.322,43.234L291.67,22.298l-11.457,20.937H303.322z"
			/>
	</g>
	<g>
		<path fill="#959595" d="M546.461,77.199H0V0h546.461V77.199z M4.917,72.282h536.628V4.917H4.917V72.282z"/>
	</g>
	<g>
		<polygon fill="#959595" points="548.183,1.424 551.504,1.424 551.504,10.271 553.136,10.271 553.136,1.424 556.458,1.424 
			556.458,0 548.183,0 		"/>
		<polygon fill="#959595" points="564.853,0 561.806,8.09 558.773,0 556.701,0 556.701,10.271 558.261,10.271 558.261,2.599 
			561.142,10.271 562.488,10.271 565.367,2.602 565.367,10.271 566.929,10.271 566.929,0 		"/>
	</g>
	<path fill="#959595" d="M350.736,9.514v58.171h186.855V9.514H350.736z M358.658,50.35c-1.554-10.357,32.851-24.163,77.67-31.438
		c-1.012,0.261-2.969,0.762-2.969,0.762s-4.404,1.076-5.623,1.374c-22.863,5.588-38.882,15.652-37.545,24.577
		c1.37,9.138,20.469,14.083,44.767,12.394c1.35-0.097,6.139-0.326,7.182-0.373C397.149,63.824,360.208,60.709,358.658,50.35z
		 M470.697,52.587c-9.932,2.258-22.346,4.174-22.346,4.174V30.802l6.399,21.123c0,0,15.242-2.474,26.845-7.304
		c10.084-4.199,16.34-9.466,15.918-15.077c-0.685-9.114-20.068-13.978-44-12.438c-1.597,0.103-6.896,0.375-7.937,0.421
		c44.98-6.181,81.916-3.064,83.472,7.293C530.369,33.629,505.677,44.928,470.697,52.587z"/>
</g>
</svg>
