<?xml version="1.0" encoding="utf-8"?>
<!-- Generator: Adobe Illustrator 16.0.0, SVG Export Plug-In . SVG Version: 6.00 Build 0)  -->
<!DOCTYPE svg PUBLIC "-//W3C//DTD SVG 1.1//EN" "http://www.w3.org/Graphics/SVG/1.1/DTD/svg11.dtd">
<svg version="1.1" id="Ebene_2" xmlns="http://www.w3.org/2000/svg" xmlns:xlink="http://www.w3.org/1999/xlink" x="0px" y="0px"
	 width="567.18px" height="60.445px" viewBox="0 0 567.18 60.445" enable-background="new 0 0 567.18 60.445" xml:space="preserve">
<g>
	<g>
		<path fill="#FFFFFF" d="M283.253,5.169v7.339h9.017v4.51h-9.017v10.059h-5.516V0.623h14.978v4.545L283.253,5.169L283.253,5.169z"
			/>
	</g>
	<g>
		<path fill="#FFFFFF" d="M313.546,27.074l-2.124-5.886h-9.801l-1.937,5.886h-5.479l9.238-26.377l6.298-0.148l9.91,26.526
			L313.546,27.074L313.546,27.074z M307.396,9.677c-0.633-1.751-1.08-3.13-1.117-3.241c-0.036,0.11-0.336,1.453-0.932,3.241
			l-2.423,7.303h7.042L307.396,9.677z"/>
	</g>
	<g>
		<path fill="#FFFFFF" d="M339.254,27.074h-15.648V0.623h5.516v21.869h10.47L339.254,27.074z"/>
	</g>
	<g>
		<path fill="#FFFFFF" d="M364.143,25.809c-3.02,1.189-5.774,1.639-8.084,1.639c-2.98,0-6.11-0.521-8.646-2.087
			c-3.726-2.197-5.998-6.407-5.998-11.438c0-5.29,2.235-8.865,5.104-10.951c2.646-1.9,5.926-2.722,9.649-2.722
			c2.125,0,4.882,0.335,7.563,1.269l-0.446,4.545c-2.981-0.896-5.104-1.192-7.19-1.192c-2.645,0-4.694,0.597-6.258,1.9
			c-1.752,1.453-2.758,3.837-2.758,6.744c0,5.29,3.391,9.274,9.313,9.274c2.086,0,4.582-0.445,8.012-1.639L364.143,25.809z"/>
	</g>
	<g>
		<path fill="#FFFFFF" d="M390.225,25.323c-2.271,1.453-5.104,2.124-8.121,2.124c-3.393,0-6.445-1.044-8.682-2.794
			c-3.167-2.46-5.031-6.334-5.031-11.104c0-5.216,2.535-9.016,6.147-11.177c2.349-1.453,4.881-2.124,8.012-2.124
			c4.396,0,8.084,1.416,10.507,4.135c2.049,2.236,3.314,5.255,3.314,8.942C396.371,18.469,394.023,22.903,390.225,25.323z
			 M388.436,7.405c-1.489-1.641-3.576-2.535-6.295-2.535c-1.938,0-3.393,0.448-4.695,1.304c-2.088,1.381-3.391,3.875-3.391,7.042
			c0,3.132,1.118,5.888,2.942,7.638c1.305,1.192,3.279,2.014,5.18,2.014h0.187c1.976,0,3.728-0.483,5.031-1.453
			c2.121-1.602,3.314-4.434,3.314-7.674C390.709,11.353,389.891,9.006,388.436,7.405z"/>
	</g>
	<g>
		<path fill="#FFFFFF" d="M425.024,27.074h-6.11L405.909,8.559c0.076,0.818,0.076,2.233,0.076,4.022v14.492h-5.219V0.623h6.073
			l13.041,18.404c-0.038-0.82-0.073-1.899-0.073-3.167V0.623h5.216V27.074L425.024,27.074z"/>
	</g>
</g>
<g>
	<g>
		<path fill="#FFFFFF" d="M435.541,21.77c0-16.579,13.559-21.072,20.688-21.072c8.057,0,20.528,5.423,20.528,20.917v17.663
			c0,15.649-12.396,20.918-20.375,20.918c-8.059,0-20.84-5.269-20.84-20.918L435.541,21.77L435.541,21.77z M447.085,39.588
			c0,5.191,2.79,10.46,9.063,10.46c6.431,0,9.063-6.042,9.063-10.46V21.305c0-3.254-1.239-10.458-9.142-10.458
			c-6.432,0-8.986,5.5-8.986,10.535L447.085,39.588L447.085,39.588z"/>
	</g>
	<g>
		<path fill="#FFFFFF" d="M482.873,17.355c0.311-12.475,10.614-16.657,18.054-16.657c10.067,0,16.812,6.818,16.812,15.108
			c0,7.049-4.728,10.381-7.672,12.008c10.461,3.563,11.002,11.853,11.002,14.409c0,10.228-9.063,17.974-20.299,17.974
			c-6.273,0-13.246-2.48-16.81-7.67c-2.558-3.486-3.178-7.747-3.333-10.381h11.62c0.311,3.641,3.1,7.825,8.755,7.9
			c5.577,0,8.521-3.874,8.521-8.678c0-5.655-5.345-8.211-9.838-8.211h-4.648v-8.6h2.559c3.951,0,8.601-2.246,8.601-7.127
			c0-3.486-2.016-6.587-5.733-6.587c-4.881,0-6.042,3.95-6.197,6.509L482.873,17.355L482.873,17.355z"/>
	</g>
	<g>
		<path fill="#FFFFFF" d="M525.714,21.77c0-16.579,13.56-21.072,20.685-21.072c8.061,0,20.531,5.423,20.531,20.917v17.663
			c0,15.649-12.396,20.918-20.375,20.918c-8.058,0-20.841-5.269-20.841-20.918V21.77z M537.259,39.588
			c0,5.191,2.789,10.46,9.063,10.46c6.43,0,9.063-6.042,9.063-10.46V21.305c0-3.254-1.239-10.458-9.144-10.458
			c-6.431,0-8.984,5.5-8.984,10.535L537.259,39.588L537.259,39.588z"/>
	</g>
</g>
<g>
	<path fill="#4FA3EB" d="M104.754,3.279c2.31-2.955,7.088-3.458,9.921-0.981c1.158,0.978,1.97,2.323,2.384,3.771
		c5.245,18.046,10.512,36.083,15.75,54.13c-3.096,0.002-6.191-0.005-9.287,0.002c-1.459-4.974-2.884-9.959-4.325-14.938
		c-5.983-0.02-11.968-0.007-17.95-0.009c-1.467,4.979-2.912,9.959-4.352,14.947c-3.078-0.013-6.156-0.005-9.234-0.008
		c4.981-17.213,9.97-34.427,14.977-51.636C103.232,6.76,103.455,4.749,104.754,3.279 M110.217,14.336
		c-2.195,7.478-4.344,14.969-6.525,22.447c4.35,0.021,8.697,0.007,13.045,0.007C114.56,29.306,112.394,21.821,110.217,14.336z"/>
	<path fill="#E0B67A" d="M169.951,3.667c1.611-2.339,4.729-3.477,7.475-2.754c2.514,0.58,4.438,2.745,5.101,5.186
		c5.239,18.032,10.496,36.059,15.733,54.087c-3.099,0.025-6.197,0-9.296,0.015c-1.44-4.979-2.866-9.967-4.317-14.942
		c-5.975,0.002-11.947-0.013-17.922,0.006c-1.428,4.982-2.899,9.953-4.329,14.938c-3.075,0.002-6.149,0-9.225,0.002
		c4.979-17.308,10.018-34.601,15.037-51.896C168.735,6.74,168.938,5.018,169.951,3.667 M169.197,36.79
		c4.331,0.006,8.66,0.002,12.991,0.002c-2.152-7.499-4.342-14.986-6.492-22.487C173.533,21.799,171.349,29.29,169.197,36.79z"/>
	<path fill="#6AC05F" d="M125.879,0.824c11.196,0,22.393,0,33.585,0c0,3.021,0,6.038,0,9.059c-4.122,0.005-8.243-0.005-12.364,0.005
		c0,16.771,0.003,33.542-0.002,50.313c-2.951,0-5.906,0-8.856,0c0-16.771-0.003-33.541,0.002-50.313
		c-4.122-0.01-8.243,0-12.365-0.005C125.879,6.863,125.877,3.844,125.879,0.824z"/>
	<path fill="#BA5964" d="M208.104,1.192c0.852-0.294,1.759-0.396,2.657-0.373c3.53,0.014,7.059,0.002,10.59,0.005
		c5.944,0.108,11.619,3.8,14.192,9.149c1.781,3.476,1.965,7.517,1.515,11.328c-0.307,3.99-1.982,7.979-5.05,10.625
		c-1.621,1.445-3.64,2.32-5.374,3.604c-0.952,0.729-0.998,2.134-0.507,3.142c4.686,7.234,9.557,14.354,14.339,21.524
		c-3.498,0.007-6.996-0.01-10.494,0.007c-4.581-6.879-9.113-13.793-13.674-20.681c-1.341-1.959-1.704-4.559-0.902-6.796
		c0.626-1.715,2.127-2.974,3.798-3.618c3.189-1.216,6.332-3.129,8.1-6.138c1.342-2.266,1.274-5.055,0.671-7.528
		c-0.709-3.213-3.84-5.743-7.148-5.631c-2.289,0.017-4.574-0.015-6.858,0.011c-1.034-0.024-2.007,0.875-1.995,1.925
		c-0.011,16.149,0.006,32.304-0.004,48.455c-2.976-0.005-5.947,0-8.922-0.005c-0.006-17.387,0.004-34.777-0.006-52.163
		C203.045,4.986,205.214,2.118,208.104,1.192z"/>
	<path fill="#CCBAEE" d="M245.145,0.824c3.129,0,6.257,0,9.39,0c-0.004,19.794,0.003,39.583-0.007,59.375
		c-3.126-0.008-6.254,0-9.383-0.002C245.145,40.406,245.145,20.616,245.145,0.824z"/>
</g>
<g>
	<path fill="#959595" d="M26.18,0.701c1.486-0.004,2.972,0,4.461-0.002c0.005,3.495,0,6.992,0.002,10.486
		c0.016,2.918-0.066,5.835-0.188,8.752c-0.2,4.208-0.463,8.429-1.16,12.587c-0.479,2.869-1.474,5.64-2.702,8.266
		c-2.008,4.231-5.164,7.813-8.712,10.826c-3.173,2.794-6.961,4.826-10.945,6.2C4.681,58.596,2.361,59.191,0,59.525
		c0.002-2.935,0.002-5.864,0-8.797c2.843-0.43,5.577-1.438,8.113-2.771c3.012-1.593,5.724-3.731,8.006-6.259
		c2.356-2.606,4.234-5.625,5.659-8.83c1.68-3.684,2.577-7.665,3.188-11.647c0.766-5.066,1.085-10.194,1.203-15.313
		C26.189,4.174,26.175,2.438,26.18,0.701z"/>
	<path fill="#959595" d="M32.434,0.708c2.737-0.019,5.475-0.002,8.212-0.007c0.001,19.606,0.001,39.217,0,58.822
		c-2.73,0.008-5.462-0.013-8.192,0.015c-0.033-6.252-0.004-12.51-0.016-18.758C32.436,27.423,32.444,14.065,32.434,0.708z"/>
	<path fill="#959595" d="M42.473,0.701c1.479-0.002,2.958-0.004,4.436,0c-0.049,5.979,0.155,11.971,0.867,17.907
		c0.583,4.614,1.406,9.265,3.244,13.561c1.742,4.158,4.252,8.022,7.525,11.143c3.125,2.979,6.911,5.271,11.024,6.589
		c1.148,0.365,2.322,0.651,3.517,0.829c-0.001,2.933-0.002,5.858,0,8.792c-2.345-0.317-4.645-0.924-6.882-1.686
		c-2.665-0.927-5.242-2.128-7.609-3.67c-1.728-1.106-3.3-2.438-4.809-3.826c-2.489-2.297-4.716-4.901-6.389-7.855
		c-1.308-2.3-2.262-4.783-3.011-7.316c-0.686-2.546-0.977-5.182-1.243-7.797c-0.515-5.66-0.707-11.347-0.671-17.023
		C42.473,7.128,42.472,3.915,42.473,0.701z"/>
	<path fill="#959595" d="M32.434,0.708c0.01,13.357,0.002,26.715,0.005,40.07c0.009,6.25-0.02,12.506,0.016,18.76
		c2.729-0.023,5.462-0.007,8.192-0.015c0.001-19.604,0.001-39.216,0-58.824C37.909,0.705,35.171,0.689,32.434,0.708"/>
	<path fill="#959595" d="M42.473,0.701c-0.001,3.213,0,6.428,0,9.641c-0.036,5.68,0.156,11.365,0.671,17.025
		c0.267,2.615,0.559,5.251,1.243,7.797c0.747,2.533,1.703,5.02,3.011,7.316c1.673,2.954,3.899,5.562,6.389,7.855
		c1.51,1.39,3.08,2.72,4.809,3.826c2.368,1.542,4.945,2.741,7.609,3.67c2.237,0.761,4.537,1.363,6.882,1.686
		c-0.002-2.934-0.001-5.859,0-8.792c-1.193-0.177-2.368-0.465-3.517-0.829c-4.113-1.317-7.899-3.607-11.024-6.589
		c-3.272-3.114-5.783-6.98-7.525-11.143c-1.837-4.296-2.66-8.943-3.244-13.561c-0.713-5.938-0.917-11.93-0.867-17.907
		C45.429,0.696,43.951,0.698,42.473,0.701"/>
</g>
<g>
	<path fill="#959595" d="M292.715,0.498h-14.978c-0.068,0-0.125,0.058-0.125,0.125v26.451c0,0.069,0.057,0.125,0.125,0.125h5.516
		c0.068,0,0.125-0.056,0.125-0.125V17.14h8.892c0.069,0,0.125-0.058,0.125-0.125v-4.51c0-0.067-0.056-0.125-0.125-0.125h-8.892
		v-7.09h9.337c0.069,0,0.125-0.056,0.125-0.125V0.623C292.84,0.554,292.784,0.498,292.715,0.498z M282.628,16.515v9.935h-4.266
		V1.248h13.728v3.295h-9.337c-0.069,0-0.125,0.058-0.125,0.125v8.339c0,0.069,0.056,0.125,0.125,0.125h8.892v3.26h-8.892
		C282.684,16.39,282.628,16.446,282.628,16.515z"/>
	<path fill="#959595" d="M309.861,0.504c-0.02-0.05-0.067-0.082-0.119-0.081l-6.299,0.147c-0.051,0.001-0.098,0.035-0.114,0.083
		l-9.238,26.378c-0.014,0.039-0.007,0.081,0.018,0.114c0.023,0.032,0.063,0.053,0.103,0.053h5.479c0.054,0,0.102-0.035,0.119-0.086
		l1.908-5.801h9.621l2.096,5.804c0.018,0.049,0.063,0.083,0.116,0.083h6.108c0.002,0,0.004,0,0.006,0
		c0.069,0,0.125-0.056,0.125-0.125c0-0.029-0.011-0.056-0.025-0.077L309.861,0.504z M295.089,26.45l8.806-25.139l5.42-0.128
		l9.439,25.267h-4.771l-2.094-5.804c-0.02-0.049-0.064-0.083-0.117-0.083h-10.516c-0.055,0-0.104,0.035-0.119,0.086l-1.906,5.8
		L295.089,26.45L295.089,26.45z"/>
	<path fill="#959595" d="M302.232,17.604h8.439c0.04,0,0.077-0.021,0.102-0.054s0.03-0.074,0.018-0.113l-2.807-7.975
		c-0.387-1.066-0.771-2.184-1.111-3.226l-0.479-1.455c-0.019-0.051-0.064-0.086-0.119-0.086s-0.103,0.035-0.118,0.087l-0.468,1.455
		c-0.011,0.026-0.03,0.105-0.065,0.246c-0.107,0.432-0.396,1.58-0.865,2.994l-2.642,7.96c-0.014,0.038-0.008,0.08,0.018,0.112
		C302.154,17.584,302.191,17.604,302.232,17.604z M303.1,16.854l2.366-7.139c0.418-1.254,0.689-2.282,0.829-2.834
		c0.305,0.917,0.647,1.91,0.981,2.837l2.515,7.136H303.1z"/>
	<path fill="#959595" d="M339.588,22.367h-10.344V0.623c0-0.067-0.056-0.125-0.125-0.125h-5.517c-0.069,0-0.125,0.058-0.125,0.125
		v26.451c0,0.069,0.056,0.125,0.125,0.125h15.648c0.063,0,0.119-0.051,0.125-0.116l0.335-4.582c0.002-0.035-0.011-0.067-0.032-0.094
		C339.656,22.382,339.622,22.367,339.588,22.367z M324.229,26.449V1.248h4.268v21.744c0,0.069,0.057,0.125,0.125,0.125h10.297
		l-0.243,3.332H324.229z"/>
	<path fill="#959595" d="M364.363,21.033c-3.204,1.114-5.735,1.633-7.971,1.633c-5.582,0-9.188-3.592-9.188-9.149
		c0-2.836,0.964-5.198,2.713-6.648c1.51-1.259,3.529-1.871,6.178-1.871c2.238,0,4.379,0.355,7.154,1.188
		c0.035,0.01,0.075,0.004,0.104-0.018c0.031-0.021,0.053-0.055,0.056-0.092l0.446-4.545c0.006-0.058-0.028-0.111-0.084-0.13
		c-3.188-1.109-6.133-1.274-7.604-1.274c-3.917,0-7.188,0.923-9.724,2.744c-3.325,2.417-5.156,6.343-5.156,11.054
		c0,4.991,2.267,9.31,6.06,11.544c2.262,1.397,5.191,2.106,8.711,2.106c2.625,0,5.36-0.555,8.129-1.648
		c0.045-0.018,0.076-0.061,0.08-0.107l0.262-4.657c0.002-0.042-0.018-0.082-0.051-0.104
		C364.446,21.027,364.402,21.02,364.363,21.033z M356.169,0.875c1.328,0,3.979,0.143,6.894,1.077l-0.326,3.3
		c-2.51-0.705-4.506-1.007-6.644-1.007c-2.827,0-5.006,0.669-6.657,2.044c-1.923,1.595-2.981,4.161-2.981,7.226
		c0,5.922,3.993,9.899,9.938,9.899c2.12,0,4.455-0.438,7.336-1.377l-0.188,3.333c-2.522,0.95-5.108,1.452-7.481,1.452
		c-3.377,0-6.179-0.673-8.328-2.001c-3.563-2.103-5.689-6.176-5.689-10.899c0-5.721,2.634-8.838,4.844-10.443
		C349.286,1.751,352.411,0.875,356.169,0.875z"/>
	<path fill="#959595" d="M382.55,0.125c-3.147,0-5.715,0.683-8.075,2.144c-4.004,2.395-6.209,6.4-6.209,11.283
		c0,4.68,1.805,8.656,5.079,11.2c2.324,1.819,5.435,2.821,8.759,2.821c3.164,0,5.996-0.741,8.188-2.144
		c3.887-2.479,6.205-7.002,6.205-12.104c0-3.513-1.157-6.635-3.347-9.024C390.715,1.57,387.05,0.125,382.55,0.125z M382.104,26.823
		c-3.156,0-6.104-0.945-8.297-2.662c-3.09-2.398-4.791-6.168-4.791-10.608c0-4.606,2.078-8.388,5.853-10.646
		c2.237-1.386,4.679-2.031,7.684-2.031c4.278,0,7.753,1.359,10.047,3.934c2.063,2.251,3.151,5.195,3.151,8.52
		c0,4.843-2.19,9.13-5.858,11.469C387.816,26.122,385.125,26.823,382.104,26.823z"/>
	<path fill="#959595" d="M382.141,4.244c-1.979,0-3.578,0.447-5.039,1.407c-2.332,1.541-3.67,4.297-3.67,7.563
		c0,3.229,1.146,6.182,3.146,8.099c1.466,1.344,3.61,2.179,5.602,2.179h0.188c2.146,0,4.019-0.546,5.406-1.58
		c2.267-1.71,3.564-4.688,3.564-8.174c0-2.587-0.889-5.049-2.437-6.753C387.25,5.166,384.977,4.244,382.141,4.244z M382.363,22.74
		h-0.188c-0.005,0-0.012,0-0.017,0.001c-1.805-0.004-3.749-0.763-5.075-1.979c-1.848-1.771-2.904-4.521-2.904-7.547
		c0-3.009,1.215-5.536,3.334-6.938c1.334-0.875,2.803-1.283,4.627-1.283c2.613,0,4.699,0.839,6.201,2.493
		c1.426,1.567,2.241,3.845,2.241,6.249c0,3.248-1.19,6.008-3.266,7.574C386.063,22.245,384.348,22.74,382.363,22.74z"/>
	<path fill="#959595" d="M425.024,0.498h-5.216c-0.069,0-0.125,0.058-0.125,0.125V15.86c0,0.916,0.019,1.838,0.055,2.749
		L406.943,0.552c-0.022-0.032-0.062-0.054-0.103-0.054h-6.071c-0.069,0-0.125,0.058-0.125,0.125v26.451
		c0,0.069,0.056,0.125,0.125,0.125h5.217c0.068,0,0.125-0.056,0.125-0.125V12.583c0-1.5,0-2.735-0.045-3.585l12.746,18.149
		c0.022,0.033,0.062,0.053,0.103,0.053h6.11c0.068,0,0.125-0.056,0.125-0.125V0.623C425.15,0.554,425.094,0.498,425.024,0.498z
		 M405.287,8.616c0.073,0.791,0.073,2.192,0.073,3.967V26.45h-3.969V1.248h5.125l12.854,18.142l0.984,1.394
		c0.024,0.034,0.063,0.053,0.104,0.053c0.002,0,0.004,0,0.006,0c0.068,0,0.125-0.056,0.125-0.125c0-0.016-0.003-0.029-0.008-0.044
		L420.505,19c-0.05-1.061-0.071-2.088-0.071-3.139V1.248h3.966v25.201h-5.161L405.341,6.66c-0.032-0.047-0.096-0.063-0.146-0.045
		c-0.055,0.021-0.088,0.072-0.081,0.129L405.287,8.616z"/>
	<path fill="#959595" d="M456.071,10.222c-6.641,0-9.611,5.604-9.611,11.16v18.204c0.001,5.52,2.997,11.085,9.689,11.085
		c7.059,0,9.688-6.799,9.688-11.085V21.305C465.837,19.454,465.365,10.222,456.071,10.222z M465.088,21.305v18.281
		c0,4.154-2.382,10.335-8.938,10.335c-6.177,0-8.938-5.188-8.938-10.335V21.384c0-4.803,2.32-10.41,8.861-10.41
		C464.653,10.972,465.088,19.579,465.088,21.305z"/>
	<path fill="#959595" d="M456.229,0.573c-1.707,0-7.692,0.313-13.092,4.343c-5.05,3.771-7.721,9.6-7.721,16.854v17.509
		c0,15.438,12.538,21.044,20.966,21.044c4.685,0,9.64-1.727,13.258-4.618c4.738-3.786,7.242-9.466,7.242-16.426V21.615
		C476.882,6.177,464.53,0.573,456.229,0.573z M456.382,59.571c-8.126,0-20.216-5.404-20.216-20.293V21.77
		c0-16.173,13.122-20.446,20.063-20.446c8,0,19.903,5.404,19.903,20.292v17.662C476.132,54.166,464.32,59.571,456.382,59.571z"/>
	<path fill="#959595" d="M510.367,27.788c5.042-2.865,7.494-6.786,7.494-11.979c0-4.134-1.658-7.952-4.67-10.756
		c-3.103-2.889-7.458-4.479-12.267-4.479c-6.598,0-17.85,3.534-18.179,16.778c-0.001,0.033,0.013,0.064,0.035,0.09
		c0.022,0.022,0.057,0.038,0.09,0.038h11.39c0.065,0,0.121-0.051,0.125-0.117c0.116-1.922,0.94-6.391,6.071-6.391
		c3.854,0,5.609,3.349,5.609,6.461c0,4.597-4.265,7.002-8.477,7.002h-2.559c-0.068,0-0.125,0.056-0.125,0.125v8.601
		c0,0.069,0.057,0.125,0.125,0.125h4.646c4.828,0,9.716,2.777,9.716,8.086c0,5.195-3.297,8.553-8.396,8.553
		c-5.479-0.073-8.315-4.09-8.631-7.786c-0.006-0.064-0.062-0.114-0.125-0.114H480.62c-0.033,0-0.066,0.015-0.091,0.039
		c-0.023,0.023-0.036,0.059-0.034,0.094c0.248,4.179,1.409,7.791,3.354,10.443c3.223,4.691,9.86,7.726,16.913,7.726
		c11.452,0,20.425-7.95,20.425-18.1C521.192,38.246,519.778,31.115,510.367,27.788z M500.77,59.573
		c-6.813,0-13.211-2.909-16.305-7.416c-1.756-2.394-2.851-5.637-3.165-9.386h10.395c0.577,3.896,3.664,7.825,9.311,7.9
		c5.473,0,9.146-3.736,9.146-9.303c0-5.801-5.266-8.836-10.466-8.836h-4.021v-7.351h1.934c4.585,0,9.227-2.663,9.227-7.752
		c0-4.246-2.615-7.212-6.358-7.212c-5.227,0-6.487,4.023-6.771,6.509H483.53c0.652-12.157,11.231-15.405,17.399-15.405
		c9.229,0,16.188,6.226,16.188,14.482c0,4.979-2.403,8.729-7.351,11.461l-0.988,0.546c-0.044,0.022-0.068,0.069-0.063,0.12
		c0.005,0.049,0.038,0.092,0.085,0.105l1.069,0.365c9.204,3.137,10.578,10.003,10.578,13.816
		C520.443,51.951,511.802,59.573,500.77,59.573z"/>
	<path fill="#959595" d="M546.242,10.222c-6.64,0-9.609,5.604-9.609,11.16v18.204c0.001,5.52,2.998,11.085,9.689,11.085
		c7.059,0,9.688-6.799,9.688-11.085V21.305C556.011,19.454,555.539,10.222,546.242,10.222z M555.262,21.305v18.281
		c0,4.154-2.381,10.335-8.938,10.335c-6.176,0-8.938-5.188-8.938-10.335V21.384c0-4.803,2.319-10.41,8.859-10.41
		C554.826,10.972,555.262,19.579,555.262,21.305z"/>
	<path fill="#959595" d="M559.764,5.249c-3.668-2.927-8.664-4.675-13.365-4.675c-1.705,0-7.689,0.313-13.09,4.343
		c-5.051,3.771-7.721,9.6-7.721,16.854V39.28c0,15.438,12.537,21.044,20.966,21.044c4.685,0,9.641-1.727,13.259-4.618
		c4.737-3.786,7.241-9.466,7.241-16.426V21.615C567.055,12.898,563.09,7.904,559.764,5.249z M546.554,59.571
		c-8.126,0-20.216-5.404-20.216-20.293V21.77c0.001-16.173,13.122-20.446,20.061-20.446c8.002,0,19.905,5.404,19.905,20.292v17.662
		C566.304,54.166,554.491,59.571,546.554,59.571z"/>
</g>
</svg>
