<?xml version="1.0" encoding="utf-8"?>
<!-- Generator: Adobe Illustrator 16.0.0, SVG Export Plug-In . SVG Version: 6.00 Build 0)  -->
<!DOCTYPE svg PUBLIC "-//W3C//DTD SVG 1.1//EN" "http://www.w3.org/Graphics/SVG/1.1/DTD/svg11.dtd">
<svg version="1.1" id="Ebene_1" xmlns="http://www.w3.org/2000/svg" xmlns:xlink="http://www.w3.org/1999/xlink" x="0px" y="0px"
	 width="566.93px" height="124.23px" viewBox="0 0 566.93 124.23" enable-background="new 0 0 566.93 124.23" xml:space="preserve">
<g id="underneath_1_">
</g>
<g id="BOTTOM_LEFT_LINE">
</g>
<g>
	<g>
		<g id="Layer_6">
			<line fill="none" x1="29.248" y1="99.123" x2="28.12" y2="98.282"/>
		</g>
		<g id="_x33_D_PART">
			
				<linearGradient id="SVGID_1_" gradientUnits="userSpaceOnUse" x1="-522.9944" y1="1014.2312" x2="-442.6671" y2="1000.8685" gradientTransform="matrix(1 0 0 1 547.4043 -922.7852)">
				<stop  offset="0.0368" style="stop-color:#FFFFFF"/>
				<stop  offset="0.8957" style="stop-color:#898CBF"/>
			</linearGradient>
			<polygon fill="url(#SVGID_1_)" points="89.451,62.438 89.451,82.608 53.699,103.224 18.222,82.608 16.628,83.691 53.699,105.427 
				91.065,83.824 91.065,61.505 			"/>
		</g>
		<g id="black_line_thing">
			<polygon fill="#7A7EAE" points="89.451,82.52 91.065,83.685 91.065,83.824 90.963,83.9 89.308,82.69 89.451,82.608 			"/>
		</g>
		<g id="dark_purple_top_line">
			
				<linearGradient id="SVGID_2_" gradientUnits="userSpaceOnUse" x1="-518.948" y1="-668.5237" x2="-493.3601" y2="-668.5237" gradientTransform="matrix(1 0 0 -1 547.3643 -613.3706)">
				<stop  offset="0" style="stop-color:#6E70A9"/>
				<stop  offset="0.9693" style="stop-color:#514A8E"/>
			</linearGradient>
			<polygon fill="url(#SVGID_2_)" points="54.004,62.205 28.814,47.455 28.416,47.853 53.699,62.851 			"/>
			
				<linearGradient id="SVGID_3_" gradientUnits="userSpaceOnUse" x1="-493.5525" y1="-675.6794" x2="-493.2249" y2="-675.6794" gradientTransform="matrix(1 0 0 -1 547.3643 -613.3706)">
				<stop  offset="0" style="stop-color:#6E70A9"/>
				<stop  offset="0.9693" style="stop-color:#514A8E"/>
			</linearGradient>
			<polygon fill="url(#SVGID_3_)" points="53.922,62.205 54.107,62.205 54.14,62.413 53.813,62.413 			"/>
		</g>
		<g id="top_black_line">
			<polygon fill="#120F22" points="54.004,62.851 54.004,62.205 107.627,31.206 107.785,31.647 			"/>
		</g>
		<g id="LOGO_DARK_LINES">
			<polygon fill="#453D76" points="54.004,124.23 54.363,105.729 91.582,84.28 91.72,61.312 91.065,61.312 91.065,83.824 
				53.699,105.427 53.565,124.23 			"/>
		</g>
		<g id="LOGO">
			
				<linearGradient id="SVGID_4_" gradientUnits="userSpaceOnUse" x1="-483.3254" y1="989.6853" x2="-438.6829" y2="1018.9914" gradientTransform="matrix(1 0 0 1 547.4043 -922.7852)">
				<stop  offset="0" style="stop-color:#4C5284"/>
				<stop  offset="1" style="stop-color:#8789BC"/>
			</linearGradient>
			<polygon fill="url(#SVGID_4_)" points="54.004,91.212 54.004,62.851 107.785,31.647 107.785,93.197 54.004,124.23 
				54.004,105.573 91.361,84.062 91.361,61.332 78.85,68.566 78.85,76.594 			"/>
		</g>
		<g id="BOTTOM_LAIN_LEFT_LIGHT_LINE">
			
				<linearGradient id="SVGID_5_" gradientUnits="userSpaceOnUse" x1="-493.9446" y1="1046.3591" x2="-494.2556" y2="1026.4553" gradientTransform="matrix(1 0 0 1 547.4043 -922.7852)">
				<stop  offset="0.1104" style="stop-color:#4C407E"/>
				<stop  offset="0.8896" style="stop-color:#666699"/>
				<stop  offset="1" style="stop-color:#A7B3D9"/>
				<stop  offset="1" style="stop-color:#9BA5CD"/>
			</linearGradient>
			<polyline fill="url(#SVGID_5_)" points="53.402,124.23 53.699,124.23 53.699,105.427 52.642,104.806 53.402,124.23 			"/>
		</g>
		<g id="underneath">
			<polyline fill="#2D2868" points="16.542,40.703 16.771,40.897 16.862,83.532 16.628,83.691 16.486,83.601 16.542,40.703 			"/>
		</g>
		<g id="LEFT_3D_PURPLE_SHADOW">
			<polygon fill="#453D76" points="18.222,82.608 16.628,83.691 16.628,40.755 54.004,19.174 54.004,21.3 18.26,41.987 			"/>
		</g>
		<g id="MAIN_DARK_PURPLE_LINE">
			<polygon fill="#453D76" points="54.004,62.094 54.004,91.212 53.699,91.417 53.699,62.851 53.699,62.028 			"/>
		</g>
		<g id="logo_LEFT_side">
			
				<linearGradient id="SVGID_6_" gradientUnits="userSpaceOnUse" x1="-542.5847" y1="1002.4919" x2="-481.3825" y2="985.4828" gradientTransform="matrix(1 0 0 1 547.4043 -922.7852)">
				<stop  offset="0.2331" style="stop-color:#666699"/>
				<stop  offset="0.7239" style="stop-color:#A7B3D9"/>
			</linearGradient>
			<polygon fill="url(#SVGID_6_)" points="28.416,47.853 28.416,76.802 53.699,91.417 53.699,62.851 			"/>
			
				<linearGradient id="SVGID_7_" gradientUnits="userSpaceOnUse" x1="-541.5281" y1="1006.2927" x2="-480.329" y2="989.2845" gradientTransform="matrix(1 0 0 1 547.4043 -922.7852)">
				<stop  offset="0.2331" style="stop-color:#666699"/>
				<stop  offset="0.9907" style="stop-color:#A7B3D9"/>
			</linearGradient>
			<polygon fill="url(#SVGID_7_)" points="53.402,123.927 53.402,105.251 16.628,83.691 16.628,40.964 0,31.206 0,93.302 
				53.402,124.23 			"/>
		</g>
		<g id="left_purple_line">
			<rect x="16.343" y="40.755" fill="#2D2868" width="0.285" height="42.938"/>
			<polygon fill="#2D2868" points="16.628,40.755 0.214,30.992 0,31.206 16.486,40.897 			"/>
		</g>
		<g id="BOTTOM_PURPLE_LINE">
			
				<linearGradient id="SVGID_8_" gradientUnits="userSpaceOnUse" x1="-527.823" y1="1009.1746" x2="-503.4881" y2="1022.1962" gradientTransform="matrix(1 0 0 1 547.4043 -922.7852)">
				<stop  offset="0" style="stop-color:#6E70A9"/>
				<stop  offset="0.9693" style="stop-color:#514A8E"/>
			</linearGradient>
			<polygon fill="url(#SVGID_8_)" points="53.402,105.251 53.402,105.603 16.343,84.015 16.343,83.691 16.628,83.691 			"/>
		</g>
		<g id="top_middle_light_line">
			
				<linearGradient id="SVGID_9_" gradientUnits="userSpaceOnUse" x1="-491.6736" y1="945.0154" x2="-476.2232" y2="952.5319" gradientTransform="matrix(1 0 0 1 547.4043 -922.7852)">
				<stop  offset="0.0368" style="stop-color:#9EA5D3"/>
				<stop  offset="0.9018" style="stop-color:#7675AE"/>
			</linearGradient>
			<polygon fill="url(#SVGID_9_)" points="54.004,19.174 77.901,33.142 77.901,35.231 54.004,21.3 			"/>
		</g>
		<g id="top_right">
			<polygon fill="#484592" points="77.901,33.142 77.901,35.231 94.454,25.524 94.454,23.552 			"/>
		</g>
		<g id="MAIN_TOP">
			<path fill="none" d="M0,31.206"/>
			
				<linearGradient id="SVGID_10_" gradientUnits="userSpaceOnUse" x1="-547.1902" y1="953.7771" x2="-547.1902" y2="953.7771" gradientTransform="matrix(1 0 0 1 547.4043 -922.7852)">
				<stop  offset="0.2331" style="stop-color:#666699"/>
				<stop  offset="0.9907" style="stop-color:#A7B3D9"/>
			</linearGradient>
			<path fill="url(#SVGID_10_)" d="M0.214,30.992"/>
			
				<linearGradient id="SVGID_11_" gradientUnits="userSpaceOnUse" x1="-498.0227" y1="927.3083" x2="-501.6672" y2="967.8033" gradientTransform="matrix(1 0 0 1 547.4043 -922.7852)">
				<stop  offset="0" style="stop-color:#AAACD2"/>
				<stop  offset="0.6258" style="stop-color:#FCFAFB"/>
			</linearGradient>
			<polygon fill="url(#SVGID_11_)" points="53.833,0 94.454,23.552 77.901,33.142 54.004,19.174 16.628,40.755 0.214,30.992 			"/>
			
				<linearGradient id="SVGID_12_" gradientUnits="userSpaceOnUse" x1="-475.6292" y1="922.6287" x2="-479.2736" y2="963.1228" gradientTransform="matrix(1 0 0 1 547.4043 -922.7852)">
				<stop  offset="0.6743" style="stop-color:#AAACD2"/>
				<stop  offset="1" style="stop-color:#FCFAFB"/>
			</linearGradient>
			<polygon fill="url(#SVGID_12_)" points="28.814,47.455 53.68,33.409 77.369,46.781 106.232,30.192 107.627,31.206 54.004,62.205 
							"/>
		</g>
	</g>
	<g>
		<path id="path23497" fill="#959595" d="M373.52,21.158v-4.949h-14.143c-1.816,0-3.533,0.404-5.055,1.11
			c-1.513,0.71-2.726,1.718-3.634,2.932c-0.908,1.209-1.313,2.529-1.416,4.04v15.252c0.1,1.417,0.508,2.729,1.313,3.944
			c0.911,1.21,2.12,2.116,3.536,2.924c1.517,0.71,3.128,1.115,5.054,1.115h14.34v-4.949h-13.738c-1.109,0-2.118-0.306-3.021-0.911
			c-0.815-0.604-1.317-1.312-1.317-2.317V33.69h18.082v-5.053h-18.082v-4.144c0-1.013,0.502-1.816,1.317-2.427
			c0.903-0.606,1.912-0.91,3.021-0.91h13.738"/>
		<path id="path23501" fill="#959595" d="M457.951,16.21v31.317h15.103c1.916-0.098,3.625-0.405,5.14-1.107
			c1.608-0.804,2.817-1.712,3.723-2.921c0.908-1.203,1.308-2.615,1.408-4.127V24.266c-0.103-1.509-0.5-2.821-1.408-4.028
			c-0.903-1.208-2.11-2.213-3.723-2.921c-1.515-0.705-3.226-1.107-5.14-1.107H457.951L457.951,16.21z M475.778,22.052
			c0.897,0.604,1.303,1.406,1.403,2.418v14.804c-0.104,1.006-0.506,1.812-1.403,2.416c-0.81,0.703-1.82,1.005-2.929,1.005h-8.758
			V21.046h8.758C473.957,21.046,474.969,21.347,475.778,22.052"/>
		<path id="path23503" fill="#959595" d="M531.957,17.302c-1.487-0.691-3.172-0.992-5.053-1.094h-5.453
			c-1.885,0.101-3.565,0.4-5.058,1.094c-1.584,0.795-2.774,1.681-3.666,2.874c-0.896,1.187-1.389,2.575-1.389,4.063v15.359
			c0,1.484,0.493,2.775,1.389,3.967c0.892,1.188,2.082,2.179,3.666,2.874c1.49,0.691,3.173,1.089,5.058,1.089h5.453
			c1.881,0,3.563-0.396,5.053-1.089c1.584-0.694,2.772-1.686,3.666-2.874c0.895-1.191,1.388-2.577,1.388-3.967v-15.36
			c-0.097-1.487-0.493-2.877-1.388-4.063C534.73,18.981,533.541,18.094,531.957,17.302z M529.578,21.958
			c0.892,0.694,1.388,1.484,1.388,2.382V39.4c0,0.892-0.496,1.686-1.388,2.379c-0.793,0.597-1.787,0.994-2.873,0.994h-5.055
			c-1.095,0-2.084-0.396-2.978-0.994c-0.789-0.694-1.285-1.487-1.285-2.379V24.34c0-0.896,0.496-1.688,1.285-2.382
			c0.894-0.596,1.883-0.893,2.978-0.992h5.055C527.793,21.067,528.785,21.363,529.578,21.958"/>
		<path id="path23515" fill="#959595" d="M169.301,16.21h-6.163v20.003L152.634,16.21h-8.385v31.317h6.163V23.083l12.828,24.444
			h6.061V16.21"/>
		<path id="path23515_1_" fill="#959595" d="M269.711,16.21h-6.163v20.003L253.043,16.21h-8.385v31.317h6.162V23.083l12.828,24.444
			h6.063V16.21"/>
		<path id="path23515_2_" fill="#959595" d="M428.299,16.21h-6.162v20.003L411.633,16.21h-8.388v31.317h6.163V23.083l12.828,24.444
			h6.063V16.21"/>
		<path id="path23517" fill="#959595" d="M210.526,47.527V16.21h-7.069v31.317H210.526L210.526,47.527"/>
		<path id="path23521" fill="#959595" d="M296.922,16.21v4.949h10.4v26.369h6.671v-26.37h10.504v-4.949H296.92l0,0"/>
	</g>
	<g>
		<path id="path23505" fill="#959595" d="M543.92,69.03v-8.463h-42.718v40.229h43.113v-9.062h-31.854v-7.57h18.315v-8.457h-18.315
			V69.03H543.92L543.92,69.03"/>
		<path id="path23507" fill="#959595" d="M496.373,68.755c0.097-2.783-0.696-4.977-2.394-6.272c-1.596-1.396-4.079-2.09-7.467-2.09
			h-35.147v40.323h32.657c8.563-0.099,12.744-2.887,12.744-8.562v-4.883c0-3.382-1.492-5.87-4.582-7.264
			c2.789-1.298,4.188-3.485,4.188-6.574L496.373,68.755L496.373,68.755z M485.52,68.955c0.398,0.399,0.603,0.8,0.496,1.396v3.685
			c0.104,0.495-0.098,0.995-0.496,1.293l-2.795,0.495h-20.106v-7.266h20.106C484.227,68.558,485.221,68.757,485.52,68.955
			L485.52,68.955z M462.617,91.855v-7.867h20.211c1.496,0,2.394,0.201,2.89,0.5c0.401,0.401,0.597,0.998,0.597,1.993v2.886
			c0,0.897-0.191,1.594-0.597,1.891c-0.496,0.4-1.394,0.599-2.89,0.599L462.617,91.855"/>
		<path id="path23509" fill="#959595" d="M446.614,60.458h-11.25v31.167h-24.396V60.458h-11.247v30.271
			c-0.106,2.484,0.295,4.482,0.989,5.975c0.601,1.396,1.797,2.49,3.39,3.089c1.597,0.695,3.684,0.993,6.469,0.896h25.094
			c2.789,0.097,4.978-0.201,6.57-0.896c1.59-0.599,2.688-1.692,3.389-3.089c0.695-1.491,0.996-3.487,0.996-5.975V60.458"/>
		<path id="path23511" fill="#959595" d="M394.09,64.607c-0.705-1.489-1.896-2.488-3.389-3.188
			c-1.597-0.602-3.783-0.896-6.474-0.896h-24.59c-2.789,0-4.882,0.298-6.479,0.896c-1.592,0.697-2.786,1.696-3.383,3.188
			c-0.696,1.494-1.096,3.482-0.992,5.974v20.214c-0.104,2.484,0.296,4.48,0.992,5.973c0.597,1.396,1.791,2.489,3.383,3.093
			c1.598,0.692,3.688,0.991,6.479,0.893h24.592c2.688,0.1,4.877-0.197,6.473-0.893c1.492-0.604,2.685-1.697,3.388-3.093
			c0.598-1.489,0.996-3.485,0.996-5.973v-7.371l-11.257,0.105v8.162h-23.893V69.39h23.893v7.165h11.257V70.58
			C395.086,67.996,394.688,66.007,394.09,64.607"/>
		<path id="path23513" fill="#959595" d="M340.461,69.03v-8.463h-42.719v40.229h43.116v-9.062h-31.861v-7.57h18.32v-8.457h-18.32
			V69.03H340.461L340.461,69.03"/>
		<path id="path23523" fill="#959595" d="M282.411,60.458l-17.127,28.48l-17.025-28.48h-10.254v33.159l-20.017-33.159h-10.056
			l-23.994,40.229h30.068v-9.063h-13.442l12.447-20.013l16.828,29.072h18.519V79.179l12.843,21.505h8.266l12.942-21.505v21.505
			h10.354V60.457h-10.354l0,0"/>
		<path id="path23525" fill="#959595" d="M184.83,69.307v-8.771h-37.938c-2.685,0-4.879,0.3-6.474,0.899
			c-1.59,0.694-2.687,1.696-3.381,3.187c-0.7,1.493-0.998,3.483-0.998,5.977v20.21c0,2.484,0.298,4.481,0.998,5.975
			c0.695,1.396,1.792,2.49,3.381,3.091c1.594,0.692,3.789,0.991,6.474,0.896h27.584c3.979,0.097,6.769-0.601,8.458-2.091
			c1.595-1.597,2.392-4.185,2.294-7.868V76.57H159.14v8.47h15.135v6.667H147.29V69.307H184.83"/>
	</g>
	<g>
		<path id="path23527" fill="#959595" d="M566.93,91.979h-1.692l-2.041,6.45c-0.334,0.513-0.511,1.022-0.511,1.36
			c-0.172-0.338-0.346-0.682-0.512-1.188l-2.211-6.626h-1.699v9.17h1.026v-7.813l2.718,7.813h1.012l2.722-7.644v7.644h1.188V91.979"
			/>
		<path id="path23529" fill="#959595" d="M554.016,93.167h2.894v-1.188h-7.14v1.188h3.063v7.982h1.188v-7.982"/>
	</g>
</g>
</svg>
