<?xml version="1.0" encoding="utf-8"?>
<!-- Generator: Adobe Illustrator 16.0.0, SVG Export Plug-In . SVG Version: 6.00 Build 0)  -->
<!DOCTYPE svg PUBLIC "-//W3C//DTD SVG 1.1//EN" "http://www.w3.org/Graphics/SVG/1.1/DTD/svg11.dtd">
<svg version="1.1" id="Ebene_1" xmlns="http://www.w3.org/2000/svg" xmlns:xlink="http://www.w3.org/1999/xlink" x="0px" y="0px"
	 width="566.929px" height="150.848px" viewBox="0 0 566.929 150.848" enable-background="new 0 0 566.929 150.848"
	 xml:space="preserve">
<g>
	<g>
		<path fill="#181818" d="M108.977,76.016c7.915-9.25,19.667-15.118,32.795-15.118c2.633,0,5.21,0.25,7.712,0.698
			c1.688-4.616,2.609-9.604,2.609-14.806c0-23.831-19.325-43.15-43.156-43.15c-23.835,0-43.155,19.32-43.155,43.154
			c0,5.208,0.929,10.199,2.618,14.818c2.526-0.459,5.125-0.713,7.785-0.713C89.313,60.899,101.061,66.767,108.977,76.016z
			 M149.484,61.598c-5.181,14.18-17.586,24.87-32.755,27.64c1.687,4.621,2.61,9.613,2.61,14.813c0,10.711-3.906,20.494-10.36,28.035
			c7.914,9.253,19.664,15.123,32.792,15.123c23.834,0,43.156-19.32,43.156-43.158C184.927,82.853,169.636,65.235,149.484,61.598z
			 M101.227,89.248C86.025,86.502,73.593,75.801,68.4,61.614C48.285,65.278,33.03,82.878,33.03,104.051
			c0,23.838,19.322,43.158,43.154,43.158c13.128,0,24.879-5.87,32.794-15.12c-6.453-7.544-10.359-17.327-10.359-28.033
			C98.619,98.852,99.541,93.864,101.227,89.248z M101.227,89.248c2.504,0.453,5.077,0.695,7.71,0.695
			c2.662,0,5.264-0.248,7.792-0.706c-1.785-4.888-4.435-9.345-7.751-13.224C105.659,79.893,103.011,84.363,101.227,89.248z"/>
	</g>
</g>
<g>
	<path d="M290.597-164.969c0,8.903-3.023,15.729-9.071,20.476c-6.048,4.746-14.615,7.119-25.703,7.119h-14.237v38.05h-6.426v-92.104
		h22.553C279.637-191.428,290.597-182.609,290.597-164.969z M241.586-142.92h12.663c10.373,0,17.87-1.711,22.49-5.135
		c4.619-3.423,6.929-8.979,6.929-16.663c0-7.097-2.184-12.357-6.551-15.781c-4.369-3.422-11.13-5.134-20.286-5.134h-15.245V-142.92
		L241.586-142.92z"/>
	<path d="M388.056-145.503c0,14.616-3.652,26.177-10.963,34.681c-7.309,8.509-17.387,12.761-30.236,12.761
		c-12.813,0-22.869-4.252-30.178-12.761c-7.309-8.504-10.961-20.104-10.961-34.807c0-14.656,3.686-26.196,11.056-34.618
		c7.372-8.42,17.44-12.631,30.208-12.631c12.854,0,22.91,4.232,30.178,12.694C384.423-171.719,388.056-160.16,388.056-145.503z
		 M312.71-145.503c0,13.188,2.939,23.381,8.82,30.587c5.879,7.202,14.322,10.806,25.326,10.806c11.088,0,19.561-3.567,25.42-10.712
		c5.854-7.14,8.787-17.362,8.787-30.681c0-13.271-2.934-23.444-8.787-30.521c-5.859-7.077-14.291-10.615-25.295-10.615
		c-10.961,0-19.414,3.569-25.355,10.71C315.682-168.791,312.71-158.646,312.71-145.503z"/>
	<path d="M415.65-139.455v40.13h-6.428v-92.104h21.924c11.426,0,19.867,2.11,25.33,6.331c5.459,4.221,8.188,10.574,8.188,19.057
		c0,6.175-1.627,11.383-4.881,15.624c-3.256,4.243-8.195,7.288-14.836,9.137l25.01,41.956h-7.684l-23.756-40.131H415.65
		L415.65-139.455z M415.65-144.999h17.576c7.77,0,13.797-1.729,18.082-5.195c4.283-3.467,6.428-8.577,6.428-15.342
		c0-7.014-2.104-12.114-6.299-15.309c-4.201-3.19-11.051-4.788-20.543-4.788H415.65V-144.999z"/>
	<path d="M509.896-99.325h-6.488v-86.056h-29.926v-6.048h66.338v6.048h-29.924V-99.325L509.896-99.325z"/>
	<path d="M604.332-123.076c0,7.688-2.826,13.777-8.477,18.271c-5.648,4.493-13.154,6.74-22.521,6.74
		c-11.256,0-19.887-1.24-25.893-3.721v-6.426c6.637,2.814,15.098,4.223,25.387,4.223c7.563,0,13.557-1.731,17.988-5.194
		c4.43-3.467,6.645-8.015,6.645-13.644c0-3.481-0.734-6.372-2.209-8.661c-1.467-2.286-3.859-4.378-7.178-6.269
		c-3.32-1.891-8.188-3.929-14.617-6.111c-9.406-3.23-15.904-6.729-19.498-10.485c-3.592-3.759-5.387-8.771-5.387-15.026
		c0-6.887,2.697-12.504,8.098-16.851c5.396-4.35,12.334-6.521,20.818-6.521c8.652,0,16.777,1.64,24.381,4.913l-2.332,5.544
		c-7.645-3.189-14.951-4.788-21.922-4.788c-6.803,0-12.221,1.576-16.252,4.729c-4.035,3.147-6.049,7.434-6.049,12.852
		c0,3.401,0.617,6.195,1.854,8.379c1.238,2.187,3.27,4.147,6.078,5.893c2.814,1.74,7.646,3.832,14.49,6.269
		c7.182,2.479,12.578,4.881,16.191,7.213c3.604,2.33,6.242,4.979,7.9,7.938C603.5-130.854,604.332-127.275,604.332-123.076z"/>
</g>
<g>
	<path d="M-174.206-154.417c0,4.555-0.674,8.486-2.018,11.798c-1.346,3.313-3.027,5.874-5.045,7.684
		c-2.018,1.812-4.684,3.235-7.994,4.269c-3.313,1.033-6.418,1.681-9.314,1.94c-2.898,0.257-6.418,0.389-10.556,0.389
		c-4.14,0-8.176-0.52-12.108-1.553c-3.934-1.033-6.418-2.639-7.451-4.813v37.101h-13.971v-107.419h13.815v8.072h0.155
		c1.138-6.416,9.675-9.625,25.613-9.625c10.037,0,17.359,2.096,21.965,6.287c4.604,4.191,6.908,9.185,6.908,14.979V-154.417z
		 M-188.487-152.71v-27.63c0-6.932-1.501-11.356-4.501-13.272c-3.003-1.914-8.332-2.872-15.989-2.872
		c-7.66,0-12.86,0.931-15.601,2.794c-2.743,1.863-4.114,6.313-4.114,13.35v27.63c0,6.314,1.421,10.377,4.269,12.187
		c2.845,1.812,8.045,2.716,15.601,2.716c7.657,0,12.962-0.904,15.911-2.716C-189.962-142.333-188.487-146.395-188.487-152.71z"/>
	<path d="M-86.346-179.719v26.079c0,4.656-0.57,8.591-1.708,11.797c-1.14,3.209-2.588,5.693-4.347,7.451
		c-1.761,1.761-4.269,3.104-7.528,4.036s-6.364,1.499-9.313,1.708c-2.949,0.206-6.857,0.311-11.72,0.311
		c-6.21,0-11.049-0.209-14.515-0.621c-3.469-0.415-6.935-1.422-10.4-3.027c-3.468-1.604-5.952-4.164-7.451-7.684
		c-1.501-3.518-2.25-8.174-2.25-13.971v-26.079c0-4.967,0.594-9.159,1.785-12.574c1.188-3.415,2.639-6.054,4.346-7.917
		s4.216-3.284,7.528-4.269c3.312-0.982,6.39-1.577,9.236-1.785c2.846-0.206,6.753-0.311,11.721-0.311
		c4.967,0,8.872,0.104,11.72,0.311c2.845,0.208,5.923,0.803,9.236,1.785c3.311,0.985,5.82,2.406,7.528,4.269
		c1.707,1.863,3.155,4.501,4.347,7.917C-86.943-188.878-86.346-184.687-86.346-179.719z M-100.627-151.623v-30.425
		c0-6.932-1.397-11.228-4.191-12.884c-2.794-1.654-8.177-2.484-16.144-2.484c-7.971,0-13.351,0.83-16.145,2.484
		c-2.794,1.657-4.191,5.952-4.191,12.884v30.425c0,3.313,0.361,5.952,1.087,7.917c0.723,1.967,2.069,3.391,4.036,4.269
		c1.965,0.881,3.982,1.424,6.054,1.63c2.069,0.209,5.123,0.311,9.159,0.311c4.035,0,7.087-0.102,9.158-0.311
		c2.069-0.206,4.087-0.749,6.054-1.63c1.965-0.878,3.311-2.302,4.036-4.269C-100.992-145.671-100.627-148.309-100.627-151.623z"/>
	<path d="M-24.1-194.621h-7.762c-6.418,0-11.152,0.83-14.203,2.483c-3.054,1.657-4.579,4.761-4.579,9.314v52.934h-13.971v-75.131
		h13.194v12.263c0-3.622,2.251-6.83,6.752-9.625c4.502-2.794,9.081-4.191,13.738-4.191h6.83V-194.621z"/>
	<path d="M37.06-129.58c-4.967,0.827-10.194,1.242-15.678,1.242c-9.419,0-15.989-1.63-19.715-4.891
		c-3.726-3.26-5.588-9.442-5.588-18.55v-44.085h-16.765v-9.158H-3.92v-23.285h14.126v23.285H37.06v9.158H10.206v44.862
		c0,5.382,1.033,8.979,3.104,10.788c2.069,1.813,6.26,2.717,12.573,2.717c1.654,0,5.38-0.412,11.177-1.241V-129.58z"/>
	<path d="M108-156.28v6.521c0,8.071-2.821,13.66-8.46,16.765c-5.642,3.104-13.738,4.657-24.294,4.657
		c-8.072,0-16.663-0.621-25.769-1.863v-10.711c12.419,1.967,21.111,2.949,26.079,2.949c6.209,0,10.866-0.594,13.971-1.785
		c3.104-1.188,4.657-3.647,4.657-7.373v-7.606c0-3.206-1.087-5.484-3.26-6.83c-2.174-1.344-5.693-2.018-10.556-2.018h-8.538
		c-7.866,0-13.815-1.63-17.852-4.891c-4.036-3.259-6.054-7.734-6.054-13.427v-6.985c0-11.797,11.177-17.696,33.529-17.696
		c2.484,0,10.09,0.415,22.819,1.242v10.09c-8.901-1.448-16.714-2.173-23.44-2.173c-7.45,0-12.495,0.726-15.135,2.173
		c-2.639,1.451-3.958,3.881-3.958,7.296v6.364c0,5.072,4.604,7.606,13.815,7.606h8.693C100.083-173.976,108-168.077,108-156.28z"/>
</g>
<g>
	<path fill="#181818" d="M276.419,83.825c0,4.262-0.631,7.941-1.891,11.04c-1.258,3.102-2.832,5.496-4.72,7.191
		s-4.383,3.027-7.481,3.993c-3.101,0.968-6.006,1.573-8.716,1.815c-2.714,0.242-6.004,0.365-9.879,0.365
		c-3.875,0-7.651-0.486-11.331-1.45c-3.681-0.969-6.005-2.473-6.973-4.507v34.721h-13.074V36.467h12.929v7.553h0.146
		c1.066-6.003,9.054-9.007,23.971-9.007c9.392,0,16.245,1.962,20.557,5.885c4.308,3.922,6.464,8.596,6.464,14.018V83.825z
		 M263.054,85.422V59.564c0-6.486-1.405-10.626-4.212-12.42c-2.81-1.791-7.797-2.688-14.962-2.688
		c-7.169,0-12.035,0.872-14.602,2.615c-2.566,1.744-3.849,5.908-3.849,12.493v25.858c0,5.911,1.332,9.712,3.998,11.405
		c2.661,1.695,7.528,2.542,14.598,2.542c7.167,0,12.13-0.847,14.891-2.542C261.674,95.134,263.054,91.333,263.054,85.422z"/>
	<path fill="#181818" d="M348.613,60.146V84.55c0,4.359-0.534,8.041-1.598,11.043c-1.066,3.001-2.422,5.326-4.068,6.972
		c-1.648,1.648-3.993,2.904-7.043,3.777c-3.052,0.872-5.959,1.402-8.718,1.6c-2.761,0.191-6.416,0.289-10.969,0.289
		c-5.811,0-10.338-0.197-13.581-0.582c-3.248-0.389-6.491-1.33-9.734-2.831c-3.246-1.503-5.571-3.898-6.973-7.193
		c-1.405-3.29-2.107-7.647-2.107-13.074V60.146c0-4.649,0.557-8.571,1.672-11.768c1.112-3.196,2.469-5.665,4.065-7.409
		c1.6-1.744,3.947-3.073,7.046-3.995c3.099-0.919,5.981-1.475,8.644-1.671c2.664-0.192,6.319-0.291,10.969-0.291
		s8.305,0.099,10.969,0.291c2.662,0.196,5.543,0.751,8.645,1.671c3.098,0.922,5.447,2.251,7.043,3.995
		c1.6,1.744,2.955,4.212,4.069,7.409C348.054,51.575,348.613,55.497,348.613,60.146z M335.249,86.438V57.967
		c0-6.487-1.308-10.507-3.923-12.057c-2.613-1.549-7.651-2.325-15.108-2.325c-7.46,0-12.492,0.776-15.108,2.325
		c-2.613,1.55-3.922,5.57-3.922,12.057v28.471c0,3.104,0.337,5.574,1.018,7.411c0.674,1.841,1.936,3.173,3.775,3.995
		c1.839,0.824,3.728,1.334,5.666,1.525c1.937,0.194,4.795,0.289,8.571,0.289c3.777,0,6.633-0.095,8.57-0.289
		c1.938-0.191,3.824-0.701,5.667-1.525c1.84-0.822,3.098-2.154,3.778-3.995C334.906,92.012,335.249,89.542,335.249,86.438z"/>
	<path fill="#181818" d="M393.974,46.199h-7.265c-6.008,0-10.437,0.776-13.294,2.325c-2.856,1.55-4.284,4.455-4.284,8.716v49.54
		h-13.075V36.467h12.348v11.477c0-3.39,2.107-6.392,6.321-9.007c4.211-2.615,8.498-3.923,12.854-3.923h6.395V46.199z"/>
	<path fill="#181818" d="M451.209,107.069c-4.647,0.773-9.538,1.162-14.673,1.162c-8.814,0-14.962-1.526-18.451-4.576
		c-3.484-3.051-5.227-8.837-5.227-17.359V45.037h-15.689v-8.57h15.689V14.676h13.218v21.791h25.133v8.57h-25.133v41.983
		c0,5.035,0.969,8.403,2.907,10.095c1.937,1.698,5.856,2.543,11.767,2.543c1.547,0,5.034-0.385,10.459-1.161V107.069z"/>
	<path fill="#181818" d="M514.734,82.081v6.103c0,7.552-2.642,12.783-7.919,15.689c-5.28,2.907-12.854,4.357-22.735,4.357
		c-7.555,0-15.594-0.582-24.114-1.744V96.463c11.62,1.842,19.758,2.761,24.405,2.761c5.809,0,10.172-0.556,13.073-1.672
		c2.907-1.111,4.359-3.412,4.359-6.899v-7.118c0-2.999-1.019-5.13-3.05-6.393c-2.034-1.256-5.328-1.887-9.881-1.887h-7.988
		c-7.365,0-12.931-1.525-16.708-4.578c-3.777-3.05-5.666-7.239-5.666-12.565v-6.537c0-11.041,10.462-16.562,31.381-16.562
		c2.323,0,9.441,0.389,21.355,1.162v9.443c-8.333-1.354-15.645-2.034-21.938-2.034c-6.973,0-11.693,0.679-14.164,2.034
		c-2.468,1.357-3.704,3.632-3.704,6.827v5.957c0,4.747,4.306,7.119,12.93,7.119h8.137C507.324,65.521,514.734,71.041,514.734,82.081
		z"/>
</g>
</svg>
