<?xml version="1.0" encoding="utf-8"?>
<!-- Generator: Adobe Illustrator 16.0.0, SVG Export Plug-In . SVG Version: 6.00 Build 0)  -->
<!DOCTYPE svg PUBLIC "-//W3C//DTD SVG 1.1//EN" "http://www.w3.org/Graphics/SVG/1.1/DTD/svg11.dtd">
<svg version="1.1" id="Ebene_1" xmlns="http://www.w3.org/2000/svg" xmlns:xlink="http://www.w3.org/1999/xlink" x="0px" y="0px"
	 width="566.929px" height="150.848px" viewBox="0 0 566.929 150.848" enable-background="new 0 0 566.929 150.848"
	 xml:space="preserve">
<g>
	<g>
		<path fill="#03A8E0" d="M108.977,76.016c7.915-9.25,19.667-15.118,32.795-15.118c2.633,0,5.21,0.25,7.712,0.698
			c1.688-4.616,2.609-9.604,2.609-14.806c0-23.831-19.325-43.15-43.156-43.15c-23.835,0-43.155,19.32-43.155,43.154
			c0,5.208,0.929,10.199,2.618,14.818c2.526-0.459,5.125-0.713,7.785-0.713C89.313,60.899,101.061,66.767,108.977,76.016z
			 M149.484,61.598c-5.181,14.18-17.586,24.87-32.755,27.64c1.687,4.621,2.61,9.613,2.61,14.813c0,10.711-3.906,20.494-10.36,28.035
			c7.914,9.253,19.664,15.123,32.792,15.123c23.834,0,43.156-19.32,43.156-43.158C184.927,82.853,169.636,65.235,149.484,61.598z
			 M101.227,89.248C86.025,86.502,73.593,75.801,68.4,61.614C48.285,65.278,33.03,82.878,33.03,104.051
			c0,23.838,19.322,43.158,43.154,43.158c13.128,0,24.879-5.87,32.794-15.12c-6.453-7.544-10.359-17.327-10.359-28.033
			C98.619,98.852,99.541,93.864,101.227,89.248z M101.227,89.248c2.504,0.453,5.077,0.695,7.71,0.695
			c2.662,0,5.264-0.248,7.792-0.706c-1.785-4.888-4.435-9.345-7.751-13.224C105.659,79.893,103.011,84.363,101.227,89.248z"/>
	</g>
</g>
<g>
	<path fill="#03A8E0" d="M276.419,83.825c0,4.262-0.631,7.941-1.891,11.04c-1.258,3.102-2.832,5.496-4.72,7.191
		s-4.383,3.027-7.481,3.993c-3.101,0.968-6.006,1.573-8.716,1.815c-2.714,0.242-6.004,0.365-9.879,0.365
		c-3.875,0-7.651-0.486-11.331-1.45c-3.681-0.969-6.005-2.473-6.973-4.507v34.721h-13.074V36.467h12.929v7.553h0.146
		c1.066-6.003,9.054-9.007,23.971-9.007c9.392,0,16.245,1.962,20.557,5.885c4.308,3.922,6.464,8.596,6.464,14.018V83.825z
		 M263.054,85.422V59.564c0-6.486-1.405-10.626-4.212-12.42c-2.81-1.791-7.797-2.688-14.962-2.688
		c-7.169,0-12.035,0.872-14.602,2.615c-2.566,1.744-3.849,5.908-3.849,12.493v25.858c0,5.911,1.332,9.712,3.998,11.405
		c2.661,1.695,7.528,2.542,14.598,2.542c7.167,0,12.13-0.847,14.891-2.542C261.674,95.134,263.054,91.333,263.054,85.422z"/>
	<path fill="#03A8E0" d="M348.613,60.146V84.55c0,4.359-0.534,8.041-1.598,11.043c-1.066,3.001-2.422,5.326-4.068,6.972
		c-1.648,1.648-3.993,2.904-7.043,3.777c-3.052,0.872-5.959,1.402-8.718,1.6c-2.761,0.191-6.416,0.289-10.969,0.289
		c-5.811,0-10.338-0.197-13.581-0.582c-3.248-0.389-6.491-1.33-9.734-2.831c-3.246-1.503-5.571-3.898-6.973-7.193
		c-1.405-3.29-2.107-7.647-2.107-13.074V60.146c0-4.649,0.557-8.571,1.672-11.768c1.112-3.196,2.469-5.665,4.065-7.409
		c1.6-1.744,3.947-3.073,7.046-3.995c3.099-0.919,5.981-1.475,8.644-1.671c2.664-0.192,6.319-0.291,10.969-0.291
		s8.305,0.099,10.969,0.291c2.662,0.196,5.543,0.751,8.645,1.671c3.098,0.922,5.447,2.251,7.043,3.995
		c1.6,1.744,2.955,4.212,4.069,7.409C348.054,51.575,348.613,55.497,348.613,60.146z M335.249,86.438V57.967
		c0-6.487-1.308-10.507-3.923-12.057c-2.613-1.549-7.651-2.325-15.108-2.325c-7.46,0-12.492,0.776-15.108,2.325
		c-2.613,1.55-3.922,5.57-3.922,12.057v28.471c0,3.104,0.337,5.574,1.018,7.411c0.674,1.841,1.936,3.173,3.775,3.995
		c1.839,0.824,3.728,1.334,5.666,1.525c1.937,0.194,4.795,0.289,8.571,0.289c3.777,0,6.633-0.095,8.57-0.289
		c1.938-0.191,3.824-0.701,5.667-1.525c1.84-0.822,3.098-2.154,3.778-3.995C334.906,92.012,335.249,89.542,335.249,86.438z"/>
	<path fill="#03A8E0" d="M393.974,46.199h-7.265c-6.008,0-10.437,0.776-13.294,2.325c-2.856,1.55-4.284,4.455-4.284,8.716v49.54
		h-13.075V36.467h12.348v11.477c0-3.39,2.107-6.392,6.321-9.007c4.211-2.615,8.498-3.923,12.854-3.923h6.395V46.199z"/>
	<path fill="#03A8E0" d="M451.209,107.069c-4.647,0.773-9.538,1.162-14.673,1.162c-8.814,0-14.962-1.526-18.451-4.576
		c-3.484-3.051-5.227-8.837-5.227-17.359V45.037h-15.689v-8.57h15.689V14.676h13.218v21.791h25.133v8.57h-25.133v41.983
		c0,5.035,0.969,8.403,2.907,10.095c1.937,1.698,5.856,2.543,11.767,2.543c1.547,0,5.034-0.385,10.459-1.161V107.069z"/>
	<path fill="#03A8E0" d="M514.734,82.081v6.103c0,7.552-2.642,12.783-7.919,15.689c-5.28,2.907-12.854,4.357-22.735,4.357
		c-7.555,0-15.594-0.582-24.114-1.744V96.463c11.62,1.842,19.758,2.761,24.405,2.761c5.809,0,10.172-0.556,13.073-1.672
		c2.907-1.111,4.359-3.412,4.359-6.899v-7.118c0-2.999-1.019-5.13-3.05-6.393c-2.034-1.256-5.328-1.887-9.881-1.887h-7.988
		c-7.365,0-12.931-1.525-16.708-4.578c-3.777-3.05-5.666-7.239-5.666-12.565v-6.537c0-11.041,10.462-16.562,31.381-16.562
		c2.323,0,9.441,0.389,21.355,1.162v9.443c-8.333-1.354-15.645-2.034-21.938-2.034c-6.973,0-11.693,0.679-14.164,2.034
		c-2.468,1.357-3.704,3.632-3.704,6.827v5.957c0,4.747,4.306,7.119,12.93,7.119h8.137C507.324,65.521,514.734,71.041,514.734,82.081
		z"/>
</g>
</svg>
