<?xml version="1.0" encoding="utf-8"?>
<!-- Generator: Adobe Illustrator 16.0.0, SVG Export Plug-In . SVG Version: 6.00 Build 0)  -->
<!DOCTYPE svg PUBLIC "-//W3C//DTD SVG 1.1//EN" "http://www.w3.org/Graphics/SVG/1.1/DTD/svg11.dtd">
<svg version="1.1" id="Layer_1" xmlns="http://www.w3.org/2000/svg" xmlns:xlink="http://www.w3.org/1999/xlink" x="0px" y="0px"
	 width="566.93px" height="414.158px" viewBox="0 0 566.93 414.158" enable-background="new 0 0 566.93 414.158"
	 xml:space="preserve">
<g>
	<polygon fill="#959595" points="553.498,406.019 550.594,406.019 550.594,405.015 557.51,405.015 557.51,406.019 554.631,406.019 
		554.631,413.829 553.498,413.829 	"/>
	<polygon fill="#959595" points="562.205,413.829 559.799,406.673 559.799,413.829 558.636,413.829 558.636,405.015 
		560.244,405.015 562.783,412.51 565.32,405.015 566.929,405.015 566.929,413.829 565.771,413.829 565.771,406.673 563.365,413.829 
			"/>
	<path fill="#959595" d="M2.628,330.308c0-3.063-0.582-7.026-1.934-8.693c8.86,0,28.003,0.059,36.209,0.059
		c18.88,0,47.363,10.479,47.363,45.807c0,26.222-20.107,45.754-47.363,45.754c-5.979,0-28.806-0.069-36.903-0.069
		c1.661-3.065,2.628-7.224,2.628-10.507V330.308L2.628,330.308z M16.206,404.258c8.714,1.13,16.758,1.479,24.037,0.438
		c7.042-1.008,30.704-6.103,30.558-37.521c-0.14-29.773-18.525-36.578-32.694-37.412c-7.394-0.437-14.53-0.156-21.899,1.119
		L16.206,404.258L16.206,404.258z"/>
	<path fill="#959595" d="M92.044,349.744l13.566-2.118c0,2.777,0,10.923,0,11.943c3.479-8.596,14.305-15.506,29.692-9.521
		l-3.607,9.443c-14.081-6.683-26.084-0.819-26.084,14.817v32.266c0,1.537,0.333,4.638,1.253,6.625H92.771
		c1.425-1.756,2.083-5.088,2.083-6.625v-46.543C94.853,356.657,94.166,351.433,92.044,349.744L92.044,349.744z"/>
	<path fill="#959595" d="M520.917,356.219c0,0.88,0,38.409,0,41.216c0,12.936,8.919,16.396,15.525,16.396
		c2.795,0.139,6.748-0.518,9.516-1.13l1.701-7.984c-3.225,1.229-6.969,1.521-9.213,1.521c-4.143,0-7.139-2.752-7.139-7.049
		c0-3.859-0.1-41.689,0-42.899h-0.047c0.553,0,9.146-0.03,10.012,0c2.818,0.101,4.982,0.271,6.844,1.021l0.013-7.521
		c0,0-16.502-0.021-16.822-0.021l0.065-19.289l-12.502,3.455c1.728,1.611,2.283,6.332,2.283,9.441c0,0-0.01,5.764-0.01,6.459
		c-0.563,0-6.906,0.03-7.959,0.03v6.354C514.299,356.217,520.917,356.219,520.917,356.219L520.917,356.219z"/>
	<path fill="#959595" d="M466.883,399.802c5.377,3.838,13.811,7.246,19.993,7.246c8.582,0,14.726-4.176,14.726-12.029
		c0-14.506-33.068-12.104-33.068-30.504c0-12.442,11.127-17.123,21.729-17.123c3.406,0,11.186,0.74,16.133,2.653l-0.041,8.497
		c-4.395-3.755-11.1-4.662-15.518-4.662c-7.019,0-12.283,3.48-12.283,10.309c0,10.021,33.039,9.442,33.039,30.016
		c0,13.304-11.527,19.508-24.213,19.508c-6.185,0-12.625-1.099-17.99-2.633L466.883,399.802L466.883,399.802z"/>
	<path fill="#959595" d="M267.287,356.349c0-0.752,0.03-7.49,0.03-8.354l-13.733,2.124c1.654,1.733,2.923,7.146,2.923,11.014v45.001
		c0,1.536-0.654,5.262-2.081,7.016H269.4c-1.424-1.754-2.081-5.479-2.081-7.016v-33.859c0-12.391,7.664-16.727,15.291-16.727
		c6.904,0,13.144,2.987,13.144,16.727v33.859c0,1.536-0.659,5.262-2.08,7.016h14.523c-1.429-1.754-2.082-5.479-2.082-7.016v-33.859
		c0-13.736,8.485-16.727,15.398-16.727c6.899,0,14.123,4.333,14.123,16.727v33.859c0,1.536-0.656,5.262-2.082,7.016h13.981
		c-1.43-1.754-2.082-5.479-2.082-7.016v-40.289c0-6.865-7.004-17.869-23.366-17.869c-9.521,0-15.017,4.234-19.188,7.879
		c-3.547-4.144-9.325-8.027-18.61-8.027C275.239,347.823,269.897,353.124,267.287,356.349L267.287,356.349z"/>
	<path fill="#959595" d="M234.902,377.461c-1.959,1.845-6.063,3.274-10.302,3.831c-11.13,1.46-20.772,3.309-20.772,14.15
		c0,6.432,7.008,11.496,12.564,11.496c14.712,0,18.513-10.612,18.513-18.977v-10.505L234.902,377.461L234.902,377.461z
		 M200.151,350.924c5.614-2.251,14.677-3.28,20.354-3.28c14.511,0,24.15,7.248,24.15,24.078v27.916
		c0,5.172,0.076,10.066,1.921,13.508h-11.663l-0.418-7.346c-4.419,5.7-9.692,8.254-18.651,8.254c-17.671,0-21.53-12.074-21.53-17.88
		c0-20.707,19.708-20.95,28.267-22.171c4.734-0.671,10.83-2.01,11.745-6.447c1.512-7.346-3.741-12.854-14.467-12.854
		c-7.871,0-14.321,2.396-19.707,5.617L200.151,350.924L200.151,350.924z M450.847,377.461c-1.957,1.845-6.064,3.274-10.306,3.831
		c-11.129,1.46-20.771,3.309-20.771,14.15c0,6.432,7.008,11.496,12.563,11.496c14.711,0,18.514-10.612,18.514-18.977
		L450.847,377.461L450.847,377.461z M416.096,350.924c5.614-2.251,14.679-3.28,20.357-3.28c14.507,0,24.146,7.248,24.146,24.078
		v27.916c0,5.172-1.129,9.963,1.916,13.508h-11.662l-0.42-7.346c-4.42,5.7-9.689,8.254-18.646,8.254
		c-17.666,0-21.528-12.074-21.528-17.88c0-20.707,19.709-20.95,28.268-22.171c4.736-0.671,10.834-2.01,11.744-6.447
		c1.512-7.346-3.738-12.854-14.467-12.854c-7.871,0-14.32,2.396-19.709,5.617L416.096,350.924L416.096,350.924z"/>
	<path fill="#959595" d="M403.681,359.483c-4.377-2.555-11.282-4.582-16.103-4.582c-16.909,0-24.661,10.402-24.661,25.383
		c0,14.844,7.573,26.205,24.116,26.205c5.67,0,13.392-2.545,19.379-6.227l-2.438,10.916c-6.097,1.813-11.233,2.678-18.037,2.678
		c-23.246,0-34.144-16.484-34.144-33.642c0-18.962,14.616-32.295,34.396-32.295c8.646,0,14.959,2.12,17.508,2.845L403.681,359.483
		L403.681,359.483z"/>
	<path fill="#959595" d="M143.455,381.079c0.008-1.566,0.216-3.063,0.395-4.507h44.978c0-15.466-7.729-28.729-26.052-28.729
		c-19.016,0-30.303,14.87-30.303,33.838c0,17.154,12.568,32.479,34.093,32.479c6.806,0,12.498-1.678,18.639-3.825l2.161-10.967
		c-5.254,4.325-13.747,6.886-21.409,6.886C152.178,406.252,143.392,396.276,143.455,381.079L143.455,381.079z M145.271,369.714
		c1.459-7.523,8.419-15.188,16.75-15.188c12.73,0,16.416,9.934,16.416,15.188C178.435,369.714,145.271,369.733,145.271,369.714
		L145.271,369.714z"/>
	<path fill="#CF3311" d="M323.961,4.065c12.495,1.876,25.265,6.241,31.92,8.278c13.411,4.099,35.184,16.841,42.873,22.951
		c3.638,2.892,11.284,10.458,14.247,14.269c2.882,3.711,8.396,11.75,11.91,16.704c5.599,8.174,12.187,20.35,17.775,31.555
		c6.244,12.518,6.674,16.145,8.563,26.611l4.127,18.448c0.388,3.19,0.71,14.894-6.159,16.531
		c-6.863,1.642-13.216-1.526-16.207-6.159c-4.142-6.407-3.568-15.506-8.254-25.919c-3.654-8.417-5.248-20.647-11.084-29.443
		l-4.574-7.736c-8.097-12.462-16.532-22.354-21.563-28.806c-4.437-5.42-12.709-12.79-20.556-18.033
		c-7.256-4.399-18.983-9.416-27.442-11.999c-2.692-0.877-14.229-4.271-21.401-5.225c-9.729-1.093-16.131-2.632-25.378-3.283
		c-11.416-0.807-16.89-1.821-31.696-0.091c-5.61,1.521-14.497,2.125-22.497,5.185c-6.459,2.635-15.444,6.89-24.246,12.061
		c-9.474,5.195-23.854,15.817-33.388,24.889c-9.611,10.269-14.416,15.779-21.045,28.798c-2.935,6.439-8.61,16.404-10.899,23.438
		c-1.563,7.142-4.546,20.46-4.043,26.928c0.226,11.589-0.787,13.977,0.083,23.447c0.031,8.528,2.831,14.439,3.996,21.415
		c0.997,4.821,5.619,21.496,8.479,25.367c13.003,28.017,30.455,40.147,49.904,48.897c5.48,2.793,22.637,7.383,27.599,8.696
		c8.462,1.526,19.599,2.545,30.317,2.754c11.276,0.222,26.821-1.308,36.25-4.778c10.211-3.754,22.017-9.09,21.877-8.941
		c4.738-2.609,11.967-6.872,14.219-8.746c4.354-2.788,6.977-3.863,9.55-6.553c3.725-3.253,5.973-5.127,8.791-9.161
		c1.567-2.271,4.063-5.753,6.483-8.827c2.611-4.275,4.112-8.784,6.662-14.361c3.047-8.25,2.574-7.854,3.153-16.616
		c0.548-2.539-0.061-11.072-0.518-12.521c-1.377-7.874-0.89-14.82-2.691-22.467c-2.436-10.343-4.457-18.085-7.563-28.008
		c-2.922-11.174-11.504-21.525-17.944-28.92c-3.988-4.582-16.37-15.407-33.548-22.168c-4.836-1.626-12.752-3.471-17.777-4.389
		c-10.731-1.122-12.479-0.401-22.753,0.351c-3.536,0.616-11.745,2.295-14.762,3.354c-8.827,3.101-12.071,5.069-21.095,10.597
		c-4.2,2.438-7.366,4.305-11.66,8.33c-3.427,3.171-5.875,8.562-8.649,11.723c-3.802,5.174-8.034,12.074-10.873,19.52
		c-3.079,7.402-4.071,17.826-3.603,24.533c0,5.112,1.39,14.471,1.943,16.518c0.55,2.05,1.933,8.403,2.231,9.68
		c0.302,1.273,3.605,7.996,4.062,8.97c1.862,3.967,5.431,9.665,11.44,15.484c4.435,4.842,13.009,9.596,19.426,11.438
		c5.755,3.16,15.461,3.694,20.831,3.705c2.643-0.155,9.393-0.571,12.914-1.418c7.144-1.716,8.463-1.76,15.824-4.958
		c6.605-3.063,11.089-4.167,15.688-7.564c0,0,6.318-4.948,9.189-8.57c1.514-1.91,4.11-11.02,3.647-16.66
		c-0.218-7.723,0.909-12.104-0.67-18.457c-1.574-6.354-4.266-13.718-7.182-18.256c-2.954-4.596-9.306-9.075-16.531-12.641
		c-4.049-1.999-13.638-3.853-17.704-4.333c-7.729-0.918-14.19,2.59-18.114,6.601c-3.402,3.89-10.129,11.968-7.45,20.321
		c2.425,7.558,5.353,15.61,16.688,15.012c7.777,1.619,16.776-0.729,19.771,0.649c4.447,2.523,6.158,8.103,4.541,11.991
		c-1.129,7.5-8.311,8.397-15.978,8.97c-6.859,1.147-24.279-2.208-28.107-5.077c-2.569-1.526-6.5-5.192-9.271-7.667
		c-1.991-1.781-4.245-5.753-5.784-8.605c-1.891-3.505-2.844-6.082-3.331-8.364c-0.578-2.712-1.767-7.89-1.316-13.064
		c0.305-3.49,1.238-4.977,2.169-10.08c1.854-5.788,4.155-10.191,7.858-15.212c4.825-4.896,10.953-10.728,16.935-13.435
		c5.274-2.787,14.516-3.813,22.875-3.323c6.781,0.646,14.804,1.475,20.109,3.253c9.076,3.244,11.672,3.891,19.123,8.591
		c6.297,3.896,12.633,11.065,16.168,17.004c7.521,15.391,11.836,32.512,8.696,55.558c-0.254,3.895-1.47,7.698-3.896,12.854
		c-2.241,4.758-6.172,10.544-12.069,14.903c-2.379,2.197-6.124,4.899-9.176,6.488c-4.324,2.625-7.237,3.99-11.755,6.264
		c-3.967,1.865-8.592,3.994-14.621,5.671c-6.534,2.583-11.546,2.688-19.766,3.915c-8.089,2.029-30.22,0.58-43.403-5.234
		c-9-3.785-19.096-10.449-26.771-18.583c-4.265-4.47-8.436-12.574-9.66-14.233c-6.104-11.734-7.3-22.771-8.279-25.09
		c-1.329-3.15-1.991-10.214-2.882-15.048c-1.005-5.418-0.383-28.14,5.088-42.723c3.084-5.807,4.889-10.98,6.977-13.701
		c3.751-5.336,5.564-8.67,8.754-12.452c4.809-5.832,8.31-10.591,12.995-13.945c11.936-9.706,21.906-14.827,35.394-21.232
		c16.758-6.825,21.791-5.413,37.651-5.161c7.136,0.063,17.521,2.307,22.624,3.236c9.479,1.263,14.909,3.546,21.32,5.335
		c6.854,1.915,10.819,4.969,16.446,8.369c4.631,2.991,10.078,7.087,13.679,10.413c9.209,6.753,13.651,13.851,19.295,22.567
		c1.024,1.461,7.727,15.745,8.794,19.724c0.495,1.991,2.015,7.709,2.982,11.05c1.254,5.302,1.859,9.996,3.256,15.978
		c1.25,6.162,3.375,17.799,4.3,28.675c1.552,9.327-0.935,28.37-2.396,34.213c-3.261,10.899-8.967,24.203-20.231,37.017
		c-4.782,5.673-9.871,10.07-15.748,14.842c-4.496,3.753-8.354,5.935-15.3,10.081c-9.434,5.628-16.608,9.223-29.83,14.393
		c-5.381,1.727-12.163,4-19.477,5.512c-14.162,1.311-28.713,2.564-44.597,0.676c-15.888-1.891-31.801-6.365-41.2-9.253
		c-5.188-1.946-15.235-6.158-19.449-8.428c-2.742-1.394-11.932-7.681-13.492-9.189c-6.298-3.896-20.392-17.151-29.492-29.507
		c-1.994-3.818-9.164-15.271-10.719-20.292c-4.134-8.489-7.016-18.757-8.708-23.143c-1.786-10.237-4.804-16.83-5.98-27.107
		c0.135-2.419-0.487-8.111-1.035-11.262c0.801-7.034-0.27-13.663,1.128-21.32c1.226-6.462,2.849-9.16,3.234-15.002
		c0.378-2.498,3.595-10.013,4.45-13.358c2.595-5.507,3.241-10.045,6.628-16.198c4.88-9.592,9.982-20.627,17.822-30.268
		c2.238-2.987,8.586-10.156,10.75-12.643c5.114-5.112,8.115-5.92,13.917-11.052c0.604-0.379,4.434-4.747,8.446-6.249
		c6.647-5.138,12.393-7.021,18.72-11.693c12.683-6.321,17.306-8.453,29.893-13.691c7.274-2.595,17.418-4.028,21.071-5.446
		c6.949-0.432,14.002-2.648,21.313-2.207c8.207-0.077,16.476,0.507,24.724,1.258C306.861,1.66,314.119,1.931,323.961,4.065
		L323.961,4.065z"/>
</g>
</svg>
