<?xml version="1.0" encoding="utf-8"?>
<!-- Generator: Adobe Illustrator 16.0.0, SVG Export Plug-In . SVG Version: 6.00 Build 0)  -->
<!DOCTYPE svg PUBLIC "-//W3C//DTD SVG 1.1//EN" "http://www.w3.org/Graphics/SVG/1.1/DTD/svg11.dtd">
<svg version="1.1" id="Layer_1" xmlns="http://www.w3.org/2000/svg" xmlns:xlink="http://www.w3.org/1999/xlink" x="0px" y="0px"
	 width="566.93px" height="94.787px" viewBox="0 0 566.93 94.787" enable-background="new 0 0 566.93 94.787" xml:space="preserve">
<g>
	<g>
		<polygon fill="#959595" points="556.359,78.931 554.073,78.931 554.073,78.142 559.518,78.142 559.518,78.931 557.252,78.931 
			557.252,85.077 556.359,85.077 		"/>
		<polygon fill="#959595" points="563.211,85.077 561.318,79.442 561.318,85.077 560.404,85.077 560.404,78.142 561.668,78.142 
			563.668,84.038 565.666,78.142 566.93,78.142 566.93,85.077 566.02,85.077 566.02,79.442 564.125,85.077 		"/>
		<path fill="#959595" d="M122.813,19.344c0-2.409-0.458-5.529-1.521-6.841c6.973,0,22.039,0.046,28.497,0.046
			c14.858,0,37.276,8.247,37.276,36.052c0,20.635-15.826,36.008-37.276,36.008c-4.705,0-22.67-0.057-29.044-0.057
			c1.306-2.412,2.068-5.686,2.068-8.27V19.344L122.813,19.344z M133.5,77.543c6.857,0.892,13.188,1.165,18.917,0.347
			c5.542-0.793,24.165-4.805,24.049-29.529c-0.109-23.43-14.581-28.788-25.731-29.442c-5.818-0.343-11.436-0.123-17.235,0.881
			L133.5,77.543L133.5,77.543z"/>
		<path fill="#959595" d="M193.187,34.642l10.676-1.667c0,2.186,0,8.596,0,9.4c2.738-6.767,11.26-12.205,23.366-7.493l-2.838,7.433
			c-11.082-5.26-20.528-0.646-20.528,11.661V79.37c0,1.209,0.265,3.648,0.985,5.213h-11.089c1.12-1.381,1.64-4.004,1.64-5.213V42.74
			C195.396,40.083,194.854,35.97,193.187,34.642L193.187,34.642z"/>
		<path fill="#959595" d="M530.719,39.738c0,0.693,0,30.229,0,32.434c0,10.183,7.019,12.905,12.219,12.905
			c2.197,0.107,5.313-0.406,7.488-0.889l1.338-6.285c-2.535,0.97-5.481,1.197-7.25,1.197c-3.26,0-5.617-2.164-5.617-5.55
			c0-3.036-0.077-32.809,0-33.761h-0.034c0.433,0,7.196-0.024,7.879,0c2.218,0.078,3.92,0.213,5.388,0.803l0.008-5.919
			c0,0-12.985-0.017-13.239-0.017l0.053-15.181l-9.838,2.719c1.356,1.269,1.797,4.982,1.797,7.431c0,0-0.008,4.536-0.008,5.083
			c-0.44,0-5.438,0.025-6.265,0.025v5.001C525.51,39.735,530.719,39.738,530.719,39.738L530.719,39.738z"/>
		<path fill="#959595" d="M488.193,74.036c4.229,3.021,10.867,5.703,15.733,5.703c6.752,0,11.588-3.285,11.588-9.469
			c0-11.414-26.022-9.522-26.022-24.004c0-9.792,8.756-13.476,17.101-13.476c2.683,0,8.805,0.582,12.696,2.088l-0.03,6.688
			c-3.459-2.955-8.736-3.669-12.213-3.669c-5.521,0-9.668,2.74-9.668,8.112c0,7.887,26.002,7.43,26.002,23.621
			c0,10.471-9.07,15.354-19.056,15.354c-4.864,0-9.938-0.861-14.16-2.07L488.193,74.036L488.193,74.036z"/>
		<path fill="#959595" d="M331.107,39.839c0-0.592,0.021-5.895,0.021-6.574l-10.811,1.671c1.304,1.365,2.304,5.623,2.304,8.667
			v35.414c0,1.209-0.519,4.144-1.642,5.521h11.785c-1.119-1.381-1.637-4.313-1.637-5.521V52.372c0-9.75,6.03-13.164,12.034-13.164
			c5.435,0,10.345,2.352,10.345,13.164v26.646c0,1.209-0.521,4.142-1.638,5.521h11.429c-1.123-1.381-1.638-4.313-1.638-5.521V52.372
			c0-10.811,6.679-13.164,12.123-13.164c5.431,0,11.111,3.411,11.111,13.164v26.646c0,1.209-0.515,4.142-1.642,5.521h11.009
			c-1.128-1.381-1.641-4.313-1.641-5.521V47.312c0-5.404-5.517-14.063-18.392-14.063c-7.491,0-11.817,3.333-15.102,6.2
			c-2.793-3.26-7.341-6.317-14.648-6.317C337.365,33.129,333.161,37.302,331.107,39.839L331.107,39.839z"/>
		<path fill="#959595" d="M305.62,56.453c-1.543,1.452-4.772,2.579-8.106,3.019c-8.762,1.147-16.352,2.604-16.352,11.137
			c0,5.063,5.52,9.048,9.891,9.048c11.578,0,14.569-8.353,14.569-14.935v-8.269H305.62L305.62,56.453z M278.269,35.57
			c4.419-1.771,11.549-2.583,16.021-2.583c11.42,0,19.008,5.705,19.008,18.95v21.973c0,4.068,0.062,7.924,1.513,10.631h-9.179
			l-0.332-5.78c-3.474,4.487-7.627,6.495-14.676,6.495c-13.91,0-16.946-9.503-16.946-14.068c0-16.297,15.512-16.486,22.249-17.447
			c3.728-0.526,8.521-1.58,9.244-5.074c1.188-5.78-2.942-10.114-11.385-10.114c-6.197,0-11.273,1.885-15.515,4.422L278.269,35.57
			L278.269,35.57z M475.572,56.453c-1.541,1.452-4.772,2.579-8.108,3.019c-8.761,1.147-16.349,2.604-16.349,11.137
			c0,5.063,5.517,9.048,9.888,9.048c11.575,0,14.569-8.353,14.569-14.935V56.453L475.572,56.453z M448.223,35.57
			c4.418-1.771,11.556-2.583,16.022-2.583c11.414,0,19.002,5.705,19.002,18.95v21.973c0,4.068-0.887,7.841,1.509,10.631h-9.177
			l-0.334-5.78c-3.477,4.487-7.625,6.495-14.674,6.495c-13.901,0-16.942-9.503-16.942-14.068c0-16.297,15.512-16.486,22.246-17.447
			c3.729-0.526,8.526-1.58,9.241-5.074c1.19-5.78-2.94-10.114-11.385-10.114c-6.195,0-11.271,1.885-15.513,4.422v-7.4L448.223,35.57
			L448.223,35.57z"/>
		<path fill="#959595" d="M438.45,42.308c-3.442-2.012-8.879-3.605-12.67-3.605c-13.312,0-19.412,8.185-19.412,19.976
			c0,11.68,5.966,20.625,18.984,20.625c4.461,0,10.534-2.006,15.25-4.902l-1.919,8.594c-4.799,1.428-8.842,2.107-14.194,2.107
			c-18.295,0-26.871-12.977-26.871-26.479c0-14.921,11.504-25.417,27.072-25.417c6.805,0,11.771,1.668,13.776,2.238L438.45,42.308
			L438.45,42.308z"/>
		<path fill="#959595" d="M233.646,59.304c0.008-1.234,0.172-2.41,0.311-3.55h35.4c0-12.169-6.087-22.608-20.505-22.608
			c-14.965,0-23.85,11.703-23.85,26.63c0,13.498,9.891,25.56,26.832,25.56c5.355,0,9.834-1.319,14.669-3.013l1.701-8.629
			c-4.136,3.404-10.817,5.418-16.85,5.418C240.514,79.112,233.599,71.263,233.646,59.304L233.646,59.304z M235.077,50.356
			c1.148-5.92,6.628-11.953,13.184-11.953c10.018,0,12.917,7.817,12.917,11.953C261.176,50.356,235.077,50.375,235.077,50.356
			L235.077,50.356z"/>
	</g>
	<path fill="#CF3311" d="M65.058,1.288c3.969,0.596,8.026,1.984,10.142,2.63c4.261,1.302,11.177,5.351,13.62,7.291
		c1.157,0.918,3.585,3.323,4.528,4.533c0.917,1.179,2.667,3.733,3.783,5.308c1.781,2.597,3.874,6.466,5.647,10.025
		c1.984,3.978,2.12,5.13,2.722,8.455l1.311,5.862c0.123,1.014,0.228,4.731-1.957,5.251c-2.181,0.521-4.199-0.483-5.149-1.955
		c-1.316-2.037-1.134-4.926-2.623-8.234c-1.161-2.674-1.666-6.561-3.521-9.355l-1.453-2.458c-2.572-3.96-5.253-7.103-6.851-9.153
		c-1.411-1.723-4.04-4.064-6.531-5.729c-2.306-1.398-6.032-2.993-8.719-3.813c-0.856-0.279-4.524-1.357-6.8-1.66
		c-3.094-0.347-5.126-0.836-8.063-1.043c-3.63-0.256-5.367-0.578-10.074-0.028c-1.782,0.484-4.604,0.676-7.146,1.647
		c-2.053,0.837-4.906,2.189-7.703,3.832c-3.012,1.651-7.578,5.026-10.609,7.907c-3.054,3.263-4.582,5.014-6.687,9.15
		c-0.931,2.046-2.736,5.213-3.464,7.447c-0.497,2.269-1.443,6.5-1.286,8.556c0.073,3.681-0.25,4.44,0.027,7.45
		c0.01,2.71,0.898,4.588,1.27,6.807c0.315,1.529,1.787,6.827,2.694,8.062c4.129,8.899,9.675,12.755,15.855,15.536
		c1.742,0.889,7.191,2.347,8.768,2.764c2.689,0.484,6.227,0.811,9.633,0.875c3.583,0.068,8.521-0.414,11.517-1.52
		c3.244-1.192,6.997-2.891,6.953-2.84c1.504-0.832,3.802-2.187,4.516-2.781c1.384-0.885,2.218-1.228,3.034-2.08
		c1.185-1.032,1.898-1.629,2.794-2.909c0.497-0.722,1.292-1.827,2.06-2.806c0.83-1.359,1.307-2.793,2.116-4.563
		c0.968-2.623,0.817-2.496,1.003-5.276c0.175-0.808-0.021-3.52-0.164-3.979c-0.438-2.502-0.283-4.709-0.856-7.14
		c-0.771-3.287-1.417-5.747-2.402-8.898c-0.929-3.549-3.655-6.838-5.701-9.188c-1.269-1.457-5.201-4.895-10.658-7.043
		c-1.538-0.517-4.05-1.103-5.647-1.395c-3.41-0.356-3.965-0.127-7.229,0.111c-1.124,0.196-3.731,0.729-4.692,1.066
		c-2.804,0.985-3.835,1.611-6.702,3.366c-1.334,0.775-2.34,1.368-3.705,2.646c-1.089,1.008-1.867,2.72-2.748,3.725
		c-1.209,1.645-2.554,3.836-3.455,6.201c-0.979,2.353-1.293,5.664-1.144,7.794c0,1.621,0.441,4.599,0.616,5.246
		c0.176,0.65,0.616,2.67,0.71,3.076c0.097,0.405,1.145,2.541,1.292,2.854c0.593,1.261,1.726,3.068,3.633,4.919
		c1.411,1.54,4.133,3.05,6.174,3.635c1.828,1.007,4.912,1.175,6.62,1.179c0.839-0.054,2.984-0.185,4.104-0.451
		c2.271-0.545,2.688-0.561,5.027-1.575c2.101-0.974,3.523-1.325,4.986-2.403c0,0,2.007-1.572,2.919-2.725
		c0.481-0.604,1.306-3.5,1.161-5.293c-0.069-2.452,0.289-3.844-0.214-5.862c-0.5-2.019-1.354-4.358-2.281-5.8
		c-0.938-1.46-2.956-2.882-5.251-4.017c-1.288-0.636-4.333-1.224-5.627-1.376c-2.453-0.292-4.506,0.823-5.753,2.097
		c-1.082,1.236-3.22,3.803-2.369,6.457c0.771,2.399,1.703,4.959,5.304,4.77c2.474,0.517,5.33-0.229,6.283,0.207
		c1.413,0.804,1.955,2.573,1.443,3.812c-0.359,2.383-2.644,2.668-5.076,2.852c-2.18,0.365-7.715-0.702-8.93-1.613
		c-0.816-0.483-2.067-1.647-2.946-2.435c-0.633-0.567-1.346-1.828-1.837-2.733c-0.599-1.115-0.903-1.934-1.058-2.658
		c-0.185-0.859-0.562-2.506-0.419-4.148c0.1-1.108,0.395-1.582,0.688-3.203c0.589-1.84,1.32-3.239,2.498-4.834
		c1.532-1.556,3.479-3.408,5.38-4.269c1.676-0.886,4.613-1.211,7.268-1.056c2.156,0.206,4.702,0.469,6.39,1.033
		c2.884,1.03,3.708,1.236,6.077,2.73c1.999,1.237,4.012,3.516,5.136,5.402c2.39,4.891,3.76,10.328,2.764,17.653
		c-0.081,1.235-0.466,2.442-1.236,4.084c-0.715,1.511-1.961,3.351-3.839,4.731c-0.754,0.699-1.945,1.562-2.915,2.063
		c-1.375,0.834-2.299,1.269-3.732,1.989c-1.26,0.594-2.73,1.27-4.646,1.802c-2.075,0.821-3.67,0.854-6.28,1.243
		c-2.568,0.646-9.603,0.188-13.792-1.662c-2.857-1.203-6.064-3.321-8.506-5.904c-1.354-1.422-2.681-3.996-3.068-4.523
		c-1.94-3.729-2.319-7.232-2.631-7.973c-0.422-1-0.631-3.244-0.916-4.779c-0.319-1.724-0.122-8.94,1.617-13.572
		c0.98-1.845,1.555-3.49,2.217-4.353c1.192-1.696,1.769-2.755,2.781-3.957c1.528-1.852,2.641-3.364,4.128-4.431
		c3.793-3.083,6.959-4.711,11.244-6.746c5.324-2.168,6.924-1.72,11.965-1.639c2.267,0.021,5.565,0.733,7.188,1.027
		c3.012,0.401,4.738,1.127,6.773,1.695c2.178,0.608,3.436,1.58,5.226,2.659c1.47,0.949,3.202,2.251,4.345,3.308
		c2.928,2.146,4.337,4.401,6.131,7.171c0.327,0.464,2.455,5.002,2.795,6.266c0.157,0.633,0.638,2.449,0.948,3.511
		c0.396,1.685,0.591,3.176,1.036,5.078c0.396,1.957,1.072,5.651,1.364,9.106c0.495,2.966-0.296,9.017-0.76,10.871
		c-1.035,3.463-2.851,7.69-6.429,11.763c-1.519,1.804-3.135,3.198-5.003,4.717c-1.427,1.188-2.652,1.886-4.86,3.201
		c-2.996,1.789-5.276,2.932-9.478,4.573c-1.71,0.55-3.866,1.271-6.188,1.75C51,94.683,46.376,95.08,41.33,94.481
		c-5.047-0.603-10.103-2.023-13.089-2.939c-1.649-0.618-4.842-1.955-6.179-2.68c-0.872-0.44-3.793-2.438-4.288-2.918
		c-2-1.237-6.479-5.449-9.371-9.375c-0.633-1.217-2.91-4.854-3.405-6.448c-1.313-2.697-2.229-5.96-2.767-7.354
		c-0.567-3.254-1.527-5.348-1.901-8.61c0.042-0.769-0.154-2.577-0.33-3.578c0.254-2.235-0.086-4.339,0.357-6.773
		c0.391-2.053,0.904-2.91,1.028-4.766c0.121-0.794,1.141-3.182,1.415-4.245c0.826-1.75,1.03-3.191,2.107-5.147
		c1.549-3.048,3.172-6.554,5.661-9.617c0.713-0.95,2.729-3.229,3.416-4.017c1.625-1.625,2.578-1.881,4.422-3.51
		c0.189-0.12,1.408-1.508,2.685-1.985c2.111-1.632,3.937-2.23,5.948-3.715c4.028-2.008,5.497-2.686,9.497-4.351
		c2.313-0.825,5.533-1.28,6.693-1.73c2.209-0.137,4.451-0.841,6.773-0.702c2.606-0.024,5.233,0.162,7.854,0.4
		C59.625,0.522,61.931,0.608,65.058,1.288L65.058,1.288z"/>
</g>
</svg>
