<?xml version="1.0" encoding="utf-8"?>
<!-- Generator: Adobe Illustrator 16.0.0, SVG Export Plug-In . SVG Version: 6.00 Build 0)  -->
<!DOCTYPE svg PUBLIC "-//W3C//DTD SVG 1.1//EN" "http://www.w3.org/Graphics/SVG/1.1/DTD/svg11.dtd">
<svg version="1.1" id="Ebene_1" xmlns="http://www.w3.org/2000/svg" xmlns:xlink="http://www.w3.org/1999/xlink" x="0px" y="0px"
	 width="566.924px" height="121.752px" viewBox="0 0 566.924 121.752" enable-background="new 0 0 566.924 121.752"
	 xml:space="preserve">
<g>
	<path fill="#959595" d="M207.014,5.277c4.724-6.043,14.501-7.076,20.297-2.006c2.37,1.996,4.031,4.75,4.88,7.715
		c10.73,36.92,21.509,73.822,32.224,110.746c-6.332,0.006-12.667-0.012-18.999,0.006c-2.987-10.18-5.903-20.377-8.853-30.564
		c-12.246-0.023-24.484-0.006-36.729-0.012c-2.998,10.186-5.958,20.379-8.901,30.582c-6.298-0.021-12.596-0.006-18.895-0.012
		c10.193-35.221,20.399-70.438,30.643-105.646C203.898,12.404,204.358,8.287,207.014,5.277 M218.193,27.902
		c-4.489,15.295-8.889,30.619-13.354,45.921c8.899,0.044,17.796,0.017,26.691,0.017C227.078,58.527,222.647,43.215,218.193,27.902z"
		/>
	<path fill="#959595" d="M340.41,6.072c3.301-4.787,9.681-7.109,15.295-5.631c5.144,1.184,9.076,5.615,10.435,10.604
		c10.719,36.893,21.478,73.772,32.195,110.666c-6.343,0.05-12.681,0-19.021,0.024c-2.949-10.188-5.865-20.387-8.836-30.575
		c-12.226,0.006-24.447-0.021-36.67,0.01c-2.922,10.194-5.938,20.367-8.857,30.563c-6.293,0.006-12.58-0.006-18.873,0.006
		c10.188-35.414,20.496-70.797,30.769-106.187C337.922,12.357,338.339,8.834,340.41,6.072 M338.867,73.84
		c8.863,0.013,17.722,0.007,26.584,0.007c-4.409-15.347-8.891-30.67-13.284-46.015C347.74,43.17,343.274,58.494,338.867,73.84z"/>
	<path fill="#959595" d="M250.237,0.256c22.91,0,45.815,0,68.719,0c0,6.182,0,12.355,0,18.533
		c-8.438,0.006-16.865-0.01-25.296,0.006c0,34.313,0.006,68.627-0.005,102.938c-6.038,0-12.083,0-18.122,0
		c0-34.313-0.006-68.625,0.005-102.938c-8.437-0.016-16.866,0-25.302-0.006C250.237,12.611,250.232,6.438,250.237,0.256z"/>
	<path fill="#959595" d="M418.474,1.01c1.74-0.602,3.599-0.807,5.437-0.764c7.224,0.025,14.447,0.006,21.668,0.01
		c12.164,0.225,23.772,7.771,29.037,18.719c3.646,7.109,4.021,15.377,3.103,23.176c-0.636,8.164-4.06,16.328-10.334,21.741
		c-3.313,2.953-7.442,4.744-10.992,7.375c-1.948,1.481-2.047,4.364-1.039,6.428c9.586,14.8,19.552,29.367,29.339,44.039
		c-7.158,0.013-14.316-0.017-21.476,0.013c-9.369-14.074-18.644-28.22-27.976-42.313c-2.744-4.013-3.49-9.324-1.847-13.901
		c1.281-3.513,4.351-6.08,7.769-7.406c6.525-2.49,12.959-6.4,16.572-12.559c2.75-4.627,2.606-10.336,1.371-15.4
		c-1.451-6.574-7.855-11.746-14.625-11.52c-4.683,0.031-9.359-0.021-14.033,0.021c-2.117-0.049-4.106,1.791-4.08,3.934
		c-0.022,33.047,0.011,66.096-0.01,99.141c-6.089-0.013-12.169,0-18.257-0.007c-0.012-35.575,0.012-71.153-0.012-106.729
		C408.128,8.77,412.562,2.902,418.474,1.01z"/>
	<path fill="#959595" d="M494.261,0.256c6.401,0,12.804,0,19.211,0c-0.006,40.496,0.013,80.986-0.013,121.481
		c-6.396-0.019-12.797,0-19.198-0.006C494.261,81.235,494.261,40.746,494.261,0.256z"/>
	<path fill="#959595" d="M54.173,0.008c3.076-0.01,6.153,0,9.229-0.008c0.014,7.234,0,14.469,0.006,21.701
		c0.031,6.039-0.14,12.076-0.39,18.107c-0.412,8.711-0.957,17.439-2.399,26.05c-0.991,5.937-3.044,11.662-5.593,17.099
		c-4.155,8.76-10.686,16.172-18.026,22.405c-6.567,5.779-14.405,9.986-22.649,12.834c-4.664,1.604-9.463,2.845-14.35,3.533
		c0.005-6.065,0.005-12.138,0-18.203c5.883-0.883,11.538-2.971,16.791-5.729c6.232-3.295,11.844-7.729,16.565-12.952
		c4.877-5.396,8.765-11.642,11.714-18.272c3.475-7.625,5.333-15.861,6.598-24.109c1.584-10.482,2.244-21.088,2.489-31.684
		C54.192,7.188,54.162,3.596,54.173,0.008z"/>
	<path fill="#959595" d="M67.116,0.02c5.661-0.037,11.327-0.006,16.991-0.016c0.002,40.574,0.002,81.149,0,121.728
		c-5.649,0.013-11.303-0.026-16.953,0.021c-0.071-12.938-0.01-25.879-0.029-38.814C67.118,55.295,67.136,27.658,67.116,0.02z"/>
	<path fill="#959595" d="M87.888,0.004c3.06-0.002,6.118-0.008,9.176,0.002c-0.099,12.371,0.322,24.766,1.797,37.057
		c1.207,9.547,2.909,19.164,6.711,28.059c3.604,8.605,8.802,16.604,15.572,23.051c6.466,6.166,14.302,10.906,22.815,13.635
		c2.375,0.76,4.805,1.355,7.273,1.715c-0.003,6.064-0.006,12.129,0,18.191c-4.852-0.658-9.609-1.908-14.239-3.482
		c-5.515-1.918-10.848-4.4-15.745-7.588c-3.576-2.301-6.828-5.053-9.952-7.924c-5.149-4.748-9.758-10.146-13.219-16.256
		c-2.708-4.758-4.684-9.9-6.23-15.145c-1.418-5.271-2.022-10.717-2.573-16.135c-1.063-11.709-1.462-23.477-1.386-35.23
		C87.888,13.305,87.886,6.652,87.888,0.004z"/>
	<path fill="#959595" d="M54.173,0.008c-0.01,3.588,0.02,7.18-0.016,10.77c-0.245,10.596-0.904,21.201-2.489,31.684
		c-1.265,8.248-3.124,16.484-6.598,24.109c-2.949,6.635-6.837,12.879-11.714,18.272c-4.722,5.228-10.333,9.657-16.565,12.952
		c-5.253,2.764-10.908,4.85-16.791,5.73c0.005,6.065,0.005,12.138,0,18.203c4.887-0.688,9.686-1.929,14.35-3.533
		c8.244-2.848,16.082-7.055,22.649-12.834c7.341-6.233,13.871-13.646,18.026-22.405c2.547-5.437,4.602-11.162,5.593-17.099
		c1.442-8.61,1.988-17.339,2.399-26.05c0.25-6.031,0.421-12.068,0.39-18.107C63.402,14.469,63.415,7.234,63.402,0
		C60.325,0.008,57.249-0.002,54.173,0.008"/>
	<path fill="#959595" d="M67.116,0.02c0.02,27.641,0.002,55.275,0.01,82.917c0.02,12.938-0.042,25.879,0.029,38.815
		c5.65-0.051,11.303-0.013,16.953-0.021c0.002-40.574,0.002-81.15,0-121.729C78.444,0.014,72.778-0.018,67.116,0.02"/>
	<path fill="#959595" d="M87.888,0.004c-0.002,6.648,0,13.301,0,19.949c-0.076,11.754,0.322,23.521,1.386,35.23
		c0.551,5.418,1.155,10.863,2.573,16.134c1.547,5.244,3.522,10.388,6.23,15.146c3.46,6.108,8.069,11.509,13.219,16.257
		c3.124,2.87,6.376,5.622,9.952,7.922c4.897,3.188,10.23,5.672,15.745,7.59c4.63,1.574,9.388,2.824,14.239,3.481
		c-0.006-6.063-0.003-12.127,0-18.19c-2.47-0.358-4.898-0.955-7.273-1.715c-8.514-2.729-16.351-7.47-22.815-13.636
		c-6.771-6.446-11.967-14.444-15.572-23.051c-3.802-8.895-5.504-18.512-6.711-28.061c-1.475-12.289-1.896-24.684-1.797-37.055
		C94.007-0.004,90.948,0.002,87.888,0.004"/>
	<path fill="#959595" d="M535.438,109.703l7.134,2.161l-0.14-2.438c0-6.718,5.752-11.136,12.146-11.136
		c7.318,0,12.332,5.705,12.332,12.838c0,4.281-2.254,8.563-6.073,10.584l-3.037-3.225c2.944-1.057,5.153-4.6,5.153-7.682
		c0-4.693-3.864-8.375-8.514-8.375c-4.463,0-8.236,3.816-8.236,8.279c0,2.439,1.15,4.971,3.084,6.488v0.83l-17.809-5.338V98.797
		h3.956v10.906H535.438z"/>
	<path fill="#959595" d="M562.22,75.427h3.955v22.407l-18.638-15.187c-1.746-1.426-3.909-3.082-6.211-3.082
		c-3.636,0-6.625,3.222-6.625,6.81c0,3.545,2.854,6.442,6.351,6.674v4.324c-6.166-0.688-10.31-4.692-10.31-10.998
		c0-5.89,4.371-10.948,10.399-10.948c2.576,0,5.151,0.967,7.133,2.573l13.941,11.412V75.427H562.22z"/>
	<path fill="#959595" d="M530.744,56.471c0,9.936,8.147,18.018,18.162,18.018c9.937,0,18.019-8.082,18.019-18.018
		c0-10.225-7.944-18.234-18.091-18.234C538.689,38.237,530.744,46.246,530.744,56.471z M548.906,42.496
		c7.838,0,13.978,6.234,13.978,14.195c0,7.464-6.271,13.537-13.978,13.537c-7.787,0-14.123-6.071-14.123-13.537
		C534.783,48.6,540.855,42.496,548.906,42.496z"/>
	<path fill="#959595" d="M530.744,18.234c0,9.936,8.147,18.018,18.162,18.018c9.937,0,18.019-8.082,18.019-18.018
		C566.925,8.01,558.979,0,548.835,0C538.691,0,530.744,8.01,530.744,18.234z M548.906,4.26c7.838,0,13.978,6.234,13.978,14.195
		c0,7.465-6.271,13.539-13.978,13.539c-7.787,0-14.123-6.074-14.123-13.539C534.783,10.361,540.855,4.26,548.906,4.26z"/>
</g>
</svg>
