<?xml version="1.0" encoding="utf-8"?>
<!-- Generator: Adobe Illustrator 16.0.0, SVG Export Plug-In . SVG Version: 6.00 Build 0)  -->
<!DOCTYPE svg PUBLIC "-//W3C//DTD SVG 1.1//EN" "http://www.w3.org/Graphics/SVG/1.1/DTD/svg11.dtd">
<svg version="1.1" id="Ebene_1" xmlns="http://www.w3.org/2000/svg" xmlns:xlink="http://www.w3.org/1999/xlink" x="0px" y="0px"
	 width="566.93px" height="86.813px" viewBox="0 0 566.93 86.813" enable-background="new 0 0 566.93 86.813" xml:space="preserve">
<g>
	<path fill="#FF0000" d="M44.922,42.076V0H32.266v29.421L13.603,0H0v42.076h12.655V11.707l19.61,30.369H44.922z"/>
	<path fill="#FF0000" d="M65.486,42.076V13.604H52.832v28.475L65.486,42.076L65.486,42.076z"/>
	<path fill="#FF0000" d="M65.486,7.594V0H52.832v7.594H65.486z"/>
	<path fill="#FF0000" d="M109.777,42.076V22.464c0-4.114-7.908-9.809-12.021-9.809h-3.797c-2.846,0-6.01,2.528-8.856,3.796v-2.849
		H72.447v28.475h12.654V22.464c0-1.899,4.43-4.114,6.329-4.114c1.896,0,5.377,2.214,5.377,4.114v19.613L109.777,42.076
		L109.777,42.076z"/>
	<g id="_x33_162_1_">
		<path fill="#FF0000" d="M214.811,42.077V22.463c0-4.111-7.908-9.808-12.025-9.808h-3.795c-2.847,0-6.009,2.529-8.858,3.796v-2.849
			h-12.653v28.475h12.653V22.463c0-1.897,4.433-4.111,6.325-4.111c1.896,0,5.381,2.214,5.381,4.111v19.614H214.811z"/>
	</g>
	<path fill="#FF0000" d="M130.338,42.076V13.604h6.646V9.807h-6.646v-6.01h-12.967v6.01h-6.646v3.797h6.646v28.475L130.338,42.076
		L130.338,42.076z"/>
	<path fill="#FF0000" d="M154.7,12.656c-10.122,0-18.663,6.959-18.663,15.5c0,8.859,8.542,15.817,18.663,15.817
		c8.857,0,16.135-5.062,18.033-11.703h-12.971v3.795c0,3.163-2.214,4.112-5.063,4.112c-2.849,0-4.744-0.949-4.744-4.112v-7.908
		h23.412C173.368,19.615,165.139,12.656,154.7,12.656z M154.7,15.503c2.85,0,5.063,1.896,5.063,5.062v2.85h-9.808v-2.851
		C149.955,17.401,151.851,15.503,154.7,15.503z"/>
	<path fill="#FF0000" d="M279.349,12.656c-10.442,0-18.666,6.959-18.666,15.5c0,8.859,8.224,15.817,18.666,15.817
		c10.116,0,18.662-6.958,18.662-15.817C298.011,19.615,289.466,12.656,279.349,12.656z M279.349,15.503
		c2.846,0,4.746,1.896,4.746,5.062v15.503c0,3.163-1.9,4.112-4.746,4.112c-3.164,0-5.063-0.949-5.063-4.112V20.563
		C274.287,17.401,276.185,15.503,279.349,15.503z"/>
	<path fill="#FF0000" d="M242.968,0v15.502c0,0-3.801-2.849-8.86-2.849c-7.909,0-14.553,6.959-14.553,14.553
		c0,7.909,6.644,15.817,14.553,15.817c5.062,0,8.86-1.896,8.86-1.896v0.949h12.651V0H242.968z M238.219,17.401
		c2.848,0,4.748,2.215,4.748,5.063v11.705c0,2.849-1.9,3.795-4.748,3.795c-3.164,0-5.063-0.947-5.063-3.795V22.464
		C233.158,19.615,235.055,17.401,238.219,17.401z"/>
	<path fill="#FF0000" d="M299.592,12.815c-3.399,0-6.167-2.768-6.167-6.171c0-3.637,2.71-6.484,6.167-6.484
		c3.347,0,6.174,2.971,6.174,6.484C305.765,9.874,302.824,12.815,299.592,12.815z M299.592,0.478c-3.278,0-5.847,2.708-5.847,6.167
		c0,3.229,2.621,5.854,5.847,5.854c3.063,0,5.854-2.789,5.854-5.854C305.447,3.302,302.764,0.478,299.592,0.478z M301.037,9.255
		l-1.218-2.134h-1.964v2.055h-0.318V3.637h2.375c1.039,0,1.582,0.876,1.582,1.742c0,0.79-0.45,1.587-1.317,1.722l1.139,1.995
		L301.037,9.255z M297.855,6.802h2.057c0.867,0,1.265-0.737,1.265-1.423c0-0.688-0.396-1.423-1.265-1.423h-2.057V6.802z"/>
	<path fill="#959595" d="M56.868,86.756V71.198c0-2.948-2.952-5.899-5.904-5.899H28.434v21.459h6.977V72.274
		c0-1.072,0.801-2.146,1.875-2.146h10.729c1.073,0,2.147,1.074,2.147,2.146v14.482H56.868z"/>
	<g id="_x32_399_1_">
		<path fill="#959595" d="M243.534,86.756V71.198c0-2.948-2.949-5.899-5.896-5.899h-22.533v21.459h6.973V72.274
			c0-1.072,0.808-2.146,1.875-2.146h10.729c1.072,0,2.146,1.074,2.146,2.146v14.482H243.534z"/>
	</g>
	<path fill="#959595" d="M344.871,86.756V71.198c0-2.948-2.948-5.899-5.896-5.899H316.44v21.459h6.974V72.274
		c0-1.072,0.809-2.146,1.882-2.146h10.729c1.073,0,2.145,1.074,2.145,2.146v14.482H344.871z"/>
	<path fill="#959595" d="M284.048,86.756V71.198c0-2.948-2.949-5.899-5.898-5.899h-30.312v21.459h6.979V72.274
		c0-1.072,0.803-2.146,1.875-2.146h4.022c0.809,0,1.876,1.074,1.876,2.146v14.482h6.979V72.274c0-1.072,0.802-2.146,1.876-2.146
		h4.021c0.808,0,1.875,1.074,1.875,2.146v14.482H284.048z"/>
	<path fill="#959595" d="M23.606,86.756H5.905C2.953,86.756,0,84.877,0,81.928V65.031h23.605v5.097H7.781
		c-0.805,0-1.875,0.807-1.875,1.879s1.07,1.877,1.875,1.877h14.752v4.291H7.781c-0.805,0-1.875,1.074-1.875,1.879
		c0,1.072,1.07,2.146,1.875,2.146h15.825V86.756z"/>
	<path fill="#959595" d="M110.792,86.756H93.086c-2.948,0-5.897-1.879-5.897-4.828V65.031h23.604v5.097H94.965
		c-0.804,0-1.878,0.807-1.878,1.879s1.074,1.877,1.878,1.877h14.752v4.291H94.965c-0.804,0-1.878,1.074-1.878,1.879
		c0,1.072,1.074,2.146,1.878,2.146h15.826L110.792,86.756L110.792,86.756z"/>
	<path fill="#959595" d="M312.594,86.756h-17.707c-2.948,0-5.896-1.879-5.896-4.828V65.031h23.604v5.097h-15.825
		c-0.809,0-1.882,0.807-1.882,1.879s1.073,1.877,1.882,1.877h14.752v4.291h-14.752c-0.809,0-1.882,1.074-1.882,1.879
		c0,1.072,1.073,2.146,1.882,2.146h15.825L312.594,86.756L312.594,86.756z"/>
	<path fill="#959595" d="M59.816,65.297v4.826h6.974c1.878,0,1.878,0,1.878,2.146v14.482h6.706v-14.48c0-2.146,0-2.146,2.146-2.146
		h6.706v-4.826h-24.41V65.297z"/>
	<path fill="#959595" d="M145.043,65.297v4.826h6.974c1.875,0,1.875,0,1.875,2.146v14.482h6.706v-14.48c0-2.146,0-2.146,2.147-2.146
		h6.706v-4.826h-24.408V65.297L145.043,65.297z"/>
	<path fill="#959595" d="M348.804,65.297v4.826h6.974c1.875,0,1.875,0,1.875,2.146v14.482h6.705v-14.48c0-2.146,0-2.146,2.147-2.146
		h6.704v-4.826h-24.405V65.297L348.804,65.297z"/>
	<path fill="#959595" d="M115.606,65.297v21.459h6.976v-3.754c0-1.074,0.802-2.148,1.875-2.148h8.853
		c1.073,0,1.875,1.074,1.875,2.148v3.754h5.903v-5.902c0-0.805-0.807-1.875-0.807-2.948c0-0.806,1.875-2.683,1.875-4.827v-1.88
		c0-1.878-2.949-5.899-4.825-5.899L115.606,65.297L115.606,65.297z M124.457,70.123h8.853c1.073,0,1.875,1.072,1.875,2.146v1.875
		c0,1.074-0.802,1.879-1.875,1.879h-8.853c-1.074,0-1.875-0.805-1.875-1.879V72.27C122.582,71.198,123.383,70.123,124.457,70.123z"
		/>
	<path fill="#959595" d="M177.298,65.297c-1.881,0-4.83,4.021-4.83,5.898v15.561h6.974v-5.902h12.609v5.902h6.974V71.198
		c0-1.878-2.948-5.899-5.097-5.899L177.298,65.297L177.298,65.297z M181.323,70.123h8.848c0.808,0,1.881,1.072,1.881,2.146v3.754
		h-12.609V72.27C179.441,71.198,180.248,70.123,181.323,70.123z"/>
	<path fill="#959595" d="M210.559,86.756V65.297h-6.706v21.459H210.559z"/>
	<g id="_x33_177_1_">
		<path fill="#959595" d="M566.929,86.698V71.141c0-2.949-2.955-5.899-5.902-5.899h-30.309v21.457h6.975V72.215
			c0-1.074,0.803-2.148,1.875-2.148h4.021c0.807,0,1.881,1.074,1.881,2.148v14.48h6.975v-14.48c0-1.074,0.803-2.148,1.877-2.148
			h4.021c0.809,0,1.879,1.074,1.879,2.148v14.48L566.929,86.698L566.929,86.698z"/>
	</g>
	<g id="_x33_181_3_">
		<path fill="#959595" d="M525.917,86.698h-17.702c-2.949,0-5.898-1.88-5.898-4.827V64.973h23.603v5.094h-15.828
			c-0.802,0-1.875,0.809-1.875,1.879c0,1.074,1.073,1.878,1.875,1.878h14.752v4.291h-14.752c-0.802,0-1.875,1.073-1.875,1.88
			c0,1.072,1.073,2.146,1.875,2.146h15.825L525.917,86.698L525.917,86.698L525.917,86.698z"/>
	</g>
	<g id="_x32_391_3_">
		<path fill="#959595" d="M474.943,65.24v4.827h6.976c1.875,0,1.875,0,1.875,2.148v14.479h6.704V72.215c0-2.148,0-2.148,2.146-2.148
			h6.705V65.24L474.943,65.24L474.943,65.24z"/>
	</g>
	<g id="_x33_187">
		<path fill="#959595" d="M395.498,65.356c-1.875,0-5.897,2.951-5.897,4.826v2.953c0,1.877,4.022,4.826,5.897,4.826h11.803
			c1.073,0,2.143,1.074,2.143,1.879c0,1.07-1.065,2.145-2.143,2.145h-17.701v4.828h19.844c1.883,0,5.639-2.948,5.639-4.828v-2.947
			c0-2.146-3.756-5.098-5.639-5.098h-11.797c-1.072,0-2.146-0.805-2.146-1.879c0-1.071,1.073-1.879,2.146-1.879h17.436v-4.826
			H395.498z"/>
	</g>
	<g id="_x33_187_1_">
		<path fill="#959595" d="M452.318,65.356c-1.883,0-5.904,2.951-5.904,4.826v2.953c0,1.877,4.021,4.826,5.904,4.826h11.803
			c1.066,0,2.144,1.074,2.144,1.879c0,1.07-1.072,2.145-2.144,2.145h-17.707v4.828h19.851c1.881,0,5.631-2.948,5.631-4.828v-2.947
			c0-2.146-3.75-5.098-5.631-5.098h-11.804c-1.068,0-2.146-0.805-2.146-1.879c0-1.071,1.072-1.879,2.146-1.879h17.434v-4.826
			H452.318z"/>
	</g>
	<g>
		<path fill="#959595" d="M417.222,65.356v9.656c0,1.877,2.949,4.828,4.83,4.828h4.823v6.973h6.979V79.84h4.824
			c1.881,0,4.83-2.951,4.83-4.828v-9.656h-6.705v7.779c0,0.805-1.074,1.877-2.146,1.877h-8.58c-1.073,0-2.147-1.072-2.147-1.877
			v-7.779H417.222z"/>
	</g>
</g>
</svg>
