<?xml version="1.0" encoding="utf-8"?>
<!-- Generator: Adobe Illustrator 16.0.0, SVG Export Plug-In . SVG Version: 6.00 Build 0)  -->
<!DOCTYPE svg PUBLIC "-//W3C//DTD SVG 1.1//EN" "http://www.w3.org/Graphics/SVG/1.1/DTD/svg11.dtd">
<svg version="1.1" id="Layer_1" xmlns="http://www.w3.org/2000/svg" xmlns:xlink="http://www.w3.org/1999/xlink" x="0px" y="0px"
	 width="438.95px" height="102.4px" viewBox="0 0 438.95 102.4" enable-background="new 0 0 438.95 102.4" xml:space="preserve">
<g>
	<path fill="#03A8E0" d="M138.149,59.978v4.343c0,5.375-1.878,9.098-5.634,11.165c-3.757,2.067-9.149,3.102-16.179,3.102
		c-5.376,0-11.098-0.414-17.162-1.241v-7.133c8.271,1.31,14.06,1.964,17.368,1.964c4.135,0,7.237-0.396,9.304-1.188
		c2.068-0.792,3.102-2.43,3.102-4.911v-5.065c0-2.136-0.724-3.652-2.171-4.549c-1.447-0.895-3.792-1.344-7.03-1.344h-5.686
		c-5.239,0-9.201-1.086-11.889-3.256c-2.688-2.172-4.032-5.152-4.032-8.943v-4.652c0-7.857,7.443-11.786,22.331-11.786
		c1.654,0,6.72,0.276,15.197,0.827v6.72c-5.928-0.964-11.131-1.447-15.61-1.447c-4.962,0-8.322,0.483-10.08,1.447
		c-1.758,0.966-2.636,2.584-2.636,4.859v4.239c0,3.377,3.066,5.065,9.201,5.065h5.79C132.876,48.193,138.149,52.122,138.149,59.978z
		"/>
	<path fill="#03A8E0" d="M186.112,54.603h-33.599v7.547c0,3.515,1.241,6.014,3.722,7.495c2.481,1.482,6.167,2.223,11.062,2.223
		c4.755,0,10.372-0.827,16.851-2.481v7.133c-6.203,1.378-12.234,2.068-18.092,2.068c-15.3,0-22.951-5.1-22.951-15.301V43.541
		c0-6.133,1.758-10.509,5.272-13.129c3.515-2.619,9.132-3.929,16.851-3.929c7.237,0,12.525,1.259,15.869,3.773
		c3.342,2.517,5.014,6.944,5.014,13.285V54.603z M176.808,48.504v-7.857c0-3.032-0.93-5.118-2.791-6.255s-4.962-1.706-9.304-1.706
		c-4.135,0-7.203,0.552-9.201,1.654c-2,1.104-2.998,3.205-2.998,6.307v7.857H176.808z"/>
	<path fill="#03A8E0" d="M222.702,77.76c-3.309,0.551-6.789,0.827-10.441,0.827c-6.271,0-10.648-1.086-13.129-3.257
		c-2.481-2.171-3.723-6.288-3.723-12.354v-29.36h-11.164v-6.099h11.164V12.01h9.408v15.507h17.885v6.099h-17.885v29.877
		c0,3.584,0.688,5.979,2.068,7.185c1.377,1.207,4.168,1.81,8.373,1.81c1.102,0,3.583-0.274,7.443-0.827V77.76z"/>
	<path fill="#03A8E0" d="M261.159,77.76c-3.309,0.551-6.789,0.827-10.441,0.827c-6.271,0-10.648-1.086-13.129-3.257
		c-2.481-2.171-3.723-6.288-3.723-12.354v-29.36h-11.164v-6.099h11.164V12.01h9.408v15.507h17.885v6.099h-17.885v29.877
		c0,3.584,0.688,5.979,2.068,7.185c1.377,1.207,4.168,1.81,8.373,1.81c1.102,0,3.583-0.274,7.443-0.827V77.76z"/>
	<path fill="#03A8E0" d="M276.594,19.143h-9.305V9.426h9.305V19.143z M276.594,77.553h-9.305V27.517h9.305V77.553z"/>
	<path fill="#03A8E0" d="M325.83,77.553h-9.305V41.37c0-1.241-0.104-2.274-0.311-3.102c-0.206-0.827-0.638-1.67-1.292-2.533
		c-0.655-0.861-1.757-1.515-3.308-1.964c-1.551-0.447-3.499-0.672-5.842-0.672c-5.445,0-9.097,0.586-10.958,1.757
		c-1.86,1.173-2.791,3.344-2.791,6.513v36.183h-9.305V27.517h9.305v6.099c0.964-4.755,6.443-7.133,16.438-7.133
		c6.616,0,11.165,1.189,13.646,3.567c2.48,2.378,3.722,5.98,3.722,10.803V77.553z"/>
	<path fill="#03A8E0" d="M375.653,27.517v54.792c0,7.098-1.981,11.871-5.944,14.318c-3.964,2.445-9.908,3.67-17.833,3.67
		c-7.1,0-12.854-0.38-17.265-1.138v-6.616c7.925,0.964,13.956,1.447,18.092,1.447c4.756,0,8.219-0.759,10.39-2.274
		c2.171-1.517,3.257-4.032,3.257-7.547V72.177c-0.14,2.344-1.741,3.998-4.808,4.963c-3.067,0.964-6.564,1.447-10.493,1.447
		c-7.72,0-12.975-1.138-15.766-3.412s-4.187-6.203-4.187-11.785V43.024c0-5.926,1.603-10.165,4.807-12.716
		c3.205-2.549,8.46-3.825,15.766-3.825c8.685,0,13.784,1.964,15.301,5.893v-4.859H375.653z M366.349,64.01V41.37
		c0-3.239-0.879-5.461-2.637-6.668c-1.758-1.205-5.394-1.809-10.906-1.809c-5.169,0-8.547,0.586-10.132,1.758
		c-1.586,1.172-2.378,3.412-2.378,6.72v22.64c0,3.447,0.844,5.704,2.533,6.771c1.688,1.069,5.082,1.603,10.183,1.603
		c4.687,0,8.08-0.568,10.184-1.706C365.298,69.542,366.349,67.319,366.349,64.01z"/>
	<path fill="#03A8E0" d="M420.893,59.978v4.343c0,5.375-1.879,9.098-5.635,11.165c-3.757,2.067-9.149,3.102-16.179,3.102
		c-5.376,0-11.098-0.414-17.161-1.241v-7.133c8.271,1.31,14.06,1.964,17.368,1.964c4.135,0,7.236-0.396,9.304-1.188
		c2.067-0.792,3.102-2.43,3.102-4.911v-5.065c0-2.136-0.724-3.652-2.171-4.549c-1.447-0.895-3.791-1.344-7.03-1.344h-5.686
		c-5.238,0-9.201-1.086-11.889-3.256c-2.688-2.172-4.032-5.152-4.032-8.943v-4.652c0-7.857,7.443-11.786,22.33-11.786
		c1.654,0,6.72,0.276,15.197,0.827v6.72c-5.929-0.964-11.131-1.447-15.61-1.447c-4.963,0-8.322,0.483-10.08,1.447
		c-1.757,0.966-2.636,2.584-2.636,4.859v4.239c0,3.377,3.065,5.065,9.201,5.065h5.789C415.621,48.193,420.893,52.122,420.893,59.978
		z"/>
</g>
<g>
	<g>
		<g>
			<g>
				<g>
					<defs>
						<rect id="SVGID_1_" x="0" y="0.5" width="102.8" height="103"/>
					</defs>
					<clipPath id="SVGID_2_">
						<use xlink:href="#SVGID_1_"  overflow="visible"/>
					</clipPath>
					<path clip-path="url(#SVGID_2_)" fill="#03A8E0" d="M54.3,91.599H43.7c-1.6,0-2.9-1.3-2.9-2.899v-7c-2.4-0.7-4.7-1.601-6.9-2.9
						l-5,5c-1.1,1.101-3,1.101-4.2,0l-7.4-7.5c-0.6-0.6-0.8-1.3-0.8-2.1s0.4-1.601,0.8-2.101l5.1-5.1c-1.2-2.2-2.1-4.4-2.7-6.8h-7.3
						c-1.6,0-2.9-1.3-2.9-2.9V46.8c0-1.6,1.3-2.9,2.9-2.9h7.4c0.7-2.3,1.6-4.5,2.8-6.5l-5.3-5.3c-0.6-0.6-0.8-1.3-0.8-2.1
						s0.4-1.6,0.8-2.1l7.4-7.5c1.1-1.1,3-1.1,4.2,0l5.4,5.4c2.1-1.1,4.1-1.9,6.3-2.5v-7.9c0-1.6,1.3-2.9,2.9-2.9H54
						c1.601,0,2.899,1.3,2.899,2.9v7.9c2.201,0.6,4.201,1.5,6.301,2.5l5.6-5.6c1.1-1.1,3-1.1,4.1,0l7.5,7.5c1.201,1.2,1.201,3,0,4.2
						L75,37.3c1.101,2.1,2.101,4.1,2.7,6.3h7.6c1.6,0,2.9,1.3,2.9,2.9V57c0,1.6-1.301,2.9-2.9,2.9H78c-0.601,2.3-1.5,4.6-2.7,6.699
						l5.2,5.2c1.2,1.2,1.2,3,0,4.2L73,83.7c-1.101,1.1-3,1.1-4.2,0l-5-5c-2.199,1.2-4.5,2.2-6.8,2.899v7
						C57.2,90.3,55.8,91.599,54.3,91.599L54.3,91.599z M34.8,73.7l0.7,0.5c2.3,1.3,4.7,2.399,7.3,3l0.8,0.2v8.1
						c0,0.2,0.2,0.5,0.5,0.5h9.7c0.2,0,0.5-0.2,0.5-0.5v-8.2l0.801-0.2c2.5-0.6,5-1.699,7.299-3l0.701-0.5l5.799,5.801
						c0.101,0.1,0.201,0.1,0.4,0.1c0.1,0,0.2,0,0.4-0.1l6.8-6.801c0.101-0.1,0.101-0.5,0-0.6l-6-6l0.5-0.7c1.3-2.2,2.2-4.6,2.8-7.1
						l0.2-0.801H82.6c0.199,0,0.5-0.199,0.5-0.5V47.2c0-0.2-0.201-0.5-0.5-0.5h-8.701L73.7,45.9c-0.6-2.4-1.6-4.7-2.9-6.8l-0.5-0.7
						l6.301-6.3c0.1-0.1,0.1-0.5,0-0.6L69.8,24.7c-0.199-0.1-0.4-0.1-0.5-0.1s-0.199,0-0.4,0.1L62.6,31l-0.701-0.5
						c-2.1-1.2-4.399-2.2-6.799-2.8L54.3,27.5v-9c0-0.2-0.199-0.5-0.5-0.5h-9.7c-0.2,0-0.5,0.2-0.5,0.5v9l-0.8,0.2
						c-2.5,0.6-4.8,1.4-6.8,2.7l-0.7,0.5l-6.2-6.3c-0.1-0.1-0.2-0.1-0.4-0.1c-0.2,0-0.2,0-0.4,0.1l-6.8,6.8
						c-0.1,0.1-0.1,0.2-0.1,0.4c0,0.1,0,0.2,0.1,0.4l6.2,6.2L27.3,39c-1.3,2.2-2.3,4.5-3,6.9L24,46.8h-8.6c-0.2,0-0.5,0.2-0.5,0.5
						V57c0,0.2,0.2,0.5,0.5,0.5h8.4l0.2,0.8c0.6,2.5,1.6,5,2.9,7.3l0.5,0.7l-5.8,5.8c-0.1,0.101-0.1,0.2-0.1,0.4
						c0,0.1,0,0.2,0.1,0.4l6.8,6.8c0.1,0.1,0.2,0.1,0.4,0.1c0.2,0,0.2,0,0.4-0.1L34.8,73.7z M49.1,57.7c-3.1,0-5.7-2.5-5.7-5.7
						c0-3.1,2.5-5.7,5.7-5.7c3.1,0,5.7,2.5,5.7,5.7C54.6,55.1,52.1,57.7,49.1,57.7L49.1,57.7z M49.1,36.4c-8.6,0-15.6,7-15.6,15.6
						c0,8.6,7,15.6,15.6,15.6s15.6-7,15.6-15.6C64.7,43.4,57.7,36.4,49.1,36.4L49.1,36.4z"/>
				</g>
			</g>
		</g>
	</g>
</g>
</svg>
