<?xml version="1.0" encoding="utf-8"?>
<!-- Generator: Adobe Illustrator 16.0.0, SVG Export Plug-In . SVG Version: 6.00 Build 0)  -->
<!DOCTYPE svg PUBLIC "-//W3C//DTD SVG 1.1//EN" "http://www.w3.org/Graphics/SVG/1.1/DTD/svg11.dtd">
<svg version="1.1" id="Ebene_2" xmlns="http://www.w3.org/2000/svg" xmlns:xlink="http://www.w3.org/1999/xlink" x="0px" y="0px"
	 width="566.93px" height="97.854px" viewBox="0 0 566.93 97.854" enable-background="new 0 0 566.93 97.854" xml:space="preserve">
<g>
	<path fill="#959595" d="M90.931,60.036L57.737,40.1l14.755-0.008c9.917,0,17.957-8.04,17.957-17.957V18.17
		c0-9.917-8.04-17.957-17.957-17.957H0.027V60.12h11.551V10.56h43.087l16.165-0.012c4.777,0,8.649,3.873,8.649,8.647v1.91
		c0,4.776-3.873,8.649-8.649,8.649H20.441l50.415,30.28L90.931,60.036L90.931,60.036z"/>
	<path fill="#959595" d="M11.578,10.56h43.087l16.165-0.012"/>
	<path fill="#959595" d="M72.492,0.213H0.027"/>
	<polygon fill="#959595" points="198.012,10.56 236.769,10.548 236.769,0.213 143.374,0.213 143.374,60.12 198.012,60.12 
		236.769,60.108 236.769,49.772 154.925,49.772 154.925,10.56 	"/>
	<polygon fill="#959595" points="446.496,0.213 446.496,60.12 501.135,60.12 539.89,60.108 539.89,49.772 458.047,49.772 
		458.047,0.213 	"/>
	<polygon fill="#959595" points="162.728,24.993 221.418,24.993 221.418,35.328 162.728,35.34 	"/>
	<path fill="none" stroke="#000000" stroke-width="0.1" stroke-miterlimit="10" d="M326.285,0.986"/>
	<polygon fill="#959595" points="340.735,0 277.603,59.834 292.628,59.834 340.963,14.025 364.022,34.509 331.322,34.509 
		320.401,44.845 320.401,44.845 375.658,44.845 392.531,59.834 408.094,59.834 	"/>
	<rect x="109.409" y="19.406" fill="#F01B20" width="19.004" height="19.005"/>
	<rect x="255.743" y="19.406" fill="#23B14D" width="19.004" height="19.005"/>
	<rect x="405.879" y="19.406" fill="#2993C3" width="19.004" height="19.005"/>
	<rect x="0" y="70.814" fill="#959595" width="539.863" height="3.802"/>
	<g>
		<path fill="#959595" d="M321.311,82.527h7.14l5.254,9.759l5.257-9.759h7.139v15.158h-4.521V86.799h-0.043l-6.092,10.887h-3.477
			l-6.092-10.887h-0.041v10.887h-4.522L321.311,82.527L321.311,82.527z"/>
		<path fill="#959595" d="M350.078,82.527h4.647v8.752c0,1.928,0.689,2.682,2.597,2.682h4.605c1.903,0,2.596-0.754,2.596-2.682
			v-8.752h4.648v9.759c0,3.769-1.947,5.567-6.22,5.567h-6.657c-4.271,0-6.22-1.801-6.22-5.567v-9.759H350.078z"/>
		<path fill="#959595" d="M373.147,82.527h4.647v11.266h10.448v3.895h-15.098L373.147,82.527L373.147,82.527z"/>
		<path fill="#959595" d="M387.615,82.527h17.713v3.771h-6.532v11.39h-4.647v-11.39h-6.532L387.615,82.527L387.615,82.527z"/>
		<path fill="#959595" d="M408.445,82.527h4.648v15.158h-4.648V82.527z"/>
		<path fill="#959595" d="M417.322,82.527h12.668c4.418,0,5.484,2.222,5.484,5.192v1.298c0,2.262-0.984,4.857-4.271,4.857h-9.231
			v3.811h-4.648L417.322,82.527L417.322,82.527z M421.97,90.106h7.223c1.09,0,1.508-0.712,1.508-1.61v-0.586
			c0-1.025-0.502-1.612-1.903-1.612h-6.826L421.97,90.106L421.97,90.106z"/>
		<path fill="#959595" d="M438.824,82.527h4.646v11.266h10.446v3.895h-15.096v-15.16H438.824z"/>
		<path fill="#959595" d="M463.445,82.527h6.051l8.332,15.158h-5.172l-1.442-2.68h-9.422l-1.361,2.68h-5.191L463.445,82.527z
			 M463.527,91.74h5.945l-3.015-5.693L463.527,91.74z"/>
		<path fill="#959595" d="M484.588,92.409l-8.396-9.884h5.609l5.108,6.197l5.107-6.197h5.611l-8.396,9.884v5.274h-4.647v-5.274
			H484.588z"/>
		<path fill="#959595" d="M500.185,82.527h16.582v3.52h-11.935v2.429h11.306v3.141h-11.306v2.431h12.205v3.643h-16.854v-15.16h0.002
			V82.527z"/>
		<path fill="#959595" d="M520.681,82.527h14.026c3.58,0,4.544,1.779,4.544,4.502v0.965c0,2.028-0.462,3.224-2.597,3.727v0.042
			c1.381,0.251,2.533,0.858,2.533,3.35v2.575h-4.648v-1.82c0-1.593-0.461-2.114-1.903-2.114h-7.308v3.937h-4.647V82.527
			L520.681,82.527z M525.33,89.98h7.685c1.256,0,1.717-0.502,1.717-1.591v-0.503c0-1.34-0.67-1.591-2.135-1.591h-7.267V89.98z"/>
	</g>
	<g>
		<path fill="#959595" d="M90.971,82.527h4.647v15.158h-4.647V82.527z"/>
		<path fill="#959595" d="M99.848,82.527h7.201l8.73,11.015h0.042V82.527h4.646v15.158h-7.201l-8.73-11.013h-0.042v11.013h-4.647
			L99.848,82.527L99.848,82.527z"/>
		<path fill="#959595" d="M123.338,82.527h17.712v3.771h-6.531v11.39h-4.648v-11.39h-6.532V82.527L123.338,82.527z"/>
		<path fill="#959595" d="M143.917,82.527H160.5v3.52h-11.934v2.429h11.306v3.141h-11.306v2.431h12.206v3.643h-16.854
			L143.917,82.527L143.917,82.527z"/>
		<path fill="#959595" d="M164.414,82.527h14.028c3.58,0,4.543,1.779,4.543,4.502v0.965c0,2.028-0.461,3.224-2.596,3.727v0.042
			c1.382,0.251,2.532,0.858,2.532,3.35v2.575h-4.647v-1.82c0-1.593-0.461-2.114-1.905-2.114h-7.307v3.937h-4.648V82.527
			L164.414,82.527z M169.062,89.98h7.683c1.257,0,1.717-0.502,1.717-1.591v-0.503c0-1.34-0.67-1.591-2.135-1.591h-7.265V89.98z"/>
		<path fill="#959595" d="M193.682,82.527h6.051l8.333,15.158h-5.171l-1.445-2.68h-9.422l-1.36,2.68h-5.192L193.682,82.527z
			 M193.765,91.74h5.945l-3.015-5.693L193.765,91.74z"/>
		<path fill="#959595" d="M210.22,87.845c0-4.438,2.49-5.485,6.679-5.485h5.465c6.616,0,7.474,1.426,7.433,5.719h-4.647v-0.419
			c0-1.091-0.795-1.403-2.177-1.403h-5.067c-2.449,0-2.91,1.151-2.91,3.036v1.633c0,2.198,0.461,3.036,2.659,3.036h4.962
			c2.094,0,2.722-0.21,2.722-2.094h4.647v1.424c0,2.555-0.921,4.563-5.59,4.563h-7.496c-4.188,0-6.679-1.047-6.679-5.483V87.845z"/>
		<path fill="#959595" d="M232.517,82.527h17.712v3.771h-6.532v11.39h-4.648v-11.39h-6.531V82.527L232.517,82.527z"/>
		<path fill="#959595" d="M253.347,82.527h4.647v15.158h-4.647V82.527z"/>
		<path fill="#959595" d="M260.758,82.527h5.089l5.925,11.266l5.925-11.266h5.088l-8.145,15.158h-5.737L260.758,82.527z"/>
		<path fill="#959595" d="M285.294,82.527h16.585v3.52h-11.936v2.429h11.306v3.141h-11.306v2.431h12.207v3.643h-16.854v-15.16
			h-0.002V82.527z"/>
	</g>
	<g>
		<path fill="#959595" d="M0.027,92.305h4.396v0.67c0,1.277,0.398,1.612,2.011,1.612h5.548c1.444,0,1.613-0.397,1.613-1.424
			c0-1.005-0.253-1.466-1.676-1.466H7.146v-3.143h4.334c1.507,0,1.778-0.376,1.778-1.465c0-1.173-0.731-1.466-2.113-1.466H6.539
			c-1.507,0-1.968,0.313-1.968,1.442v0.649H0.174v-0.837c0-4.083,1.989-4.523,7.685-4.523h3.119c5.401,0,6.679,0.838,6.679,4.188
			c0,2.555-0.439,2.869-2.512,3.497v0.063c2.45,0.419,2.848,1.193,2.848,3.604c0,2.993-1.047,4.146-5.255,4.146H5.01
			c-2.7,0-4.982-0.772-4.982-3.937V92.305z"/>
		<path fill="#959595" d="M21.926,82.527h14.028c4.648,0,6.281,1.528,6.281,5.276v4.605c0,3.747-1.633,5.274-6.281,5.274H21.926
			V82.527z M26.574,93.791h8.25c1.989,0,2.763-0.565,2.763-2.724v-2.052c0-2.156-0.773-2.722-2.763-2.722h-8.25V93.791z"/>
		<path fill="#959595" d="M45.542,87.845c0-4.438,2.491-5.485,6.68-5.485h7.453c4.188,0,6.68,1.05,6.68,5.485v4.523
			c0,4.438-2.491,5.483-6.68,5.483H52.22c-4.188,0-6.68-1.047-6.68-5.483L45.542,87.845L45.542,87.845z M50.315,90.923
			c0,2.198,0.461,3.036,2.659,3.036h5.945c2.198,0,2.659-0.838,2.659-3.036V89.29c0-1.885-0.46-3.036-2.91-3.036h-5.443
			c-2.449,0-2.91,1.151-2.91,3.036V90.923z"/>
	</g>
	<g>
		<path fill="#959595" d="M72.804,90.508h-2.174V84.25h-2.086v-1.893h6.454v1.893h-2.194V90.508z"/>
		<path fill="#959595" d="M78.267,90.508h-2.173V82.36h3.443l1.554,5.117h0.076l1.479-5.117h3.53v8.148h-2.173l0.218-6.246h-0.076
			l-2.064,6.246h-1.879l-2.086-6.246h-0.065L78.267,90.508z"/>
	</g>
	<g>
		<path fill="#959595" d="M548.799,90.676h-2.175v-6.258h-2.086v-1.893h6.453v1.893h-2.192V90.676L548.799,90.676z"/>
		<path fill="#959595" d="M554.26,90.676h-2.172v-8.148h3.442l1.555,5.117h0.076l1.478-5.117h3.53v8.148h-2.172l0.218-6.247h-0.076
			l-2.064,6.247h-1.879l-2.086-6.247h-0.064L554.26,90.676z"/>
	</g>
	<g>
		<path fill="#959595" d="M549.947,60.12h-2.76v-7.947h-2.646v-2.4h8.194v2.4h-2.789V60.12z"/>
		<path fill="#959595" d="M556.885,60.12h-2.759V49.772h4.373l1.974,6.498h0.098l1.875-6.498h4.484V60.12h-2.758l0.274-7.935h-0.1
			l-2.619,7.935h-2.389l-2.648-7.935h-0.082L556.885,60.12z"/>
	</g>
</g>
</svg>
