<?xml version="1.0" encoding="utf-8"?>
<!-- Generator: Adobe Illustrator 16.0.0, SVG Export Plug-In . SVG Version: 6.00 Build 0)  -->
<!DOCTYPE svg PUBLIC "-//W3C//DTD SVG 1.1//EN" "http://www.w3.org/Graphics/SVG/1.1/DTD/svg11.dtd">
<svg version="1.1"
	 id="svg2" xmlns:svg="http://www.w3.org/2000/svg" xmlns:dc="http://purl.org/dc/elements/1.1/" xmlns:rdf="http://www.w3.org/1999/02/22-rdf-syntax-ns#" xmlns:cc="http://creativecommons.org/ns#"
	 xmlns="http://www.w3.org/2000/svg" xmlns:xlink="http://www.w3.org/1999/xlink" x="0px" y="0px" width="567.43px"
	 height="113.031px" viewBox="0 0 567.43 113.031" enable-background="new 0 0 567.43 113.031" xml:space="preserve">
<g>
	<path id="path2998" fill="#959595" d="M165.884,28.918v28.77v28.771h5.039h5.039V60.775V35.095h6.187
		c4.461,0,6.475,0.12,7.232,0.438c1.496,0.625,3.036,2.529,3.667,4.521c0.331,1.047,0.604,3.313,0.701,5.831
		c0.2,5.154-0.397,8.355-1.971,10.433c-1.641,2.167-2.646,2.511-7.284,2.511h-3.981v3.117v3.128l6.257-0.12l6.258-0.122l2.214-1.046
		c4.045-1.908,6.982-5.813,8.167-10.841c0.662-2.808,0.652-9.086-0.021-12.099c-0.646-2.896-1.991-5.813-3.504-7.579
		c-0.634-0.738-1.857-1.797-2.713-2.347c-2.933-1.882-4.062-2.001-18.355-2.001H165.884L165.884,28.918z M210.419,28.918v28.77
		v28.771h5.038h5.039V57.688v-28.77h-5.039H210.419z M336.791,28.918c-4.514,0.001-9.157,0.16-10.319,0.346
		c-2.622,0.418-5.683,1.805-7.416,3.372c-1.747,1.579-3.237,3.949-4.043,6.44c-0.502,1.548-0.659,2.959-0.681,5.933
		c-0.028,4.103,0.316,5.851,1.729,8.614c0.916,1.798,3.36,4.393,5.039,5.361c1.948,1.13,4.439,1.729,8.726,2.072
		c3.261,0.264,4.021,0.426,5.079,1.129c0.834,0.551,1.565,1.453,2.186,2.711c0.868,1.771,0.918,2.143,0.914,5.953
		c-0.005,3.801-0.059,4.176-0.896,5.771c-0.567,1.083-1.386,2.031-2.244,2.602l-1.353,0.896l-8.563,0.102l-8.553,0.093v3.076v3.068
		h9.73c5.92,0,10.411-0.146,11.459-0.366c3.982-0.839,7.299-3.421,8.907-6.938c1.356-2.963,1.834-6.008,1.655-10.574
		c-0.187-4.817-0.899-7.441-2.823-10.32c-2.39-3.576-5.063-4.802-11.854-5.424c-2.513-0.23-5.086-0.636-5.719-0.904
		c-1.397-0.592-2.705-2.082-3.281-3.738c-0.569-1.633-0.562-6.36,0.021-8.358c0.571-1.974,2.306-3.79,4.136-4.338
		c0.883-0.267,3.852-0.396,8.848-0.396h7.528v-3.09v-3.09h-8.209L336.791,28.918L336.791,28.918z M452.597,28.918v4.227v4.227h5.039
		h5.039v-4.227v-4.227h-5.039H452.597L452.597,28.918z M355.695,35.42l0.104,20.723c0.091,20.399,0.104,20.753,0.804,22.604
		c0.39,1.032,1.226,2.58,1.856,3.442c1.293,1.761,2.974,2.994,5.101,3.737c1.021,0.359,2.76,0.498,6.063,0.511l4.634,0.021V83.37
		v-3.089h-3.026c-2.881,0-3.071-0.038-3.892-0.896c-0.509-0.528-1.007-1.563-1.207-2.52c-0.222-1.032-0.313-6.405-0.257-14.791
		l0.093-13.164l5.444-0.093l5.445-0.092V45.65v-3.08h-5.527h-5.523v-3.575V35.42h-5.05H355.695L355.695,35.42z M425.291,35.42
		v20.469c0,19.796,0.023,20.541,0.673,22.511c0.771,2.349,2.338,4.673,4.043,5.975c0.649,0.497,1.938,1.165,2.862,1.48
		c1.289,0.445,2.73,0.582,6.156,0.59l4.469,0.012v-3.088V80.28h-2.885c-2.41,0-3.02-0.104-3.727-0.661
		c-0.468-0.365-0.996-1.205-1.181-1.868c-0.205-0.739-0.336-6.584-0.336-15.106V48.748h5.537h5.535l-0.092-3.007l-0.092-3.009
		l-5.445-0.09l-5.441-0.093v-3.565V35.42h-5.039H425.291L425.291,35.42z M416.402,42.489l-10.758,0.175
		c-11.568,0.178-12.766,0.319-16.162,2.042c-3.799,1.925-6.447,5.663-7.647,10.788c-0.503,2.138-0.591,3.979-0.591,12.107
		c0,9.231,0.027,9.662,0.742,11.429c1.441,3.562,3.586,5.76,6.674,6.825c1.361,0.473,2.781,0.58,7.457,0.588l5.771,0.013v-3.089
		v-3.09h-4.043c-3.828,0-4.088-0.047-4.998-0.813c-0.603-0.505-1.092-1.351-1.32-2.255c-0.453-1.794-0.475-15.938-0.031-19.362
		c0.632-4.865,1.729-7.146,4.015-8.371c0.787-0.42,2.146-0.57,5.974-0.67l4.957-0.132V67.57v18.887h5.203h5.2V74.314
		c0-6.674-0.104-16.565-0.226-21.98L416.402,42.489z M263.73,42.5l-10.809,0.162c-11.746,0.181-13.433,0.396-16.64,2.112
		c-3.725,1.994-6.385,5.937-7.508,11.123c-0.713,3.294-1.047,16.791-0.498,20.054c0.479,2.847,1.811,5.713,3.404,7.334
		c1.172,1.191,3.116,2.367,4.742,2.863c0.447,0.139,3.481,0.26,6.745,0.273l5.933,0.031v-3.089V80.28h-4.154
		c-4.688,0-5.303-0.222-6.188-2.234c-0.395-0.897-0.549-2.662-0.649-7.416c-0.146-6.756,0.324-14.086,1.056-16.52
		c0.657-2.185,1.881-3.862,3.321-4.569c1.052-0.517,2.019-0.613,6.125-0.62l4.875-0.011l0.082,18.771l0.082,18.772h5.039h5.039
		V64.473L263.73,42.5L263.73,42.5z M274.58,42.571c-2.928,0-5.318,0.037-5.313,0.082c0.004,0.045,3.346,9.857,7.426,21.812
		l7.416,21.738l-4.176,10.77c-2.295,5.926-4.176,10.818-4.176,10.868s1.993,0.05,4.43,0l4.43-0.091l12.951-32.509
		c7.127-17.88,12.963-32.543,12.963-32.588c0.002-0.045-2.102-0.082-4.684-0.082c-3.404,0-4.767,0.113-4.947,0.408
		c-0.137,0.224-2.627,6.543-5.525,14.048c-2.896,7.505-5.396,13.688-5.564,13.744c-0.17,0.059-2.473-6.265-5.108-14.048
		l-4.796-14.152H274.58z M452.597,42.571v21.943v21.941h5.039h5.039V64.514V42.571h-5.039H452.597z M513.549,42.733l-0.095,21.861
		h0.013l-0.093,21.861h5.212h5.2V67.57V48.676l4.957,0.133c5.263,0.137,6.142,0.356,7.619,1.939
		c1.158,1.239,1.986,3.499,2.355,6.438c0.19,1.539,0.346,8.604,0.346,16.01v13.26h5.039h5.037l-0.01-12.922
		c-0.002-13.704-0.242-16.956-1.564-20.673c-1.795-5.053-5.102-8.049-10.48-9.508c-1.778-0.482-3.68-0.566-12.813-0.59
		L513.549,42.733L513.549,42.733z M488.07,42.825c-2.842,0-5.674,0.356-7.709,1.057c-2.709,0.932-4.41,2.022-6.117,3.921
		c-1.852,2.06-3.192,4.849-3.979,8.259c-0.48,2.09-0.596,3.844-0.566,8.939c0.025,5.358,0.133,6.729,0.711,8.849
		c0.979,3.596,2.261,6.016,4.205,7.984c1.916,1.938,4.748,3.423,7.937,4.146c1.434,0.324,3.422,0.426,6.461,0.344
		c5.237-0.139,7.729-0.813,10.787-2.903c2.563-1.752,4.5-4.517,5.598-7.995c1.57-4.968,1.846-13.156,0.641-19.2
		c-0.586-2.936-2.01-6.119-3.598-8.056c-1.492-1.821-3.937-3.418-6.551-4.287C493.773,43.182,490.912,42.825,488.07,42.825
		L488.07,42.825z M488.193,48.879c1.476,0,2.953,0.285,4.113,0.873c1.514,0.768,2.465,2.104,3.291,4.632
		c0.541,1.653,0.676,3.158,0.803,8.625c0.166,7.14-0.162,10.505-1.27,13.043c-0.781,1.792-2.045,3.185-3.435,3.779
		c-0.594,0.253-2.156,0.444-3.604,0.444c-2.056,0-2.845-0.145-3.992-0.75c-0.902-0.478-1.773-1.295-2.336-2.205
		c-1.469-2.369-1.953-5.479-1.974-12.482c-0.016-6.667,0.328-9.349,1.558-12.06c0.416-0.92,1.256-2.043,1.879-2.52
		C484.41,49.356,486.297,48.879,488.193,48.879L488.193,48.879z"/>
	<path id="path3775" fill="#959595" d="M559.435,83.912h0.77v-2.835h1.757c0.479,0,0.795,0.077,0.938,0.231
		c0.141,0.147,0.23,0.492,0.271,1.031l0.067,0.836c0.012,0.159,0.027,0.292,0.055,0.399c0.021,0.114,0.063,0.228,0.117,0.335h0.808
		V83.7c-0.064-0.058-0.107-0.125-0.136-0.204c-0.036-0.096-0.063-0.212-0.071-0.352l-0.07-0.973
		c-0.047-0.472-0.109-0.796-0.189-0.972c-0.116-0.265-0.321-0.423-0.61-0.478c0.311-0.07,0.555-0.244,0.742-0.524
		c0.188-0.285,0.282-0.634,0.282-1.039c0-0.334-0.067-0.625-0.207-0.871c-0.145-0.274-0.352-0.487-0.616-0.636
		c-0.218-0.119-0.478-0.197-0.777-0.233c-0.199-0.022-0.508-0.036-0.914-0.036h-2.209v6.527h-0.005V83.912z M560.207,80.375v-2.288
		h1.558c0.303,0,0.522,0.008,0.662,0.021c0.205,0.033,0.369,0.094,0.487,0.176c0.146,0.097,0.257,0.219,0.328,0.367
		c0.08,0.158,0.121,0.334,0.121,0.526c0,0.433-0.121,0.739-0.367,0.921c-0.246,0.186-0.647,0.274-1.207,0.274L560.207,80.375
		L560.207,80.375z"/>
	<path id="path3004" fill="#959595" stroke="#000000" stroke-miterlimit="10" d="M567.179,80.648c0,2.957-2.398,5.356-5.355,5.356
		c-2.959,0-5.354-2.397-5.354-5.356s2.396-5.354,5.354-5.354C564.781,75.292,567.179,77.689,567.179,80.648z"/>
	<g id="g3" transform="translate(-61.6856, -312.868)">
		<path id="path7" fill="#DE0029" d="M142.207,336.374l-0.099,89.523l-23.986-7.801V312.868l30.618,8.096
			c19.599,5.267,31.592,15.507,31.398,33.45c-0.195,20.873-9.85,29.258-28.667,23.797v-41.155
			C151.469,332.08,142.207,331.789,142.207,336.374L142.207,336.374z"/>
		<path id="path9" fill="#F3C202" d="M107.102,400.738l-11.312,3.804c-7.313,2.537-13.554-3.412-6.826-5.854l5.46-1.947
			l-20.574-6.536c-6.339,2.147-12.288,6.729-11.896,13.168c0.39,6.533,15.31,8.095,26.815,9.946
			c10.726,1.755,20.477,0.779,29.351-2.342v-6.729L107.102,400.738L107.102,400.738z M142.302,425.9l20.966-7.313l-21.16-6.729
			v13.558L142.302,425.9L142.302,425.9z"/>
		<path id="path11" fill="#326DB3" d="M198.08,406.3l0.389-0.1c9.167-3.218,13.067-7.707,12.093-11.898
			c-1.561-7.021-12.773-10.826-30.033-12.093c-12.384-0.878-24.572,1.853-36.468,5.947l-1.95,0.685l21.354,6.633l12.48-4.196
			c13.066-2.437,18.333,1.854,5.755,5.854l-6.242,2.146L198.08,406.3L198.08,406.3z M118.122,375.287l-9.459,3.217l9.459,2.925
			V375.287L118.122,375.287z"/>
		<path id="path13" fill="#00AA9E" d="M163.268,418.585l34.812-12.286l-22.624-7.021l-33.348,11.409v1.17L163.268,418.585
			L163.268,418.585z M118.122,397.033l-11.019,3.705l11.019,3.512V397.033L118.122,397.033z M142.107,402.789v-13.946l21.354,6.631
			L142.107,402.789L142.107,402.789z M94.425,396.742l23.696-8.486v-6.825l-9.459-2.927l-34.324,11.604
			c-0.097,0-0.292,0.097-0.486,0.097L94.425,396.742L94.425,396.742z"/>
	</g>
</g>
</svg>
