<?xml version="1.0" encoding="utf-8"?>
<!-- Generator: Adobe Illustrator 16.0.0, SVG Export Plug-In . SVG Version: 6.00 Build 0)  -->
<!DOCTYPE svg PUBLIC "-//W3C//DTD SVG 1.1//EN" "http://www.w3.org/Graphics/SVG/1.1/DTD/svg11.dtd">
<svg version="1.1" id="Ebene_1" xmlns="http://www.w3.org/2000/svg" xmlns:xlink="http://www.w3.org/1999/xlink" x="0px" y="0px"
	 width="566.93px" height="98.438px" viewBox="0 0 566.93 98.438" enable-background="new 0 0 566.93 98.438" xml:space="preserve">
<g>
	<g>
		<path id="path2842" fill="#01954B" d="M59.308,59.927c0.002,8.188-13.273,14.826-29.652,14.826
			C13.279,74.755,0.001,68.117,0,59.928c0-0.001,0-0.001,0-0.002c-0.001-8.189,13.274-14.828,29.652-14.829
			c16.377,0,29.655,6.639,29.656,14.825C59.308,59.925,59.308,59.925,59.308,59.927z"/>
		<path id="path3624" fill="#F9EC2B" d="M110.379,83.357c0.002,8.188-13.272,14.828-29.65,14.828
			c-16.377,0-29.655-6.638-29.657-14.825c0-0.002,0-0.002,0-0.003c-0.002-8.188,13.273-14.828,29.651-14.829
			c16.379,0,29.654,6.638,29.656,14.826C110.379,83.356,110.379,83.356,110.379,83.357z"/>
		<path id="path3644" fill="#323B98" d="M60.398,0.252c-14.947,0-27.095,11.946-27.449,26.822c0.621-0.043,1.239-0.069,1.871-0.069
			c15.169,0,27.466,12.31,27.466,27.492c0,0.228-0.011,0.445-0.017,0.671c14.3-0.96,25.595-12.866,25.595-27.424
			C87.864,12.561,75.567,0.252,60.398,0.252L60.398,0.252z"/>
		<path id="path3897" fill="#EB2D2F" d="M112.393,24.334c-15.165,0-27.458,12.302-27.458,27.475c0,0.338,0.005,0.681,0.017,1.014
			c0.367-0.015,0.729-0.032,1.098-0.032c14.824,0,26.905,11.759,27.441,26.46c14.659-0.571,26.359-12.631,26.359-27.439
			C139.851,36.635,127.558,24.334,112.393,24.334L112.393,24.334z"/>
	</g>
	<path id="polyline2177" fill="#959595" d="M186.893,0c-3.758,0-7.412,3.09-8.083,6.918v0.068v0.068v0.068l-0.068,0.067v0.14v0.067
		l-0.069,0.138v0.138l-0.068,0.138v0.206l-0.068,0.137V8.36l-0.069,0.205l-0.068,0.206l-0.068,0.41l-0.137,0.479l-0.067,0.479
		l-0.138,0.479l-0.069,0.547l-0.138,0.548l-0.136,0.616l-0.139,0.548l-0.204,1.165l-0.139,0.617l-0.137,0.547l-0.067,0.548
		l-0.138,0.547l-0.136,0.549l-0.069,0.548l-0.069,0.479l-0.138,0.411l-0.069,0.479v0.206l-0.066,0.137v0.206v0.138l-0.068,0.206
		v0.137v0.138l-0.068,0.137v0.069v0.067c-0.07,1.675,0.162,3.96,0.685,4.385c0.665,3.688,12.958,20.759,12.604,23.358
		c-0.332,2.605-1.781,10.275-1.781,10.275c-0.446,2.585-2.21,4.656-4.794,4.656c-2.586,0-4.352-2.064-3.905-4.656l2.329-12.741
		h-9.179l-3.083,17.675c-0.628,3.588,1.801,6.438,5.41,6.438h13.085c3.624,0,7.076-2.851,7.739-6.438c0,0,3.372-16.509,3.356-17.675
		c-0.014-1.174-0.341-1.302-0.341-1.302c0-1.343-10.939-19.399-12.057-20.072c-0.48-0.28-0.877-2.068-0.892-3.149
		c-0.021-1.073,1.438-8.289,1.438-8.289c0.444-2.585,2.895-4.657,5.48-4.657c2.585,0,3.664,2.072,3.219,4.657l-1.986,11.438h9.247
		l3.221-17.193C206.663,3.09,204.213,0,200.455,0H186.893z M212.1,0l-10.959,63.16c-0.628,3.588,1.802,6.438,5.412,6.438h13.084
		c3.624,0,7.138-2.851,7.809-6.438L239.158,0h-8.219l-11.167,61.377c-0.163,0.893-1.028,1.646-1.917,1.646h-6.509
		c-0.911,0-1.52-0.747-1.371-1.646L220.869,0H212.1z M243.611,0L230.39,69.597h8.768l6.029-31.511h11.166
		c3.632,0,7.074-2.871,7.739-6.438l4.795-24.729C269.611,3.083,267.167,0,263.41,0h-11.03H243.611z M274.917,0l-13.699,69.598
		h19.728l1.37-8.632h-9.728l3.975-23.495h9.727l1.369-7.262h-9.725l4.314-21.578h9.729L293.343,0H274.917z M298.481,0L285.33,69.597
		h8.77l5.96-31.511h6.234c0.817,0.764,0.916,2.171,1.023,2.877c0.164,1.024,0.334,2.333,0.208,3.356
		c-0.113,1.018-4.797,25.276-4.797,25.276h8.77c0,0,4.934-26.429,4.934-26.853c0.014-0.432,0-1.785-0.479-2.534
		c-0.321-0.479-0.873-1.583-1.51-1.985c-1.223-0.785-2.604-1.304-2.604-1.304h-0.619c2.512-0.988,7.24-2.617,7.744-5.273
		l4.793-24.729C324.486,3.083,322.037,0,318.279,0H298.481z M345.406,0l-13.223,69.598h10.07l8.149-40.347l3.221,40.347h8.771
		L375.615,0h-10.069l-6.852,36.375L354.174,0H345.406z M380.203,0l-13.22,69.598h8.77L388.97,0H380.203z M393.559,0l-13.22,69.598
		h10.14l8.151-40.347l3.22,40.347h8.769L423.84,0H413.7l-6.78,36.375L402.398,0H393.559z M427.539,0l-1.646,8.632h5.479
		L420.55,69.598h10.004L441.58,8.632h5.273L448.224,0H427.539z M451.65,0l-13.699,69.598h19.728l1.371-8.632h-9.728l4.043-23.495
		h9.726l1.371-7.262h-9.728l4.244-21.578h9.729L470.078,0H451.65z M473.914,0l-13.221,69.598h10.137l8.154-40.347l3.219,40.347
		h8.769L504.193,0h-10.139l-6.783,36.375L482.751,0H473.914z M508.783,0l-13.225,69.598h20.004c3.633,0,7.137-2.851,7.811-6.438
		l10.615-56.241C534.708,3.083,532.267,0,528.51,0H508.783z M546.388,0c-3.76,0-7.344,3.09-8.017,6.918l-9.797,56.241
		c-0.637,3.588,1.738,6.438,5.347,6.438h14.452c3.623,0,7.138-2.851,7.812-6.438l10.615-56.241C567.529,3.09,565.072,0,561.322,0
		H546.388z M516.248,8.015h4.044c2.584,0,4.348,2.072,3.901,4.657l-8.631,45.555c-0.451,2.585-2.963,4.728-5.549,4.728h-3.974
		L516.248,8.015z M551.525,8.015h0.275c2.584,0,4.28,2.072,3.834,4.657l-8.217,45.555c-0.449,2.577-2.83,4.728-5.412,4.728
		c-2.588,0-3.666-2.143-3.224-4.728l8.152-45.555l0.066-0.206l0.069-0.205l0.066-0.274l0.067-0.205l0.07-0.274l0.066-0.205
		l0.069-0.206l0.136-0.205l0.067-0.206l0.14-0.206l0.067-0.205l0.137-0.206l0.14-0.137l0.135-0.205l0.139-0.206l0.205-0.138
		l0.138-0.138l0.137-0.138l0.205-0.137l0.207-0.138l0.139-0.138l0.203-0.138l0.205-0.067l0.207-0.138l0.139-0.068l0.271-0.069
		l0.205-0.067h0.204l0.205-0.068h0.275L551.525,8.015z M252.036,8.289h4.248c0.933,0,2.911,2.136,2.741,3.083l-3.632,17.193
		c-0.169,0.891-1.37,2.945-2.258,2.945h-5.141h-0.067h-0.068l-0.069-0.068h-0.066h-0.069h-0.069h-0.068v-0.068h-0.069h-0.068
		l-0.069-0.067h-0.068l-0.068-0.069l-0.067-0.067h-0.068V31.1l-0.068-0.067l-0.069-0.069v-0.068l-0.068-0.067l-0.069-0.069v-0.067
		v-0.07l-0.068-0.067v-0.069v-0.067l-0.07-0.068v-0.067c0-0.114-0.012-0.285,0-0.412l4.111-21.03
		C251.111,8.527,251.571,8.289,252.036,8.289z M306.631,8.289h0.069h0.068h0.068h0.067h3.976c0.933,0,2.922,2.136,2.737,3.083
		l-3.633,17.125c-0.158,0.896-2.389,3.015-3.285,3.015h-3.769c-0.776,0-1.313-0.512-1.369-1.23c0-0.114-0.017-0.278,0-0.412
		l4.042-21.03l0.066-0.068l0.069-0.067l0.135-0.069h0.067l0.069-0.068l0.067-0.067h0.068l0.068-0.068h0.069l0.136-0.068h0.067h0.067
		h0.066V8.289H306.631z M167.438,75.626v22.812h391.005V75.626H167.438z M454.873,78.023h0.064h0.068h0.069h0.066h0.068h3.016
		c0.813,0,1.396,0.65,1.231,1.508l-0.754,3.838h-1.85l0.41-2.535c0.094-0.572-0.244-1.028-0.822-1.028
		c-0.572,0-1.137,0.453-1.231,1.028l-0.341,1.851c-0.059,0.109,0.113,0.629,0.203,0.687c0.254,0.146,2.672,4.152,2.672,4.45
		c0.058,0.149,0.091,0.221,0.066,0.275c-0.068,0.501-0.754,3.902-0.754,3.902c-0.146,0.78-0.906,1.438-1.711,1.438h-2.877
		c-0.799,0-1.313-0.657-1.166-1.438l0.688-3.902h1.986l-0.479,2.809c-0.092,0.571,0.24,1.096,0.818,1.096
		c0.555,0,1.145-0.521,1.236-1.096l0.41-2.261c-0.367-0.944-2.791-4.389-2.947-5.207c-0.105-0.092-0.15-0.587-0.135-0.959
		c0.021-0.407,0.547-2.945,0.547-2.945h0.069v-0.068v-0.066V79.33l0.066-0.139v-0.066l0.066-0.069v-0.068l0.067-0.066V78.85
		l0.068-0.066l0.07-0.07v-0.066h0.065l0.07-0.067l0.065-0.07l0.068-0.066v-0.069h0.068l0.065-0.066l0.066-0.067h0.069l0.068-0.067
		h0.068l0.067-0.067h0.068h0.137L454.873,78.023z M470.626,78.023h2.467l0.342,5.824l3.15-5.824h2.469l-5.07,8.906l-1.231,6.507
		h-2.191l1.098-6.987L470.626,78.023z M493.027,78.023h0.066h0.069h0.066h0.07h0.065h3.015c0.813,0,1.381,0.65,1.231,1.508
		l-0.754,3.838h-1.85l0.412-2.535c0.092-0.572-0.242-1.028-0.822-1.028c-0.572,0-1.144,0.453-1.232,1.028l-0.344,1.851
		c-0.07,0.109,0.094,0.629,0.205,0.687c0.242,0.146,2.672,4.152,2.672,4.45c0.072,0.149,0.07,0.221,0.07,0.275
		c-0.094,0.501-0.687,3.902-0.687,3.902c-0.147,0.78-0.916,1.438-1.715,1.438h-2.942c-0.8,0-1.314-0.657-1.169-1.438l0.687-3.902
		h1.988l-0.479,2.809c-0.094,0.571,0.265,1.096,0.822,1.096c0.57,0,1.119-0.521,1.231-1.096l0.41-2.261
		c-0.375-0.944-2.787-4.389-2.944-5.207c-0.105-0.092-0.15-0.587-0.138-0.959c0.021-0.407,0.55-2.945,0.55-2.945l0.065-0.068v-0.066
		V79.33l0.068-0.139v-0.066l0.067-0.069v-0.068l0.068-0.066V78.85l0.068-0.066l0.067-0.07v-0.066h0.07l0.063-0.067l0.068-0.07
		l0.068-0.066l0.067-0.069l0.066-0.066l0.07-0.067h0.067l0.068-0.067h0.068l0.067-0.067h0.066h0.137L493.027,78.023z
		 M508.986,78.023h4.592l-0.346,1.852h-1.164l-2.396,13.563h-2.261l2.396-13.563h-1.164L508.986,78.023z M526.933,78.023h4.108
		l-0.344,1.852h-2.123l-0.957,4.863h2.191l-0.344,1.574h-2.125l-0.89,5.206h2.121l-0.271,1.918h-4.385L526.933,78.023z
		 M543.853,78.023h2.535l0.408,8.906l3.905-8.836l2.466-0.07l-2.601,15.413h-1.92l1.232-8.149l-3.427,8.149h-1.37l-0.408-8.357
		l-1.508,8.357h-2.263L543.853,78.023z M175.932,78.573h4.042l-0.275,1.916h-2.191l-0.89,4.797h2.124l-0.275,1.645h-2.191
		l-0.821,5.207h2.123l-0.343,1.917h-4.384L175.932,78.573z M194.838,78.573h1.918l1.027,8.083l1.506-8.083h2.262l-2.946,15.479
		h-1.917l-0.754-8.977l-1.78,8.977h-2.262L194.838,78.573z M215.389,78.573h4.521l-0.272,1.916h-1.165l-2.467,13.563h-2.189
		l2.396-13.563h-1.232L215.389,78.573z M235.323,78.573h4.11l-0.344,1.916h-2.124l-0.959,4.797h2.124l-0.273,1.645h-2.123
		l-0.89,5.207h2.122l-0.272,1.917h-4.384L235.323,78.573z M254.641,78.573h4.383c0.813,0,1.327,0.719,1.165,1.573l-1.027,5.479
		c-0.114,0.594-1.157,1.078-1.714,1.303h0.138h0.068h0.07v0.067h0.067h0.07h0.066h0.069l0.068,0.066h0.068h0.067h0.07v0.067h0.067
		h0.07v0.07h0.068c0.092,0.165,0.136,0.658,0.136,0.753c0,0.092-1.097,6.098-1.097,6.098h-1.986c0,0,1.062-5.395,1.097-5.617
		c0.022-0.24-0.025-0.528-0.067-0.753c-0.017-0.166-0.024-0.45-0.206-0.618h-1.371l-1.301,6.988h-1.987L254.641,78.573z
		 M274.231,78.573h4.589l-0.273,1.916h-1.163l-2.467,13.563h-2.191l2.396-13.563h-1.231L274.231,78.573z M297.042,78.573h2.604
		l-0.822,15.479h-2.604l0.342-3.563h-1.574l-1.303,3.563h-2.327L297.042,78.573z M315.266,78.573h1.984l-2.945,15.479h-1.919
		L315.266,78.573z M332.937,78.573h1.92l1.025,8.083l1.51-8.083h2.191l-2.878,15.479h-1.985l-0.687-8.977l-1.782,8.977h-2.259
		L332.937,78.573z M355.612,78.573h2.535l0.409,8.974l3.908-8.904h2.463l-2.603,15.412h-1.918l1.232-8.152l-3.428,8.152h-1.369
		l-0.409-8.355l-1.507,8.355h-2.193L355.612,78.573z M380.478,78.573h4.042l-0.276,1.916h-2.19l-0.89,4.797h2.123l-0.274,1.645
		h-2.19l-0.89,5.207h2.188l-0.342,1.917h-4.313L380.478,78.573z M400.342,78.573h1.918l1.028,8.083l1.507-8.083h2.19l-2.875,15.479
		h-1.918l-0.755-8.977l-1.782,8.977h-2.26L400.342,78.573z M420.688,78.573h4.589l-0.342,1.916h-1.164l-2.398,13.563h-2.191
		l2.398-13.563h-1.231L420.688,78.573z M256.491,80.42c-0.108,0-0.198,0.063-0.276,0.139l-0.89,4.656c0,0.038,0,0.032,0,0.07
		c0,0.148,0.104,0.272,0.274,0.272h0.82c0.204,0,0.718-0.411,0.755-0.617l0.752-3.836c0.035-0.22-0.343-0.687-0.548-0.687
		L256.491,80.42L256.491,80.42z M297.042,85.078l-1.438,3.904h1.096L297.042,85.078z"/>
</g>
</svg>
