<?xml version="1.0" encoding="utf-8"?>
<!-- Generator: Adobe Illustrator 16.0.0, SVG Export Plug-In . SVG Version: 6.00 Build 0)  -->
<!DOCTYPE svg PUBLIC "-//W3C//DTD SVG 1.1//EN" "http://www.w3.org/Graphics/SVG/1.1/DTD/svg11.dtd">
<svg version="1.1" id="TEXT" xmlns="http://www.w3.org/2000/svg" xmlns:xlink="http://www.w3.org/1999/xlink" x="0px" y="0px"
	 width="566.93px" height="157.779px" viewBox="0 0 566.93 157.779" enable-background="new 0 0 566.93 157.779"
	 xml:space="preserve">
<linearGradient id="SVGID_1_" gradientUnits="userSpaceOnUse" x1="10.7185" y1="1371.407" x2="-535.6404" y2="1371.407" gradientTransform="matrix(1 0 0 1 547.2305 -1291.2207)">
	<stop  offset="0" style="stop-color:#013A67"/>
	<stop  offset="1" style="stop-color:#6CD1FF"/>
</linearGradient>
<polygon fill="url(#SVGID_1_)" points="491.191,27.662 536.777,27.946 557.949,5.927 479.951,5.642 406.662,79.217 396.4,79.784 
	396.686,9.001 355.481,51.055 345.626,52.224 345.626,9.374 261.264,92.842 250.775,93.958 251.667,8.077 177.937,82.94 
	168.255,82.987 167.12,11.089 127.342,51.15 116.278,51.717 116.697,8.939 11.591,114.895 46.209,114.328 91.598,70.276 
	100.303,70.276 99.883,114.54 136.035,77.543 144.679,77.543 144.679,115.23 104.892,154.73 143.019,154.165 218.036,78.299 
	228.14,78.299 228.14,115.57 274.897,115.854 320.115,70.353 328.844,69.786 328.708,112.799 364.84,76.667 373.376,76.667 
	373.941,113.102 373.203,114.998 482.379,114.998 503.279,93.815 435.398,92.661 434.781,82.809 445.357,71.67 470.969,71.667 
	493.217,49.133 479.769,48.565 479.769,39.082 "/>
<linearGradient id="SVGID_2_" gradientUnits="userSpaceOnUse" x1="-482.7014" y1="1354.5984" x2="-486.6458" y2="1350.6541" gradientTransform="matrix(1 0 0 1 547.2305 -1291.2207)">
	<stop  offset="0" style="stop-color:#08406F"/>
	<stop  offset="1" style="stop-color:#60C5F5"/>
</linearGradient>
<path fill="url(#SVGID_2_)" d="M114.692,13.213L13.577,114.328l-11.471,4.313c0,0-0.604,0.039-0.271-0.445
	c0,0,117.261-117.292,117.473-117.471c0.212-0.182,0.467-0.028,0.467-0.028L114.692,13.213z"/>
<linearGradient id="SVGID_3_" gradientUnits="userSpaceOnUse" x1="-424.115" y1="1429.7195" x2="-427.7403" y2="1426.0942" gradientTransform="matrix(1 0 0 1 547.2305 -1291.2207)">
	<stop  offset="0" style="stop-color:#08406F"/>
	<stop  offset="1" style="stop-color:#60C5F5"/>
</linearGradient>
<path fill="url(#SVGID_3_)" d="M145.814,115.797l-37.519,37.521l-11.064,4.457c0,0-0.576,0.064-0.236-0.406l43.929-43.749
	L145.814,115.797z"/>
<linearGradient id="SVGID_4_" gradientUnits="userSpaceOnUse" x1="-521.6863" y1="1409.8621" x2="-521.6863" y2="1405.5476" gradientTransform="matrix(1 0 0 1 547.2305 -1291.2207)">
	<stop  offset="0" style="stop-color:#08406F"/>
	<stop  offset="1" style="stop-color:#60C5F5"/>
</linearGradient>
<polygon fill="url(#SVGID_4_)" points="48.982,118.641 2.106,118.641 13.603,114.328 46.209,114.328 "/>
<linearGradient id="SVGID_5_" gradientUnits="userSpaceOnUse" x1="-426.2249" y1="1448.991" x2="-426.2249" y2="1444.5339" gradientTransform="matrix(1 0 0 1 547.2305 -1291.2207)">
	<stop  offset="0" style="stop-color:#08406F"/>
	<stop  offset="1" style="stop-color:#60C5F5"/>
</linearGradient>
<polygon fill="url(#SVGID_5_)" points="144.781,157.771 97.23,157.771 108.296,153.314 142.168,153.314 "/>
<linearGradient id="SVGID_6_" gradientUnits="userSpaceOnUse" x1="-119.7156" y1="1409.8328" x2="-119.7156" y2="1405.366" gradientTransform="matrix(1 0 0 1 547.2305 -1291.2207)">
	<stop  offset="0" style="stop-color:#08406F"/>
	<stop  offset="1" style="stop-color:#60C5F5"/>
</linearGradient>
<polygon fill="url(#SVGID_6_)" points="484.787,118.613 370.242,118.584 374.052,114.148 481.529,114.146 "/>
<linearGradient id="SVGID_7_" gradientUnits="userSpaceOnUse" x1="-296.3459" y1="1410.7039" x2="-296.3459" y2="1406.2253" gradientTransform="matrix(1 0 0 1 547.2305 -1291.2207)">
	<stop  offset="0" style="stop-color:#08406F"/>
	<stop  offset="1" style="stop-color:#60C5F5"/>
</linearGradient>
<path fill="url(#SVGID_7_)" d="M277.053,119.484l-51.527-0.028c-0.333,0.005-0.811-0.335-0.811-0.335l4.562-4.115h45.054
	L277.053,119.484z"/>
<linearGradient id="SVGID_8_" gradientUnits="userSpaceOnUse" x1="-25.1292" y1="1297.9968" x2="-25.1292" y2="1293.1335" gradientTransform="matrix(1 0 0 1 547.2305 -1291.2207)">
	<stop  offset="0" style="stop-color:#08406F"/>
	<stop  offset="1" style="stop-color:#60C5F5"/>
</linearGradient>
<path fill="url(#SVGID_8_)" d="M477.383,1.913h88.651c0.785,0,0.785,0.313,0.785,0.313l-10.572,4.55h-75.164L477.383,1.913z"/>
<linearGradient id="SVGID_9_" gradientUnits="userSpaceOnUse" x1="-32.3962" y1="1322.5251" x2="-32.3962" y2="1318.3142" gradientTransform="matrix(1 0 0 1 547.2305 -1291.2207)">
	<stop  offset="0" style="stop-color:#08406F"/>
	<stop  offset="1" style="stop-color:#60C5F5"/>
</linearGradient>
<polygon fill="url(#SVGID_9_)" points="539.042,31.304 492.697,31.304 490.626,27.094 535.927,27.094 "/>
<linearGradient id="SVGID_10_" gradientUnits="userSpaceOnUse" x1="-88.0398" y1="1366.0408" x2="-88.0398" y2="1362.321" gradientTransform="matrix(1 0 0 1 547.2305 -1291.2207)">
	<stop  offset="0" style="stop-color:#08406F"/>
	<stop  offset="1" style="stop-color:#60C5F5"/>
</linearGradient>
<polygon fill="url(#SVGID_10_)" points="473.59,74.82 448.91,74.82 444.791,71.102 470.402,71.1 "/>
<linearGradient id="SVGID_11_" gradientUnits="userSpaceOnUse" x1="-57.2488" y1="1340.9207" x2="-57.2488" y2="1335.365" gradientTransform="matrix(1 0 0 1 547.2305 -1291.2207)">
	<stop  offset="0" style="stop-color:#08406F"/>
	<stop  offset="1" style="stop-color:#60C5F5"/>
</linearGradient>
<path fill="url(#SVGID_11_)" d="M491.801,49.7h-13.58l-1.193-5.549h25.467c0.347-0.043,0.441,0.146,0.441,0.146L491.801,49.7z"/>
<linearGradient id="SVGID_12_" gradientUnits="userSpaceOnUse" x1="-473.0198" y1="1384.6355" x2="-476.5636" y2="1381.0917" gradientTransform="matrix(1 0 0 1 547.2305 -1291.2207)">
	<stop  offset="0" style="stop-color:#08406F"/>
	<stop  offset="1" style="stop-color:#60C5F5"/>
</linearGradient>
<path fill="url(#SVGID_12_)" d="M96.872,70.634l-47.89,48.01l-2.773-4.313L92.81,67.965c2-2.313,4.675-1.73,4.675-1.73
	L96.872,70.634z"/>
<linearGradient id="SVGID_13_" gradientUnits="userSpaceOnUse" x1="-427.155" y1="1320.1794" x2="-432.5212" y2="1320.1794" gradientTransform="matrix(1 0 0 1 547.2305 -1291.2207)">
	<stop  offset="0" style="stop-color:#08406F"/>
	<stop  offset="1" style="stop-color:#60C5F5"/>
</linearGradient>
<path fill="url(#SVGID_13_)" d="M114.71,51.669V13.193l5.063-12.499c0,0,0.303,0.075,0.303,0.571c0,0.492,0,53.646,0,53.646
	l-0.314,2.312C119.761,57.224,115.265,57.248,114.71,51.669z"/>
<linearGradient id="SVGID_14_" gradientUnits="userSpaceOnUse" x1="-374.3289" y1="1335.7693" x2="-380.989" y2="1335.7693" gradientTransform="matrix(1 0 0 1 547.2305 -1291.2207)">
	<stop  offset="0" style="stop-color:#08406F"/>
	<stop  offset="1" style="stop-color:#60C5F5"/>
</linearGradient>
<path fill="url(#SVGID_14_)" d="M172.902,88.843c0,0-6.539,1.95-6.621-5.625c-0.08-7.313-0.013-69.291-0.013-69.291l5.214-13.896
	c0,0,0.182-0.026,0.182,0.726l-0.017,81.793L172.902,88.843z"/>
<linearGradient id="SVGID_15_" gradientUnits="userSpaceOnUse" x1="-291.4216" y1="1341.0251" x2="-297.4148" y2="1341.0251" gradientTransform="matrix(1 0 0 1 547.2305 -1291.2207)">
	<stop  offset="0" style="stop-color:#08406F"/>
	<stop  offset="1" style="stop-color:#60C5F5"/>
</linearGradient>
<path fill="url(#SVGID_15_)" d="M255.809,98.91c0,0-5.89,0.576-5.96-6.089l-0.033-80.063l4.65-12.07c0,0,0.583,0.152,0.583,0.906
	l-0.016,91.141L255.809,98.91z"/>
<linearGradient id="SVGID_16_" gradientUnits="userSpaceOnUse" x1="-198.1331" y1="1320.4353" x2="-203.8342" y2="1320.4353" gradientTransform="matrix(1 0 0 1 547.2305 -1291.2207)">
	<stop  offset="0" style="stop-color:#08406F"/>
	<stop  offset="1" style="stop-color:#60C5F5"/>
</linearGradient>
<path fill="url(#SVGID_16_)" d="M349.097,57.425c0,0-4.868,0.452-5.701-4.563V13.139l4.393-12.146c0,0,0.563,0.134,0.563,0.886
	v49.667L349.097,57.425z"/>
<linearGradient id="SVGID_17_" gradientUnits="userSpaceOnUse" x1="-146.4495" y1="1334.2556" x2="-152.2463" y2="1334.2556" gradientTransform="matrix(1 0 0 1 547.2305 -1291.2207)">
	<stop  offset="0" style="stop-color:#08406F"/>
	<stop  offset="1" style="stop-color:#60C5F5"/>
</linearGradient>
<path fill="url(#SVGID_17_)" d="M400.781,85.333c0,0-4.938,0.644-5.797-4.373V13.254l4.851-12.544c0,0,0.269,0.222,0.269,1.708
	v77.227L400.781,85.333z"/>
<linearGradient id="SVGID_18_" gradientUnits="userSpaceOnUse" x1="-445.6453" y1="1384.7488" x2="-450.7561" y2="1384.7488" gradientTransform="matrix(1 0 0 1 547.2305 -1291.2207)">
	<stop  offset="0" style="stop-color:#08406F"/>
	<stop  offset="1" style="stop-color:#60C5F5"/>
</linearGradient>
<path fill="url(#SVGID_18_)" d="M97.759,120.82c0,0-0.833-0.068-0.809-1.148c-0.001-0.917-0.078-49.036-0.078-49.036
	s-1.218-1.576,0.613-4.399c0.547,0.131,3.495,0.728,4.101,4.256v40.37L97.759,120.82z"/>
<linearGradient id="SVGID_19_" gradientUnits="userSpaceOnUse" x1="-426.1604" y1="1389.6472" x2="-429.7146" y2="1386.093" gradientTransform="matrix(1 0 0 1 547.2305 -1291.2207)">
	<stop  offset="0" style="stop-color:#08406F"/>
	<stop  offset="1" style="stop-color:#60C5F5"/>
</linearGradient>
<path fill="url(#SVGID_19_)" d="M140.843,78.598c0,0-41.488,41.548-41.883,41.938c-0.346,0.379-1.202,0.281-1.202,0.281l3.827-9.963
	l36.06-36.088c0,0,1.34-1.728,3.831-1.638L140.843,78.598z"/>
<linearGradient id="SVGID_20_" gradientUnits="userSpaceOnUse" x1="6.0286" y1="1308.3113" x2="2.3578" y2="1304.6403" gradientTransform="matrix(1 0 0 1 547.2305 -1291.2207)">
	<stop  offset="0" style="stop-color:#08406F"/>
	<stop  offset="1" style="stop-color:#60C5F5"/>
</linearGradient>
<path fill="url(#SVGID_20_)" d="M566.609,3.639l-27.565,27.665l-3.115-4.212L556.24,6.769l10.582-4.542
	C566.822,2.228,567.172,3.073,566.609,3.639z"/>
<linearGradient id="SVGID_21_" gradientUnits="userSpaceOnUse" x1="-401.4158" y1="1385.6882" x2="-406.8142" y2="1385.6882" gradientTransform="matrix(1 0 0 1 547.2305 -1291.2207)">
	<stop  offset="0" style="stop-color:#08406F"/>
	<stop  offset="1" style="stop-color:#60C5F5"/>
</linearGradient>
<path fill="url(#SVGID_21_)" d="M140.924,113.615l-0.078-35.024c0,0-1.302-2.633,0.631-5.456c0.593-0.007,3.699,0.422,4.339,4.146
	l-0.001,38.521L140.924,113.615z"/>
<linearGradient id="SVGID_22_" gradientUnits="userSpaceOnUse" x1="-398.6331" y1="1322.8191" x2="-403.1215" y2="1318.3306" gradientTransform="matrix(1 0 0 1 547.2305 -1291.2207)">
	<stop  offset="0" style="stop-color:#08406F"/>
	<stop  offset="1" style="stop-color:#60C5F5"/>
</linearGradient>
<path fill="url(#SVGID_22_)" d="M166.269,13.926l-41.462,41.464c-1.987,1.985-5.045,1.836-5.045,1.836
	c-1.796-3.531,0.314-6.064,0.314-6.064S170.58,0.67,170.944,0.29c0.331-0.417,0.541-0.265,0.541-0.265L166.269,13.926z"/>
<linearGradient id="SVGID_23_" gradientUnits="userSpaceOnUse" x1="-331.5642" y1="1338.1316" x2="-335.7232" y2="1333.9724" gradientTransform="matrix(1 0 0 1 547.2305 -1291.2207)">
	<stop  offset="0" style="stop-color:#08406F"/>
	<stop  offset="1" style="stop-color:#60C5F5"/>
</linearGradient>
<path fill="url(#SVGID_23_)" d="M249.815,12.762l-74.376,74.375c-1.55,1.551-2.537,1.702-2.537,1.702
	c-3.781-1.878-1.213-6.255-1.213-6.255S252.341,1.95,252.705,1.57c0.943-1.093,1.761-0.883,1.761-0.883L249.815,12.762z"/>
<linearGradient id="SVGID_24_" gradientUnits="userSpaceOnUse" x1="-243.0945" y1="1343.6199" x2="-247.4787" y2="1339.2356" gradientTransform="matrix(1 0 0 1 547.2305 -1291.2207)">
	<stop  offset="0" style="stop-color:#08406F"/>
	<stop  offset="1" style="stop-color:#60C5F5"/>
</linearGradient>
<path fill="url(#SVGID_24_)" d="M343.396,13.139L259.233,97.3c-1.429,1.433-3.424,1.608-3.424,1.608
	c-3.115-1.557-0.776-6.176-0.776-6.176s90.61-90.5,90.975-90.881c0.94-1.099,1.78-0.862,1.78-0.862L343.396,13.139z"/>
<linearGradient id="SVGID_25_" gradientUnits="userSpaceOnUse" x1="-170.4397" y1="1322.6697" x2="-174.6476" y2="1318.4613" gradientTransform="matrix(1 0 0 1 547.2305 -1291.2207)">
	<stop  offset="0" style="stop-color:#08406F"/>
	<stop  offset="1" style="stop-color:#60C5F5"/>
</linearGradient>
<path fill="url(#SVGID_25_)" d="M394.984,13.254l-42.513,42.515c-1.429,1.433-3.374,1.656-3.374,1.656
	c-2.933-1.907-0.588-5.982-0.588-5.982s49.584-49.689,49.946-50.069c1.048-1.033,1.377-0.66,1.377-0.66L394.984,13.254z"/>
<linearGradient id="SVGID_26_" gradientUnits="userSpaceOnUse" x1="-58.6731" y1="1351.073" x2="-62.1293" y2="1347.6169" gradientTransform="matrix(1 0 0 1 547.2305 -1291.2207)">
	<stop  offset="0" style="stop-color:#08406F"/>
	<stop  offset="1" style="stop-color:#60C5F5"/>
</linearGradient>
<path fill="url(#SVGID_26_)" d="M502.958,45.453L473.59,74.82l-3.188-3.722L491.801,49.7l11.135-5.401
	C502.935,44.299,503.349,44.593,502.958,45.453z"/>
<linearGradient id="SVGID_27_" gradientUnits="userSpaceOnUse" x1="-47.6003" y1="1395.1863" x2="-51.5613" y2="1391.2255" gradientTransform="matrix(1 0 0 1 547.2305 -1291.2207)">
	<stop  offset="0" style="stop-color:#08406F"/>
	<stop  offset="1" style="stop-color:#60C5F5"/>
</linearGradient>
<path fill="url(#SVGID_27_)" d="M513.635,89.96l-28.849,28.65l-3.258-4.465l20.049-20.049l12.289-5.381
	C513.867,88.719,514.263,89.152,513.635,89.96z"/>
<linearGradient id="SVGID_28_" gradientUnits="userSpaceOnUse" x1="-105.5745" y1="1337.4255" x2="-109.8573" y2="1333.1429" gradientTransform="matrix(1 0 0 1 547.2305 -1291.2207)">
	<stop  offset="0" style="stop-color:#08406F"/>
	<stop  offset="1" style="stop-color:#60C5F5"/>
</linearGradient>
<path fill="url(#SVGID_28_)" d="M481.083,6.777L404.172,83.69c-1.431,1.433-3.396,1.645-3.396,1.645
	c-2.448-3.092-0.687-5.979-0.687-5.979l77.289-77.439L481.083,6.777z"/>
<linearGradient id="SVGID_29_" gradientUnits="userSpaceOnUse" x1="-60.551" y1="1332.4578" x2="-65.6637" y2="1327.3451" gradientTransform="matrix(1 0 0 1 547.2305 -1291.2207)">
	<stop  offset="0" style="stop-color:#08406F"/>
	<stop  offset="1" style="stop-color:#60C5F5"/>
</linearGradient>
<path fill="url(#SVGID_29_)" d="M492.697,31.304L480.021,44.09c-2.771,2.282-1.801,5.607-1.801,5.607
	c-2.25-0.21-3.125-2.064-3.412-3.694c-0.285-1.63,0.303-3.422,1.348-4.467l14.47-14.439L492.697,31.304z"/>
<linearGradient id="SVGID_30_" gradientUnits="userSpaceOnUse" x1="-361.4319" y1="1408.1414" x2="-365.0758" y2="1404.4974" gradientTransform="matrix(1 0 0 1 547.2305 -1291.2207)">
	<stop  offset="0" style="stop-color:#08406F"/>
	<stop  offset="1" style="stop-color:#60C5F5"/>
</linearGradient>
<path fill="url(#SVGID_30_)" d="M142.17,153.316l77.913-77.942c0,0,1.438-1.873,4.268-1.771l-0.456,5.224
	c0,0-78.666,78.506-79.113,78.947L142.17,153.316z"/>
<linearGradient id="SVGID_31_" gradientUnits="userSpaceOnUse" x1="-244.3811" y1="1384.949" x2="-248.023" y2="1381.3071" gradientTransform="matrix(1 0 0 1 547.2305 -1291.2207)">
	<stop  offset="0" style="stop-color:#08406F"/>
	<stop  offset="1" style="stop-color:#60C5F5"/>
</linearGradient>
<path fill="url(#SVGID_31_)" d="M274.33,115.004l47.644-47.659c0,0,1.437-1.87,4.267-1.771l-0.856,5.621l-48.324,48.29
	L274.33,115.004z"/>
<linearGradient id="SVGID_32_" gradientUnits="userSpaceOnUse" x1="-197.5208" y1="1388.8953" x2="-201.03" y2="1385.3859" gradientTransform="matrix(1 0 0 1 547.2305 -1291.2207)">
	<stop  offset="0" style="stop-color:#08406F"/>
	<stop  offset="1" style="stop-color:#60C5F5"/>
</linearGradient>
<path fill="url(#SVGID_32_)" d="M330.126,110.25l36.778-36.789c0.842-0.843,1.779-1.771,3.396-1.771l-0.107,5.501l-43.081,43.043
	c-0.568,0.563-1.019,0.398-1.019,0.398L330.126,110.25z"/>
<linearGradient id="SVGID_33_" gradientUnits="userSpaceOnUse" x1="-176.6013" y1="1409.4529" x2="-181.0278" y2="1405.0267" gradientTransform="matrix(1 0 0 1 547.2305 -1291.2207)">
	<stop  offset="0" style="stop-color:#08406F"/>
	<stop  offset="1" style="stop-color:#60C5F5"/>
</linearGradient>
<path fill="url(#SVGID_33_)" d="M361.984,118.057l7.25-7.281l5.558,2.326l-0.733,1.047l-3.813,4.438l-0.271,0.301h-7.721
	c-0.341,0.014-0.521-0.271-0.521-0.271S361.576,118.468,361.984,118.057z"/>
<linearGradient id="SVGID_34_" gradientUnits="userSpaceOnUse" x1="-317.9529" y1="1387.5769" x2="-323.991" y2="1387.5769" gradientTransform="matrix(1 0 0 1 547.2305 -1291.2207)">
	<stop  offset="0" style="stop-color:#08406F"/>
	<stop  offset="1" style="stop-color:#60C5F5"/>
</linearGradient>
<path fill="url(#SVGID_34_)" d="M223.983,117.338l-0.09-38.516c0,0-1.738-2.016,0.457-5.223c0.673-0.011,4.202,0.479,4.928,4.707
	L229.277,115l-4.562,4.114C224.716,119.119,223.986,118.641,223.983,117.338z"/>
<linearGradient id="SVGID_35_" gradientUnits="userSpaceOnUse" x1="-217.1047" y1="1384.3289" x2="-222.3181" y2="1384.3289" gradientTransform="matrix(1 0 0 1 547.2305 -1291.2207)">
	<stop  offset="0" style="stop-color:#08406F"/>
	<stop  offset="1" style="stop-color:#60C5F5"/>
</linearGradient>
<path fill="url(#SVGID_35_)" d="M325.449,119.945l-0.08-48.75c0,0-1.472-2.681,0.871-5.621c0.597-0.009,3.243,0.473,3.886,4.702
	v39.976l-4.027,10.391C326.094,120.639,325.492,120.498,325.449,119.945z"/>
<linearGradient id="SVGID_36_" gradientUnits="userSpaceOnUse" x1="-172.4407" y1="1383.6169" x2="-178.6848" y2="1383.6169" gradientTransform="matrix(1 0 0 1 547.2305 -1291.2207)">
	<stop  offset="0" style="stop-color:#08406F"/>
	<stop  offset="1" style="stop-color:#60C5F5"/>
</linearGradient>
<path fill="url(#SVGID_36_)" d="M369.234,110.775V78.146c0,0-2.113-3.379,1.064-6.456c0.692-0.008,4.132,0.24,4.491,4.323v37.088
	L369.234,110.775z"/>
<linearGradient id="SVGID_37_" gradientUnits="userSpaceOnUse" x1="-106.7717" y1="1375.4851" x2="-111.1898" y2="1371.067" gradientTransform="matrix(1 0 0 1 547.2305 -1291.2207)">
	<stop  offset="0" style="stop-color:#08406F"/>
	<stop  offset="1" style="stop-color:#60C5F5"/>
</linearGradient>
<path fill="url(#SVGID_37_)" d="M448.91,74.82l-13.45,13.479l-3.845,4.81c-3.896-2.458-1.953-6.874-0.912-7.925l14.089-14.079
	L448.91,74.82z"/>
<linearGradient id="SVGID_38_" gradientUnits="userSpaceOnUse" x1="-74.489" y1="1385.3191" x2="-74.489" y2="1379.5164" gradientTransform="matrix(1 0 0 1 547.2305 -1291.2207)">
	<stop  offset="0" style="stop-color:#08406F"/>
	<stop  offset="1" style="stop-color:#60C5F5"/>
</linearGradient>
<path fill="url(#SVGID_38_)" d="M501.58,94.098h-66.391c-2.502-0.196-3.574-0.992-3.574-0.992c-0.012-3.57,3.845-4.81,3.845-4.81
	l77.745,0.001c0.543-0.001,0.662,0.422,0.662,0.422L501.58,94.098z"/>
<g>
	<path fill="#959595" d="M0,142.055v-9.521h2.876l1.729,6.493l1.708-6.493h2.883v9.521H7.41v-7.496l-1.89,7.496H3.669l-1.883-7.496
		v7.496H0z"/>
	<path fill="#959595" d="M17.224,132.531h1.922v5.155c0,0.815,0.023,1.351,0.07,1.592c0.083,0.392,0.278,0.701,0.589,0.938
		c0.31,0.237,0.731,0.354,1.27,0.354c0.545,0,0.957-0.109,1.234-0.334c0.276-0.223,0.442-0.496,0.5-0.82
		c0.056-0.324,0.084-0.863,0.084-1.616v-5.269h1.922v5.002c0,1.144-0.052,1.949-0.155,2.423c-0.104,0.472-0.296,0.87-0.575,1.192
		c-0.278,0.324-0.651,0.582-1.12,0.772c-0.468,0.191-1.077,0.289-1.832,0.289c-0.908,0-1.599-0.104-2.067-0.313
		c-0.47-0.211-0.841-0.481-1.114-0.817c-0.272-0.335-0.452-0.688-0.539-1.058c-0.125-0.545-0.188-1.354-0.188-2.416V132.531z"/>
	<path fill="#959595" d="M33.025,142.055v-9.443h1.922v7.841h4.78v1.604L33.025,142.055L33.025,142.055z"/>
	<path fill="#959595" d="M48.385,142.055v-7.91H45.56v-1.609h7.565v1.609h-2.818v7.91H48.385z"/>
	<path fill="#959595" d="M60.438,142.055v-9.521h1.922v9.521H60.438z"/>
	<path fill="#959595" d="M70.324,142.055v-9.521h3.085c1.169,0,1.931,0.048,2.286,0.144c0.545,0.146,1.002,0.453,1.37,0.936
		c0.368,0.479,0.552,1.099,0.552,1.854c0,0.584-0.105,1.075-0.318,1.478c-0.212,0.396-0.481,0.711-0.809,0.938
		c-0.327,0.229-0.659,0.378-0.997,0.452c-0.459,0.09-1.124,0.136-1.994,0.136h-1.253v3.595L70.324,142.055L70.324,142.055z
		 M72.246,134.145v2.701h1.052c0.758,0,1.265-0.054,1.521-0.15c0.256-0.098,0.456-0.254,0.601-0.467
		c0.146-0.213,0.218-0.459,0.218-0.74c0-0.346-0.103-0.633-0.306-0.855c-0.204-0.225-0.461-0.361-0.772-0.422
		c-0.229-0.043-0.691-0.063-1.384-0.063L72.246,134.145L72.246,134.145z"/>
	<path fill="#959595" d="M85.378,142.055v-9.443H87.3v7.841h4.78v1.604L85.378,142.055L85.378,142.055z"/>
	<path fill="#959595" d="M99.582,142.055v-9.521h7.06v1.608h-5.138v2.107h4.78v1.604h-4.78v2.592h5.319v1.604L99.582,142.055
		L99.582,142.055z"/>
</g>
<g>
	<path fill="#959595" d="M189.966,142.055h-2.091l-0.831-2.164h-3.806l-0.786,2.164h-2.039l3.708-9.521h2.032L189.966,142.055z
		 M186.427,138.286l-1.313-3.532l-1.286,3.532H186.427z"/>
	<path fill="#959595" d="M197.124,142.055v-9.521h4.046c1.019,0,1.758,0.086,2.219,0.258c0.461,0.171,0.829,0.478,1.106,0.912
		c0.277,0.438,0.416,0.938,0.416,1.5c0,0.714-0.21,1.304-0.63,1.771c-0.419,0.465-1.047,0.758-1.883,0.879
		c0.416,0.242,0.758,0.51,1.029,0.799c0.271,0.291,0.635,0.809,1.094,1.549l1.162,1.855h-2.3l-1.39-2.072
		c-0.493-0.738-0.832-1.207-1.013-1.397c-0.182-0.188-0.375-0.321-0.578-0.396c-0.203-0.068-0.526-0.104-0.968-0.104h-0.39v3.979
		h-1.922V142.055z M199.046,136.559h1.422c0.923,0,1.498-0.037,1.728-0.115c0.229-0.076,0.409-0.213,0.539-0.401
		c0.13-0.188,0.195-0.431,0.195-0.714c0-0.32-0.085-0.579-0.257-0.776c-0.171-0.192-0.411-0.317-0.724-0.37
		c-0.156-0.021-0.623-0.031-1.403-0.031h-1.5V136.559L199.046,136.559z"/>
	<path fill="#959595" d="M218.945,138.552l1.864,0.594c-0.286,1.041-0.762,1.813-1.426,2.313c-0.663,0.504-1.508,0.757-2.529,0.757
		c-1.265,0-2.304-0.434-3.117-1.296c-0.814-0.859-1.221-2.044-1.221-3.542c0-1.585,0.408-2.813,1.228-3.688
		c0.818-0.877,1.895-1.313,3.229-1.313c1.165,0,2.109,0.344,2.838,1.029c0.433,0.406,0.757,0.992,0.974,1.756l-1.903,0.451
		c-0.112-0.49-0.347-0.881-0.705-1.168c-0.357-0.283-0.791-0.428-1.302-0.428c-0.706,0-1.277,0.252-1.718,0.76
		s-0.66,1.326-0.66,2.461c0,1.203,0.217,2.063,0.65,2.572c0.433,0.509,0.996,0.768,1.688,0.768c0.512,0,0.95-0.162,1.318-0.486
		C218.521,139.76,218.785,139.25,218.945,138.552z"/>
	<path fill="#959595" d="M237.175,142.055h-2.091l-0.832-2.164h-3.806l-0.786,2.164h-2.039l3.708-9.521h2.033L237.175,142.055z
		 M233.636,138.286l-1.313-3.532l-1.286,3.532H233.636z"/>
	<path fill="#959595" d="M244.32,132.531h3.514c0.792,0,1.396,0.063,1.813,0.184c0.559,0.165,1.037,0.457,1.435,0.877
		c0.398,0.419,0.702,0.937,0.91,1.542c0.208,0.608,0.313,1.358,0.313,2.251c0,0.782-0.099,1.458-0.292,2.025
		c-0.238,0.69-0.578,1.254-1.021,1.682c-0.333,0.325-0.784,0.578-1.351,0.763c-0.425,0.136-0.991,0.203-1.701,0.203h-3.617v-9.521
		L244.32,132.531L244.32,132.531z M246.242,134.145v6.308h1.436c0.536,0,0.924-0.03,1.162-0.093c0.313-0.076,0.57-0.211,0.776-0.396
		c0.206-0.188,0.374-0.489,0.503-0.92c0.13-0.426,0.195-1.007,0.195-1.743c0-0.732-0.065-1.301-0.195-1.691
		c-0.13-0.396-0.312-0.7-0.545-0.924c-0.234-0.224-0.53-0.369-0.89-0.447c-0.27-0.063-0.795-0.09-1.578-0.09L246.242,134.145
		L246.242,134.145z"/>
	<path fill="#959595" d="M260.063,142.055v-9.521h7.059v1.608h-5.137v2.107h4.78v1.604h-4.78v2.592h5.319v1.604L260.063,142.055
		L260.063,142.055z"/>
</g>
<g>
	<path fill="#959595" d="M283.18,142.055v-9.521h2.877l1.729,6.493l1.707-6.493h2.883v9.521h-1.785v-7.496l-1.891,7.496h-1.854
		l-1.889-7.496v7.496H283.18z"/>
	<path fill="#959595" d="M309.002,142.055h-2.091l-0.832-2.164h-3.81l-0.782,2.164h-2.039l3.709-9.521h2.028L309.002,142.055z
		 M305.463,138.286l-1.313-3.532l-1.286,3.532H305.463z"/>
	<path fill="#959595" d="M322.246,138.552l1.863,0.594c-0.285,1.041-0.761,1.813-1.425,2.313c-0.665,0.505-1.509,0.757-2.53,0.757
		c-1.264,0-2.303-0.434-3.115-1.296c-0.813-0.859-1.223-2.044-1.223-3.542c0-1.585,0.409-2.813,1.229-3.688
		c0.817-0.877,1.896-1.313,3.229-1.313c1.165,0,2.108,0.344,2.839,1.029c0.435,0.406,0.761,0.992,0.978,1.756l-1.901,0.451
		c-0.11-0.49-0.351-0.881-0.704-1.168c-0.354-0.283-0.791-0.428-1.303-0.428c-0.705,0-1.277,0.252-1.719,0.76
		c-0.438,0.508-0.66,1.326-0.66,2.461c0,1.203,0.219,2.063,0.647,2.572c0.435,0.51,0.994,0.768,1.688,0.768
		c0.51,0,0.946-0.162,1.313-0.486C321.822,139.76,322.086,139.25,322.246,138.552z"/>
	<path fill="#959595" d="M331.897,142.055v-9.521h1.923v3.747h3.767v-3.747h1.924v9.521h-1.924v-4.164h-3.767v4.164H331.897z"/>
	<path fill="#959595" d="M347.569,142.055v-9.521h1.923v9.521H347.569z"/>
	<path fill="#959595" d="M357.472,142.055v-9.521h1.871l3.896,6.356v-6.356h1.785v9.521h-1.929l-3.839-6.209v6.209H357.472z"/>
	<path fill="#959595" d="M373.19,142.055v-9.521h7.061v1.608h-5.139v2.107h4.78v1.604h-4.78v2.592h5.319v1.604L373.19,142.055
		L373.19,142.055z"/>
</g>
<g>
	<path fill="#959595" d="M397.092,142.055v-9.521h7.06v1.608h-5.137v2.107h4.78v1.604h-4.78v2.592h5.318v1.604L397.092,142.055
		L397.092,142.055z"/>
	<path fill="#959595" d="M412.069,142.055v-9.521h2.878l1.728,6.493l1.709-6.493h2.883v9.521h-1.782v-7.496l-1.894,7.496h-1.853
		l-1.884-7.496v7.496H412.069z"/>
	<path fill="#959595" d="M429.292,132.531h1.923v5.155c0,0.815,0.022,1.351,0.069,1.592c0.082,0.392,0.271,0.701,0.588,0.938
		c0.312,0.236,0.729,0.354,1.271,0.354c0.547,0,0.957-0.109,1.234-0.334c0.276-0.223,0.442-0.496,0.5-0.82
		c0.057-0.324,0.084-0.863,0.084-1.616v-5.269h1.924v5.002c0,1.144-0.054,1.949-0.156,2.423c-0.104,0.472-0.297,0.87-0.574,1.192
		c-0.278,0.324-0.651,0.582-1.121,0.772c-0.467,0.191-1.078,0.289-1.83,0.289c-0.909,0-1.6-0.104-2.067-0.313
		c-0.472-0.211-0.842-0.481-1.107-0.817c-0.271-0.335-0.451-0.688-0.537-1.058c-0.127-0.545-0.188-1.354-0.188-2.416v-5.077
		L429.292,132.531L429.292,132.531z"/>
	<path fill="#959595" d="M445.094,142.055v-9.443h1.922v7.841h4.781v1.604L445.094,142.055L445.094,142.055z"/>
	<path fill="#959595" d="M467.883,142.055h-2.093l-0.829-2.164h-3.808l-0.785,2.164h-2.039l3.707-9.521h2.033L467.883,142.055z
		 M464.344,138.286l-1.313-3.532l-1.285,3.532H464.344z"/>
	<path fill="#959595" d="M476.191,142.055v-7.91h-2.826v-1.609h7.564v1.609h-2.816v7.91H476.191z"/>
	<path fill="#959595" d="M487.672,137.352c0-0.973,0.146-1.783,0.438-2.439c0.215-0.483,0.51-0.92,0.885-1.309
		c0.375-0.388,0.785-0.67,1.23-0.854c0.594-0.251,1.277-0.376,2.053-0.376c1.402,0,2.525,0.438,3.367,1.305
		c0.842,0.87,1.264,2.081,1.264,3.634c0,1.535-0.418,2.736-1.254,3.604c-0.836,0.867-1.953,1.302-3.352,1.302
		c-1.416,0-2.541-0.433-3.377-1.296C488.09,140.06,487.672,138.865,487.672,137.352z M489.654,137.286
		c0,1.077,0.248,1.896,0.746,2.449c0.498,0.559,1.131,0.834,1.896,0.834c0.768,0,1.396-0.272,1.887-0.824
		c0.492-0.555,0.736-1.382,0.736-2.485c0-1.09-0.238-1.901-0.718-2.438c-0.479-0.534-1.112-0.805-1.905-0.805
		s-1.431,0.271-1.916,0.813C489.894,135.371,489.654,136.191,489.654,137.286z"/>
	<path fill="#959595" d="M504.545,142.055v-9.521h4.047c1.018,0,1.756,0.086,2.217,0.258c0.461,0.171,0.83,0.478,1.106,0.912
		c0.277,0.438,0.416,0.938,0.416,1.5c0,0.714-0.211,1.304-0.631,1.771c-0.42,0.465-1.047,0.758-1.883,0.879
		c0.414,0.242,0.76,0.51,1.021,0.799c0.271,0.291,0.645,0.809,1.102,1.549l1.156,1.855h-2.295l-1.392-2.072
		c-0.492-0.738-0.83-1.207-1.014-1.397c-0.186-0.188-0.375-0.321-0.576-0.396c-0.203-0.068-0.524-0.104-0.973-0.104h-0.392v3.979
		h-1.92v-0.006h0.004v-0.002h0.005L504.545,142.055L504.545,142.055z M506.467,136.559h1.424c0.922,0,1.498-0.037,1.727-0.115
		c0.23-0.076,0.41-0.213,0.541-0.401c0.129-0.188,0.193-0.431,0.193-0.714c0-0.32-0.086-0.579-0.258-0.776
		c-0.17-0.192-0.41-0.317-0.724-0.37c-0.155-0.021-0.623-0.031-1.401-0.031h-1.502V136.559L506.467,136.559z"/>
</g>
</svg>
