<?xml version="1.0" encoding="utf-8"?>
<!-- Generator: Adobe Illustrator 16.0.0, SVG Export Plug-In . SVG Version: 6.00 Build 0)  -->
<!DOCTYPE svg PUBLIC "-//W3C//DTD SVG 1.1//EN" "http://www.w3.org/Graphics/SVG/1.1/DTD/svg11.dtd">
<svg version="1.1" id="Layer_1" xmlns="http://www.w3.org/2000/svg" xmlns:xlink="http://www.w3.org/1999/xlink" x="0px" y="0px"
	 width="594px" height="300px" viewBox="0 0 594 300" enable-background="new 0 0 594 300" xml:space="preserve">
<g>
	<path fill="#F4F4F4" d="M207.035,220.329c0.934,1.168,1.868,2.336,2.802,3.425c0.973,1.13,1.946,2.219,2.958,3.309l0.39,0.428
		l0.428,0.468l-0.311,0.506l-0.312,0.506c-1.829,3.152-3.541,6.383-5.215,9.691c-1.556,3.113-3.074,6.304-4.515,9.536
		c1.207,1.128,2.413,2.256,3.62,3.309c1.207,1.089,2.452,2.14,3.697,3.19c3.231-1.712,6.383-3.464,9.458-5.333
		c3.231-1.945,6.384-3.968,9.419-6.11l0.468-0.311l0.466-0.312l0.468,0.312l0.467,0.351c1.167,0.816,2.412,1.634,3.658,2.452
		c1.206,0.777,2.49,1.557,3.736,2.334l0,0l0.545,0.313l0,0c2.413,1.362,4.787,2.725,7.239,3.852l0,0l0.544,0.274l0.545,0.232
		l-0.078,0.623l-0.117,0.585c-0.544,3.618-1.012,7.277-1.4,10.975c-0.351,3.464-0.584,6.967-0.779,10.508
		c1.557,0.623,3.075,1.207,4.553,1.792c1.518,0.544,3.075,1.089,4.671,1.596c2.297-2.646,4.554-5.372,6.733-8.136
		c2.335-3.075,4.593-6.188,6.733-9.302l0,0l0.311-0.429l0.312-0.466l0.545,0.116l0.505,0.116l1.129,0.271
		c2.529,0.547,5.021,1.13,7.589,1.479h0.039c2.335,0.468,4.749,0.741,7.201,0.974l1.556,0.195l0.584,0.038l0.584,0.078l0.117,0.584
		l0.117,0.544c0.817,3.581,1.712,7.24,2.763,10.858c0.895,3.31,1.907,6.617,3.036,9.887c0.312,0,0.623,0,0.895,0.038l0,0
		c0.312,0,0.857,0,1.519,0c1.401,0,2.724-0.038,3.969-0.076c1.091,0,2.259-0.078,3.386-0.117c1.245-3.425,2.336-6.851,3.388-10.275
		c1.049-3.619,2.023-7.238,2.841-10.858l0.117-0.545l0.116-0.583l0.583-0.078l0.546-0.078c1.479-0.155,2.958-0.391,4.397-0.624
		c1.44-0.232,2.881-0.505,4.32-0.816l0,0c1.519-0.311,2.997-0.624,4.36-0.974c1.4-0.35,2.841-0.699,4.242-1.129l0,0l0.544-0.193
		l0.583-0.156l0.351,0.506l0.313,0.507c2.062,3.074,4.203,6.11,6.42,9.106c2.064,2.764,4.204,5.527,6.462,8.213
		c1.479-0.545,2.997-1.129,4.554-1.753c1.518-0.622,3.036-1.283,4.515-1.945c-0.078-3.58-0.232-7.199-0.546-10.78
		c-0.311-3.775-0.738-7.511-1.244-11.21l-0.116-0.544l-0.079-0.546l0.507-0.311l0.505-0.233l0,0c1.323-0.701,2.569-1.44,3.854-2.181
		c1.246-0.777,2.53-1.557,3.735-2.334h0.04c1.245-0.818,2.452-1.634,3.619-2.492c1.208-0.815,2.414-1.712,3.619-2.606l0.43-0.352
		l0.505-0.35l0.468,0.312l0.467,0.35c2.997,2.103,6.072,4.126,9.185,6.072c2.998,1.869,5.994,3.659,9.108,5.409
		c1.206-1.089,2.413-2.178,3.581-3.307c1.206-1.13,2.373-2.259,3.541-3.425c-1.44-3.388-2.88-6.656-4.438-9.886
		c-1.634-3.387-3.385-6.695-5.214-9.925l-0.273-0.506l-0.312-0.507l0.39-0.428l0.351-0.428l0,0c1.946-2.22,3.696-4.555,5.448-6.89
		l0,0v-0.039l0.468-0.662c1.557-2.218,3.113-4.437,4.437-6.693l0.311-0.507l0.312-0.545l0.585,0.156l0.583,0.154
		c3.58,0.896,7.161,1.674,10.78,2.376c3.426,0.66,6.89,1.245,10.394,1.751c0.738-1.44,1.479-2.881,2.179-4.359
		c0.74-1.479,1.401-2.958,2.062-4.476c-2.412-2.53-4.902-5.021-7.433-7.395c-2.842-2.608-5.723-5.177-8.681-7.629l0,0l-0.428-0.351
		l-0.428-0.35l0.156-0.545l0.195-0.506l0.154-0.545c0.896-2.647,1.752-5.295,2.414-7.94v-0.038c0.739-2.686,1.284-5.449,1.828-8.213
		l0.078-0.428l0,0l0.117-0.546l0.116-0.583l0.585-0.077l0.583-0.078c3.699-0.467,7.395-1.052,11.132-1.712
		c3.348-0.624,6.732-1.324,10.081-2.103c0.193-1.635,0.35-3.23,0.466-4.864c0.117-1.674,0.195-3.31,0.272-4.905
		c-3.308-1.558-6.615-2.997-9.925-4.319c-3.503-1.401-7.005-2.687-10.586-3.853l-0.506-0.156l-0.584-0.195v-0.583v-0.544v-0.04
		c-0.04-2.218-0.234-4.477-0.468-6.733c-0.076-0.895-0.154-1.713-0.154-2.024c-0.117-0.661-0.195-1.439-0.312-2.218
		c-0.313-2.179-0.585-4.359-1.051-6.5l-0.117-0.584l-0.156-0.624l0.584-0.271l0.507-0.272c3.229-1.752,6.422-3.582,9.573-5.488
		c2.997-1.83,5.955-3.736,8.875-5.721c-0.428-1.595-0.855-3.153-1.324-4.709c-0.466-1.557-0.972-3.152-1.518-4.671
		c-2.063-0.155-4.127-0.272-6.149-0.35c-2.179-0.078-4.438-0.118-6.734-0.118c-1.634,0-3.151,0-4.592,0.04
		c-1.519,0.039-3.036,0.117-4.553,0.195h-0.545l-0.585,0.04l-0.233-0.507l-0.194-0.506l0,0l-0.194-0.428
		c-1.129-2.569-2.297-5.137-3.62-7.59l0,0c-1.244-2.413-2.646-4.748-4.046-7.122l-0.353-0.584l-0.311-0.506l-0.271-0.506l0.35-0.428
		l0.389-0.429c2.374-2.841,4.749-5.721,7.006-8.719c2.103-2.763,4.125-5.565,6.07-8.406c-0.972-1.323-1.945-2.646-2.918-3.893
		c-1.012-1.284-2.063-2.567-3.114-3.853c-3.502,1.129-6.888,2.297-10.235,3.542c-3.503,1.284-6.968,2.725-10.392,4.282l-0.506,0.233
		l-0.545,0.233l-0.39-0.428l-0.388-0.428c-1.79-1.868-3.738-3.62-5.645-5.372l-0.74-0.7l-0.156-0.117l0,0
		c-2.218-1.868-4.437-3.736-6.731-5.41l-0.469-0.35l-0.505-0.351l0.194-0.584l0.194-0.584l0,0c1.246-3.463,2.375-6.967,3.387-10.47
		c0.972-3.307,1.868-6.732,2.687-10.196c-1.362-0.856-2.725-1.713-4.126-2.57c-1.401-0.855-2.841-1.673-4.281-2.451
		c-2.764,2.179-5.488,4.437-8.135,6.811c-2.881,2.569-5.645,5.177-8.291,7.862l-0.389,0.389l-0.428,0.389l-0.505-0.234l-0.508-0.233
		c-1.362-0.584-2.725-1.168-4.087-1.751c-1.362-0.544-2.724-1.09-4.085-1.596h-0.039c-1.401-0.506-2.802-0.973-4.164-1.44
		c-1.402-0.466-2.842-0.855-4.243-1.246l0,0l-0.546-0.155l-0.583-0.195l-0.039-0.583v-0.584c-0.117-3.658-0.35-7.395-0.662-11.131
		c-0.312-3.464-0.7-6.928-1.167-10.353c-1.596-0.351-3.19-0.662-4.827-0.934c-1.634-0.274-3.229-0.507-4.864-0.702
		c-1.829,3.114-3.58,6.267-5.177,9.419c-1.752,3.386-3.348,6.772-4.826,10.197l-0.233,0.544l-0.232,0.545l-0.585-0.078l-0.545-0.039
		c-1.013-0.04-2.023-0.116-2.958-0.116c-0.935-0.04-1.944-0.04-3.036-0.04l0,0h-2.841c-1.44,0.04-2.919,0.116-4.398,0.194
		c-1.479,0.078-2.958,0.195-4.398,0.35l-0.584,0.079l-0.623,0.039l-0.233-0.545l-0.233-0.544l0,0
		c-1.44-3.425-2.958-6.734-4.593-10.042c-1.518-3.113-3.152-6.227-4.865-9.341c-1.596,0.272-3.191,0.545-4.787,0.896
		c-1.635,0.311-3.23,0.662-4.788,1.05c-0.583,3.465-1.051,6.929-1.44,10.431c-0.389,3.854-0.701,7.707-0.856,11.482l-0.039,0.545
		v0.544l-0.545,0.194l-0.505,0.156l0,0l-1.246,0.428c-2.412,0.856-4.826,1.674-7.083,2.647h-0.039
		c-2.374,0.935-4.709,2.063-7.083,3.23l0,0l-0.973,0.428l0,0l-0.506,0.272l-0.544,0.233l-0.39-0.428l-0.428-0.39
		c-2.569-2.646-5.293-5.293-8.057-7.862c-2.53-2.335-5.138-4.593-7.745-6.772c-1.401,0.818-2.802,1.674-4.165,2.569
		c-1.401,0.896-2.763,1.83-4.126,2.725c0.779,3.581,1.635,7.083,2.569,10.548c0.973,3.619,2.063,7.2,3.308,10.741l0.195,0.507
		l0.194,0.584l-0.467,0.35l-0.467,0.351l0,0c-2.101,1.674-4.125,3.503-6.149,5.371l-0.467,0.429c-1.09,1.05-2.141,2.063-3.153,3.113
		c-1.012,1.051-2.024,2.103-2.997,3.231l-0.428,0.428l-0.389,0.467l-0.545-0.272l-0.544-0.234c-3.347-1.557-6.695-2.958-10.119-4.32
		c-3.27-1.284-6.577-2.491-9.925-3.62c-0.973,1.285-1.985,2.569-2.958,3.892c-0.973,1.323-1.907,2.647-2.802,4.009
		c1.946,3.035,4.009,5.994,6.11,8.874c2.258,3.036,4.593,5.994,6.967,8.875l0.35,0.428l0.39,0.428l-0.272,0.505l-0.312,0.468
		c-0.701,1.284-1.401,2.568-2.102,3.853c-0.662,1.285-1.323,2.608-1.984,3.971l0,0l-0.195,0.506
		c-1.167,2.529-2.335,5.02-3.269,7.628l0,0l-0.195,0.545l-0.195,0.583l-0.623-0.038l-0.583-0.04
		c-2.102-0.118-4.165-0.234-6.188-0.273c-1.985-0.078-4.047-0.117-6.188-0.117c-1.713,0-3.348,0.039-4.904,0.078
		c-1.401,0.039-2.841,0.077-4.282,0.155c-0.506,1.557-0.973,3.114-1.362,4.671c-0.428,1.596-0.817,3.191-1.207,4.787
		c2.88,2.102,5.838,4.087,8.835,5.995c3.23,2.062,6.5,4.008,9.808,5.799l0.467,0.271l0.506,0.273l-0.078,0.544l-0.078,0.545
		l-0.078,0.467c-0.35,2.802-0.739,5.565-0.895,8.33v0.039c-0.116,1.479-0.194,2.958-0.233,4.398
		c-0.039,1.479-0.039,2.958-0.079,4.437v0.583v0.624l-0.544,0.156l-0.545,0.193c-3.464,1.091-6.928,2.336-10.392,3.659
		c-3.27,1.245-6.539,2.567-9.77,3.969c0.117,1.635,0.273,3.271,0.429,4.866c0.194,1.596,0.389,3.229,0.623,4.864
		c3.424,0.896,6.889,1.674,10.392,2.374c3.775,0.779,7.55,1.402,11.209,1.907h0.039l0.506,0.078l0.584,0.078l0.116,0.544
		l0.117,0.546l0,0c0.35,1.479,0.701,2.957,1.09,4.32c0.35,1.44,0.739,2.841,1.206,4.242l0,0c0.779,2.803,1.83,5.527,2.841,8.251
		l0.039,0.116l0,0l0.234,0.546l0.194,0.544l-0.467,0.391l-0.428,0.35c-2.88,2.334-5.76,4.786-8.602,7.316
		c-2.53,2.296-5.06,4.671-7.434,7.085c0.662,1.479,1.401,2.957,2.141,4.396l0,0c0.778,1.44,1.556,2.881,2.335,4.32
		c3.62-0.429,7.2-0.935,10.742-1.556c3.697-0.663,7.395-1.402,10.976-2.297l0,0l0.544-0.116l0.584-0.156l0.312,0.506l0.311,0.466
		c1.518,2.336,3.23,4.594,4.943,6.851L207.035,220.329L207.035,220.329z M208.592,224.844c-0.973-1.166-1.945-2.334-2.841-3.503l0,0
		l-0.234-0.311c-1.751-2.258-3.502-4.515-5.021-6.928c-3.697,0.895-7.395,1.673-11.092,2.335c-3.736,0.661-7.512,1.208-11.365,1.636
		l-0.544,0.038l-0.273-0.466c-0.895-1.637-1.79-3.232-2.607-4.867l0,0c-0.857-1.634-1.674-3.308-2.452-4.942l-0.234-0.546
		l0.389-0.388c2.569-2.608,5.254-5.138,7.94-7.551c2.802-2.568,5.722-5.021,8.64-7.395l-0.039-0.078
		c-1.05-2.802-2.102-5.566-2.918-8.368l0,0c-0.428-1.44-0.856-2.881-1.207-4.32c-0.389-1.519-0.739-2.919-1.09-4.32
		c-3.736-0.544-7.55-1.168-11.286-1.906c-3.659-0.74-7.356-1.596-11.015-2.57l-0.544-0.116l-0.078-0.544
		c-0.272-1.792-0.506-3.62-0.7-5.449c-0.195-1.868-0.351-3.698-0.468-5.488l-0.078-0.583l0.545-0.234
		c3.463-1.519,6.927-2.958,10.391-4.28c3.425-1.323,6.928-2.53,10.43-3.659c0.039-1.519,0.039-2.998,0.078-4.477
		c0.039-1.517,0.117-3.036,0.234-4.475l0,0c0.155-2.841,0.544-5.644,0.934-8.446l0.039-0.467c-3.309-1.83-6.617-3.776-9.848-5.839
		c-3.152-1.984-6.266-4.125-9.38-6.382l-0.428-0.313l0.117-0.505c0.39-1.791,0.817-3.62,1.323-5.371
		c0.467-1.79,1.012-3.582,1.557-5.332l0.156-0.545l0.583-0.039c1.635-0.078,3.27-0.116,4.904-0.156
		c1.751-0.039,3.386-0.078,4.943-0.078c2.023,0,4.086,0.04,6.227,0.118c2.102,0.038,4.165,0.155,6.228,0.271
		c0.934-2.607,2.102-5.176,3.269-7.745l0.234-0.507l0,0c0.622-1.323,1.323-2.685,2.023-4.047c0.662-1.284,1.401-2.607,2.141-3.892
		c-2.413-2.881-4.787-5.838-7.044-8.913c-2.257-3.076-4.398-6.188-6.461-9.419l-0.312-0.428l0.312-0.467
		c1.011-1.519,2.063-3.036,3.152-4.515c1.09-1.44,2.218-2.919,3.347-4.398l0.35-0.428l0.545,0.156
		c3.62,1.246,7.123,2.491,10.547,3.853c3.464,1.362,6.851,2.802,10.197,4.32c0.974-1.09,2.024-2.179,3.075-3.23
		c1.051-1.09,2.102-2.141,3.191-3.152v-0.04l0.506-0.428c2.024-1.868,4.047-3.775,6.227-5.449
		c-1.245-3.581-2.335-7.162-3.346-10.821c-1.013-3.697-1.869-7.395-2.686-11.169l-0.116-0.545l0.466-0.31
		c1.519-1.052,3.076-2.064,4.594-3.076c1.556-0.973,3.113-1.946,4.709-2.88l0.506-0.272l0.429,0.351
		c2.84,2.334,5.604,4.748,8.25,7.2c2.802,2.568,5.527,5.215,8.134,7.9l0.934-0.428v-0.039c2.414-1.129,4.788-2.257,7.239-3.231l0,0
		c2.375-1.012,4.749-1.829,7.162-2.686l1.246-0.389c0.156-3.853,0.467-7.706,0.856-11.598c0.389-3.697,0.895-7.395,1.518-11.053
		l0.117-0.545l0.506-0.116c1.79-0.467,3.581-0.855,5.371-1.207c1.791-0.351,3.62-0.662,5.45-0.973l0.545-0.117l0.311,0.545
		c1.83,3.308,3.542,6.578,5.176,9.924c1.635,3.309,3.192,6.656,4.632,10.081c1.479-0.156,2.958-0.272,4.437-0.351
		c1.479-0.117,2.958-0.156,4.476-0.195h0.039h2.841v-0.039c0.974,0,1.947,0.039,3.075,0.077c1.013,0,2.023,0.04,2.997,0.118
		c1.518-3.464,3.152-6.889,4.864-10.274c1.753-3.387,3.582-6.734,5.527-10.003l0.272-0.467l0.545,0.078
		c1.829,0.233,3.658,0.505,5.45,0.817c1.828,0.272,3.618,0.622,5.447,1.051l0.546,0.116l0.077,0.545
		c0.545,3.697,0.973,7.355,1.285,11.015c0.311,3.735,0.545,7.472,0.661,11.208c1.439,0.39,2.88,0.818,4.28,1.286
		c1.441,0.466,2.842,0.933,4.244,1.479l0,0c1.4,0.506,2.802,1.05,4.164,1.596c1.4,0.584,2.763,1.168,4.125,1.79
		c2.685-2.725,5.487-5.372,8.367-7.94c2.764-2.452,5.683-4.865,8.641-7.2l0.43-0.351l0.466,0.272
		c1.596,0.857,3.191,1.79,4.787,2.725c1.557,0.935,3.113,1.906,4.67,2.958l0.507,0.312l-0.117,0.545
		c-0.895,3.658-1.829,7.239-2.88,10.858c-1.013,3.542-2.141,7.083-3.386,10.547c2.335,1.713,4.554,3.582,6.811,5.488l0,0L373.653,62
		v0.04l0.74,0.701c1.946,1.751,3.892,3.542,5.722,5.448c3.425-1.557,6.927-2.996,10.47-4.319c3.58-1.324,7.2-2.569,10.858-3.698
		l0.545-0.156l0.35,0.429c1.168,1.401,2.337,2.841,3.464,4.281c1.168,1.479,2.259,2.958,3.31,4.398l0.35,0.466l-0.35,0.507
		c-2.063,3.035-4.243,6.032-6.423,8.952c-2.296,2.997-4.671,5.916-7.084,8.757l0.352,0.584c1.44,2.374,2.842,4.709,4.085,7.161
		c1.362,2.491,2.53,5.06,3.659,7.667l0.195,0.428c1.517-0.078,3.035-0.117,4.593-0.156c1.634-0.038,3.19-0.077,4.63-0.077
		c2.221,0,4.477,0.077,6.813,0.155c2.258,0.078,4.515,0.195,6.733,0.389l0.544,0.04l0.195,0.504
		c0.585,1.753,1.167,3.503,1.673,5.255c0.546,1.79,1.052,3.542,1.479,5.332l0.155,0.545l-0.467,0.35
		c-3.113,2.103-6.227,4.125-9.418,6.072c-3.152,1.907-6.346,3.736-9.653,5.526c0.467,2.141,0.78,4.36,1.09,6.578
		c0.078,0.7,0.195,1.401,0.312,2.257v0.039c0.078,1.09,0.116,1.596,0.156,2.063c0.232,2.257,0.428,4.555,0.466,6.812
		c3.581,1.168,7.123,2.491,10.665,3.892c3.503,1.401,7.007,2.918,10.509,4.555l0.466,0.232v0.545
		c-0.077,1.868-0.193,3.737-0.311,5.527c-0.155,1.867-0.311,3.696-0.545,5.526l-0.077,0.544l-0.546,0.156
		c-3.541,0.817-7.162,1.596-10.741,2.258c-3.737,0.661-7.473,1.246-11.17,1.712l-0.078,0.39c-0.545,2.803-1.13,5.604-1.868,8.367
		l0,0c-0.702,2.725-1.558,5.372-2.414,8.018l-0.194,0.546c2.919,2.414,5.839,4.981,8.719,7.667c2.725,2.569,5.371,5.177,7.901,7.862
		l0.389,0.39l-0.232,0.505c-0.702,1.712-1.479,3.386-2.297,5.021c-0.779,1.674-1.636,3.308-2.492,4.942l-0.272,0.505l-0.544-0.077
		c-3.736-0.544-7.434-1.128-11.055-1.829c-3.657-0.699-7.238-1.518-10.857-2.414c-1.362,2.337-2.919,4.556-4.476,6.773l-0.468,0.702
		l0,0l-0.039,0.038l0,0c-1.791,2.373-3.581,4.748-5.487,6.966c1.868,3.309,3.62,6.655,5.254,10.041
		c1.635,3.427,3.19,6.89,4.67,10.47l0.194,0.507l-0.35,0.389c-1.324,1.323-2.646,2.608-3.971,3.854
		c-1.321,1.245-2.684,2.49-4.085,3.696l-0.43,0.391l-0.505-0.273c-3.309-1.829-6.538-3.735-9.653-5.722
		c-3.152-1.945-6.227-4.008-9.263-6.11c-1.168,0.857-2.336,1.752-3.579,2.646c-1.246,0.858-2.491,1.714-3.737,2.492l0,0
		c-1.246,0.816-2.53,1.596-3.814,2.373c-1.283,0.779-2.567,1.519-3.892,2.22c0.544,3.735,0.972,7.472,1.284,11.287
		c0.312,3.735,0.506,7.55,0.584,11.403v0.545l-0.506,0.233c-1.714,0.739-3.387,1.479-5.061,2.18c-1.712,0.7-3.425,1.322-5.176,1.945
		l-0.545,0.195l-0.39-0.428c-2.335-2.842-4.631-5.722-6.85-8.719c-2.257-2.997-4.398-6.071-6.46-9.187
		c-1.402,0.43-2.842,0.818-4.32,1.168c-1.519,0.39-2.958,0.701-4.36,1.013l0,0c-1.479,0.312-2.958,0.583-4.397,0.817
		c-1.479,0.234-2.958,0.467-4.437,0.623c-0.818,3.697-1.79,7.355-2.881,10.975c-1.051,3.582-2.258,7.2-3.581,10.898l-0.193,0.506
		l-0.546,0.038c-1.322,0.039-2.646,0.117-3.97,0.117c-1.401,0.039-2.764,0.078-4.008,0.078c-0.312,0-0.817,0-1.519,0
		c-0.506,0-1.05-0.039-1.518-0.039h-0.583l-0.195-0.545c-1.167-3.463-2.257-6.967-3.23-10.508
		c-1.012-3.659-1.946-7.317-2.764-10.938l-1.518-0.194c-2.452-0.271-4.904-0.505-7.317-0.974c-2.608-0.35-5.138-0.934-7.707-1.518
		l-1.129-0.272c-2.101,3.152-4.397,6.268-6.771,9.342c-2.297,2.958-4.671,5.838-7.162,8.68l-0.351,0.389l-0.505-0.156
		c-1.713-0.545-3.464-1.167-5.215-1.828c-1.751-0.663-3.464-1.324-5.176-2.024l-0.506-0.234l0.04-0.544
		c0.155-3.776,0.428-7.513,0.778-11.209c0.389-3.66,0.856-7.317,1.4-11.016c-2.53-1.166-4.904-2.528-7.317-3.891l0,0l-0.544-0.352
		h-0.039c-1.246-0.777-2.53-1.558-3.776-2.373c-1.246-0.779-2.491-1.636-3.698-2.492c-3.113,2.181-6.305,4.204-9.535,6.149
		c-3.23,1.947-6.539,3.815-9.963,5.644l-0.506,0.233l-0.39-0.35c-1.44-1.129-2.841-2.334-4.203-3.542
		c-1.401-1.244-2.764-2.49-4.087-3.736l-0.428-0.389l0.234-0.546c1.518-3.425,3.113-6.811,4.787-10.158
		c1.674-3.269,3.425-6.538,5.254-9.729C210.577,227.102,209.565,225.973,208.592,224.844L208.592,224.844z M372.563,63.247
		L372.563,63.247 M281.879,240.84c-3.969-0.661-7.939-1.596-11.792-2.763c-3.892-1.206-7.707-2.646-11.443-4.358l-0.818-0.391
		l-0.817-0.35l0.467-0.816l22.458-37.325l0.35-0.546l0.623,0.195l0.623,0.233c2.452,0.855,5.06,1.519,7.706,1.985
		c2.568,0.428,5.216,0.661,7.94,0.661c0.389,0,0.662,0,0.895,0c0.312,0,0.624-0.038,0.974-0.038l0.622-0.038h0.662l0.156,0.621
		l10.507,42.189l0.233,0.896l-0.894,0.116l-0.896,0.116c-2.062,0.273-4.126,0.506-6.188,0.623c-2.063,0.155-4.165,0.233-6.229,0.233
		c-2.528,0-5.059-0.117-7.588-0.312C286.9,241.541,284.409,241.229,281.879,240.84L281.879,240.84z M270.554,236.48
		c3.813,1.168,7.667,2.064,11.598,2.726c2.452,0.39,4.903,0.701,7.433,0.895c2.452,0.234,4.943,0.312,7.433,0.312
		c2.063,0,4.126-0.077,6.15-0.195c1.985-0.116,4.008-0.35,6.032-0.621l-10.119-40.634c-0.312,0.04-0.623,0.04-0.935,0.04l0,0
		c-0.389,0-0.738,0.038-0.972,0.038c-2.803,0-5.526-0.271-8.212-0.701c-2.725-0.467-5.411-1.168-7.979-2.062l-21.64,35.963
		C263.002,233.913,266.739,235.314,270.554,236.48L270.554,236.48z M241.246,223.325c-3.191-2.373-6.188-4.98-9.068-7.783
		c-2.802-2.764-5.45-5.722-7.901-8.796c-2.918-3.736-5.566-7.667-7.862-11.793c-2.335-4.126-4.359-8.446-6.032-12.921l-0.313-0.818
		l-0.311-0.855l0.895-0.233l42.618-10.588l0.623-0.194l0.311,0.623l0.272,0.584c1.285,2.686,2.841,5.216,4.593,7.59
		c1.751,2.413,3.775,4.632,5.955,6.655l0,0l0.467,0.428l0.505,0.429l-0.35,0.584l-22.029,36.624v0.038l-0.468,0.74l-0.467,0.778
		l-0.739-0.544L241.246,223.325z M233.345,214.374c2.763,2.725,5.76,5.294,8.874,7.63l21.678-36.041
		c-2.257-2.103-4.319-4.398-6.148-6.851c-1.83-2.452-3.425-5.059-4.749-7.822l-41.061,10.197c1.634,4.359,3.62,8.602,5.916,12.688
		c2.257,4.009,4.827,7.901,7.707,11.559C227.975,208.77,230.583,211.649,233.345,214.374L233.345,214.374z M317.141,192.97
		l0.585-0.274c2.687-1.284,5.214-2.841,7.589-4.593c2.414-1.75,4.632-3.773,6.656-5.954h-0.039l0.467-0.468l0.428-0.505l0.585,0.351
		l37.362,22.495l0.778,0.467l-0.545,0.74l-0.544,0.699l0,0c-3.191,4.165-6.772,8.097-10.626,11.638
		c-3.893,3.582-8.018,6.812-12.455,9.652c-2.841,1.868-5.799,3.543-8.835,5.061c-3.074,1.519-6.227,2.881-9.456,4.086l0,0
		l-0.818,0.313l-0.856,0.311l-0.233-0.896l-10.509-42.189l-0.154-0.623L317.141,192.97z M326.288,189.427
		c-2.452,1.828-5.061,3.424-7.823,4.748l10.08,40.633c3.151-1.167,6.267-2.49,9.265-4.008c2.996-1.479,5.915-3.154,8.679-4.944
		c4.32-2.802,8.405-5.993,12.221-9.496c3.774-3.503,7.278-7.316,10.43-11.403l-36.002-21.679
		C331.036,185.534,328.739,187.598,326.288,189.427L326.288,189.427z M341.661,166.269l0.233-0.623
		c0.856-2.451,1.518-5.06,1.985-7.706c0.428-2.568,0.661-5.215,0.661-7.939c0-0.389,0-0.661,0-0.895
		c0-0.311-0.039-0.623-0.039-0.935l-0.039-0.661v-0.662l0.624-0.156l42.695-10.624l0.896-0.234l0.117,0.896l0.116,0.894
		c0,0.078,0.038,0.311,0.078,0.545c0.038,0.273,0.077,0.584,0.116,0.895l0,0c0.195,1.712,0.35,3.464,0.428,5.177l0,0
		c0.117,1.79,0.155,3.502,0.155,5.215c0,3.969-0.271,7.939-0.777,11.91c-0.507,3.931-1.246,7.822-2.258,11.637l0,0
		c-0.7,2.687-1.519,5.292-2.453,7.9c-0.933,2.608-2.022,5.177-3.19,7.707l-0.39,0.817l-0.388,0.817l-0.78-0.468l-37.441-22.534
		l-0.544-0.351L341.661,166.269z M345.515,158.213c-0.467,2.763-1.168,5.409-2.063,7.979l36.079,21.717
		c1.168-2.49,2.181-5.02,3.113-7.55c0.935-2.568,1.753-5.139,2.413-7.744v-0.04c1.014-3.736,1.752-7.552,2.259-11.403
		c0.467-3.854,0.739-7.785,0.739-11.715c0-1.713-0.078-3.425-0.156-5.099l0,0c-0.077-1.712-0.233-3.386-0.428-5.099l0,0
		c0-0.273-0.077-0.545-0.116-0.856c0-0.117-0.039-0.272-0.077-0.544l-41.141,10.236c0,0.311,0.039,0.623,0.039,0.935
		c0,0.388,0,0.739,0,0.972C346.176,152.803,345.942,155.527,345.515,158.213L345.515,158.213z M272.071,150
		c0-6.927,2.803-13.232,7.356-17.747c4.514-4.555,10.82-7.356,17.748-7.356c6.927,0,13.234,2.802,17.748,7.356
		c4.554,4.553,7.356,10.82,7.356,17.747c0,6.929-2.803,13.232-7.356,17.747c-4.514,4.554-10.82,7.356-17.748,7.356
		c-6.928,0-13.233-2.803-17.748-7.356C274.874,163.232,272.071,156.929,272.071,150L272.071,150z M280.595,133.42
		c-4.281,4.242-6.889,10.12-6.889,16.58c0,6.5,2.608,12.337,6.889,16.619c4.242,4.242,10.12,6.851,16.581,6.851
		c6.46,0,12.337-2.608,16.58-6.851c4.282-4.282,6.89-10.119,6.89-16.619c0-6.46-2.607-12.337-6.89-16.58
		c-4.242-4.282-10.119-6.889-16.58-6.889C290.714,126.532,284.837,129.139,280.595,133.42L280.595,133.42z M207.386,163.738
		l-0.856,0.235l-0.896,0.193l-0.117-0.896l-0.117-0.855c-0.311-2.18-0.544-4.397-0.7-6.578c-0.156-2.179-0.234-4.359-0.234-6.538
		c0-1.05,0-2.141,0.039-3.309c0.039-1.089,0.117-2.179,0.195-3.229l0,0c0.389-5.488,1.284-10.898,2.646-16.191
		c1.323-5.293,3.153-10.47,5.449-15.491l0.39-0.817l0.389-0.817l0.778,0.467l37.987,22.846l0.544,0.351l-0.194,0.623l-0.233,0.622
		l0,0c-0.856,2.452-1.518,5.059-1.985,7.707c-0.429,2.569-0.662,5.214-0.662,7.939c0,0.389,0,0.7,0,0.935
		c0,0.272,0.039,0.584,0.039,0.934l0,0l0.039,0.623v0.661l-0.623,0.194L207.386,163.738z M206.334,155.721
		c0.156,2.142,0.39,4.282,0.662,6.422l41.217-10.236c0-0.311-0.039-0.621-0.039-0.932c0-0.39,0-0.741,0-0.974
		c0-2.802,0.233-5.526,0.662-8.212c0.466-2.725,1.167-5.41,2.063-7.979l-36.625-22.03c-2.219,4.904-4.009,10.003-5.332,15.218
		c-1.362,5.216-2.218,10.508-2.608,15.88l0,0c-0.078,1.09-0.116,2.141-0.155,3.192c-0.039,1.011-0.078,2.1-0.078,3.229
		C206.101,151.479,206.179,153.62,206.334,155.721L206.334,155.721z M339.871,129.451c-1.284-2.687-2.842-5.215-4.593-7.59
		c-1.751-2.374-3.775-4.632-5.954-6.616l0,0l-0.469-0.467l-0.505-0.428l0.35-0.584l22.42-37.286l0,0l0.466-0.74l0.466-0.817
		l0.741,0.584l0.699,0.544c0.78,0.583,1.558,1.207,2.336,1.83c0.739,0.622,1.519,1.245,2.259,1.907
		c4.32,3.776,8.25,7.94,11.793,12.415c3.502,4.477,6.615,9.264,9.262,14.323c0.974,1.83,1.868,3.698,2.687,5.604
		c0.855,1.868,1.595,3.814,2.334,5.799l0.273,0.817l0.311,0.856l-0.856,0.233l-42.813,10.665l-0.623,0.155l-0.311-0.622
		L339.871,129.451L339.871,129.451z M336.602,120.888c1.829,2.452,3.425,5.06,4.748,7.823l41.256-10.236
		c-0.7-1.908-1.44-3.814-2.296-5.721c-0.817-1.869-1.673-3.698-2.607-5.488c-2.608-4.944-5.645-9.652-9.108-14.051
		c-3.503-4.398-7.354-8.485-11.598-12.182c-0.701-0.662-1.439-1.284-2.219-1.908c-0.739-0.583-1.479-1.167-2.257-1.75
		l-22.068,36.663C332.709,116.14,334.772,118.437,336.602,120.888L336.602,120.888z M260.94,118.475l-38.064-22.886l-0.778-0.506
		l0.545-0.701l0.544-0.7c1.519-2.063,3.153-4.048,4.865-5.995c1.673-1.867,3.425-3.697,5.254-5.409
		c4.165-3.932,8.68-7.473,13.428-10.586c4.787-3.075,9.885-5.761,15.14-7.902l0,0c0.428-0.193,0.934-0.388,1.557-0.621
		c0.583-0.196,1.089-0.39,1.556-0.584l0,0l0.817-0.312l0.857-0.312l0.233,0.896l10.742,43.241l0.195,0.623l-0.623,0.311
		l-0.583,0.272c-2.686,1.285-5.215,2.841-7.59,4.593c-2.413,1.79-4.631,3.775-6.656,5.955l0,0l-0.428,0.466l-0.467,0.506
		L260.94,118.475z M224.51,94.656l36.702,22.068c2.102-2.258,4.359-4.32,6.85-6.149c2.453-1.83,5.06-3.387,7.823-4.749
		l-10.353-41.684c-0.545,0.194-1.051,0.389-1.518,0.584c-0.429,0.156-0.935,0.351-1.518,0.583l0,0
		c-5.178,2.141-10.159,4.709-14.868,7.784c-4.67,3.036-9.107,6.5-13.155,10.353c-1.79,1.713-3.542,3.503-5.176,5.333
		C227.625,90.686,226.028,92.632,224.51,94.656L224.51,94.656z M293.828,102.089L283.086,58.81l-0.233-0.895l0.935-0.117
		l0.856-0.118c1.79-0.233,3.542-0.428,5.332-0.583c1.713-0.117,3.503-0.194,5.255-0.233h0.039h1.83l0,0
		c5.409,0,10.781,0.467,16.113,1.402c5.292,0.934,10.508,2.334,15.567,4.164c1.246,0.466,2.49,0.934,3.736,1.479
		c1.207,0.506,2.414,1.012,3.658,1.596l0,0l0.818,0.389l0.818,0.389l-0.469,0.779l-22.924,38.103l-0.351,0.545l-0.623-0.195
		l-0.623-0.234c-2.451-0.855-5.059-1.518-7.706-1.984c-2.568-0.429-5.215-0.662-7.939-0.662c-0.662,0-1.245,0.039-1.829,0.039l0,0
		h-0.039l-0.623,0.039h-0.661L293.828,102.089z M284.915,59.315l10.353,41.724h0.039c0.662-0.04,1.323-0.04,1.868-0.04
		c2.803,0,5.526,0.233,8.211,0.662c2.725,0.466,5.41,1.168,7.979,2.062l22.106-36.74c-1.168-0.544-2.374-1.051-3.581-1.557
		c-1.244-0.544-2.451-1.012-3.697-1.439c-4.941-1.83-10.08-3.192-15.257-4.125c-5.215-0.895-10.547-1.362-15.84-1.362l0,0h-1.83
		c-1.712,0.039-3.425,0.117-5.176,0.271C288.34,58.888,286.627,59.083,284.915,59.315L284.915,59.315z"/>
	<path fill="#F4F4F4" d="M450.327,235.937c0.7,0.778,1.362,1.557,2.023,2.336c1.285,1.479,2.53,2.957,3.971,4.165l0,0l0.038,0.038
		v0.039h0.04l0,0c1.011,1.05,2.102,2.022,3.229,2.957c1.129,0.973,2.297,1.868,3.504,2.726l0.466,0.35l0.506,0.389l-0.232,0.545
		l-0.195,0.585c-1.323,3.618-2.412,7.277-3.386,11.013c-0.896,3.543-1.635,7.123-2.258,10.859c1.635,0.936,3.31,1.83,4.983,2.687
		c1.672,0.855,3.386,1.634,5.136,2.373c2.803-2.646,5.488-5.37,7.941-8.212c2.606-2.958,5.02-6.032,7.238-9.224l0,0l0.351-0.506
		l0.35-0.506l0.584,0.194l0.546,0.194l0,0c2.14,0.699,4.437,1.09,6.732,1.479c0.545,0.116,1.05,0.194,1.83,0.311
		c1.439,0.195,2.918,0.35,4.437,0.467c1.479,0.118,2.958,0.195,4.358,0.195h0.623h0.585l0.193,0.584l0.156,0.544
		c0.699,2.298,1.44,4.555,2.218,6.812c0.817,2.18,1.675,4.398,2.607,6.617c0.546,1.362,1.168,2.725,1.83,4.124
		c0.544,1.208,1.089,2.336,1.674,3.465c1.868-0.194,3.735-0.466,5.604-0.74c1.828-0.311,3.696-0.699,5.525-1.127
		c0.74-3.621,1.246-7.317,1.557-10.977c0.391-4.086,0.546-8.135,0.507-12.064v-0.546l-0.038-0.584l0.544-0.193l0.545-0.194l0,0
		c0.351-0.117,0.701-0.274,1.129-0.431l0,0c0.429-0.193,0.817-0.31,1.128-0.466c0.935-0.39,1.907-0.856,2.881-1.284
		c0.974-0.467,1.945-0.934,2.88-1.401c0.7-0.428,1.168-0.7,1.596-0.934c2.063-1.167,4.087-2.335,5.838-3.737l0,0l0.506-0.388
		l0.507-0.391l0.506,0.391l0.466,0.388c3.076,2.337,6.229,4.594,9.537,6.657c3.074,1.945,6.304,3.773,9.575,5.447
		c2.84-2.451,5.369-5.254,7.938-8.056c-1.713-3.543-3.464-6.89-5.411-10.119c-1.983-3.348-4.124-6.579-6.498-9.691l0,0l-0.35-0.467
		l-0.353-0.467l0.313-0.468l0.312-0.467c0.816-1.285,1.635-2.53,2.334-3.776c0.74-1.246,1.401-2.567,2.064-3.93l0.038-0.077
		c0.896-1.637,1.596-3.427,2.257-5.255c0.39-0.975,0.741-1.984,1.129-2.881l0.194-0.505l0.234-0.547l0.546,0.04h0.544
		c3.774,0.116,7.629,0.038,11.521-0.234c3.619-0.233,7.316-0.621,11.015-1.168c0.7-3.773,1.401-7.511,1.673-11.246
		c-3.269-1.791-6.617-3.427-10.041-4.905c-3.737-1.596-7.512-2.958-11.249-4.126l-0.582-0.154l-0.586-0.195v-0.622v-0.585
		c0.041-1.79-0.232-3.697-0.505-5.604c-0.155-1.011-0.272-2.023-0.389-3.074c-0.272-1.089-0.506-2.063-0.701-3.036
		c-0.39-1.907-0.817-3.735-1.44-5.448l-0.193-0.584l-0.234-0.583l0.506-0.391l0.545-0.35l0,0c3.152-2.179,6.344-4.593,9.458-7.161
		c2.803-2.296,5.487-4.71,7.979-7.201c-0.74-1.751-1.558-3.463-2.453-5.098c-0.855-1.673-1.79-3.347-2.802-4.981
		c-3.697,0.428-7.356,1.089-10.937,1.907c-3.97,0.895-7.862,2.023-11.559,3.269l-0.469,0.156l-0.506,0.155l-0.389-0.39l-0.351-0.388
		c-0.7-0.74-1.362-1.519-2.024-2.336c-1.284-1.479-2.529-2.919-3.931-4.126l0,0l-0.039-0.039l-0.039-0.039h-0.038v-0.04
		c-1.012-1.012-2.102-1.985-3.23-2.958c-1.13-0.934-2.296-1.83-3.464-2.725h-0.039l-0.468-0.35l-0.505-0.351l0.233-0.584
		l0.194-0.544c1.323-3.658,2.413-7.278,3.387-11.015c0.894-3.542,1.634-7.161,2.256-10.898c-1.634-0.935-3.308-1.829-4.98-2.685
		c-1.674-0.856-3.387-1.635-5.139-2.335c-2.802,2.607-5.447,5.332-7.938,8.173c-2.608,2.958-5.022,6.072-7.24,9.264l-0.35,0.466
		l-0.351,0.506l-0.584-0.193l-0.544-0.156c-2.141-0.701-4.438-1.09-6.734-1.519c-0.544-0.078-1.09-0.155-1.828-0.311
		c-1.44-0.155-2.92-0.312-4.437-0.428c-1.479-0.118-2.92-0.195-4.359-0.195h-0.585h-0.622l-0.194-0.584l-0.155-0.583l0,0
		c-0.702-2.258-1.44-4.515-2.219-6.772c-0.818-2.219-1.674-4.437-2.608-6.616c-0.545-1.362-1.168-2.764-1.829-4.165
		c-0.544-1.167-1.091-2.334-1.673-3.464c-1.868,0.234-3.738,0.467-5.605,0.778c-1.829,0.312-3.698,0.662-5.527,1.128
		c-0.738,3.581-1.245,7.278-1.557,10.938c-0.389,4.086-0.544,8.134-0.505,12.065v0.584l0.038,0.584l-0.584,0.195l-0.505,0.193l0,0
		c-0.352,0.117-0.739,0.272-1.13,0.429c-0.428,0.155-0.816,0.311-1.129,0.428c-0.972,0.429-1.945,0.856-2.92,1.323
		c-0.932,0.429-1.866,0.935-2.84,1.402l0,0c-0.506,0.272-1.05,0.623-1.635,0.934c-2.023,1.168-4.008,2.296-5.8,3.737l0,0
		l-0.506,0.351l-0.504,0.389l-0.507-0.389l-0.468-0.351c-3.074-2.374-6.227-4.592-9.535-6.656c-3.075-1.984-6.306-3.813-9.574-5.487
		c-2.842,2.452-5.372,5.254-7.94,8.095c1.713,3.503,3.465,6.889,5.41,10.081c1.985,3.386,4.126,6.615,6.501,9.73l0.35,0.428
		l0.35,0.466l-0.311,0.506l-0.311,0.469c-0.818,1.244-1.636,2.49-2.337,3.735c-0.739,1.284-1.401,2.568-2.062,3.931v0.078
		c-0.935,1.634-1.596,3.426-2.297,5.293c-0.39,0.973-0.739,1.946-1.13,2.88l-0.194,0.506l-0.233,0.506h-0.544l-0.546-0.038
		c-3.774-0.078-7.627,0-11.52,0.234c-3.62,0.232-7.318,0.622-11.015,1.166c-0.7,3.776-1.401,7.513-1.673,11.249
		c3.269,1.828,6.615,3.465,10.04,4.904c3.698,1.595,7.513,2.958,11.248,4.124l0,0l0.585,0.195l0.583,0.156v0.622v0.584l0,0
		c-0.039,1.829,0.234,3.697,0.506,5.604c0.157,1.013,0.273,2.024,0.39,3.074c0.271,1.013,0.467,2.024,0.699,3.036
		c0.39,1.907,0.78,3.775,1.441,5.449l0.194,0.584l0.233,0.622l-0.506,0.35l-0.545,0.353c-3.152,2.178-6.345,4.592-9.497,7.16
		c-2.763,2.296-5.449,4.709-7.938,7.238c0.738,1.753,1.557,3.427,2.451,5.1c0.856,1.673,1.791,3.308,2.803,4.981
		c3.697-0.468,7.354-1.128,10.936-1.946c3.971-0.895,7.862-1.983,11.561-3.229l0.466-0.156l0.506-0.193l0.352,0.388l0.351,0.39
		H450.327z M451.106,239.322c-0.663-0.739-1.284-1.519-1.985-2.257c-3.735,1.245-7.668,2.374-11.715,3.308
		c-3.815,0.856-7.706,1.558-11.639,1.986l-0.504,0.078l-0.273-0.469c-1.09-1.79-2.141-3.618-3.153-5.526
		c-0.972-1.868-1.868-3.774-2.724-5.72l-0.195-0.507l0.39-0.39c2.687-2.687,5.525-5.293,8.484-7.706
		c3.076-2.568,6.345-5.021,9.574-7.239c-0.661-1.83-1.09-3.736-1.479-5.683c-0.233-0.974-0.467-1.986-0.699-3.035l-0.04-0.039
		v-0.077c-0.078-1.013-0.234-2.064-0.39-3.077c-0.272-1.944-0.544-3.891-0.505-5.837c-3.814-1.167-7.668-2.568-11.443-4.163
		c-3.619-1.559-7.162-3.31-10.625-5.255l-0.43-0.234v-0.506c0.235-4.125,1.013-8.173,1.792-12.261l0.039-0.271l0.116-0.585
		l0.583-0.078c3.932-0.621,7.863-1.011,11.755-1.284c3.893-0.233,7.785-0.312,11.598-0.233c0.43-0.972,0.779-1.906,1.09-2.803
		c0.739-1.906,1.44-3.773,2.375-5.485c0.661-1.362,1.362-2.725,2.102-4.049c0.778-1.323,1.556-2.568,2.374-3.814
		c-2.413-3.191-4.592-6.46-6.617-9.847c-2.023-3.425-3.892-6.967-5.682-10.742l-0.234-0.506l0.351-0.389l0.155-0.117
		c2.764-3.114,5.566-6.188,8.719-8.875l0.429-0.35l0.467,0.233c3.502,1.791,6.928,3.698,10.235,5.799
		c3.309,2.102,6.54,4.358,9.615,6.733c1.867-1.44,3.93-2.646,5.992-3.854c0.546-0.271,1.052-0.583,1.674-0.934l0.039-0.038
		c0.896-0.467,1.867-0.935,2.88-1.402c0.974-0.467,1.945-0.894,2.997-1.323c0.428-0.194,0.817-0.35,1.129-0.506
		c0.39-0.117,0.777-0.272,1.168-0.428c-0.039-3.97,0.116-8.057,0.506-12.182c0.35-3.931,0.896-7.823,1.673-11.676l0.117-0.506
		l0.507-0.118c2.023-0.505,4.085-0.934,6.148-1.284c2.102-0.35,4.165-0.583,6.266-0.817l0.544-0.078l0.274,0.507
		c0.7,1.362,1.362,2.724,1.984,4.046c0.622,1.362,1.246,2.764,1.829,4.165c0.935,2.218,1.83,4.476,2.607,6.733
		c0.857,2.297,1.596,4.593,2.259,6.851c1.518,0,3.035,0.078,4.514,0.194c1.479,0.117,2.998,0.273,4.477,0.429h0.078
		c0.466,0.117,1.168,0.233,1.829,0.35c2.335,0.39,4.67,0.779,6.927,1.518c2.296-3.229,4.748-6.343,7.356-9.379
		c2.646-2.998,5.449-5.877,8.445-8.639l0.39-0.351l0.466,0.194c1.986,0.778,3.893,1.636,5.761,2.608
		c1.908,0.935,3.737,1.946,5.566,2.998l0.467,0.311l-0.078,0.544c-0.661,3.971-1.439,7.824-2.373,11.56
		c-0.974,3.775-2.103,7.473-3.427,11.169c1.207,0.896,2.414,1.791,3.543,2.763c1.129,0.935,2.257,1.946,3.308,3.036l0,0h0.04
		c1.517,1.284,2.801,2.803,4.125,4.359c0.661,0.739,1.284,1.518,1.985,2.257c3.736-1.246,7.668-2.375,11.675-3.269
		c3.854-0.857,7.747-1.557,11.677-2.024l0.507-0.04l0.272,0.429c1.09,1.79,2.14,3.658,3.151,5.527
		c0.975,1.868,1.868,3.775,2.725,5.721l0.195,0.506l-0.389,0.39c-2.687,2.725-5.527,5.292-8.485,7.745
		c-3.074,2.568-6.344,4.982-9.575,7.238c0.662,1.79,1.09,3.699,1.479,5.645c0.235,1.013,0.469,2.062,0.702,3.036l0.038,0.076v0.04
		c0.078,1.013,0.233,2.063,0.39,3.074c0.271,1.986,0.545,3.893,0.507,5.838c3.813,1.168,7.666,2.569,11.441,4.165
		c3.62,1.558,7.161,3.308,10.626,5.255l0.428,0.271v0.506c-0.233,4.126-1.013,8.175-1.79,12.261l-0.039,0.272l-0.116,0.544
		l-0.585,0.117c-3.93,0.585-7.861,1.013-11.753,1.245c-3.892,0.272-7.784,0.351-11.599,0.233c-0.428,0.974-0.739,1.908-1.09,2.803
		c-0.74,1.908-1.439,3.814-2.374,5.526c-0.663,1.362-1.362,2.687-2.103,4.01c-0.778,1.323-1.557,2.607-2.374,3.853
		c2.413,3.153,4.593,6.423,6.616,9.847c2.024,3.387,3.893,6.967,5.683,10.704l0.233,0.505l-0.35,0.428l-0.116,0.117l0,0
		c-2.804,3.075-5.604,6.189-8.758,8.874l-0.428,0.351l-0.468-0.273c-3.503-1.75-6.927-3.696-10.236-5.759
		c-3.308-2.102-6.538-4.358-9.612-6.733c-1.868,1.44-3.932,2.646-6.032,3.854c-0.624,0.351-1.246,0.7-1.596,0.933h-0.078
		c-0.973,0.507-1.947,0.975-2.921,1.44c-0.933,0.428-1.906,0.896-2.957,1.324c-0.428,0.193-0.817,0.35-1.128,0.466l0,0
		c-0.352,0.157-0.74,0.274-1.167,0.43c0.038,3.969-0.118,8.095-0.506,12.221c-0.353,3.893-0.896,7.823-1.675,11.637l-0.117,0.506
		l-0.505,0.117c-2.023,0.545-4.088,0.934-6.149,1.283c-2.103,0.352-4.165,0.624-6.268,0.856l-0.544,0.04l-0.272-0.506
		c-0.701-1.323-1.361-2.686-1.985-4.009c-0.622-1.362-1.244-2.764-1.829-4.204c-0.934-2.218-1.829-4.437-2.608-6.694
		c-0.855-2.334-1.596-4.631-2.257-6.85c-1.518,0-3.036-0.078-4.515-0.194s-2.996-0.273-4.476-0.468h-0.078
		c-0.467-0.077-1.167-0.194-1.829-0.312c-2.374-0.428-4.71-0.816-6.928-1.556c-2.297,3.269-4.71,6.382-7.356,9.379
		c-2.646,2.998-5.448,5.917-8.445,8.679l-0.39,0.352l-0.467-0.194c-1.985-0.779-3.893-1.676-5.761-2.607
		c-1.906-0.975-3.735-1.986-5.565-3.036l-0.467-0.274l0.078-0.544c0.663-4.009,1.44-7.822,2.375-11.599
		c0.972-3.735,2.101-7.433,3.424-11.131c-1.206-0.895-2.414-1.829-3.541-2.762c-1.129-0.975-2.258-1.986-3.348-3.077l0,0
		C453.713,242.397,452.429,240.88,451.106,239.322L451.106,239.322z M496.915,237.804c-4.593-0.699-9.185-2.101-13.467-4.201
		c-4.047-1.947-7.784-4.556-10.976-7.785l0,0c-2.179-2.023-4.087-4.242-5.721-6.655c-1.713-2.491-3.153-5.1-4.32-7.862
		c-0.623-1.558-1.167-3.075-1.635-4.67c-0.506-1.558-0.895-3.191-1.207-4.826v-0.039c-0.739-4.672-0.816-9.38-0.194-14.012h0.039
		c0.624-4.476,1.946-8.835,3.97-12.922l0,0c1.907-4.126,4.554-7.861,7.706-11.132c3.271-3.385,7.083-6.305,11.21-8.561l0,0
		c0.583-0.313,1.168-0.585,1.712-0.856c0.546-0.273,1.168-0.545,1.751-0.78c3.699-1.556,7.592-2.606,11.56-3.113
		c3.932-0.544,7.94-0.544,11.871,0l0,0c4.593,0.702,9.187,2.102,13.467,4.204c4.049,1.986,7.784,4.592,10.975,7.785l0,0
		c2.181,2.023,4.087,4.279,5.723,6.654c1.712,2.491,3.151,5.138,4.319,7.902c0.624,1.517,1.168,3.074,1.635,4.63
		c0.507,1.557,0.896,3.192,1.206,4.864l0,0c0.779,4.671,0.818,9.421,0.194,14.052c-0.66,4.437-1.983,8.796-4.008,12.883l0,0
		c-1.907,4.125-4.555,7.861-7.667,11.13c-3.114,3.23-6.694,5.994-10.548,8.175h0.039l-0.7,0.389l0,0l-0.74,0.389l0,0
		c-0.35,0.157-0.661,0.312-1.012,0.468c-0.584,0.271-1.167,0.545-1.752,0.816c-3.696,1.519-7.589,2.569-11.559,3.114
		c-3.931,0.507-7.94,0.507-11.832-0.04H496.915z M484.188,232.162c4.087,1.984,8.524,3.347,13,4.008l0,0
		c3.736,0.545,7.589,0.545,11.404,0.038c3.814-0.505,7.55-1.518,11.093-2.996c0.544-0.233,1.127-0.506,1.712-0.777
		c0.544-0.233,1.091-0.547,1.635-0.818l0,0c3.97-2.18,7.666-4.981,10.818-8.251c2.999-3.152,5.528-6.732,7.396-10.703l0,0
		c1.946-3.932,3.23-8.134,3.853-12.415c0.624-4.477,0.546-9.03-0.156-13.545l0,0c-0.311-1.558-0.699-3.113-1.167-4.67
		c-0.467-1.558-1.011-3.036-1.596-4.477c-1.13-2.646-2.53-5.216-4.164-7.59c-1.558-2.296-3.386-4.437-5.487-6.383v-0.039
		c-3.076-3.075-6.695-5.565-10.588-7.472c-4.087-2.023-8.523-3.348-12.999-4.049l0,0c-3.735-0.545-7.59-0.505-11.404-0.039
		c-3.813,0.507-7.589,1.518-11.091,3.036c-0.547,0.234-1.13,0.468-1.712,0.74c-0.585,0.271-1.13,0.544-1.636,0.818l0,0
		c-3.971,2.178-7.668,4.98-10.82,8.288c-2.997,3.113-5.526,6.695-7.395,10.665v0.04c-1.945,3.93-3.229,8.094-3.854,12.414l0,0
		c-0.622,4.437-0.544,8.99,0.155,13.505l0,0c0.313,1.598,0.701,3.153,1.168,4.672c0.468,1.556,1.013,3.035,1.595,4.476
		c1.13,2.646,2.53,5.214,4.166,7.589c1.557,2.297,3.387,4.476,5.487,6.422l0,0C476.677,227.724,480.297,230.254,484.188,232.162
		L484.188,232.162z"/>
	<path fill="#F4F4F4" d="M49.407,246.874c0.935,0.583,1.712,1.205,2.53,1.79c1.596,1.168,3.153,2.295,4.787,3.151l0,0h0.039
		l0.04,0.04l0,0l0.039,0.038l0,0c1.245,0.779,2.53,1.479,3.814,2.142c1.323,0.661,2.646,1.244,4.008,1.829l0.545,0.233l0.584,0.272
		l-0.078,0.584l-0.078,0.584v0.038c-0.428,3.854-0.701,7.628-0.778,11.443c-0.039,3.657,0.039,7.355,0.272,11.131
		c1.829,0.545,3.62,1.051,5.45,1.479c1.829,0.428,3.697,0.816,5.565,1.128c2.141-3.191,4.087-6.46,5.876-9.769
		c1.83-3.503,3.503-7.045,4.943-10.665l0,0l0.233-0.544l0.234-0.585l0.583,0.079l0.584,0.039c2.257,0.194,4.554,0.039,6.889-0.078
		c0.584-0.04,1.167-0.079,1.829-0.117c1.479-0.156,2.958-0.351,4.437-0.584c1.44-0.194,2.88-0.466,4.32-0.818l0.545-0.116
		l0.623-0.155l0.311,0.546l0.273,0.506c1.167,2.062,2.413,4.087,3.736,6.11l0,0c1.245,1.946,2.568,3.893,4.009,5.837
		c0.896,1.246,1.791,2.452,2.724,3.62c0.778,1.012,1.595,2.023,2.413,2.997c1.791-0.623,3.542-1.284,5.293-2.025
		c1.752-0.699,3.464-1.479,5.138-2.334c-0.117-3.658-0.467-7.395-0.974-11.053c-0.544-4.049-1.323-8.018-2.296-11.833l0,0
		l-0.116-0.544l-0.156-0.584l0.506-0.312l0.467-0.311c0.312-0.195,0.623-0.39,1.012-0.663l0,0c0.311-0.193,0.623-0.428,0.973-0.699
		c0.856-0.624,1.712-1.285,2.53-1.945c0.817-0.624,1.634-1.324,2.49-2.025c0.467-0.428,0.895-0.816,1.323-1.246
		c1.751-1.596,3.464-3.191,4.865-4.941l0,0l0.39-0.506l0.389-0.507l0.584,0.271l0.545,0.273c3.542,1.596,7.123,3.036,10.781,4.32
		c3.464,1.167,7.006,2.218,10.586,3.114c2.179-2.997,4.047-6.306,5.877-9.653c-2.452-3.074-4.943-5.916-7.551-8.641
		c-2.686-2.802-5.526-5.449-8.563-7.938l0,0l-0.427-0.353l-0.467-0.388l0.233-0.544l0.195-0.547
		c0.505-1.361,0.972-2.764,1.401-4.163c0.428-1.439,0.817-2.88,1.089-4.32l0.039-0.038c0.506-1.791,0.778-3.737,1.012-5.683
		c0.117-1.013,0.272-2.064,0.428-3.075l0.078-0.507l0.117-0.583l0.544-0.117l0.545-0.077c3.659-0.779,7.396-1.714,11.131-2.841
		c3.503-1.091,7.006-2.297,10.47-3.659c-0.156-3.813-0.351-7.628-0.935-11.327c-3.581-1.011-7.239-1.867-10.898-2.489
		c-3.97-0.702-7.979-1.206-11.909-1.44l-0.584-0.077l-0.623-0.04l-0.116-0.583l-0.117-0.584h-0.039
		c-0.39-1.79-1.051-3.543-1.751-5.332c-0.39-0.975-0.779-1.985-1.09-2.92c-0.467-0.896-0.934-1.868-1.362-2.803
		c-0.817-1.75-1.635-3.462-2.646-4.98l0,0l-0.351-0.507l-0.35-0.545l0.428-0.466l0.428-0.469c2.607-2.88,5.176-5.954,7.628-9.106
		c2.141-2.88,4.204-5.838,6.072-8.874c-1.129-1.518-2.297-2.958-3.542-4.398c-1.207-1.439-2.53-2.841-3.854-4.204
		c-3.463,1.285-6.889,2.725-10.236,4.36c-3.658,1.79-7.2,3.736-10.469,5.799l0,0l-0.467,0.273l-0.428,0.271l-0.467-0.311
		l-0.428-0.273c-0.896-0.622-1.713-1.206-2.492-1.79c-1.596-1.167-3.152-2.335-4.826-3.191l0,0l0,0h-0.039l-0.039-0.04h-0.039
		c-1.206-0.778-2.49-1.479-3.814-2.141c-1.284-0.661-2.646-1.284-4.009-1.867l0,0l-0.544-0.234l-0.545-0.233l0.078-0.623
		l0.039-0.584c0.467-3.853,0.739-7.667,0.778-11.481c0.078-3.658,0-7.316-0.233-11.092c-1.829-0.544-3.62-1.051-5.488-1.519
		c-1.79-0.428-3.658-0.817-5.526-1.089c-2.14,3.191-4.086,6.422-5.877,9.769c-1.868,3.463-3.502,7.005-4.943,10.664l0,0
		l-0.233,0.545l-0.234,0.544l-0.584-0.039l-0.583-0.04c-2.257-0.194-4.593-0.077-6.889,0.078c-0.623,0.04-1.207,0.078-1.829,0.078
		c-1.479,0.194-2.958,0.351-4.437,0.583c-1.44,0.234-2.88,0.506-4.32,0.817l-0.583,0.156l-0.584,0.117l-0.311-0.506l-0.273-0.545
		l0,0c-1.206-2.023-2.452-4.086-3.736-6.071c-1.246-1.986-2.608-3.931-4.009-5.877c-0.895-1.246-1.829-2.452-2.724-3.62
		c-0.778-0.972-1.595-1.985-2.452-2.996c-1.751,0.662-3.541,1.323-5.254,2.024l0,0c-1.751,0.739-3.464,1.518-5.137,2.374
		c0.117,3.659,0.467,7.355,0.973,11.014c0.545,4.048,1.323,8.057,2.258,11.833l0.155,0.584l0.117,0.544l-0.467,0.312l-0.467,0.312
		c-0.35,0.233-0.701,0.466-1.012,0.662c-0.35,0.271-0.7,0.505-1.012,0.739l0,0c-0.856,0.623-1.673,1.245-2.53,1.907
		c-0.818,0.662-1.635,1.362-2.452,2.024c-0.467,0.428-0.934,0.855-1.362,1.284c-1.713,1.596-3.425,3.191-4.827,4.943l0,0
		l-0.389,0.467l-0.39,0.504l-0.583-0.271l-0.584-0.233c-3.503-1.596-7.083-3.075-10.742-4.32c-3.464-1.206-7.005-2.257-10.586-3.152
		c-2.218,3.036-4.047,6.344-5.877,9.691c2.452,3.036,4.943,5.916,7.512,8.601c2.724,2.841,5.565,5.449,8.562,7.979l0,0l0.467,0.351
		l0.428,0.352L28.39,170.2l-0.194,0.545l0,0c-0.506,1.362-0.973,2.763-1.401,4.203c-0.428,1.401-0.817,2.842-1.128,4.281v0.077
		c-0.506,1.791-0.778,3.698-1.013,5.644c-0.155,1.051-0.272,2.063-0.428,3.075l-0.117,0.546l-0.078,0.544l-0.545,0.116l-0.544,0.117
		l0,0c-3.698,0.779-7.395,1.712-11.131,2.841c-3.502,1.052-7.006,2.259-10.47,3.66c0.156,3.813,0.312,7.589,0.935,11.324
		c3.581,1.013,7.2,1.831,10.858,2.491c4.009,0.702,8.018,1.168,11.949,1.439l0,0l0.584,0.04l0.583,0.038l0.156,0.584l0.117,0.584
		c0.428,1.79,1.09,3.542,1.79,5.371c0.389,0.934,0.74,1.907,1.09,2.881c0.466,0.895,0.895,1.867,1.362,2.801
		c0.817,1.753,1.635,3.465,2.646,4.982l0,0l0.351,0.506l0.35,0.545l-0.428,0.468l-0.428,0.466c-2.647,2.88-5.215,5.955-7.628,9.147
		c-2.141,2.842-4.204,5.8-6.111,8.835c1.129,1.518,2.335,2.997,3.542,4.397c1.246,1.44,2.53,2.842,3.892,4.243
		c3.464-1.285,6.89-2.764,10.198-4.398c3.697-1.791,7.199-3.737,10.508-5.76l0.428-0.273l0.467-0.311l0.429,0.311l0.428,0.273
		V246.874z M50.963,249.987c-0.817-0.624-1.634-1.206-2.452-1.751c-3.386,2.062-6.927,4.047-10.625,5.876
		c-3.503,1.674-7.162,3.23-10.898,4.593l-0.506,0.155l-0.351-0.35c-1.479-1.518-2.919-3.074-4.32-4.671
		c-1.362-1.597-2.685-3.269-3.931-4.942l-0.35-0.468l0.311-0.467c1.946-3.191,4.165-6.383,6.5-9.458
		c2.451-3.229,5.06-6.343,7.667-9.223c-1.05-1.637-1.907-3.387-2.724-5.177c-0.428-0.896-0.896-1.83-1.362-2.803l-0.039-0.039
		l-0.039-0.078c-0.312-0.973-0.7-1.945-1.051-2.88c-0.739-1.868-1.44-3.659-1.868-5.565c-3.97-0.273-8.018-0.739-12.065-1.479
		c-3.853-0.661-7.746-1.557-11.521-2.687l-0.505-0.116l-0.079-0.505c-0.739-4.049-0.895-8.174-1.089-12.339v-0.272l-0.039-0.582
		l0.545-0.234c3.736-1.479,7.434-2.802,11.17-3.931c3.736-1.13,7.473-2.064,11.248-2.842c0.156-1.051,0.312-2.023,0.429-2.996
		c0.272-2.023,0.506-3.971,1.051-5.878c0.311-1.517,0.7-2.996,1.128-4.397c0.428-1.439,0.934-2.842,1.44-4.281
		c-3.075-2.53-5.916-5.216-8.679-8.096c-2.764-2.842-5.41-5.916-7.979-9.146l-0.35-0.428l0.272-0.468l0.078-0.156
		c2.024-3.657,4.009-7.276,6.5-10.624l0.312-0.429l0.544,0.118c3.814,0.934,7.551,2.023,11.249,3.308
		c3.736,1.284,7.356,2.763,10.937,4.359c1.479-1.867,3.191-3.464,4.942-5.098c0.467-0.428,0.934-0.895,1.401-1.286l0.039-0.039
		c0.817-0.7,1.635-1.362,2.491-2.063c0.856-0.661,1.712-1.323,2.607-1.985l0,0c0.35-0.234,0.701-0.506,1.012-0.7
		c0.311-0.234,0.662-0.467,1.012-0.701c-0.934-3.854-1.712-7.901-2.296-11.988c-0.545-3.892-0.895-7.822-1.012-11.715v-0.545
		l0.467-0.233c1.868-0.973,3.775-1.83,5.721-2.646l0,0c1.946-0.779,3.893-1.519,5.877-2.219l0.545-0.194l0.351,0.429
		c0.972,1.128,1.906,2.296,2.841,3.463c0.972,1.245,1.868,2.452,2.763,3.659c1.401,1.946,2.763,3.931,4.086,5.955
		c1.324,2.063,2.569,4.125,3.736,6.149c1.44-0.35,2.919-0.623,4.437-0.856c1.44-0.194,2.958-0.389,4.476-0.584h0.039
		c0.584,0,1.246-0.039,1.868-0.077c2.413-0.156,4.788-0.311,7.123-0.078c1.44-3.698,3.152-7.278,5.021-10.82
		c1.867-3.503,3.969-6.967,6.265-10.353l0.273-0.429l0.505,0.078c2.063,0.311,4.126,0.739,6.189,1.206
		c2.063,0.507,4.087,1.091,6.11,1.674l0.545,0.196l0.039,0.544c0.233,4.009,0.351,7.939,0.272,11.832
		c-0.039,3.893-0.312,7.746-0.779,11.599c1.401,0.622,2.763,1.246,4.087,1.907c1.362,0.701,2.686,1.402,3.931,2.219h0.039
		c1.752,0.895,3.347,2.101,5.021,3.309c0.818,0.584,1.635,1.206,2.453,1.75c3.346-2.101,6.927-4.086,10.625-5.876
		c3.503-1.712,7.162-3.269,10.897-4.593l0.467-0.194l0.39,0.389c1.479,1.479,2.919,3.036,4.281,4.631
		c1.401,1.635,2.725,3.269,3.97,4.982l0.311,0.428l-0.272,0.467c-1.985,3.23-4.165,6.421-6.5,9.458
		c-2.452,3.269-5.06,6.343-7.706,9.224c1.089,1.634,1.907,3.386,2.763,5.177c0.428,0.895,0.856,1.829,1.362,2.802l0.039,0.04v0.076
		c0.389,1.012,0.739,1.985,1.09,2.92c0.739,1.828,1.44,3.658,1.868,5.527c3.97,0.271,8.018,0.777,12.065,1.479
		c3.853,0.699,7.745,1.556,11.521,2.684l0.505,0.155l0.078,0.507c0.701,4.049,0.896,8.173,1.09,12.337v0.274l0.039,0.582
		l-0.545,0.195c-3.736,1.518-7.473,2.803-11.17,3.931c-3.736,1.129-7.511,2.102-11.248,2.881c-0.195,1.011-0.312,1.983-0.428,2.996
		c-0.273,1.985-0.506,3.971-1.051,5.839c-0.312,1.518-0.701,2.997-1.128,4.438c-0.429,1.4-0.934,2.841-1.479,4.28
		c3.075,2.53,5.955,5.214,8.718,8.056c2.763,2.881,5.371,5.917,7.979,9.187l0.35,0.428l-0.272,0.467l-0.078,0.116
		c-2.024,3.659-4.048,7.316-6.5,10.665l-0.312,0.428l-0.544-0.116c-3.815-0.935-7.59-2.063-11.249-3.347
		c-3.736-1.285-7.395-2.725-10.937-4.359c-1.479,1.868-3.23,3.502-4.982,5.137c-0.466,0.428-0.934,0.856-1.362,1.284l-0.039,0.039
		c-0.817,0.662-1.635,1.362-2.53,2.024c-0.817,0.7-1.673,1.361-2.569,1.985c-0.312,0.233-0.623,0.467-1.012,0.738l0,0
		c-0.311,0.194-0.662,0.43-1.012,0.663c0.934,3.892,1.712,7.9,2.296,11.986c0.545,3.893,0.895,7.822,0.973,11.755l0.039,0.505
		l-0.467,0.234c-1.868,0.973-3.775,1.868-5.721,2.646c-1.907,0.818-3.893,1.558-5.916,2.258l-0.506,0.194l-0.389-0.466
		c-0.935-1.091-1.868-2.259-2.803-3.465c-0.973-1.205-1.906-2.451-2.763-3.658c-1.401-1.907-2.764-3.893-4.087-5.916l0,0
		c-1.323-2.063-2.569-4.126-3.736-6.148c-1.479,0.311-2.958,0.583-4.437,0.816s-2.958,0.428-4.476,0.584h-0.078
		c-0.545,0.04-1.206,0.078-1.868,0.117l0,0c-2.374,0.155-4.749,0.272-7.083,0.077c-1.479,3.697-3.152,7.278-5.021,10.781
		c-1.869,3.542-3.97,7.006-6.266,10.392l-0.273,0.429l-0.506-0.079c-2.063-0.312-4.125-0.739-6.227-1.244
		c-2.024-0.508-4.048-1.052-6.072-1.675l-0.544-0.155l-0.039-0.584c-0.273-4.009-0.39-7.899-0.312-11.792
		c0.078-3.893,0.351-7.745,0.779-11.638c-1.362-0.584-2.725-1.206-4.087-1.907c-1.323-0.661-2.646-1.4-3.931-2.18l0,0
		C54.233,252.36,52.599,251.194,50.963,249.987L50.963,249.987z M126.508,134.938L126.508,134.938 M126.547,134.938L126.547,134.938
		 M95.217,238.077c-4.632,0.351-9.419,0.04-14.051-1.051c-4.397-0.974-8.64-2.686-12.493-5.061l0,0
		c-2.569-1.479-4.943-3.229-7.083-5.176c-2.218-2.024-4.204-4.28-5.955-6.694c-0.972-1.323-1.869-2.725-2.686-4.165
		s-1.596-2.919-2.257-4.437l-0.039-0.039c-1.79-4.359-2.919-8.951-3.348-13.621c-0.389-4.477-0.117-8.991,0.974-13.467l0,0
		c0.895-4.437,2.607-8.679,4.943-12.571c2.413-4.087,5.487-7.745,8.952-10.896l0,0c0.506-0.431,1.011-0.858,1.479-1.246
		c0.506-0.391,1.012-0.779,1.557-1.168c3.191-2.337,6.772-4.242,10.509-5.644c3.736-1.401,7.628-2.336,11.559-2.686l0,0
		c4.671-0.389,9.458-0.04,14.09,1.012c4.398,1.013,8.64,2.686,12.493,5.098l0,0c2.569,1.479,4.904,3.231,7.045,5.178
		c2.219,2.023,4.242,4.242,5.994,6.693c0.934,1.322,1.83,2.685,2.686,4.125c0.817,1.44,1.596,2.92,2.257,4.438v0.038
		c1.79,4.36,2.958,8.954,3.386,13.624c0.39,4.476,0.079,9.028-0.973,13.465l0,0c-0.934,4.438-2.646,8.681-4.943,12.573
		c-2.257,3.852-5.137,7.354-8.367,10.353l0,0l-0.467,0.428l-0.117,0.116l-0.622,0.546l0,0c-0.312,0.232-0.584,0.467-0.895,0.7
		c-0.506,0.388-1.013,0.778-1.518,1.168c-3.231,2.334-6.773,4.242-10.509,5.683c-3.736,1.4-7.628,2.295-11.56,2.646L95.217,238.077z
		 M81.556,235.431c4.437,1.05,9.067,1.324,13.543,0.972l0,0c3.775-0.311,7.551-1.205,11.132-2.567
		c3.58-1.362,7.005-3.191,10.119-5.449c0.506-0.35,1.013-0.74,1.479-1.128c0.506-0.39,0.974-0.778,1.44-1.169l0,0
		c3.347-3.035,6.305-6.577,8.64-10.508c2.219-3.735,3.854-7.822,4.749-12.104l0,0c1.012-4.28,1.285-8.64,0.934-12.96
		c-0.428-4.516-1.517-8.912-3.269-13.154c-0.661-1.479-1.362-2.92-2.179-4.282c-0.778-1.362-1.635-2.687-2.569-3.971
		c-1.712-2.334-3.619-4.515-5.76-6.46c-2.063-1.869-4.359-3.581-6.811-4.982v-0.039c-3.697-2.295-7.785-3.891-12.027-4.863
		c-4.437-1.013-9.068-1.324-13.544-0.975l0,0c-3.814,0.35-7.551,1.207-11.131,2.569c-3.62,1.361-7.044,3.229-10.12,5.449
		c-0.506,0.389-1.012,0.738-1.479,1.129c-0.506,0.428-0.973,0.816-1.44,1.205l0,0c-3.347,2.997-6.305,6.579-8.64,10.51
		c-2.219,3.735-3.854,7.784-4.749,12.064v0.04c-1.051,4.242-1.324,8.641-0.934,12.961c0.389,4.475,1.518,8.912,3.23,13.115
		c0.662,1.479,1.401,2.92,2.18,4.281c0.817,1.362,1.673,2.725,2.608,4.01c1.712,2.334,3.62,4.476,5.76,6.421
		c2.063,1.906,4.32,3.58,6.772,5.021h0.039C73.227,232.862,77.313,234.458,81.556,235.431L81.556,235.431z"/>
</g>
</svg>
