<?xml version="1.0" encoding="utf-8"?>
<!-- Generator: Adobe Illustrator 16.0.0, SVG Export Plug-In . SVG Version: 6.00 Build 0)  -->
<!DOCTYPE svg PUBLIC "-//W3C//DTD SVG 1.1//EN" "http://www.w3.org/Graphics/SVG/1.1/DTD/svg11.dtd">
<svg version="1.1"
	 id="svg2" xmlns:svg="http://www.w3.org/2000/svg" xmlns:inkscape="http://www.inkscape.org/namespaces/inkscape" xmlns:sodipodi="http://sodipodi.sourceforge.net/DTD/sodipodi-0.dtd" xmlns:dc="http://purl.org/dc/elements/1.1/" xmlns:rdf="http://www.w3.org/1999/02/22-rdf-syntax-ns#" xmlns:cc="http://creativecommons.org/ns#" sodipodi:docname="MSX-Logo.svg" inkscape:version="0.47 r22583"
	 xmlns="http://www.w3.org/2000/svg" xmlns:xlink="http://www.w3.org/1999/xlink" x="0px" y="0px" width="566.93px"
	 height="234.744px" viewBox="0 0 566.93 234.744" enable-background="new 0 0 566.93 234.744" xml:space="preserve">
<defs>
	
	
		<inkscape:perspective  inkscape:vp_y="0 : 1000 : 0" inkscape:vp_x="0 : 526.18109 : 1" sodipodi:type="inkscape:persp3d" inkscape:vp_z="744.09448 : 526.18109 : 1" id="perspective10" inkscape:persp3d-origin="372.04724 : 350.78739 : 1">
		</inkscape:perspective>
	
		<inkscape:perspective  inkscape:vp_y="0 : 1000 : 0" inkscape:vp_x="0 : 0.5 : 1" sodipodi:type="inkscape:persp3d" inkscape:vp_z="1 : 0.5 : 1" id="perspective2824" inkscape:persp3d-origin="0.5 : 0.33333333 : 1">
		</inkscape:perspective>
</defs>
<sodipodi:namedview  borderopacity="1.0" pagecolor="#ffffff" bordercolor="#666666" inkscape:cy="142.45913" inkscape:cx="125.21669" showgrid="false" inkscape:zoom="2" id="base" inkscape:window-width="1280" inkscape:window-x="-4" inkscape:current-layer="layer1" inkscape:window-y="-4" inkscape:pageshadow="2" inkscape:window-height="968" inkscape:pageopacity="0.0" inkscape:window-maximized="1" inkscape:document-units="px">
	</sodipodi:namedview>
<path id="path2830" sodipodi:nodetypes="cccccccccccccccccccccccccccccccccccc" fill="#959595" d="M37.191,201.106L80.255,31.597
	h39.933l20.749,73.991l21.53-73.991h37.583l35.233,124.882l85.965-0.162c9.023-0.088,9.577-18.748-0.668-18.743l-50.063-0.668
	c-21.497,0.207-44.167-23.05-43.063-54.025c0.229-28.412,25.004-50.786,56.698-50.778l127.69-0.114l32.494,44.238l31.709-44.629
	l52.85,0.392l-57.938,81.428l62.638,88.292l-52.572-0.162l-36.456-50.66l-34.681,50.66l-53.633-0.047l61.07-87.3L390.7,75.444
	l-110.999,0.162c-12.114,0.111-11.669,19.169,0.095,18.812l46.769,0.716c19.767,0.127,47.604,20.668,46.911,52.736
	c0.302,37.279-33.275,54.313-49.441,53.4l-122.419,0.164l-20.357-76.271l-20.356,76.107h-38.645l-21.255-75.718l-18.677,75.833
	L37.191,201.106z"/>
</svg>
