<?xml version="1.0" encoding="utf-8"?>
<!-- Generator: Adobe Illustrator 16.0.0, SVG Export Plug-In . SVG Version: 6.00 Build 0)  -->
<!DOCTYPE svg PUBLIC "-//W3C//DTD SVG 1.1//EN" "http://www.w3.org/Graphics/SVG/1.1/DTD/svg11.dtd">
<svg version="1.1" id="Layer_1" xmlns="http://www.w3.org/2000/svg" xmlns:xlink="http://www.w3.org/1999/xlink" x="0px" y="0px"
	 width="594px" height="300px" viewBox="0 0 594 300" enable-background="new 0 0 594 300" xml:space="preserve">
<g>
	<path fill="#F4F4F4" d="M7.761,1.295h210.521c1.433,0,2.75,0.581,3.718,1.549l0,0c0.93,0.968,1.549,2.246,1.549,3.717V44.43v0.852
		h-0.814h-71.593c-1.123,0-2.169,0.465-2.943,1.201c-0.736,0.774-1.2,1.781-1.2,2.942v123.325v0.851h-0.814H7.761
		c-1.472,0-2.75-0.618-3.718-1.55l0,0c-0.967-0.966-1.549-2.283-1.549-3.716V6.562c0-1.472,0.582-2.788,1.549-3.717
		C4.973,1.876,6.289,1.295,7.761,1.295L7.761,1.295z M218.281,2.922H7.761c-1.007,0-1.898,0.425-2.556,1.083
		C4.547,4.664,4.12,5.554,4.12,6.562v161.772c0,1.006,0.427,1.896,1.084,2.556l0,0c0.658,0.659,1.549,1.046,2.556,1.046h137.572
		V49.424c0-1.587,0.658-3.059,1.704-4.104l0,0c1.084-1.045,2.517-1.704,4.104-1.704h70.742V6.562c0-1.007-0.387-1.897-1.046-2.556
		C220.179,3.347,219.29,2.922,218.281,2.922L218.281,2.922z"/>
	<path fill="#F4F4F4" d="M7.761,1.295h210.521c1.433,0,2.75,0.581,3.718,1.549l0,0l0,0c0.968,0.968,1.549,2.246,1.549,3.717v14.327
		v0.813h-0.814H3.308H2.494v-0.813V6.562c0-1.472,0.582-2.788,1.549-3.717C4.973,1.876,6.289,1.295,7.761,1.295L7.761,1.295z
		 M218.281,2.922H7.761c-1.007,0-1.898,0.425-2.556,1.083C4.547,4.664,4.12,5.554,4.12,6.562v13.474h217.763V6.562
		c0-1.007-0.387-1.897-1.046-2.556l0,0C220.179,3.347,219.29,2.922,218.281,2.922L218.281,2.922z M174.683,5.632
		c1.587,0,3.059,0.658,4.143,1.704c1.046,1.083,1.704,2.555,1.704,4.143c0,1.626-0.658,3.098-1.704,4.143h-0.039
		c-1.046,1.084-2.517,1.743-4.104,1.743c-1.626,0-3.098-0.658-4.144-1.743c-1.083-1.045-1.742-2.517-1.742-4.143
		c0-1.587,0.659-3.059,1.742-4.143C171.585,6.29,173.057,5.632,174.683,5.632L174.683,5.632z M177.664,8.497
		c-0.774-0.736-1.82-1.239-2.981-1.239c-1.201,0-2.245,0.503-3.02,1.239c-0.735,0.774-1.201,1.82-1.201,2.981
		c0,1.2,0.465,2.246,1.201,2.982c0.775,0.774,1.819,1.238,3.02,1.238c1.162,0,2.208-0.464,2.981-1.2V14.46
		c0.736-0.736,1.239-1.782,1.239-2.982C178.903,10.317,178.4,9.271,177.664,8.497L177.664,8.497z M188.506,5.632
		c1.626,0,3.059,0.658,4.143,1.704c1.044,1.083,1.704,2.555,1.704,4.143c0,1.626-0.659,3.098-1.704,4.143
		c-1.084,1.084-2.517,1.743-4.143,1.743c-1.626,0-3.098-0.658-4.144-1.743l0,0c-1.084-1.045-1.742-2.517-1.742-4.143
		c0-1.587,0.658-3.059,1.742-4.143C185.409,6.29,186.88,5.632,188.506,5.632L188.506,5.632z M191.488,8.497
		c-0.775-0.736-1.82-1.239-2.981-1.239c-1.162,0-2.247,0.503-2.981,1.239c-0.775,0.774-1.239,1.82-1.239,2.981
		c0,1.2,0.464,2.246,1.239,2.982v0.039c0.735,0.736,1.819,1.2,2.981,1.2c1.162,0,2.206-0.464,2.981-1.238
		c0.773-0.736,1.239-1.782,1.239-2.982C192.727,10.317,192.261,9.271,191.488,8.497L191.488,8.497z M202.329,5.632
		c1.626,0,3.097,0.658,4.143,1.704c1.046,1.083,1.704,2.555,1.704,4.143c0,1.626-0.658,3.098-1.704,4.143
		c-1.046,1.084-2.517,1.743-4.143,1.743s-3.098-0.658-4.143-1.743l0,0c-1.045-1.045-1.704-2.517-1.704-4.143
		c0-1.587,0.659-3.059,1.704-4.143C199.231,6.29,200.703,5.632,202.329,5.632L202.329,5.632z M205.31,8.497
		c-0.774-0.736-1.82-1.239-2.981-1.239c-1.162,0-2.207,0.503-2.981,1.239c-0.773,0.774-1.239,1.82-1.239,2.981
		c0,1.2,0.466,2.246,1.239,2.982v0.039c0.736,0.736,1.819,1.2,2.981,1.2c1.162,0,2.208-0.464,2.981-1.238
		c0.775-0.736,1.239-1.782,1.239-2.982C206.549,10.317,206.085,9.271,205.31,8.497L205.31,8.497z"/>
	<path fill="#F4F4F4" d="M47.952,33.626c0.116,0.039,0.348,0.077,0.696,0.116l0.039,0.039c2.091,0.465,5.034,1.743,7.859,2.943
		c1.705,0.735,3.292,1.433,4.57,1.897c7.356,2.672,12.776,4.995,17.733,7.899c4.878,2.865,9.37,6.273,14.868,11.074
		c1.278-0.387,2.285-0.774,3.175-1.161c2.672-1.084,4.531-1.82,10.494-0.697c1.51,0.271,3.097,0.581,4.646,0.929
		c3.33,0.658,6.698,1.355,10.145,1.781c3.252,0.388,5.615,0.581,7.164-0.077c1.433-0.62,2.245-2.13,2.556-5.227
		c0.193-1.587-0.077-3.33-0.311-4.995c-0.658-4.259-1.199-7.938,4.531-8.75l0.232-0.039l0.232,0.116
		c2.904,1.471,4.104,4.104,5.11,6.35c0.465,1.045,0.891,1.975,1.433,2.556c-0.078-0.426-0.155-0.891-0.232-1.394
		c-0.232-1.743-0.542-3.756-0.542-5.653c0.039-3.253,1.007-5.924,4.53-5.885c4.607,0.039,5.033,4.569,5.46,8.867v0.039l0.116,0.929
		h-0.93h-0.387c-1.123,0-2.169,0.465-2.943,1.201c-0.736,0.774-1.2,1.781-1.2,2.942v49.484v1.239l-1.162-0.503
		c-1.316-0.542-2.595-1.161-3.794-1.742l0,0c-1.355-0.62-2.594-1.239-3.563-1.587c-1.975-0.735-8.828-0.465-14.25-0.271
		c-2.284,0.117-4.298,0.194-5.653,0.194c-2.709-0.039-6.079-0.349-9.408-0.697c-3.718-0.349-7.396-0.697-9.874-0.581
		c-1.162,0.039-2.71,1.471-4.066,2.672c-0.542,0.503-1.044,0.968-1.51,1.355c-1.006,0.736-1.742,1.394-2.361,1.975
		c-1.782,1.587-2.672,2.401-4.686,1.82l-0.387-0.116l-0.155-0.388c-0.853-2.362-0.039-4.917,0.774-7.396
		c0.079-0.31,0.156-0.62,0.272-0.89c-0.35,0.116-0.659,0.232-0.969,0.348c-1.316,0.542-2.478,1.006-4.994,0.968l-0.853-0.039
		l0.078-0.852c0.232-2.827,1.549-4.53,2.904-6.273c0.271-0.31,0.503-0.658,0.736-0.929c1.433-1.936,1.315-3.329,1.122-5.381
		c-0.078-1.007-0.155-2.13-0.116-3.563c0.193-6.97,1.781-10.338,3.059-13.087c0.543-1.084,1.007-2.091,1.278-3.137
		c-1.626-1.394-2.866-2.517-3.95-3.523c-4.375-3.911-6.117-5.499-15.642-10.687c-1.859-1.046-4.725-2.401-7.822-3.873
		c-5.963-2.865-12.701-6.079-15.023-8.169l-0.464-0.387l0.271-0.542c0-0.077,0.039-0.039,0.039-0.039l0,0
		c-0.232-0.465-0.387-0.697,0.271-1.124l0,0C47.371,33.51,47.564,33.549,47.952,33.626L47.952,33.626z M49.617,35.717
		c2.942,1.897,8.285,4.453,13.087,6.737c3.097,1.51,6.001,2.865,7.937,3.95c9.68,5.305,11.461,6.892,15.914,10.919
		c1.201,1.084,2.595,2.323,4.337,3.794l0.348,0.349l-0.077,0.464c-0.31,1.433-0.89,2.633-1.51,3.95
		c-1.238,2.594-2.749,5.808-2.943,12.467c-0.039,1.278,0.039,2.401,0.116,3.331c0.233,2.439,0.35,4.065-1.433,6.505
		c-0.31,0.387-0.542,0.697-0.774,0.968c-1.007,1.355-2.053,2.672-2.439,4.491c1.549-0.039,2.439-0.387,3.447-0.813
		c0.696-0.271,1.471-0.581,2.555-0.852l1.278-0.31l-0.31,1.278c-0.193,0.813-0.464,1.626-0.696,2.44
		c-0.659,2.051-1.355,4.142-0.891,5.924c0.891,0.077,1.549-0.542,2.71-1.587c0.658-0.581,1.433-1.278,2.44-2.052
		c0.426-0.31,0.89-0.736,1.431-1.239c1.55-1.394,3.331-3.02,5.073-3.136c2.594-0.117,6.311,0.271,10.145,0.619
		c3.252,0.349,6.583,0.658,9.253,0.697c1.278,0,3.292-0.077,5.538-0.193c5.576-0.193,12.623-0.503,14.908,0.349
		c1.044,0.425,2.322,1.006,3.716,1.665l0,0c0.813,0.387,1.703,0.813,2.556,1.201V49.424c0-1.587,0.658-3.059,1.704-4.104l0,0
		c0.968-0.929,2.208-1.549,3.602-1.665c-0.35-3.331-0.853-6.544-3.756-6.583c-2.247,0-2.865,1.936-2.865,4.259
		c-0.039,1.742,0.271,3.717,0.503,5.42c0.193,1.201,0.349,2.246,0.349,3.06l0.039,0.968l-0.93-0.116
		c-1.974-0.271-2.788-2.052-3.756-4.182c-0.89-1.937-1.936-4.182-4.143-5.421c-3.833,0.658-3.368,3.523-2.864,6.854
		c0.232,1.742,0.542,3.601,0.309,5.42c-0.388,3.756-1.51,5.653-3.524,6.543c-1.897,0.814-4.492,0.62-8.015,0.194
		c-3.485-0.426-6.893-1.124-10.261-1.82c-1.548-0.31-3.059-0.62-4.647-0.929c-5.497-1.007-7.123-0.349-9.563,0.658
		c-1.046,0.387-2.169,0.852-3.795,1.317l-0.426,0.116l-0.348-0.311c-5.537-4.878-10.028-8.286-14.908-11.151
		c-4.878-2.865-10.222-5.15-17.462-7.783c-1.394-0.503-2.981-1.2-4.646-1.936C53.722,37.305,51.398,36.298,49.617,35.717
		L49.617,35.717z"/>
	<path fill="#F4F4F4" d="M93.371,139.72c0.93-0.852,1.665-1.626,2.324-2.362c1.161-1.2,2.129-2.246,3.6-3.175
		c-1.045-1.471-2.594-2.943-4.104-4.414c-2.284-2.168-4.491-4.298-5.304-6.505l-0.195-0.581l0.466-0.348
		c1.858-1.394,3.6-3.175,5.188-4.879c1.278-1.316,2.44-2.517,3.602-3.485c-0.543-0.813-1.123-1.355-1.819-1.936
		c-0.35-0.31-0.698-0.658-1.084-1.007c-0.387-0.425-0.698-0.774-1.007-1.123c-0.425-0.542-0.851-1.045-1.51-1.51
		c-1.162,0.93-2.672,2.904-4.144,4.84c-1.355,1.782-2.749,3.563-3.871,4.608l-0.504,0.503l-0.581-0.426
		c-1.239-1.007-3.02-3.407-4.763-5.73c-1.044-1.433-2.09-2.827-2.904-3.756c-1.006,0.813-2.167,1.742-3.291,2.71
		c-0.967,0.853-1.897,1.743-2.711,2.556l8.364,9.525l0.387,0.426l-0.31,0.502c-1.51,2.556-3.95,4.802-6.195,6.815
		c-1.394,1.238-2.672,2.4-3.486,3.445c0.891,1.007,2.13,2.208,3.37,3.408c0.658,0.62,1.278,1.239,1.858,1.82l8.828-10.377
		l0.543-0.658l0.657,0.581c0.969,0.93,2.013,2.323,2.981,3.64c0.542,0.736,1.084,1.472,1.587,2.091h0.039l3.524,4.375
		C93.1,139.488,93.254,139.643,93.371,139.72L93.371,139.72z M96.894,138.48c-0.813,0.891-1.704,1.82-2.865,2.865l-0.387,0.349
		l-0.502-0.233c-0.194-0.116-0.232-0.116-0.271-0.116l0,0c-0.116-0.039-0.195-0.039-0.35-0.154l0,0
		c-0.077-0.078-0.116-0.116-0.193-0.194c-0.077-0.077-0.232-0.232-0.58-0.542l-0.039-0.039l-0.039-0.039l-3.563-4.414l0,0
		c-0.542-0.62-1.083-1.394-1.665-2.168c-0.735-0.969-1.472-1.975-2.207-2.788l-8.828,10.377l-0.582,0.658l-0.619-0.658
		c-0.698-0.736-1.587-1.549-2.44-2.4c-1.471-1.394-2.981-2.827-3.911-4.027l-0.387-0.464l0.31-0.503
		c0.891-1.316,2.439-2.71,4.143-4.259c1.974-1.781,4.182-3.794,5.576-5.885l-8.48-9.641l-0.464-0.581l0.503-0.503
		c0.93-1.007,2.13-2.13,3.33-3.175c1.355-1.201,2.788-2.363,3.988-3.253l0.582-0.426l0.503,0.503
		c0.93,0.969,2.207,2.672,3.523,4.453c1.394,1.897,2.865,3.833,3.95,4.917c0.93-1.006,2.053-2.439,3.136-3.872
		c1.782-2.323,3.563-4.646,4.996-5.537l0.426-0.271l0.425,0.232c1.162,0.697,1.744,1.394,2.401,2.168
		c0.271,0.349,0.542,0.658,0.891,1.007c0.348,0.348,0.696,0.658,1.006,0.929c0.969,0.813,1.782,1.549,2.517,3.059l0.271,0.581
		l-0.542,0.426c-1.201,0.891-2.517,2.246-3.911,3.717c-1.51,1.587-3.136,3.291-4.878,4.685c0.813,1.665,2.75,3.485,4.646,5.343
		c1.858,1.781,3.757,3.562,4.84,5.421l0.427,0.697l-0.736,0.426C99.179,136.08,98.133,137.164,96.894,138.48L96.894,138.48z"/>
	<path fill="#F4F4F4" d="M145.333,133.757l-0.542,0.039h-0.117h-0.078c-1.355-0.271-1.781-0.504-1.936-0.774
		c-1.394-0.194-2.595-0.62-3.562-1.278c-1.007-0.658-1.782-1.587-2.247-2.595c-0.503-1.045-0.696-2.207-0.619-3.408l0,0
		c0.116-1.316,0.58-2.709,1.471-4.065c0.89-1.278,2.167-2.207,3.678-2.904c1.239-0.62,2.633-1.085,3.95-1.472v-7.202
		c-4.685,1.355-9.293,3.329-12.584,6.312c-2.827,2.555-4.762,5.808-5.072,10.028c-0.193,2.749,0.426,4.956,1.587,6.699
		c1.355,2.129,3.523,3.601,5.847,4.646c2.245,0.968,4.105,1.51,5.808,1.743c1.51,0.193,2.943,0.232,4.414,0.193V133.757z
		 M144.792,132.169l1.354-0.077l0.853-0.039v0.852v7.628v0.774l-0.814,0.039c-1.897,0.039-3.6,0.039-5.458-0.193
		c-1.898-0.271-3.873-0.813-6.273-1.897c-2.593-1.123-4.994-2.788-6.582-5.227c-1.317-2.052-2.053-4.569-1.82-7.706
		c0.348-4.685,2.477-8.324,5.613-11.112c3.756-3.408,9.023-5.576,14.288-6.97l1.046-0.232v1.045v8.867v0.581l-0.581,0.194
		c-1.51,0.426-3.02,0.891-4.336,1.549c-1.239,0.581-2.324,1.316-3.02,2.362c-0.736,1.084-1.124,2.207-1.201,3.253l0,0
		c-0.078,0.929,0.077,1.819,0.464,2.594c0.348,0.774,0.93,1.433,1.703,1.936c0.814,0.581,1.898,0.929,3.175,1.045h0.233l0.155,0.117
		c0.348,0.271,0.426,0.464,0.464,0.619l0,0C144.094,132.286,144.017,132.014,144.792,132.169L144.792,132.169z"/>
	<path fill="#F4F4F4" d="M114.474,115.326l7.666-0.078l-0.077-6.157l-16.612,0.62l0.155,29.543l7.822-0.039l0.31-10.493l0.039-0.774
		l0.775-0.039l7.086-0.117v-5.653l-7.202,0.193l-0.853,0.039l0.039-0.852l0.078-5.382v-0.813H114.474z M122.952,116.875
		l-7.666,0.078l-0.039,3.756l7.202-0.233h0.813v0.852v7.279v0.775l-0.775,0.039l-7.125,0.116l-0.31,10.531l-0.039,0.774h-0.775
		l-9.447,0.078h-0.813v-0.814l-0.155-31.169v-0.774l0.775-0.039l18.236-0.697l0.853-0.039v0.852l0.077,7.783v0.813L122.952,116.875z
		"/>
	<path fill="#F4F4F4" d="M173.289,44.003c0.039,0.078,0.039,0.194,0.039,0.31l0.155,0.968h-0.928h-0.504h-1.316l0.62-1.2
		c0.039-0.117,0.116-0.232,0.193-0.349l0,0c0.039-0.116,0.116-0.232,0.193-0.348l1.084-1.588l0.387,1.859
		C173.25,43.771,173.25,43.849,173.289,44.003L173.289,44.003z"/>
	<path fill="#F4F4F4" d="M143.125,131.434h3.059h0.814v0.813v0.658v0.774l-0.774,0.039l-1.433,0.078h-0.117h-0.078
		c-1.626-0.31-1.897-0.62-2.052-0.969l-2.013-1.433L143.125,131.434z"/>
	<path fill="#F4F4F4" d="M48.339,35.369c-0.039,0.039-0.039,0.116-0.078,0.155l-0.659,1.472l-0.464-0.813
		c-0.31,0.271-0.58,0.155-0.93-0.813c-0.078-0.232-0.078-0.349,0-0.697c0.039-0.117,0.077-0.31,0.116-0.697l0.118-0.658l0.658-0.039
		c1.781-0.117,2.129,0,2.167,0.774l0,0c0,0.039,0,0.077,0,0.116l1.666,1.665L48.339,35.369L48.339,35.369z"/>
	<path fill="#F4F4F4" d="M151.141,43.616h236.851c1.626,0,3.059,0.659,4.104,1.704l0,0c1.045,1.046,1.704,2.517,1.704,4.104v35.158
		v0.813h-0.814h-71.012c-1.278,0-2.478,0.542-3.33,1.394l0,0c-0.853,0.852-1.394,2.013-1.394,3.33v146.286v0.851h-0.814H151.141
		c-1.587,0-3.02-0.659-4.104-1.705v-0.037c-1.046-1.046-1.704-2.479-1.704-4.065V49.424c0-1.587,0.658-3.059,1.704-4.104l0,0
		C148.121,44.275,149.554,43.616,151.141,43.616L151.141,43.616z M387.992,45.281H151.141c-1.123,0-2.169,0.465-2.943,1.201
		c-0.736,0.774-1.2,1.781-1.2,2.942v182.024c0,1.123,0.464,2.169,1.2,2.942c0.774,0.736,1.82,1.2,2.943,1.2h164.484V90.119
		c0-1.742,0.696-3.33,1.857-4.491l0,0c1.162-1.162,2.75-1.859,4.492-1.859h70.2V49.424c0-1.162-0.465-2.168-1.239-2.942
		C390.199,45.746,389.154,45.281,387.992,45.281L387.992,45.281z"/>
	<path fill="#F4F4F4" d="M151.141,43.616h236.851c1.626,0,3.059,0.659,4.104,1.704l0,0l0,0c1.045,1.046,1.704,2.517,1.704,4.104
		v16.107v0.813h-0.814H146.184h-0.851v-0.813V49.424c0-1.587,0.658-3.059,1.704-4.104l0,0l0,0
		C148.121,44.275,149.554,43.616,151.141,43.616L151.141,43.616z M387.992,45.281H151.141c-1.123,0-2.169,0.465-2.943,1.201l0,0
		c-0.736,0.774-1.2,1.781-1.2,2.942v15.294h245.177V49.424c0-1.162-0.465-2.168-1.239-2.942l0,0
		C390.199,45.746,389.154,45.281,387.992,45.281L387.992,45.281z M338.934,48.495c1.781,0,3.407,0.736,4.569,1.897
		c1.2,1.201,1.936,2.827,1.936,4.608c0,1.781-0.735,3.407-1.936,4.568c-1.162,1.201-2.788,1.898-4.569,1.898
		c-1.78,0-3.406-0.697-4.568-1.898h-0.039c-1.161-1.162-1.896-2.788-1.896-4.568c0-1.782,0.735-3.408,1.896-4.608h0.039
		C335.527,49.231,337.153,48.495,338.934,48.495L338.934,48.495z M342.38,51.554c-0.89-0.852-2.091-1.394-3.446-1.394
		c-1.354,0-2.556,0.542-3.445,1.394c-0.853,0.89-1.394,2.091-1.394,3.446c0,1.316,0.541,2.555,1.394,3.407
		c0.89,0.891,2.091,1.433,3.445,1.433c1.355,0,2.557-0.542,3.446-1.433c0.852-0.852,1.394-2.091,1.394-3.407
		C343.773,53.645,343.231,52.444,342.38,51.554L342.38,51.554z M354.5,48.495c1.78,0,3.406,0.736,4.568,1.897l0,0
		c1.201,1.201,1.897,2.827,1.897,4.608c0,1.781-0.696,3.407-1.897,4.568l0,0c-1.162,1.201-2.788,1.898-4.568,1.898
		c-1.781,0-3.408-0.697-4.607-1.898l0,0c-1.162-1.162-1.898-2.788-1.898-4.568c0-1.782,0.736-3.408,1.898-4.608l0,0
		C351.092,49.231,352.719,48.495,354.5,48.495L354.5,48.495z M357.906,51.554c-0.851-0.852-2.09-1.394-3.406-1.394
		c-1.355,0-2.556,0.542-3.447,1.394c-0.851,0.89-1.394,2.091-1.394,3.446c0,1.316,0.543,2.555,1.394,3.407
		c0.892,0.891,2.092,1.433,3.447,1.433c1.316,0,2.556-0.542,3.406-1.433c0.892-0.852,1.433-2.091,1.433-3.407
		C359.339,53.645,358.798,52.444,357.906,51.554L357.906,51.554z M370.065,48.495c1.781,0,3.407,0.736,4.569,1.897l0,0
		c1.16,1.201,1.896,2.827,1.896,4.608c0,1.781-0.736,3.407-1.896,4.568l0,0c-1.162,1.201-2.788,1.898-4.569,1.898
		c-1.82,0-3.408-0.697-4.608-1.898l0,0c-1.161-1.162-1.897-2.788-1.897-4.568c0-1.782,0.736-3.408,1.897-4.608l0,0
		C366.657,49.231,368.245,48.495,370.065,48.495L370.065,48.495z M373.473,51.554c-0.853-0.852-2.092-1.394-3.407-1.394
		c-1.355,0-2.556,0.542-3.447,1.394c-0.89,0.89-1.433,2.091-1.433,3.446c0,1.316,0.543,2.555,1.433,3.407
		c0.892,0.891,2.092,1.433,3.447,1.433c1.315,0,2.555-0.542,3.407-1.433c0.891-0.852,1.433-2.091,1.433-3.407
		C374.905,53.645,374.363,52.444,373.473,51.554L373.473,51.554z"/>
	<path fill="#F4F4F4" d="M271.949,139.023v57.809c0,0.736,0.077,1.123,0.193,1.51c0.039,0.232,0.116,0.505,0.155,0.814
		c1.084,0.269,1.587,0.387,2.09,0.154c0.582-0.232,1.355-0.891,2.788-2.092c0.619-0.504,1.355-1.123,1.665-1.355l0,0l36.63-29.312
		l0,0l0.155-0.115v-54.44c-0.426,0.232-0.892,0.503-1.355,0.813c-0.969,0.542-1.936,1.123-2.904,1.665l0,0l-37.559,21.954l0,0
		c-0.62,0.349-1.123,0.658-1.433,1.007C272.103,137.784,271.949,138.249,271.949,139.023L271.949,139.023z M270.321,196.832v-57.809
		c0-1.201,0.272-1.975,0.813-2.633c0.464-0.581,1.084-0.968,1.819-1.394l0,0l37.598-21.916l0,0c1.084-0.62,2.014-1.162,2.865-1.703
		c0.891-0.504,1.782-1.046,2.595-1.549l1.239-0.774v1.471v56.299v0.388l-0.31,0.231l-0.426,0.387l0,0l-36.63,29.313l0,0
		c-0.969,0.773-1.317,1.046-1.665,1.355c-1.549,1.277-2.401,1.974-3.175,2.323c-1.007,0.425-1.705,0.27-3.175-0.077l0,0
		l-0.504-0.117l-0.58-0.155l-0.039-0.578c-0.039-0.545-0.116-0.854-0.195-1.164C270.438,198.225,270.321,197.723,270.321,196.832
		L270.321,196.832z"/>
	<path fill="#F4F4F4" d="M217.237,104.446c3.563,2.556,4.53,3.059,7.241,4.453c1.044,0.542,2.399,1.239,4.064,2.129h0.04
		l30.666,16.843l0,0c0.503,0.271,0.89,0.465,1.239,0.658c0.619,0.271,1.161,0.542,1.897,0.969l0.542,0.348
		c1.084,0.658,1.627,1.007,2.053,1.084c0.426,0.077,0.967-0.039,1.975-0.271c0.039-0.31,0.116-0.581,0.156-0.813
		c0.115-0.426,0.192-0.774,0.192-1.549V83.343c0-0.658-0.155-1.239-0.503-1.626c-0.232-0.31-0.621-0.503-1.084-0.542l-28.188,12.661
		h-0.039c-0.619,0.271-1.046,0.504-1.51,0.736c-0.504,0.271-0.969,0.503-1.627,0.774l-12.699,5.73
		c-0.891,0.465-1.626,0.736-2.207,0.93C218.281,102.432,217.74,102.626,217.237,104.446L217.237,104.446z M223.702,110.331
		c-2.902-1.471-3.871-1.975-7.859-4.917l-0.427-0.31l0.117-0.503c0.735-3.214,1.51-3.485,3.368-4.143
		c0.543-0.194,1.239-0.426,2.053-0.853h0.037l12.662-5.73h0.039c0.58-0.271,1.046-0.503,1.511-0.736
		c0.501-0.271,0.967-0.542,1.665-0.813l0,0l28.343-12.7l0.193-0.078h0.155c1.045,0,1.896,0.387,2.479,1.084
		c0.582,0.697,0.928,1.665,0.928,2.71v44.954c0,0.929-0.115,1.394-0.27,1.897c-0.04,0.31-0.117,0.658-0.195,1.2l-0.037,0.581
		l-0.582,0.116l-0.464,0.116c-1.318,0.311-1.976,0.465-2.71,0.311c-0.736-0.116-1.396-0.504-2.633-1.278l-0.542-0.348
		c-0.698-0.387-1.201-0.658-1.742-0.891c-0.427-0.232-0.854-0.425-1.318-0.658v-0.039l-30.705-16.843l0,0
		C225.949,111.493,224.709,110.873,223.702,110.331L223.702,110.331z"/>
	<path fill="#F4F4F4" d="M217.353,112.112c1.549,0.348,3.021,1.277,4.414,2.168c0.581,0.387,1.124,0.736,1.665,1.045
		c1.046,0.542,1.898,1.084,2.71,1.587c1.007,0.581,1.936,1.123,2.981,1.704h0.039l22.961,13.396h0.039
		c1.936,1.201,3.833,2.323,5.808,3.485c1.936,1.085,3.873,2.168,5.847,3.214l0.427,0.232v0.503v53.937v1.551l-1.278-0.852
		c-1.046-0.699-1.898-1.355-2.75-2.054c-0.542-0.388-1.044-0.812-1.702-1.278c-1.164-0.889-2.092-1.625-3.06-2.438
		c-0.503-0.387-1.006-0.813-1.472-1.2c-3.136-2.479-7.356-5.691-11.693-9.023c-6.465-4.954-13.242-10.105-17.19-13.513l-0.117-0.077
		c-1.124-0.929-1.355-1.123-1.704-2.634v-0.037l-0.039-0.04l-6.854-48.786l-0.193-1.162L217.353,112.112z M220.877,115.675
		c-0.891-0.581-1.782-1.162-2.71-1.549l6.698,47.394c0.233,0.929,0.388,1.084,1.162,1.702l0.116,0.118
		c3.95,3.369,10.687,8.519,17.115,13.435c4.414,3.37,8.634,6.622,11.732,9.061c0.582,0.464,1.046,0.852,1.51,1.24
		c0.969,0.774,1.937,1.548,3.02,2.361c0.582,0.465,1.162,0.892,1.665,1.315c0.504,0.35,0.93,0.699,1.433,1.086v-51.886
		c-1.858-1.007-3.679-2.014-5.458-3.059c-1.937-1.123-3.873-2.284-5.848-3.446l0,0l-22.96-13.396
		c-1.084-0.581-2.053-1.162-3.02-1.743c-0.891-0.502-1.743-1.045-2.673-1.548C222.076,116.411,221.496,116.062,220.877,115.675
		L220.877,115.675z M267.301,198.11v-59.087c0-0.736-0.115-1.162-0.348-1.51c-0.271-0.349-0.658-0.62-1.199-0.929l0,0
		l-34.693-20.173l0,0c-0.582-0.349-1.046-0.62-1.473-0.891c-0.619-0.387-1.238-0.774-1.975-1.161
		c-0.659-0.388-1.626-0.969-2.826-1.666c-3.486-2.09-8.673-5.188-10.687-5.73c-0.272,0.425-0.62,0.464-1.046,0.503
		c-0.116,0-0.271,0,0.542,5.46c0.195,1.394,0.387,2.826,0.542,4.22c0.194,1.394,0.349,2.749,0.62,4.453l0,0l4.686,33.804l0,0
		c0.347,2.206,0.501,3.871,0.658,5.149c0.271,2.36,0.387,3.446,0.89,4.258c0.504,0.736,1.433,1.433,3.175,2.71
		c1.51,1.124,3.563,2.634,6.467,5.035c1.045,0.851,2.091,1.664,3.137,2.438c0.813,0.621,1.587,1.24,2.4,1.859l0,0l1.044,0.851
		c5.384,4.298,27.22,21.877,28.461,21.917c0.115,0.037,0.232,0.037,0.27,0.037h0.04l0,0l0.192-0.077h0.04
		c0.271-0.115,0.581-0.347,0.774-0.656C267.187,198.651,267.301,198.38,267.301,198.11L267.301,198.11z M268.966,139.023v59.087
		c0,0.618-0.27,1.237-0.658,1.782c-0.387,0.541-0.93,0.965-1.51,1.197l0,0l-0.232,0.077l0,0c-0.193,0.078-0.271,0.118-0.425,0.158
		c-0.155,0-0.232,0-0.35-0.04l0,0c-0.037,0-0.115,0-0.192,0c-1.782-0.118-23.969-17.929-29.428-22.304l-1.046-0.852l0,0
		c-0.813-0.659-1.587-1.237-2.362-1.819c-1.006-0.813-2.052-1.587-3.175-2.519c-2.826-2.321-4.878-3.831-6.389-4.954
		c-1.898-1.396-2.904-2.129-3.563-3.138c-0.735-1.123-0.851-2.36-1.161-4.957c-0.155-1.275-0.31-2.942-0.619-5.108l0,0
		l-4.725-33.804l0,0c-0.232-1.51-0.427-2.981-0.619-4.492c-0.155-1.278-0.31-2.594-0.543-4.182
		c-1.007-6.737-0.077-7.241,0.814-7.318c0.116-0.31,0.309-0.388,0.503-0.465l0.193-0.155h0.348c1.976,0.193,7.899,3.717,11.811,6.04
		c1.161,0.697,2.168,1.316,2.788,1.666c0.773,0.425,1.393,0.813,2.013,1.2c0.503,0.31,0.967,0.62,1.472,0.891l0,0l34.654,20.134l0,0
		c0.698,0.426,1.278,0.813,1.704,1.433C268.696,137.164,268.966,137.938,268.966,139.023L268.966,139.023z"/>
	<path fill="#F4F4F4" d="M275.007,125.741V86.363v-1.278l1.162,0.542l39.378,17.54l0.078,0.039v-3.02l-0.349-0.155
		c-0.272-0.116-0.582-0.232-0.93-0.388l0,0l-25.014-11.422l0,0c-0.619-0.31-1.122-0.503-1.587-0.697
		c-0.542-0.194-1.083-0.426-1.702-0.697c-0.891-0.426-5.461-2.594-8.868-4.104c-1.936-0.89-3.445-1.549-3.484-1.549
		c-0.542,0-0.968,0.193-1.239,0.542c-0.348,0.387-0.502,0.968-0.502,1.626v44.954c0,0.774,0.077,1.123,0.193,1.549
		c0.039,0.232,0.116,0.465,0.155,0.813c2.09,0.426,2.439,0.232,4.22-0.852c0.775-0.425,1.781-1.045,3.214-1.781l0,0l6.312-3.485
		c0.774-0.503,1.47-0.813,2.207-1.201c0.271-0.116,0.582-0.271,0.891-0.464l0,0l21.838-11.965v-0.039
		c0.735-0.349,1.472-0.697,2.245-1.084c0.774-0.348,1.587-0.735,2.401-1.161v-0.62v-3.252c-0.853,1.084-1.781,1.51-2.904,2.013
		c-0.465,0.194-0.969,0.426-1.51,0.736c-0.698,0.388-1.472,0.774-2.169,1.162c-0.929,0.503-1.858,0.968-2.788,1.548h-0.039
		l-30.008,16.263l-1.199,0.658V125.741z M276.672,87.603v36.784l28.77-15.604c0.89-0.542,1.858-1.045,2.826-1.549
		c0.696-0.387,1.395-0.735,2.129-1.162c0.621-0.348,1.162-0.581,1.665-0.813c0.697-0.31,1.316-0.581,1.821-1.045L276.672,87.603z
		 M270.321,128.297V83.343c0-1.046,0.311-2.014,0.891-2.71c0.582-0.697,1.433-1.084,2.479-1.084c0.31,0,2.052,0.736,4.144,1.665
		c3.407,1.548,8.054,3.717,8.905,4.143c0.619,0.271,1.123,0.464,1.587,0.658c0.542,0.232,1.084,0.426,1.704,0.736l0,0l24.974,11.383
		l0,0c0.272,0.116,0.582,0.232,0.892,0.387c0.232,0.078,0.541,0.193,0.853,0.348l0.503,0.194v0.542v7.589h1.2h2.942l-2.517,1.51
		c-1.626,1.006-3.407,1.819-4.956,2.555c-0.813,0.387-1.549,0.775-2.169,1.084l0,0l-21.799,12.003h-0.039
		c-0.31,0.155-0.619,0.31-0.968,0.464c-0.658,0.349-1.315,0.658-2.052,1.123h-0.039l-6.351,3.523l0,0
		c-1.393,0.736-2.4,1.316-3.135,1.781c-2.44,1.433-2.788,1.626-6.003,0.852l-0.58-0.116l-0.039-0.581
		c-0.039-0.542-0.116-0.89-0.195-1.2C270.438,129.691,270.321,129.227,270.321,128.297L270.321,128.297z"/>
	<path fill="#F4F4F4" d="M321.975,83.769h263.181c1.742,0,3.331,0.697,4.491,1.859l0,0c1.162,1.162,1.859,2.749,1.859,4.491v202.234
		c0,1.744-0.697,3.332-1.859,4.492l0,0l0,0c-1.16,1.123-2.749,1.859-4.491,1.859H321.975c-1.742,0-3.33-0.736-4.492-1.859l0,0l0,0
		c-1.161-1.16-1.857-2.748-1.857-4.492V90.119c0-1.742,0.696-3.33,1.857-4.491l0,0C318.645,84.466,320.232,83.769,321.975,83.769
		L321.975,83.769z M585.155,85.396H321.975c-1.278,0-2.478,0.542-3.33,1.394l0,0c-0.853,0.852-1.394,2.013-1.394,3.33v202.234
		c0,1.277,0.541,2.479,1.394,3.332l0,0c0.853,0.851,2.052,1.355,3.33,1.355h263.181c1.316,0,2.479-0.505,3.331-1.355l0,0
		c0.851-0.854,1.393-2.055,1.393-3.332V90.119c0-1.317-0.542-2.478-1.393-3.33l0,0C587.634,85.937,586.472,85.396,585.155,85.396
		L585.155,85.396z"/>
	<path fill="#F4F4F4" d="M321.975,83.769h263.181c1.742,0,3.331,0.697,4.491,1.859l0,0c1.162,1.162,1.859,2.749,1.859,4.491v17.889
		v0.813h-0.813H316.437h-0.812v-0.813V90.119c0-1.742,0.696-3.33,1.857-4.491l0,0C318.645,84.466,320.232,83.769,321.975,83.769
		L321.975,83.769z M585.155,85.396H321.975c-1.278,0-2.478,0.542-3.33,1.394l0,0c-0.853,0.852-1.394,2.013-1.394,3.33v17.076
		h272.628V90.119c0-1.317-0.542-2.478-1.393-3.33l0,0C587.634,85.937,586.472,85.396,585.155,85.396L585.155,85.396z M530.638,89.19
		c1.936,0,3.717,0.774,5.033,2.052c1.278,1.317,2.09,3.098,2.09,5.034c0,1.974-0.812,3.756-2.09,5.034
		c-1.316,1.316-3.098,2.091-5.033,2.091c-1.976,0-3.756-0.774-5.034-2.091c-1.316-1.278-2.09-3.06-2.09-5.034
		c0-1.936,0.773-3.717,2.09-5.034C526.882,89.964,528.662,89.19,530.638,89.19L530.638,89.19z M534.509,92.403
		c-1.006-0.968-2.36-1.587-3.871-1.587c-1.51,0-2.903,0.62-3.872,1.587c-1.007,1.007-1.626,2.363-1.626,3.873
		c0,1.549,0.619,2.904,1.626,3.872c0.969,1.007,2.362,1.626,3.872,1.626c1.511,0,2.865-0.62,3.871-1.626
		c0.969-0.968,1.588-2.323,1.588-3.872C536.097,94.766,535.478,93.411,534.509,92.403L534.509,92.403z M547.907,89.19
		c1.975,0,3.755,0.774,5.033,2.052c1.277,1.317,2.09,3.098,2.09,5.034c0,1.974-0.813,3.756-2.09,5.034
		c-1.278,1.316-3.059,2.091-5.033,2.091c-1.976,0-3.757-0.774-5.034-2.091c-1.278-1.278-2.091-3.06-2.091-5.034
		c0-1.936,0.813-3.717,2.091-5.034C544.15,89.964,545.932,89.19,547.907,89.19L547.907,89.19z M551.778,92.403
		c-0.969-0.968-2.361-1.587-3.871-1.587c-1.512,0-2.865,0.62-3.872,1.587c-0.969,1.007-1.588,2.363-1.588,3.873
		c0,1.549,0.619,2.904,1.588,3.872c1.007,1.007,2.36,1.626,3.872,1.626c1.51,0,2.902-0.62,3.871-1.626
		c1.007-0.968,1.626-2.323,1.626-3.872C553.404,94.766,552.785,93.411,551.778,92.403L551.778,92.403z M565.214,89.19
		c1.937,0,3.718,0.774,5.034,2.052c1.278,1.317,2.09,3.098,2.09,5.034c0,1.974-0.812,3.756-2.09,5.034
		c-1.316,1.316-3.098,2.091-5.034,2.091c-1.975,0-3.755-0.774-5.033-2.091c-1.316-1.278-2.09-3.06-2.09-5.034
		c0-1.936,0.773-3.717,2.09-5.034C561.459,89.964,563.239,89.19,565.214,89.19L565.214,89.19z M569.086,92.403
		c-1.007-0.968-2.362-1.587-3.872-1.587s-2.904,0.62-3.871,1.587c-1.007,1.007-1.626,2.363-1.626,3.873
		c0,1.549,0.619,2.904,1.626,3.872c0.967,1.007,2.361,1.626,3.871,1.626s2.865-0.62,3.872-1.626
		c0.969-0.968,1.588-2.323,1.588-3.872C570.674,94.766,570.055,93.411,569.086,92.403L569.086,92.403z"/>
	<path fill="#F4F4F4" d="M429.19,162.099v49.487c0,0.578,0.115,1.043,0.349,1.314c0.194,0.232,0.503,0.388,0.968,0.388
		c0.853,0,17.734-17.385,23.271-23.038c0.969-1.008,1.627-1.664,1.705-1.742l18.817-18.856c3.562-3.524,5.343-5.307,5.343-6.854
		c0-1.51-1.781-3.33-5.343-6.854l-13.243-13.282l0,0l-0.89-0.891c-1.007-1.007-1.898-1.897-2.711-2.672
		c-3.679-3.33-5.421-2.827-12.041,4.453l-0.039,0.039l-13.979,13.977v0.04c-0.038,0.038-0.116,0.078-0.154,0.115
		c-0.116,0.117-0.271,0.271-0.387,0.39c-0.466,0.501-0.93,1.16-1.239,1.896C429.346,160.629,429.19,161.325,429.19,162.099
		L429.19,162.099z M427.525,211.586v-49.487c0-1.006,0.232-1.896,0.581-2.708c0.388-0.968,0.968-1.782,1.588-2.4
		c0.154-0.195,0.31-0.35,0.426-0.465l0.116-0.117l13.978-13.939l0,0c7.551-8.325,9.641-8.829,14.327-4.569
		c0.813,0.735,1.742,1.665,2.788,2.749l0.89,0.852l0,0l13.242,13.281c3.872,3.873,5.808,5.808,5.808,8.017
		c0,2.206-1.936,4.144-5.808,8.015l-18.818,18.856c-0.271,0.271-0.851,0.851-1.703,1.705c-5.653,5.808-22.923,23.541-24.433,23.541
		c-0.968,0-1.704-0.35-2.206-0.931C427.796,213.365,427.525,212.552,427.525,211.586L427.525,211.586z"/>
	<path fill="#F4F4F4" d="M468.259,202.6c0,2.634,1.859,4.299,3.679,5.926c0.503,0.427,1.007,0.892,1.472,1.393h0.038
		c0.271,0.272,0.426,0.504,0.581,0.699c0.233,0.232,0.427,0.464,0.93,0.929l0.038,0.04l15.45,15.332
		c0.387,0.387,0.696,0.659,0.929,0.891c0.891,0.812,0.93,0.889,3.33,0.889c1.511,0,3.949-2.631,5.576-4.412
		c0.387-0.428,0.773-0.852,1.006-1.084c1.781-1.782,3.834-3.833,5.963-5.885l0,0c4.144-4.066,8.441-8.249,11.693-11.929
		c2.595-2.865-1.588-6.696-3.833-8.75c-0.387-0.348-0.736-0.656-0.968-0.889l-13.281-13.283c-6.854-6.852-6.931-6.814-13.474-0.27
		l0,0l-0.427,0.464l-13.088,13.089c-0.271,0.27-0.696,0.656-1.122,1.043C470.931,198.46,468.259,200.897,468.259,202.6
		L468.259,202.6z M470.814,209.726c-2.052-1.859-4.182-3.756-4.182-7.126c0-2.398,2.981-5.148,4.995-7.006
		c0.426-0.349,0.774-0.698,1.085-1.008L485.8,181.5l0.465-0.467l0,0c7.666-7.665,7.743-7.742,15.759,0.271l13.281,13.281
		c0.231,0.231,0.541,0.541,0.891,0.851c2.671,2.441,7.628,6.972,3.987,11.037c-3.407,3.794-7.666,7.978-11.771,12.003l0,0
		c-2.052,1.975-4.027,3.911-5.963,5.846c-0.31,0.312-0.619,0.659-0.969,1.046c-1.819,2.014-4.568,4.957-6.775,4.957
		c-3.02,0-3.136-0.078-4.452-1.315c-0.233-0.235-0.543-0.545-0.93-0.854l-0.039-0.038l-15.411-15.372
		c-0.619-0.504-0.851-0.773-1.083-1.083c-0.156-0.195-0.272-0.35-0.543-0.582l0,0C471.821,210.617,471.318,210.19,470.814,209.726
		L470.814,209.726z"/>
	<path fill="#F4F4F4" d="M453.816,268.852c0.658,0,1.161-0.077,1.588-0.271c0.465-0.192,0.929-0.542,1.472-0.969l0,0l0.116-0.115
		l0,0l0.039-0.04l18.158-18.003v-0.04c5.46-5.188,5.925-6.698,1.898-10.919c-1.046-1.083-2.323-2.321-3.911-3.831
		c-1.51-1.473-3.252-3.138-5.15-5.034l-9.679-9.683l0,0c-0.427-0.424-0.775-0.773-1.046-1.083c-1.201-1.277-1.355-1.433-3.834-1.433
		c-1.896,0-8.169,6.622-11.577,10.184l0,0c-0.735,0.813-1.395,1.473-1.742,1.859l-6.622,6.622c-0.387,0.347-0.813,0.773-1.276,1.197
		c-1.782,1.628-3.949,3.602-3.949,5.771c0.038,1.704,0.657,2.283,1.51,3.057c0.116,0.157,0.271,0.313,0.464,0.467l0,0l16.689,16.688
		c0.271,0.271,0.657,0.696,1.044,1.123C449.674,266.179,452.112,268.852,453.816,268.852L453.816,268.852z M456.063,270.053
		c-0.658,0.309-1.316,0.464-2.246,0.464c-2.4,0-5.149-2.982-7.008-4.994c-0.35-0.427-0.697-0.776-1.007-1.086l-16.689-16.688l0,0
		c-0.115-0.115-0.271-0.272-0.425-0.427c-1.162-1.044-1.975-1.857-2.014-4.221l0,0c-0.038-2.903,2.438-5.187,4.492-7.046
		c0.425-0.387,0.812-0.736,1.2-1.123l6.62-6.622c0.426-0.424,1.008-1.046,1.742-1.819l0,0c3.563-3.757,10.145-10.726,12.739-10.726
		c3.175,0,3.369,0.232,5.034,1.975c0.271,0.31,0.619,0.659,1.006,1.046l0,0l9.681,9.719c2.013,1.975,3.679,3.563,5.111,4.957
		c1.588,1.548,2.943,2.825,3.987,3.909c4.996,5.266,4.491,7.086-1.975,13.243l0,0l-18.16,18.043l-0.038,0.04l-0.078,0.077l0,0
		l-0.115,0.077h-0.039C457.263,269.394,456.682,269.78,456.063,270.053L456.063,270.053z"/>
	<path fill="#F4F4F4" d="M411.031,180.337l-0.116-0.115l-0.155-0.154l-0.038-0.195c-0.116-0.35-0.155-0.581-0.233-0.659l0,0
		c-0.039-0.037-0.155-0.077-0.426-0.037c-0.31,0-0.503,0.27-0.773,0.582c-0.116,0.154-0.233,0.31-0.389,0.464
		c-0.31,0.347-0.387,0.424-0.541,0.542c-0.039,0.077-0.116,0.114-0.232,0.231l0,0c-0.348,0.31-0.348,0.31-0.464,0.427
		c-0.079,0.078-0.195,0.232-0.389,0.425c-1.239,1.355-3.755,3.834-6.581,6.621c-5.692,5.616-12.778,12.585-13.242,14.018
		c-0.621,1.819,1.742,3.948,3.406,5.498c0.426,0.348,0.813,0.696,1.046,0.969l0,0l17.347,17.384l0.232,0.232l0,0
		c0.232,0.194,0.348,0.31,0.387,0.31c0.077,0.04,0.271,0.04,0.657,0.04h0.04c0.813-2.905,0.619-13.012,0.542-18.975
		c-0.039-1.587-0.077-2.902-0.077-3.521V180.337z M412.231,179.213l0.193,0.232l0.271,0.235v0.347v24.395
		c0,0.966,0,2.129,0.039,3.521c0.116,6.468,0.31,17.734-0.853,20.135l-0.231,0.465h-0.503c-0.503,0-0.542,0-0.621,0
		c-0.541,0-0.851,0-1.16-0.078c-0.388-0.114-0.581-0.309-1.007-0.696l-0.232-0.231l0,0l-17.385-17.424l0,0
		c-0.31-0.31-0.621-0.619-0.969-0.929c-2.013-1.819-4.84-4.376-3.873-7.241c0.621-1.782,7.822-8.905,13.669-14.636
		c2.788-2.788,5.267-5.229,6.505-6.584c0.194-0.192,0.311-0.31,0.35-0.347c0.154-0.155,0.154-0.195,0.58-0.582l0,0
		c0.116-0.114,0.232-0.194,0.31-0.272c0.077-0.077,0.154-0.154,0.388-0.387c0.116-0.114,0.193-0.231,0.31-0.387
		c0.503-0.619,0.968-1.2,2.052-1.238c0.736,0,1.2,0.155,1.588,0.542C411.921,178.362,412.077,178.749,412.231,179.213
		L412.231,179.213z"/>
	<polygon fill="#F4F4F4" points="411.263,180.568 410.915,180.222 412.077,179.099 412.425,179.445 	"/>
</g>
</svg>
