<?xml version="1.0" encoding="utf-8"?>
<!-- Generator: Adobe Illustrator 16.0.0, SVG Export Plug-In . SVG Version: 6.00 Build 0)  -->
<!DOCTYPE svg PUBLIC "-//W3C//DTD SVG 1.1//EN" "http://www.w3.org/Graphics/SVG/1.1/DTD/svg11.dtd">
<svg version="1.1"
	 id="Ebene_1" xmlns:dc="http://purl.org/dc/elements/1.1/" xmlns:rdf="http://www.w3.org/1999/02/22-rdf-syntax-ns#" xmlns:cc="http://creativecommons.org/ns#"
	 xmlns="http://www.w3.org/2000/svg" xmlns:xlink="http://www.w3.org/1999/xlink" x="0px" y="0px" width="566.93px"
	 height="96.834px" viewBox="0 0 566.93 96.834" enable-background="new 0 0 566.93 96.834" xml:space="preserve">
<g transform="translate(-683.17328,-356.17754)">
	<g transform="matrix(0.93403196,0,0,0.93403196,69.311262,27.640521)">
		<g transform="translate(1.5605469e-5,0)">
			<path fill="#959595" d="M1036.018,414.062h2.403c2.244,0,6.081,0.462,7.662,1.388c1.582,0.92,2.624,1.953,3.126,3.095
				c0.504,1.142,0.759,3.661,0.759,7.551v15.273c0,4.609-4.87,6.957-7.215,7.467c-2.358,0.508-4.645,0.763-6.876,0.763
				c-6.43,0-11.98-1.673-16.661-5.022c-4.674-3.351-8.06-8.587-10.164-15.728c-2.096-7.132-3.143-15.422-3.143-24.892
				c0-7.811,0.958-15.43,2.875-22.852c1.922-7.424,5.188-13.208,9.801-17.36c4.613-4.148,10.395-6.223,17.337-6.223
				c7.266,0,11.518,1.839,16.865,7.398c5.469,5.681,10.718,12.137,13.78,21.614h4.473V351.74h-2.545
				c-0.918,2.787-1.921,4.68-3.014,5.679c-1.101,1.003-2.291,1.502-3.565,1.502c-0.824,0-3.49-0.905-7.988-2.718
				c-4.498-1.814-7.757-2.915-9.764-3.303c-3.699-0.772-6.574-1.162-11.185-1.162c-14.896,0-27.259,5.119-37.085,15.355
				c-9.826,10.245-14.737,22.785-14.737,37.63c0,8.295,1.594,15.792,4.796,22.487c2.512,5.192,5.996,9.857,10.45,14.01
				c4.456,4.147,9.602,7.494,15.423,10.048c5.829,2.543,13.152,3.818,21.97,3.818c6.903,0,13.555-0.713,19.979-2.139
				c6.423-1.43,12.598-3.546,18.551-6.351v-20.525c0-3.598,0.203-5.858,0.613-6.778c0.73-1.752,1.767-3.004,3.114-3.761
				c1.345-0.757,5.016-1.247,8.438-1.495v-3.359h-48.488v3.359L1036.018,414.062z"/>
			<path fill="#959595" d="M1147.468,440.646c-5.525,4.23-12.879,6.344-22.05,6.344h-5.228c-2.802,0-4.826-0.381-6.085-1.152
				c-1.248-0.77-2.112-1.755-2.568-2.959c-0.458-1.202-0.688-4.498-0.688-9.88v-27.567c4.711,0,10.227,0.613,12.703,1.844
				c2.474,1.225,4.645,3.624,6.512,7.191c1.874,3.564,3.099,7.503,3.682,13.092h3.975v-50.732h-3.975
				c-0.78,7.622-2.574,12.739-5.391,16.644c-2.816,3.905-7.356,5.858-13.616,5.858h-3.896V365.3c-0.031-5.915,5.24-5.23,5.24-5.23
				h6.16c7.447,0,12.52,0.436,15.228,1.305c4.642,1.443,8.236,3.706,10.773,6.787c2.542,3.084,4.508,8.161,5.911,15.241h3.335
				v-28.978h-82.889v3.969h2.615c3.185,0,5.696,0.673,7.528,2.019c1.305,0.914,2.2,2.218,2.679,3.9
				c0.245,1.006,0.366,3.726,0.366,8.153v61.308c0,4.906-0.266,7.938-0.799,9.096c-0.675,1.633-1.645,2.787-2.896,3.463
				c-1.74,1.012-4.032,1.516-6.875,1.516h-2.616v4.611h84.291l5.066-31.174h-4.623c-2.415,8.678-6.386,15.133-11.915,19.361"/>
			<path fill="#959595" d="M1212.688,352.888c-14.125-0.583-26.031,4.02-35.698,13.819c-9.686,9.791-14.514,22.035-14.514,36.713
				c0,13.078,3.718,24.378,11.16,33.907c9.414,12.053,22.738,18.088,39.975,18.088c17.18,0,30.491-6.319,39.908-18.964
				c7.111-9.516,10.667-20.557,10.667-33.104c0-14.679-4.771-26.906-14.298-36.68c-9.536-9.775-21.927-14.366-37.184-13.778
				 M1235.237,431.349c-2.31,6.827-5.531,11.798-9.676,14.901c-3.25,2.434-7.3,3.647-12.153,3.647
				c-7.206,0-12.804-2.821-16.813-8.453c-5.744-8.064-8.621-20.525-8.621-37.39c0-14.192,1.861-25.073,5.581-32.651
				c4.569-9.229,11.229-13.844,19.984-13.844c4.757,0,8.96,1.338,12.609,4.011c3.649,2.671,6.65,7.253,9.004,13.737
				c2.357,6.491,3.534,16.263,3.534,29.341c0,10.98-1.152,19.886-3.464,26.717"/>
		</g>
		<path fill="#959595" d="M899.717,454.844c17.18,0,30.488-6.321,39.908-18.964c7.108-9.527,10.666-20.555,10.666-33.104
			c0-14.679-4.77-26.905-14.299-36.68c-9.535-9.774-21.926-14.364-37.183-13.778c-14.124-0.582-26.03,4.021-35.697,13.82
			c-9.684,9.79-14.514,22.035-14.514,36.713c0,13.077,3.717,24.378,11.162,33.906c9.411,12.053,22.736,18.088,39.974,18.088
			 M879.507,370.885c4.566-9.229,11.227-13.844,19.987-13.844c4.755,0,8.956,1.335,12.606,4.009
			c3.649,2.673,6.651,7.253,9.006,13.737c2.355,6.49,3.532,16.262,3.532,29.332c0,10.98-1.151,19.888-3.462,26.717
			c-2.304,6.826-5.531,11.798-9.674,14.908c-3.248,2.43-7.3,3.645-12.153,3.645c-7.206,0-12.805-2.819-16.817-8.453
			c-5.743-8.065-8.617-20.525-8.617-37.39c0-14.192,1.858-25.073,5.579-32.651"/>
		<path fill="#959595" d="M849.935,420.502h-4.628c-2.414,8.676-6.387,15.133-11.913,19.359c-5.526,4.23-12.879,6.344-22.042,6.344
			h-5.229c-2.801,0-4.823-0.387-6.082-1.15c-1.254-0.774-2.112-1.761-2.57-2.961c-0.457-1.204-0.688-4.498-0.688-9.882v-27.567
			c4.71,0,10.227,0.615,12.704,1.844c2.475,1.224,4.647,3.626,6.514,7.191c1.872,3.565,3.098,7.503,3.68,13.092h3.976v-50.731
			h-3.976c-0.779,7.619-2.574,12.739-5.392,16.644c-2.81,3.906-7.354,5.857-13.613,5.857h-3.897v-34.029
			c-0.032-5.916,5.243-5.23,5.243-5.23h6.155c7.454,0,12.533,0.435,15.241,1.302c4.644,1.443,8.235,3.709,10.773,6.789
			c2.542,3.082,4.51,8.164,5.915,15.239h3.332v-29.001h-82.887v3.994h2.612c3.185,0,5.696,0.674,7.529,2.017
			c1.303,0.914,2.196,2.218,2.676,3.901c0.245,1.007,0.366,3.725,0.366,8.151v61.309c0,4.907-0.265,7.939-0.797,9.089
			c-0.673,1.632-1.644,2.794-2.893,3.465c-1.74,1.012-4.032,1.516-6.882,1.516h-2.612v4.611h84.29l5.067-31.175L849.935,420.502z"/>
		<path fill="#959595" d="M690.849,447.002h-2.236c-3.211,0-6.061-0.985-8.555-2.957c-2.487-1.972-3.734-5.765-3.734-11.392v-59.212
			l64.138,79.957l4.158,0.006v-81.55c0-4.637,0.386-5.983,1.15-7.891c0.765-1.908,1.835-3.285,3.201-4.131
			c1.368-0.844,4.05-1.532,8.04-2.064v-4.149h-31.819v4.149c5.245-0.096,8.992,1.255,11.211,4.057
			c1.626,2.077,2.439,4.135,2.439,10.031v42.706l-49.931-60.945h-30.381v3.291c2.888,0.096,2.99,1.063,4.528,1.88l8.138,8.191
			l-0.011,65.664c0,5.193-1.026,8.867-3.074,11.028c-2.049,2.164-5.684,3.268-10.897,3.316v3.969h33.617v-3.969L690.849,447.002z"/>
		<path fill="#959595" stroke="#000000" stroke-width="0.133" d="M977.66,403.577c0,6.516-5.282,11.796-11.794,11.796
			c-6.517,0-11.797-5.284-11.797-11.796c0-6.517,5.284-11.796,11.797-11.796C972.383,391.781,977.66,397.064,977.66,403.577z"/>
	</g>
</g>
</svg>
