<?xml version="1.0" encoding="utf-8"?>
<!-- Generator: Adobe Illustrator 16.0.0, SVG Export Plug-In . SVG Version: 6.00 Build 0)  -->
<!DOCTYPE svg PUBLIC "-//W3C//DTD SVG 1.1//EN" "http://www.w3.org/Graphics/SVG/1.1/DTD/svg11.dtd">
<svg version="1.1" id="Ebene_1" xmlns="http://www.w3.org/2000/svg" xmlns:xlink="http://www.w3.org/1999/xlink" x="0px" y="0px"
	 width="566.93px" height="72.714px" viewBox="0 0 566.93 72.714" enable-background="new 0 0 566.93 72.714" xml:space="preserve">
<g>
	<path fill="#959595" d="M122.879,3.133c2.804-3.588,8.607-4.201,12.048-1.191c1.407,1.187,2.393,2.82,2.897,4.579
		c6.368,21.915,12.767,43.82,19.127,65.736c-3.759,0.005-7.521-0.006-11.277,0.005c-1.773-6.042-3.504-12.097-5.254-18.146
		c-7.27-0.017-14.534-0.004-21.802-0.007c-1.779,6.046-3.536,12.097-5.284,18.153c-3.738-0.014-7.478-0.004-11.216-0.008
		c6.051-20.904,12.108-41.813,18.188-62.709C121.029,7.362,121.301,4.92,122.879,3.133 M129.514,16.562
		c-2.665,9.08-5.276,18.176-7.926,27.259c5.283,0.024,10.563,0.009,15.844,0.009C134.788,34.74,132.158,25.651,129.514,16.562z"/>
	<path fill="#959595" d="M202.062,3.604c1.959-2.842,5.746-4.22,9.08-3.343c3.051,0.703,5.387,3.333,6.192,6.294
		c6.361,21.899,12.748,43.791,19.109,65.69c-3.765,0.025-7.525,0-11.29,0.016c-1.75-6.049-3.48-12.104-5.244-18.15
		c-7.257,0.004-14.512-0.013-21.768,0.006c-1.733,6.053-3.522,12.092-5.257,18.143c-3.735,0.005-7.469-0.004-11.203,0.005
		c6.048-21.021,12.167-42.024,18.263-63.029C200.583,7.335,200.831,5.243,202.062,3.604 M201.146,43.832
		c5.262,0.006,10.52,0.002,15.779,0.002c-2.617-9.106-5.276-18.204-7.885-27.313C206.412,25.626,203.761,34.722,201.146,43.832z"/>
	<path fill="#959595" d="M148.535,0.152c13.6,0,27.194,0,40.791,0c0,3.668,0,7.333,0,11c-5.008,0.004-10.012-0.006-15.017,0.004
		c0,20.366,0.003,40.736-0.003,61.101c-3.584,0-7.172,0-10.757,0c0-20.363-0.004-40.733,0.002-61.101
		c-5.006-0.01-10.01,0-15.019-0.004C148.535,7.485,148.531,3.82,148.535,0.152z"/>
	<path fill="#959595" d="M248.398,0.599c1.034-0.356,2.137-0.479,3.228-0.452c4.287,0.016,8.575,0.003,12.86,0.006
		c7.221,0.132,14.112,4.612,17.236,11.11c2.163,4.22,2.387,9.127,1.841,13.756c-0.376,4.847-2.408,9.692-6.134,12.904
		c-1.969,1.754-4.42,2.814-6.525,4.377c-1.156,0.882-1.214,2.594-0.616,3.814c5.689,8.784,11.605,17.434,17.416,26.143
		c-4.249,0.008-8.498-0.01-12.747,0.008c-5.563-8.354-11.065-16.75-16.604-25.116c-1.628-2.381-2.071-5.534-1.097-8.252
		c0.762-2.083,2.582-3.609,4.611-4.396c3.872-1.478,7.69-3.8,9.836-7.453c1.632-2.747,1.548-6.137,0.813-9.143
		c-0.86-3.902-4.663-6.973-8.681-6.838c-2.778,0.02-5.557-0.014-8.33,0.013c-1.256-0.028-2.438,1.063-2.422,2.335
		c-0.014,19.615,0.006,39.232-0.006,58.848c-3.613-0.008-7.224,0-10.837-0.004c-0.007-21.117,0.007-42.236-0.007-63.354
		C242.257,5.205,244.888,1.723,248.398,0.599z"/>
	<path fill="#959595" d="M293.384,0.152c3.802,0,7.601,0,11.401,0c-0.003,24.037,0.008,48.071-0.006,72.109
		c-3.798-0.01-7.597,0-11.396-0.004C293.384,48.22,293.384,24.186,293.384,0.152z"/>
	<path fill="#959595" d="M32.154,0.005c1.826-0.006,3.652,0,5.479-0.004c0.008,4.294,0,8.589,0.003,12.882
		c0.02,3.584-0.082,7.167-0.23,10.748c-0.243,5.17-0.567,10.352-1.425,15.462c-0.588,3.521-1.807,6.922-3.318,10.146
		c-2.468,5.199-6.344,9.602-10.7,13.303c-3.898,3.43-8.551,5.928-13.444,7.617C5.75,71.111,2.901,71.847,0,72.257
		c0.003-3.604,0.003-7.203,0-10.805c3.492-0.525,6.849-1.767,9.967-3.402c3.7-1.955,7.03-4.588,9.833-7.688
		c2.895-3.202,5.202-6.907,6.953-10.847c2.062-4.526,3.166-9.415,3.916-14.311C31.608,18.98,32,12.687,32.146,6.396
		C32.166,4.266,32.148,2.135,32.154,0.005z"/>
	<path fill="#959595" d="M39.837,0.011c3.361-0.021,6.724-0.003,10.086-0.009c0.001,24.085,0.001,48.169,0,72.253
		c-3.354,0.007-6.709-0.019-10.063,0.014c-0.042-7.68-0.006-15.361-0.018-23.041C39.839,32.822,39.849,16.419,39.837,0.011z"/>
	<path fill="#959595" d="M52.167,0.003c1.815-0.001,3.632-0.005,5.446,0.001C57.555,7.348,57.805,14.703,58.68,22
		c0.717,5.666,1.728,11.376,3.983,16.653c2.14,5.109,5.224,9.856,9.242,13.685c3.839,3.658,8.49,6.475,13.544,8.095
		c1.409,0.448,2.852,0.805,4.317,1.019c-0.002,3.602-0.003,7.199,0,10.801c-2.88-0.394-5.704-1.135-8.453-2.067
		c-3.272-1.14-6.438-2.614-9.346-4.505c-2.123-1.364-4.053-2.998-5.907-4.703c-3.057-2.818-5.792-6.021-7.847-9.648
		c-1.607-2.822-2.78-5.877-3.698-8.988c-0.842-3.129-1.201-6.36-1.528-9.576c-0.632-6.95-0.867-13.937-0.822-20.911
		C52.167,7.896,52.166,3.948,52.167,0.003z"/>
	<path fill="#959595" d="M32.154,0.005c-0.006,2.131,0.013,4.262-0.009,6.393c-0.145,6.29-0.537,12.584-1.477,18.808
		c-0.75,4.896-1.854,9.784-3.916,14.311c-1.751,3.938-4.06,7.646-6.953,10.848c-2.803,3.102-6.134,5.732-9.833,7.688
		c-3.118,1.639-6.475,2.878-9.967,3.4c0.003,3.604,0.003,7.203,0,10.807c2.9-0.409,5.75-1.146,8.518-2.098
		c4.895-1.689,9.546-4.188,13.444-7.617c4.356-3.701,8.232-8.104,10.7-13.303c1.512-3.228,2.73-6.625,3.318-10.146
		c0.857-5.111,1.182-10.292,1.425-15.462c0.149-3.581,0.25-7.164,0.23-10.748c-0.003-4.293,0.005-8.588-0.003-12.882
		C35.806,0.005,33.98-0.001,32.154,0.005"/>
	<path fill="#959595" d="M39.837,0.011c0.012,16.407,0.001,32.813,0.006,49.217c0.012,7.68-0.025,15.361,0.018,23.041
		c3.354-0.029,6.709-0.008,10.063-0.014c0.001-24.084,0.001-48.168,0-72.253C46.561,0.008,43.198-0.012,39.837,0.011"/>
	<path fill="#959595" d="M52.167,0.003c-0.001,3.945,0,7.895,0,11.842c-0.045,6.978,0.19,13.961,0.823,20.911
		c0.326,3.216,0.686,6.449,1.527,9.578c0.918,3.111,2.091,6.166,3.698,8.988c2.054,3.627,4.79,6.83,7.847,9.648
		c1.854,1.705,3.785,3.339,5.907,4.703c2.907,1.891,6.073,3.365,9.346,4.504c2.749,0.936,5.573,1.678,8.453,2.068
		c-0.003-3.602-0.002-7.199,0-10.802c-1.466-0.213-2.908-0.565-4.317-1.019c-5.054-1.619-9.705-4.436-13.543-8.094
		c-4.02-3.826-7.104-8.572-9.243-13.685c-2.257-5.277-3.268-10.987-3.983-16.653C57.807,14.699,57.557,7.344,57.616,0
		C55.799-0.002,53.984,0.002,52.167,0.003"/>
	<path fill="#959595" d="M437.873,34.488c5.281-3.112,8.575-8.381,8.575-14.23c0-13.813-14.59-20.104-28.146-20.104
		c-13.559,0-28.146,6.291-28.146,20.104c0,5.851,3.293,11.118,8.573,14.23c-7.51,3.479-11.713,9.403-11.713,16.784
		c0,13.913,15.737,21.192,31.283,21.192s31.282-7.279,31.282-21.192C449.587,43.891,445.384,37.964,437.873,34.488z M418.304,25.732
		c-3.458,0-6.271-2.23-6.271-4.974c0-2.744,2.813-4.975,6.271-4.975c3.455,0,6.27,2.231,6.27,4.975
		C424.573,23.502,421.761,25.732,418.304,25.732z M418.304,43.457c3.848,0,6.979,2.567,6.979,5.729c0,3.064-3.131,5.561-6.979,5.561
		c-3.851,0-6.979-2.492-6.979-5.561C411.324,46.024,414.454,43.457,418.304,43.457z"/>
	<path fill="#959595" d="M498.233,11.921c-5.773-7.698-14.257-11.769-24.529-11.769c-10.271,0-18.755,4.069-24.528,11.769
		c-4.854,6.476-7.528,15.181-7.528,24.513c0,18.058,9.912,36.28,32.061,36.28c22.147,0,32.062-18.225,32.062-36.28
		C505.765,27.101,503.09,18.396,498.233,11.921z M473.703,51.23c-7.721,0-8.565-10.037-8.565-14.881
		c0-4.798,0.848-14.714,8.565-14.714c7.722,0,8.565,9.916,8.565,14.714C482.271,41.193,481.425,51.23,473.703,51.23z"/>
	<path fill="#959595" d="M559.396,11.921c-5.772-7.698-14.256-11.769-24.527-11.769s-18.755,4.069-24.528,11.769
		c-4.854,6.476-7.53,15.181-7.53,24.513c0,18.058,9.914,36.28,32.062,36.28c22.146,0,32.062-18.225,32.062-36.28
		C566.929,27.101,564.254,18.396,559.396,11.921z M534.868,51.23c-7.723,0-8.566-10.037-8.566-14.881
		c0-4.798,0.847-14.714,8.566-14.714c7.721,0,8.566,9.916,8.566,14.714C543.436,41.193,542.589,51.23,534.868,51.23z"/>
	<polygon fill="#959595" points="336.516,1.165 336.516,23.181 366.662,23.181 344.172,72.386 369.636,72.386 399.876,1.165 	"/>
</g>
</svg>
