<?xml version="1.0" encoding="utf-8"?>
<!-- Generator: Adobe Illustrator 16.0.0, SVG Export Plug-In . SVG Version: 6.00 Build 0)  -->
<!DOCTYPE svg PUBLIC "-//W3C//DTD SVG 1.1//EN" "http://www.w3.org/Graphics/SVG/1.1/DTD/svg11.dtd">
<svg version="1.1" id="svg2" xmlns:svg="http://www.w3.org/2000/svg"
	 xmlns="http://www.w3.org/2000/svg" xmlns:xlink="http://www.w3.org/1999/xlink" x="0px" y="0px" width="566.93px"
	 height="118.865px" viewBox="0 0 566.93 118.865" enable-background="new 0 0 566.93 118.865" xml:space="preserve">
<g id="layer1">
</g>
<g id="layer5">
</g>
<g>
	<path fill="#959595" d="M177.639,103.668c0-1.56,1.428-1.948,4.808-2.339c4.161-0.391,4.418-2.209,4.418-8.188
		c0-14.036-0.907-39.771-1.428-53.678c-0.13-1.948-0.13-2.6-0.65-2.6s-0.651,0.781-1.171,1.95c-2.47,6.5-6.497,19.234-16.505,51.208
		c-3.64,12.086-3.25,14.557-5.719,14.557c-1.56,0-1.949-1.041-3.25-6.5c-4.288-16.115-14.296-48.998-17.546-59.135
		c-0.391-1.17-0.649-1.82-1.301-1.82c-0.518,0-0.518,1.04-0.777,2.859c-0.91,12.215-1.688,33.142-1.688,44.449
		c0,8.578-0.133,16.246,4.288,16.896c2.339,0.392,5.719,0.521,5.719,2.34c0,1.039-0.779,1.82-2.602,1.82
		c-2.598,0-4.676-0.521-9.617-0.521c-4.548,0-7.146,0.521-8.966,0.521c-1.302,0-2.079-0.261-2.079-1.82
		c0-1.948,1.949-1.689,4.158-2.209c3.77-0.78,4.289-3.77,4.678-10.139c0.78-13.906,2.209-44.319,2.209-55.107
		c0.13-7.018,0-8.316-4.418-8.968c-2.209-0.259-4.288-0.519-4.288-2.079c0-1.819,1.688-1.948,3.509-1.95
		c2.729,0,6.368,0.391,9.229,0.391c2.209,0,5.587-0.391,7.668-0.389c1.429,0,1.949,0.389,2.6,2.339
		c4.81,15.854,9.62,31.711,14.298,47.438c1.038,3.771,1.819,6.76,2.729,6.76c0.778,0,1.429-1.819,2.597-5.592
		c4.941-15.854,9.88-31.71,14.818-47.438c0.776-2.47,1.559-3.51,2.989-3.511c1.948,0,5.198,0.391,7.668,0.391
		c2.6,0,6.366-0.391,9.097-0.39c1.432,0,2.729,0.52,2.729,1.819c0,1.69-1.688,2.081-5.459,2.339c-2.339,0.26-2.988,1.95-2.988,7.798
		c0,12.867,1.561,43.279,1.95,59.267c0,4.809,1.168,6.629,3.77,6.889c3.25,0.779,4.679,1.041,4.679,2.47
		c0,1.43-1.169,1.69-2.986,1.69c-2.729,0-5.851-0.521-11.828-0.521c-5.199,0-9.487,0.521-12.348,0.521
		c-1.69,0-2.988-0.521-2.988-1.69v-0.127L177.639,103.668L177.639,103.668z"/>
	<path fill="#959595" d="M239.633,57.01c0-6.108-1.432-8.579-5.459-8.579c-6.239,0-9.097,4.68-11.179,11.048
		c-0.91,2.729-2.469,4.938-4.418,6.237c-1.431,1.04-3.25,1.819-5.198,1.819c-2.47,0-3.38-1.041-3.38-3.379
		c0-7.537,11.179-19.364,27.294-19.364c4.81,0,8.579,0.649,10.785,2.601c2.212,1.689,2.732,4.159,2.732,8.188v37.17
		c0,3.25,1.038,5.589,3.638,5.589c2.081,0,3.25-1.169,3.9-2.339c0.521-1.17,1.038-2.469,1.817-2.469c0.78,0,1.041,0.648,1.041,2.209
		c0,2.858-4.418,10.526-11.959,10.526c-5.459,0-7.018-4.419-8.059-7.02c-0.391-1.04-0.777-1.818-1.428-1.818
		c-1.041,0-3.12,2.47-6.37,4.81c-2.989,2.34-7.019,4.418-12.217,4.418c-6.108,0-10.918-4.157-10.918-11.697
		c0-6.887,4.81-11.566,15.336-18.063c4.161-2.73,7.277-4.549,9.619-6.109c3.509-2.078,4.419-3.25,4.419-6.237V57.01H239.633z
		 M221.954,92.62c0,4.811,2.732,7.279,6.5,7.279c2.859,0,5.589-1.69,8.06-4.16c2.339-2.338,3.119-4.158,3.119-7.407V75.075
		c0-1.561-0.261-1.95-0.91-1.95c-0.647,0-1.299,0.261-2.989,1.302c-2.729,1.818-5.329,3.896-7.538,6.107
		c-3.638,3.379-6.24,7.277-6.24,11.957L221.954,92.62L221.954,92.62z"/>
	<path fill="#959595" d="M259.776,77.675c0-18.975,12.347-32.882,28.074-32.882c3.51,0,8.188,0.649,11.178,2.47
		c2.729,1.56,2.988,2.078,3.119,5.198v4.681c0,1.169-0.131,3.118-0.392,4.288c-0.261,2.34-1.171,3.119-2.858,3.119
		c-2.34,0-2.989-3.378-5.459-8.837c-1.818-4.29-3.511-6.499-7.277-6.499c-7.537,0-14.167,9.877-14.167,23.782
		c0,18.457,7.021,26.646,15.726,26.646c4.684,0,8.188-1.949,10.788-5.72c1.56-2.339,2.601-5.587,3.642-5.587
		c0.776,0,1.299,0.778,1.299,1.819c0,6.108-6.497,16.506-19.624,16.506c-14.428,0-24.045-11.827-24.045-28.854L259.776,77.675
		L259.776,77.675z"/>
	<path fill="#959595" d="M312.414,60.778c0-4.158-0.91-5.199-4.939-5.849c-1.56-0.261-2.207-0.649-2.207-1.561
		c0-1.17,1.168-1.688,4.158-2.598c4.156-1.172,7.799-3.121,10.526-4.682c1.298-0.777,2.079-1.3,2.601-1.3
		c0.776,0,1.037,0.521,1.037,1.949v6.109V94.7c0,4.42-0.042,6.641,1.637,7.147c2.295,0.695,3.25,0.78,3.25,2.081
		c0,1.169-0.521,1.561-2.078,1.561c-2.729,0-2.678-0.521-8.396-0.521c-6.237,0-6.058,0.521-8.524,0.521
		c-1.041,0-1.951-0.521-1.951-1.561c0-1.301,0.91-1.695,2.603-2.081c2.067-0.472,2.286-1.561,2.286-6.76L312.414,60.778
		L312.414,60.778z M318.003,36.605c-3.382,0-6.499-2.731-6.499-7.669c0-4.809,2.859-7.798,6.63-7.798
		c3.638,0,6.497,2.858,6.497,7.668c0,5.067-2.859,7.799-6.497,7.799H318.003z"/>
	<path fill="#959595" d="M338.926,60.778c0-4.418-0.521-4.938-3.768-5.328c-2.34-0.26-3.12-0.391-3.12-1.431
		c0-1.3,1.299-1.561,4.028-2.47c4.678-1.689,8.319-3.769,10.267-5.328c1.171-0.909,1.821-1.431,2.474-1.431
		c0.776,0,1.038,1.04,1.038,2.209v5.2c0,1.819,0.13,2.209,0.521,2.209c1.171,0,3.249-2.209,6.105-4.418
		c2.991-2.209,7.021-4.549,11.827-4.549c4.419,0,8.579,1.43,11.564,4.549c2.732,2.859,4.291,7.02,4.291,12.476V95.61
		c0,4.549,1.154,5.979,4.146,6.367c0,0,1.924,0.65,1.924,1.951c0,1.169-0.91,1.561-2.34,1.561c-1.563,0-3.339-0.521-9.447-0.521
		c-5.848,0-6.474,0.521-8.551,0.521c-1.433,0-2.078-0.391-2.078-1.69c0-0.908,0.926-1.354,2.209-1.689
		c1.199-0.314,2.961-1.688,2.961-5.328V63.768c0-3.12-0.646-5.85-2.209-7.93c-1.818-2.338-4.549-3.639-7.798-3.639
		c-3.382,0-6.628,1.301-9.098,3.51c-2.339,2.209-3.642,4.81-3.642,7.929V96.78c0,3.379,0.633,4.78,3.771,5.328
		c0.549,0.096,1.148,0.375,1.148,1.543c0,1.301-0.91,1.689-1.951,1.689c-1.559,0-1.147-0.375-8.813-0.375
		c-6.631,0-6.736,0.521-8.814,0.521c-1.559,0-2.471-0.521-2.471-1.69s1.045-1.784,2.34-1.949c2.813-0.355,3.482-2.079,3.482-7.277
		V60.778L338.926,60.778z"/>
	<path fill="#959595" d="M407.782,92.362c0,5.067,1.431,7.276,4.551,7.276c2.47,0,4.028-1.69,5.067-3.249
		c1.17-1.562,1.949-3.12,2.99-3.12c0.776,0,1.299,0.39,1.299,1.3c0,1.95-3.511,12.088-13.647,12.088
		c-3.769,0-6.627-1.039-8.575-3.119c-2.078-2.34-2.859-5.459-2.859-10.397V53.11c0-1.431-0.649-1.951-1.562-2.08
		c-0.907-0.131-2.079-0.131-3.116-0.131c-1.172,0-2.213-0.129-2.213-1.561c0-0.909,0.78-1.818,2.473-3.379
		c4.027-3.12,7.408-6.628,11.826-14.426c1.172-2.209,1.56-2.99,2.469-2.99c0.908,0,1.3,0.521,1.3,2.729v12.348
		c0,1.95,0.649,2.729,2.604,2.729h7.017c2.209,0,2.729,0.52,2.729,2.34c0,2.08-0.521,2.729-2.989,2.729
		c-2.209,0-4.548-0.131-6.757-0.131c-2.082,0-2.604,0.521-2.604,2.859L407.782,92.362L407.782,92.362z"/>
	<path fill="#959595" d="M446.125,106.657c-15.076,0-25.477-14.037-25.477-30.934c0-16.637,10.008-30.933,25.604-30.933
		c15.856,0,25.604,14.428,25.604,30.804c0,17.024-10.397,31.063-25.604,31.063H446.125z M446.643,103.019
		c8.97,0,13.127-13.646,13.127-25.994c0-14.428-4.549-28.594-13.776-28.594c-8.967,0-13.255,12.997-13.255,25.995
		c0,14.425,4.679,28.593,13.774,28.593H446.643z"/>
	<path fill="#959595" d="M472.887,61.298c0-10.917,9.487-16.505,20.665-16.505c4.157,0,8.84,0.778,11.31,2.079
		c0.646,0.391,0.91,1.3,1.037,3.119c0.132,1.17,0.132,2.6,0.132,4.55v3.379c-0.132,2.08-0.389,3.25-1.561,3.25
		c-1.688,0-1.948-2.47-4.03-6.89c-1.559-3.379-3.769-5.979-7.926-5.979c-5.069,0-9.103,3.51-9.103,8.317
		c0,6.238,6.24,9.229,12.74,12.996c6.368,3.771,12.995,8.318,12.995,17.677c0,12.606-10.138,19.364-22.354,19.364
		c-3.9,0-7.668-0.649-10.27-1.56c-0.908-0.261-1.818-0.52-2.472-1.04c-0.646-0.391-1.168-1.04-1.298-3.64
		c-0.13-1.819-0.13-4.288-0.13-7.669c0-5.199,0.388-6.627,1.688-6.627c1.819,0,1.946,2.079,3.898,7.538
		c1.948,5.068,4.938,9.357,10.27,9.357c5.849,0,10.007-3.898,10.007-9.748c0-7.668-6.109-11.048-12.089-14.688
		c-6.497-3.64-13.517-7.798-13.517-17.156v-0.13h0.005V61.298z"/>
	<path fill="#959595" d="M514.162,27.766c0-3.77-0.518-4.679-4.028-5.069c-2.209-0.52-2.987-0.65-2.987-1.82
		c0-1.3,0.91-1.43,3.641-2.209c5.198-1.56,8.448-2.729,10.527-3.898c1.688-0.781,2.469-1.17,3.25-1.17
		c0.775,0,0.905,0.519,0.905,2.339V52.85c0,0.778,0.263,1.169,0.781,1.169c0.521,0,1.168-0.392,1.688-0.91
		c3.25-2.988,8.316-7.668,15.854-7.668c9.747,0,15.466,6.627,15.728,16.896v33.272c0,4.42,1.172,6.107,4.291,6.498
		c2.078,0.26,3.116,0.649,3.116,1.82c0,1.169-0.907,1.561-1.948,1.561c-1.168,0-5.068-0.521-10.784-0.521
		c-6.24,0-8.579,0.521-10.4,0.521c-1.429,0-2.209-0.521-2.209-1.69s0.91-1.431,2.339-1.689c3.25-0.52,4.291-1.688,4.291-5.328
		V63.768c0-3.25-0.521-6.108-2.078-8.059c-1.82-2.469-4.552-3.641-8.063-3.641c-3.377,0-6.627,1.301-9.096,3.51
		c-2.341,2.21-3.513,4.811-3.513,8.061v32.752c0,3.378,1.172,5.068,5.069,5.718c1.951,0.393,2.469,0.65,2.469,1.82
		c0,1.169-0.907,1.561-1.947,1.561c-1.56,0-3.512-0.521-11.438-0.521c-6.367,0-8.446,0.521-10.658,0.521
		c-1.168,0-2.078-0.391-2.078-1.69c0-1.169,1.172-1.818,2.471-1.949c4.156-0.39,4.809-1.949,4.809-7.277L514.162,27.766
		L514.162,27.766z"/>
	<g>
		<path fill="#008000" d="M66.344,21.192c4.43-4.859,6.735-11.682,7.055-20.858l0.011-0.333l-0.324,0.066
			C57.533,3.249,49.5,12.996,49.213,29.038l-0.006,0.313l0.307-0.048C56.922,28.141,62.428,25.488,66.344,21.192z"/>
		<path fill="#0000FF" d="M12.824,103.702l0.285,0.412c2.572,3.707,5.52,7.315,8.761,10.725c2.47,2.596,6.403,4.025,11.076,4.025
			c3.424,0,6.976-0.808,9.269-2.103c4.738-2.682,7.252-2.688,9.084-2.688c0.371,0,0.715-0.002,1.043-0.021l0.303-0.021
			c0.396-0.024,0.806-0.051,1.268-0.051c1.625,0,4.057,0.317,8.471,2.813c3.082,1.29,6.068,1.944,8.881,1.944l0,0
			c7.658,0,14.371-4.789,20.521-14.633l0.252-0.402H12.824L12.824,103.702z"/>
		<path fill="#008000" d="M92.947,42.269c1.022-1.021,2.126-2.024,3.313-3.016l0.197-0.165l-0.164-0.2
			C90.524,31.77,82.621,27.93,73.441,27.786l-0.42-0.003c-4.651,0-8.764,0.872-11.896,2.521c-4.059,2.138-7.079,2.612-7.108,2.616
			c-0.051,0.008-0.383,0.021-1.295,0.021c-1.104,0-2.061-0.019-2.176-0.035l-0.072-0.008c-1.301-0.169-4.621-0.714-7.309-2.148
			c-3.656-1.948-7.729-2.979-11.775-2.979l-0.267,0.001C20.42,27.893,11.471,33.108,5.908,42.269H92.947z"/>
		<path fill="#FFFF00" d="M83.973,57.487c1.052-5.094,3.895-10.039,8.531-14.771l0.438-0.446H5.909l-0.075,0.127
			c-2.668,4.426-4.435,9.545-5.273,15.09L83.973,57.487L83.973,57.487z"/>
		<path fill="#FF6600" d="M86.01,72.52c-2.104-4.323-3.136-9.319-2.09-14.721l0.059-0.313H0.569l-0.033,0.226
			C-0.17,62.52-0.17,67.495,0.483,72.52H86.01L86.01,72.52z"/>
		<path fill="#FF0000" d="M4.58,88.291h95.323l0.558-1.206l-0.23-0.114c-4.563-2.26-10.678-7.203-14.159-14.304L86,72.521H0.478
			l0.042,0.297C1.1,77.166,2.291,82.45,4.58,88.291z"/>
		<path fill="#800080" d="M12.827,103.702h79.201c3.026-4.898,5.517-10.297,7.707-15.039l0.172-0.373H4.594l0.144,0.361
			C6.823,93.856,9.527,98.885,12.827,103.702z"/>
	</g>
</g>
</svg>
