<?xml version="1.0" encoding="utf-8"?>
<!-- Generator: Adobe Illustrator 16.0.0, SVG Export Plug-In . SVG Version: 6.00 Build 0)  -->
<!DOCTYPE svg PUBLIC "-//W3C//DTD SVG 1.1//EN" "http://www.w3.org/Graphics/SVG/1.1/DTD/svg11.dtd">
<svg version="1.1" id="Ebene_1" xmlns="http://www.w3.org/2000/svg" xmlns:xlink="http://www.w3.org/1999/xlink" x="0px" y="0px"
	 width="566.926px" height="121.783px" viewBox="0 0 566.926 121.783" enable-background="new 0 0 566.926 121.783"
	 xml:space="preserve">
<g>
	<polygon fill="#959595" points="0,0 28.081,0 28.081,8.264 19.862,8.264 19.862,120.425 9.929,120.425 9.929,8.264 0,8.264 	"/>
	<path fill="#959595" d="M53.519,112.216H64.48V33.634h9.587v78.582c0,5.086-4.622,8.688-9.359,8.688H53.519
		c-5.007,0-9.474-4.072-9.474-8.79V33.634h9.474V112.216z"/>
	<path fill="#959595" d="M259.674,52.827h14.642v68.154h-20.632c-4.412,0-9.846-3.377-9.846-8.5V9.457
		c0-4.328,4.535-8.937,9.629-8.937h11.259c4.994,0,9.525,4.567,9.525,8.836v24.407h-9.868V9.696H253.17v102.862h11.472v-51.39
		h-4.968V52.827z"/>
	<path fill="#959595" d="M401.255,79.153v41.311h-9.244V41.345c0-3.574,3.554-7.468,8.048-7.468h15.239v7.626h-14.043v29.232h11.562
		v8.457L401.255,79.153z"/>
	<path fill="#959595" d="M434.045,33.899h9.702v31.512l5.479,5.509l5.363-5.356V33.899h9.586v29.982
		c0,3.661-9.471,13.306-9.471,13.306s9.587,9.642,9.587,13.547v29.904h-9.018V89.504l-5.822-5.887l-5.82,5.81v31.213h-9.587V90.806
		c0-3.668,10.154-13.695,10.154-13.695s-10.154-9.536-10.154-13.381V33.899z"/>
	<path fill="#959595" d="M115.616,79.349c3.253,0,7.577-3.888,7.577-9.092V41.82c0-4.092-4.667-7.902-9.975-7.902H93.528v86.894
		h9.076V79.987h3.425l10.102,40.671h8.904L115.616,79.349z M113.82,70.853h-10.874V42.337h10.874V70.853z"/>
	<path fill="#959595" d="M316.456,79.122c3.255,0,7.581-3.895,7.581-9.096V41.59c0-4.091-4.67-7.905-9.976-7.905h-19.688v86.9h9.067
		v-40.83h3.429l10.104,40.669h8.899L316.456,79.122z M314.529,70.528h-10.867V42.014h10.867V70.528z"/>
	<path fill="#959595" d="M171.712,81.397c-0.042-3.896-4.107-6.357-4.107-6.357s4.107-2.658,4.107-6.354V42.16
		c0-5.007-4.408-8.264-8.901-8.264h-20.719v86.744h20.719c4.195,0,8.901-2.621,8.901-8.262
		C171.712,112.378,171.758,85.287,171.712,81.397z M162.381,112.14H151.51V79.808h10.871V112.14z M162.381,70.832H151.51V42.318
		h10.871V70.832z"/>
	<path fill="#959595" d="M211.392,33.255h-5.479h-5.309c-5.437,0-9.396,4.648-9.396,8.183v70.448c0,4.553,5.071,8.682,9.354,8.682
		h11.729c4.58,0,9.16-4.729,9.16-8.5V41.199C221.451,38.023,217.126,33.255,211.392,33.255z M211.734,111.614h-10.502V41.836h10.502
		V111.614z"/>
	<path fill="#959595" d="M363.691,33.876h-11.979c-5.396,0-8.563,4.447-8.563,7.944v78.644h9.074V79.153h11.471v41.311h9.074V42.295
		C372.768,37.107,369.177,33.876,363.691,33.876z M363.432,70.576h-10.865v-27.96h10.865V70.576z"/>
	<g>
		<g>
			<rect x="518.902" y="79.942" fill="#959595" width="28.094" height="10.479"/>
			<path fill="#959595" d="M522.369,32.673c-24.606,0-44.551,19.946-44.551,44.553c0,24.607,19.941,44.56,44.551,44.56
				c24.604,0,44.558-19.949,44.558-44.56C566.926,52.62,546.977,32.673,522.369,32.673z M507.207,95.533h-14.129v-4.949h4.555
				V64.438h-4.471v-5.113h9.58V90.5h4.464L507.207,95.533L507.207,95.533z M551.866,68.823h-4.541v-4.547h-28.67v10.879h30.617
				l2.594,2.602v14.374l-3.247,3.247h-31.341l-3.248-3.247v-29.64l3.008-3.005h32.072l2.756,2.759V68.823z"/>
		</g>
	</g>
</g>
</svg>
