<?xml version="1.0" encoding="utf-8"?>
<!-- Generator: Adobe Illustrator 16.0.0, SVG Export Plug-In . SVG Version: 6.00 Build 0)  -->
<!DOCTYPE svg PUBLIC "-//W3C//DTD SVG 1.1//EN" "http://www.w3.org/Graphics/SVG/1.1/DTD/svg11.dtd">
<svg version="1.1" id="Ebene_1" xmlns="http://www.w3.org/2000/svg" xmlns:xlink="http://www.w3.org/1999/xlink" x="0px" y="0px"
	 width="566.93px" height="79.219px" viewBox="0 0 566.93 79.219" enable-background="new 0 0 566.93 79.219" xml:space="preserve">
<g>
	<g>
		<g>
			<g id="_x23_ffffffff">
				<path fill="#959595" d="M123.437,3.436c3.074-3.934,9.436-4.604,13.207-1.307c1.542,1.299,2.622,3.091,3.175,5.02
					c6.98,24.021,13.994,48.033,20.966,72.059c-4.12,0.004-8.242-0.006-12.362,0.004c-1.942-6.623-3.841-13.258-5.759-19.89
					c-7.967-0.018-15.932-0.004-23.897-0.008c-1.951,6.627-3.876,13.258-5.792,19.897c-4.099-0.015-8.195-0.004-12.294-0.008
					c6.633-22.914,13.272-45.832,19.938-68.739C121.41,8.071,121.708,5.392,123.437,3.436 M130.71,18.154
					c-2.921,9.952-5.782,19.925-8.688,29.882c5.791,0.026,11.579,0.01,17.367,0.01C136.491,38.082,133.608,28.119,130.71,18.154z"/>
				<path fill="#959595" d="M210.231,3.953c2.146-3.114,6.298-4.627,9.953-3.666c3.345,0.771,5.904,3.653,6.788,6.898
					c6.975,24.005,13.973,48,20.946,72.004c-4.125,0.033-8.25,0-12.375,0.02c-1.918-6.629-3.815-13.268-5.748-19.896
					c-7.954,0.004-15.906-0.014-23.859,0.006c-1.901,6.637-3.86,13.252-5.764,19.887c-4.094,0.004-8.186-0.002-12.279,0.004
					c6.629-23.041,13.336-46.063,20.019-69.087C208.613,8.041,208.883,5.749,210.231,3.953 M209.228,48.045
					c5.766,0.008,11.529,0.004,17.296,0.004c-2.868-9.984-5.782-19.956-8.645-29.939C215.001,28.09,212.094,38.061,209.228,48.045z"
					/>
				<path fill="#959595" d="M151.56,0.167c14.905,0,29.811,0,44.712,0c0,4.021,0,8.038,0,12.059
					c-5.487,0.004-10.975-0.006-16.459,0.004c0,22.325,0.004,44.653-0.003,66.978c-3.93,0-7.862,0-11.792,0
					c0-22.324-0.003-44.651,0.004-66.978c-5.489-0.01-10.975,0-16.462-0.004C151.56,8.206,151.557,4.189,151.56,0.167z"/>
				<path fill="#959595" d="M261.023,0.656c1.133-0.391,2.342-0.523,3.537-0.494c4.698,0.017,9.397,0.003,14.098,0.006
					c7.914,0.145,15.468,5.056,18.895,12.179c2.371,4.626,2.614,10.005,2.018,15.079c-0.41,5.313-2.64,10.625-6.723,14.145
					c-2.158,1.926-4.847,3.09-7.153,4.801c-1.27,0.967-1.329,2.842-0.676,4.184c6.236,9.629,12.724,19.105,19.09,28.654
					c-4.657,0.008-9.313-0.014-13.972,0.008c-6.099-9.158-12.131-18.361-18.202-27.531c-1.785-2.607-2.271-6.064-1.201-9.045
					c0.834-2.285,2.831-3.958,5.055-4.818c4.246-1.618,8.432-4.166,10.782-8.172c1.788-3.01,1.697-6.725,0.893-10.021
					c-0.942-4.277-5.11-7.645-9.514-7.495c-3.047,0.021-6.091-0.016-9.132,0.014c-1.377-0.032-2.672,1.165-2.655,2.562
					c-0.014,21.501,0.008,43.004-0.006,64.504c-3.96-0.006-7.917,0-11.878-0.004c-0.007-23.146,0.007-46.297-0.007-69.443
					C254.291,5.707,257.176,1.89,261.023,0.656z"/>
				<path fill="#959595" d="M310.336,0.167c4.163,0,8.327,0,12.497,0c-0.004,26.349,0.007,52.69-0.008,79.042
					c-4.162-0.011-8.326,0-12.489-0.004C310.336,52.857,310.336,26.512,310.336,0.167z"/>
			</g>
		</g>
	</g>
	<g>
		<path fill="#959595" d="M527.328,79.205c-21.836,0-39.604-17.768-39.604-39.604C487.724,17.764,505.492,0,527.328,0
			c21.839,0,39.603,17.765,39.603,39.603C566.929,61.439,549.167,79.205,527.328,79.205z M527.328,2.908
			c-20.233,0-36.694,16.461-36.694,36.693c0,20.234,16.461,36.695,36.694,36.695c20.232,0,36.693-16.461,36.693-36.695
			C564.021,19.37,547.56,2.908,527.328,2.908z M527.328,66.582c-14.873,0-26.977-12.104-26.977-26.977
			c0-14.875,12.104-26.976,26.977-26.976s26.976,12.101,26.976,26.976C554.302,54.48,542.201,66.582,527.328,66.582z M527.328,15.54
			c-13.271,0-24.067,10.797-24.067,24.065c0,13.271,10.797,24.068,24.067,24.068s24.066-10.797,24.066-24.068
			C551.394,26.336,540.597,15.54,527.328,15.54z"/>
	</g>
	<g>
		<path fill="#959595" d="M446.258,79.205c-21.836,0-39.604-17.768-39.604-39.604C406.654,17.764,424.422,0,446.258,0
			c21.838,0,39.602,17.765,39.602,39.603C485.859,61.439,468.095,79.205,446.258,79.205z M446.258,2.908
			c-20.232,0-36.695,16.461-36.695,36.693c0,20.234,16.463,36.695,36.695,36.695c20.231,0,36.692-16.461,36.692-36.695
			C482.951,19.37,466.49,2.908,446.258,2.908z M446.258,66.582c-14.875,0-26.978-12.104-26.978-26.977
			c0-14.875,12.103-26.976,26.978-26.976c14.873,0,26.975,12.101,26.975,26.976C473.232,54.48,461.131,66.582,446.258,66.582z
			 M446.258,15.54c-13.271,0-24.068,10.797-24.068,24.065c0,13.271,10.797,24.068,24.068,24.068
			c13.271,0,24.065-10.797,24.065-24.068C470.324,26.336,459.527,15.54,446.258,15.54z"/>
	</g>
	<g>
		<path fill="#959595" d="M378.4,79.205c-15.295,0-27.736-12.441-27.736-27.738c0-9.178,4.638-17.842,12.197-22.976
			c-1.932-2.98-2.942-6.41-2.942-10.01C359.917,8.292,368.208,0,378.4,0s18.484,8.292,18.484,18.48c0,3.6-1.017,7.027-2.947,10.009
			c7.563,5.135,12.199,13.797,12.199,22.977C406.138,66.764,393.695,79.205,378.4,79.205z M378.4,2.908
			c-8.588,0-15.576,6.985-15.576,15.573c0,3.479,1.127,6.773,3.256,9.524l1.007,1.297l-1.41,0.841
			c-7.467,4.467-12.104,12.637-12.104,21.323c0,13.688,11.14,24.83,24.828,24.83c13.691,0,24.83-11.142,24.83-24.83
			c0-8.688-4.639-16.857-12.104-21.323l-1.406-0.841l1.003-1.297c2.131-2.751,3.256-6.045,3.256-9.524
			C393.976,9.895,386.988,2.908,378.4,2.908z M378.4,67.693c-8.945,0-16.225-7.274-16.225-16.226
			c0-8.944,7.276-16.225,16.225-16.225c8.945,0,16.226,7.276,16.226,16.225C394.626,60.418,387.347,67.693,378.4,67.693z
			 M378.4,38.151c-7.344,0-13.315,5.977-13.315,13.318c0,7.344,5.976,13.318,13.315,13.318c7.344,0,13.316-5.977,13.316-13.318
			S385.744,38.151,378.4,38.151z M378.4,26.639c-4.496,0-8.152-3.658-8.152-8.154c0-4.495,3.656-8.15,8.152-8.15
			s8.152,3.655,8.152,8.15C386.554,22.981,382.896,26.639,378.4,26.639z M378.4,13.24c-2.893,0-5.244,2.354-5.244,5.244
			c0,2.895,2.353,5.246,5.244,5.246c2.896,0,5.246-2.354,5.246-5.246C383.646,15.593,381.295,13.24,378.4,13.24z"/>
	</g>
	<path fill="#959595" d="M0,70.457c0,4.816,3.942,8.762,8.762,8.762h61.691c4.819,0,8.762-3.943,8.762-8.762V8.765
		c0-4.818-3.941-8.762-8.762-8.762H8.761C3.942,0.003,0,3.946,0,8.765V70.457z"/>
	<g>
		<path fill="#FFFFFF" d="M30.521,14.984c1.303-0.004,2.605,0,3.911-0.002c0.005,3.064,0,6.131,0.002,9.195
			c0.013,2.559-0.06,5.116-0.165,7.673c-0.175,3.69-0.406,7.389-1.018,11.037c-0.42,2.516-1.291,4.943-2.369,7.246
			c-1.761,3.711-4.527,6.852-7.639,9.492c-2.782,2.448-6.104,4.23-9.597,5.438c-1.977,0.684-4.01,1.205-6.08,1.498
			c0.002-2.571,0.002-5.143,0-7.713c2.492-0.375,4.889-1.26,7.114-2.43c2.641-1.396,5.018-3.273,7.019-5.488
			c2.067-2.285,3.713-4.932,4.963-7.742c1.472-3.229,2.26-6.721,2.795-10.214c0.672-4.442,0.951-8.938,1.056-13.425
			C30.53,18.028,30.517,16.506,30.521,14.984z"/>
		<path fill="#FFFFFF" d="M36.005,14.989c2.399-0.016,4.8-0.002,7.2-0.006c0.001,17.192,0.001,34.387,0,51.576
			c-2.395,0.006-4.789-0.01-7.183,0.012c-0.03-5.48-0.004-10.967-0.014-16.445C36.006,38.413,36.014,26.701,36.005,14.989z"/>
		<path fill="#FFFFFF" d="M44.807,14.983c1.297-0.001,2.593-0.004,3.888,0.001c-0.042,5.241,0.137,10.495,0.761,15.701
			c0.512,4.045,1.233,8.121,2.844,11.889c1.527,3.646,3.729,7.035,6.599,9.769c2.74,2.613,6.06,4.621,9.667,5.777
			c1.007,0.319,2.036,0.571,3.083,0.728c-0.001,2.569-0.002,5.139,0,7.709c-2.057-0.279-4.072-0.812-6.034-1.478
			c-2.336-0.813-4.596-1.865-6.672-3.218c-1.515-0.973-2.894-2.141-4.216-3.354c-2.183-2.014-4.135-4.299-5.602-6.889
			c-1.146-2.019-1.983-4.195-2.64-6.416c-0.602-2.231-0.857-4.543-1.09-6.838c-0.451-4.962-0.62-9.946-0.588-14.928
			C44.807,20.619,44.806,17.802,44.807,14.983z"/>
		<path fill="#FFFFFF" d="M36.005,14.989c0.009,11.713,0.001,23.425,0.004,35.135c0.009,5.479-0.018,10.965,0.014,16.446
			c2.394-0.021,4.789-0.006,7.183-0.012c0.001-17.188,0.001-34.384,0-51.577C40.805,14.987,38.405,14.974,36.005,14.989"/>
		<path fill="#FFFFFF" d="M44.807,14.983c-0.001,2.818,0,5.637,0,8.453c-0.032,4.979,0.137,9.966,0.588,14.928
			c0.232,2.295,0.488,4.604,1.09,6.838c0.655,2.221,1.493,4.397,2.64,6.416c1.467,2.59,3.419,4.875,5.602,6.889
			c1.323,1.218,2.701,2.384,4.216,3.354c2.076,1.353,4.336,2.402,6.672,3.218c1.962,0.666,3.978,1.194,6.034,1.478
			c-0.002-2.57-0.001-5.14,0-7.709c-1.046-0.152-2.076-0.406-3.083-0.728c-3.607-1.156-6.927-3.164-9.667-5.777
			c-2.869-2.729-5.071-6.12-6.599-9.769c-1.61-3.768-2.332-7.844-2.844-11.889c-0.625-5.206-0.803-10.46-0.761-15.701
			C47.399,14.98,46.103,14.982,44.807,14.983"/>
	</g>
</g>
</svg>
