<?xml version="1.0" encoding="utf-8"?>
<!-- Generator: Adobe Illustrator 16.0.0, SVG Export Plug-In . SVG Version: 6.00 Build 0)  -->
<!DOCTYPE svg PUBLIC "-//W3C//DTD SVG 1.1//EN" "http://www.w3.org/Graphics/SVG/1.1/DTD/svg11.dtd">
<svg version="1.1" id="Layer_1" xmlns:svg="http://www.w3.org/2000/svg"
	 xmlns="http://www.w3.org/2000/svg" xmlns:xlink="http://www.w3.org/1999/xlink" x="0px" y="0px" width="566.93px"
	 height="67.639px" viewBox="0 0 566.93 67.639" enable-background="new 0 0 566.93 67.639" xml:space="preserve">
<g>
	<g>
		<path id="path5" fill="#959595" d="M213.297,56.3c-4.778,6.492-9.51,8.334-11.58,9.33c-2.067,0.998-5.2,1.779-7.94,1.779
			c-7.689,0-13.688-2.509-18-7.5c-4.314-5.018-6.469-12.049-6.469-21.165c0-10.782,2.719-19.925,8.182-27.473
			C182.948,3.75,190.19,0,199.214,0c6.847,0,12.445,1.922,16.828,5.789c4.383,3.844,6.564,9.891,6.564,18.116h-13.244
			c0-3.938-0.867-6.702-2.604-8.298c-1.731-1.568-4.219-2.365-7.477-2.365c-5.32,0-9.422,2.601-12.352,7.779
			c-2.906,5.204-4.386,11.109-4.386,17.742c0,4.524,0.963,8.229,2.838,11.086c1.898,2.885,4.732,4.313,8.509,4.313
			c3.938,0,6.983-1.125,9.188-3.354c2.18-2.202,3.797-5.063,4.828-8.556h-12.33l1.996-12h24.045l-2.039,11.625
			C219.581,41.885,218.057,49.808,213.297,56.3L213.297,56.3z"/>
		<polygon id="polygon9" fill="#959595" points="327.629,1.666 316.873,65.84 305.292,65.84 314.412,16.104 294.298,65.84 
			284.809,65.84 280.426,16.127 273.508,65.84 261.792,65.84 272.5,1.666 288.934,1.666 292.615,46.855 311.083,1.547 		"/>
		<polygon id="polygon11" fill="#959595" points="339.886,26.509 358.802,26.509 356.832,38.956 337.917,38.956 335.481,52.62 
			356.832,52.62 354.725,65.84 321.067,65.84 331.708,1.594 364.965,1.594 362.927,14.906 341.998,14.906 		"/>
		<path id="path13" fill="#959595" d="M239.081,1.547L213.206,65.84h12.609l4.617-12.541h16.5l1.078,12.541h12.211l-7.313-64.292
			L239.081,1.547L239.081,1.547z M234.44,42.331l9.377-25.571l2.178,25.571H234.44z"/>
	</g>
	<g>
		<path id="path5_1_" fill="#959595" d="M430.285,56.3c-4.78,6.492-9.511,8.334-11.58,9.331c-2.067,0.997-5.2,1.779-7.94,1.779
			c-7.688,0-13.688-2.51-18-7.5c-4.314-5.018-6.471-12.048-6.471-21.164c0-10.782,2.721-19.924,8.182-27.473
			c5.461-7.521,12.703-11.271,21.727-11.271c6.845,0,12.445,1.922,16.828,5.789c4.385,3.845,6.563,9.893,6.563,18.118h-13.24
			c0-3.938-0.865-6.703-2.604-8.299c-1.731-1.567-4.219-2.365-7.477-2.365c-5.32,0-9.422,2.601-12.352,7.779
			c-2.908,5.204-4.384,11.109-4.384,17.743c0,4.523,0.961,8.229,2.834,11.085c1.899,2.885,4.733,4.313,8.511,4.313
			c3.938,0,6.983-1.125,9.188-3.354c2.18-2.203,3.797-5.063,4.83-8.556h-12.33l1.992-12h24.047l-2.039,11.625
			C436.568,41.885,435.042,49.808,430.285,56.3L430.285,56.3z"/>
		<polygon id="polygon15" fill="#959595" points="454.992,26.531 473.879,26.531 471.935,38.956 453.019,38.956 450.56,52.62 
			471.935,52.62 469.828,65.862 436.167,65.862 446.808,1.594 480.07,1.594 478.031,14.906 457.097,14.906 		"/>
		<path id="path17" fill="#959595" d="M496.801,1.573l-25.875,64.292h12.635l4.594-12.54h16.523l1.076,12.54h12.188l-7.313-64.292
			H496.801z M492.183,42.33l9.354-25.572l2.203,25.572H492.183z"/>
		<path id="path19" fill="#959595" d="M537.492,29.836l2.813-15.819h6.75c2.483,0,4.336,0.444,5.578,1.336
			c1.242,0.914,1.852,2.718,1.852,5.438c0,3.047-1.008,5.297-3,6.798c-2.018,1.5-4.57,2.249-7.664,2.249L537.492,29.836
			L537.492,29.836z M529.876,1.594l-10.642,64.268h12.303l4.127-24.491h5.695l9.517,24.491h14.108l-10.549-27.116
			c3.682-1.875,6.846-4.993,9.049-8.25c2.297-3.354,3.443-7.268,3.443-11.743c0-6.07-1.357-10.432-4.103-13.125
			c-2.719-2.694-6.588-4.031-11.555-4.031L529.876,1.594L529.876,1.594z"/>
	</g>
	<path id="path21" fill="#D61808" d="M10.274,26.281C21.131,8.071,36.077-3.295,43.657,0.855c7.564,4.168,4.898,22.31-5.979,40.506
		C26.819,59.573,11.875,70.936,4.313,66.784C-3.269,62.619-0.587,44.477,10.274,26.281z"/>
	<path id="path21_2_" fill="#008400" d="M58.846,26.281C69.704,8.071,84.649-3.295,92.227,0.855
		c7.563,4.168,4.897,22.31-5.979,40.506C75.391,59.573,60.446,70.936,52.883,66.784C45.303,62.619,47.985,44.477,58.846,26.281z"/>
	<path id="path21_3_" fill="#0000FF" d="M107.418,26.281C118.273,8.07,133.221-3.295,140.799,0.854
		c7.564,4.168,4.898,22.31-5.979,40.506c-10.859,18.211-25.801,29.575-33.365,25.425C93.874,62.619,96.557,44.477,107.418,26.281z"
		/>
</g>
</svg>
