<?xml version="1.0" encoding="utf-8"?>
<!-- Generator: Adobe Illustrator 16.0.0, SVG Export Plug-In . SVG Version: 6.00 Build 0)  -->
<!DOCTYPE svg PUBLIC "-//W3C//DTD SVG 1.1//EN" "http://www.w3.org/Graphics/SVG/1.1/DTD/svg11.dtd">
<svg version="1.1" id="Ebene_3" xmlns="http://www.w3.org/2000/svg" xmlns:xlink="http://www.w3.org/1999/xlink" x="0px" y="0px"
	 width="566.926px" height="167.469px" viewBox="0 0 566.926 167.469" enable-background="new 0 0 566.926 167.469"
	 xml:space="preserve">
<g>
	<g>
		<path fill="#959595" d="M33.98,108.93l-0.067-41.589h5.384v49.798h-5.384L5.249,75.215l0.135,41.926H0V67.342h5.651L33.98,108.93z
			"/>
		<path fill="#959595" d="M45.31,67.342h26.419v4.912H50.827v17.294h20.767v4.912H50.827v17.769h20.901v4.912H45.31V67.342z"/>
		<path fill="#959595" d="M74.242,92.375c0-15.341,11.91-25.908,25.976-25.908c14.602,0,25.975,11.172,25.975,25.773
			c0,14.604-11.305,25.773-25.975,25.773c-14.738,0-25.976-11.373-25.976-25.572V92.375z M79.827,92.24
			c0,11.709,8.814,20.861,20.458,20.861c11.775,0,20.39-9.486,20.39-20.861c0-11.373-8.613-20.861-20.457-20.861
			c-11.709,0-20.391,9.286-20.391,20.792V92.24z"/>
		<path fill="#959595" d="M172.16,80.262c-1.549-2.153-3.434-3.971-5.586-5.384c-3.23-2.221-7.134-3.5-11.574-3.5
			c-10.902,0-20.391,8.345-20.391,20.792c0,12.652,9.557,20.996,20.457,20.996c5.249,0,9.893-1.814,13.324-4.508
			c3.5-2.76,5.922-6.527,6.73-10.432h-27.104V93.65h33.564c-0.067,2.895-0.74,6.526-2.222,9.623
			c-4.307,9.354-14.267,14.805-24.293,14.805c-14.534,0-26.042-11.17-26.042-25.908c0-14.938,11.709-25.706,26.109-25.706
			c10.094,0,19.448,5.653,23.351,13.796h-6.324V80.262L172.16,80.262z"/>
		<path fill="#959595" d="M184.25,67.342h27.59v4.912h-22.071v17.294h21.938v4.912h-21.938v17.769h22.071v4.912h-27.59V67.342z"/>
		<path fill="#959595" d="M214.061,92.375c0-15.341,11.911-25.908,25.976-25.908c14.603,0,25.975,11.172,25.975,25.773
			c0,14.604-11.305,25.773-25.975,25.773c-14.737,0-25.976-11.373-25.976-25.572V92.375z M219.646,92.24
			c0,11.709,8.815,20.861,20.457,20.861c11.777,0,20.391-9.486,20.391-20.861c0-11.373-8.613-20.861-20.457-20.861
			c-11.709,0-20.391,9.286-20.391,20.792V92.24L219.646,92.24z"/>
	</g>
	<g>
		<path fill="#959595" d="M327.465,92.375c0-15.341,11.91-25.908,25.977-25.908c14.604,0,25.978,11.172,25.978,25.773
			c0,14.604-11.306,25.773-25.978,25.773c-14.736,0-25.977-11.373-25.977-25.572V92.375z M333.049,92.24
			c0,11.709,8.815,20.861,20.459,20.861c11.776,0,20.392-9.486,20.392-20.861c0-11.373-8.612-20.861-20.458-20.861
			c-11.708,0-20.393,9.286-20.393,20.792V92.24L333.049,92.24z"/>
		<path fill="#959595" d="M435,103.748c-3.229,7.672-11.91,14.27-22.88,14.27c-14.735,0-25.976-11.373-25.976-25.772
			c0-14.2,10.97-25.773,25.905-25.773c12.313,0,20.055,8.21,22.946,14.534h-5.989c-1.685-2.96-7.334-9.623-16.957-9.623
			c-11.642,0-20.39,9.22-20.39,20.793c0,11.777,8.813,20.93,20.39,20.93c10.434,0,15.746-7.47,16.957-9.354L435,103.748L435,103.748
			z"/>
		<path fill="#959595" d="M489.645,67.342h27.592v4.912h-22.072v17.294H517.1v4.912h-21.937v17.769h22.072v4.912h-27.592
			L489.645,67.342L489.645,67.342z"/>
		<path fill="#959595" d="M545.229,72.254H529.18v-4.912h37.746v4.912h-16.111v44.887h-5.586V72.254L545.229,72.254z"/>
	</g>
	<path fill="#F10000" d="M214.245,155.511c-2.054,6.981-8.625,11.957-16.521,11.957c-10.313,0-17.707-8.171-17.707-17.569
		c0-8.989,6.982-17.479,17.662-17.479c9.721,0.047,15.243,7.211,16.566,12.143h-7.165c-1.05-2.328-4.062-6.114-9.447-6.162
		c-6.572,0-10.816,5.521-10.816,11.5c0,6.162,4.428,11.595,10.862,11.595c6.024,0,8.763-4.746,9.401-5.979L214.245,155.511
		L214.245,155.511z"/>
	<path fill="#F10000" d="M232.454,150.216c0-10.813,8.306-17.799,17.708-17.799c10.223,0,17.753,7.94,17.753,17.524
		s-7.485,17.521-17.8,17.521c-10.359,0-17.661-8.168-17.661-17.202V150.216L232.454,150.216z M239.254,149.943
		c0,6.162,4.427,11.547,11,11.547c6.846,0,10.862-5.934,10.862-11.5c0-5.658-4.017-11.594-10.908-11.594
		c-6.754,0-10.954,5.565-10.954,11.502V149.943z"/>
	<path fill="#F10000" d="M287.997,133.059h6.799v27.793h11.09v5.979h-17.889V133.059z"/>
	<path fill="#F10000" d="M322.606,150.216c0-10.813,8.307-17.799,17.707-17.799c10.225,0,17.754,7.94,17.754,17.524
		s-7.484,17.521-17.799,17.521c-10.357,0-17.662-8.168-17.662-17.202V150.216z M329.406,149.943c0,6.162,4.429,11.547,10.997,11.547
		c6.848,0,10.862-5.934,10.862-11.5c0-5.658-4.019-11.594-10.907-11.594c-6.754,0-10.952,5.565-10.952,11.502V149.943
		L329.406,149.943z"/>
	<path fill="#959595" d="M475.574,117.139h6.933L456.636,92.17l23.783-24.83h-6.056l-26.104,26.998v-6.396v-20.6h-5.519v49.799
		h5.519v-16.229l5.08-5.306L475.574,117.139z"/>
	<path fill="#F10000" d="M385.808,133.059c3.799,0.097,7.155,0.291,10.176,2.82c0.778,0.637,1.511,1.461,2.046,2.289
		c1.56,2.389,1.703,5.063,1.703,5.99c0,0.824-0.097,3.113-1.361,5.209c-0.342,0.531-0.778,1.264-1.803,2.188
		c-1.119,0.977-2.287,1.51-2.729,1.704c-0.827,0.341-1.653,0.585-3.455,0.974l9.933,13.193h-7.646l-9.543-12.998v12.998h-6.863
		v-34.371L385.808,133.059L385.808,133.059z M383.129,149.369h3.407c0.392,0,0.729,0,1.121-0.049c0.729,0,3.164-0.098,4.771-2.045
		c0.388-0.488,1.069-1.51,1.069-3.166c0-0.535-0.049-1.853-0.926-3.064c-1.511-2.047-3.848-2.238-6.186-2.291h-3.262v10.615H383.129
		z"/>
	<path fill="none" d="M302.793,120.945c-10.838-21.555-21.646-43.05-32.46-64.563c0.06-0.042,0.107-0.083,0.163-0.109
		c2.696-1.38,5.395-2.76,8.091-4.138c3.812-1.946,7.625-3.884,11.433-5.84c4.003-2.056,8.21-3.293,12.751-3.146
		c3.091,0.1,5.925,0.999,8.411,2.895c2.193,1.675,3.747,3.849,4.938,6.307c1.129,2.332,1.935,4.759,1.979,7.377
		c0.063,3.636-1.036,6.924-2.984,9.977c-1.307,2.042-2.797,3.921-4.545,5.584c-1.203,1.146-2.49,2.204-3.738,3.299
		c-4.568-3.24-9.04-6.409-13.53-9.593c0.853-3.113,1.693-6.198,2.539-9.291c4.36,0,8.662,0,12.938,0c0-3.276,0-6.526,0-9.823
		c-6.682,0.064-13.289,0.127-19.896,0.193c-2.407,6.801-4.803,13.565-7.2,20.342c7.735,6.398,15.444,12.774,23.159,19.157
		c3.065-1.169,5.975-2.609,8.713-4.388c4.363-2.834,8-6.396,10.671-10.88c2.48-4.169,3.728-8.71,3.796-13.56
		c0.042-3.005-0.414-5.942-1.298-8.823c-1.173-3.815-2.987-7.27-5.755-10.165c-5.189-5.433-11.554-8.353-19.082-8.62
		c-4.449-0.158-8.659,0.847-12.631,2.842c-1.789,0.899-3.541,1.872-5.341,2.744c-4.011,1.938-8.04,3.837-12.063,5.748
		c-3.547,1.686-7.095,3.365-10.642,5.047c-1.199,0.568-2.399,1.14-3.601,1.71c12.046,24.561,24.078,49.092,36.104,73.625
		C296.762,123.541,299.748,122.255,302.793,120.945z"/>
	<path fill="#F10000" d="M302.793,120.945c-3.048,1.311-6.031,2.596-9.086,3.908c-12.024-24.529-24.06-49.063-36.104-73.625
		c1.201-0.57,2.4-1.142,3.601-1.71c3.547-1.683,7.095-3.362,10.642-5.047c4.022-1.911,8.052-3.81,12.063-5.748
		c1.799-0.872,3.551-1.845,5.34-2.744c3.973-1.996,8.183-3,12.631-2.842c7.528,0.268,13.894,3.188,19.082,8.62
		c2.769,2.896,4.582,6.349,5.754,10.165c0.886,2.88,1.342,5.818,1.3,8.823c-0.067,4.85-1.313,9.391-3.796,13.56
		c-2.674,4.483-6.31,8.045-10.674,10.881c-2.735,1.774-5.646,3.217-8.712,4.386c-7.714-6.382-15.423-12.758-23.158-19.156
		c2.396-6.776,4.793-13.541,7.2-20.342c6.606-0.064,13.219-0.129,19.896-0.193c0,3.297,0,6.547,0,9.823c-4.278,0-8.579,0-12.939,0
		c-0.847,3.093-1.688,6.178-2.539,9.291c4.489,3.184,8.961,6.353,13.53,9.593c1.248-1.095,2.535-2.152,3.739-3.299
		c1.748-1.663,3.238-3.542,4.543-5.584c1.95-3.053,3.05-6.341,2.986-9.977c-0.048-2.618-0.852-5.045-1.979-7.377
		c-1.188-2.458-2.742-4.632-4.937-6.307c-2.486-1.896-5.32-2.794-8.411-2.895c-4.541-0.147-8.748,1.089-12.751,3.146
		c-3.806,1.956-7.621,3.894-11.433,5.84c-2.697,1.378-5.396,2.758-8.092,4.138c-0.055,0.028-0.104,0.069-0.162,0.109
		C281.149,77.895,291.958,99.391,302.793,120.945z"/>
	<path fill="#F10000" d="M310.439,26.526c-2.162-0.445-4.265-0.879-6.423-1.324c1.257-8.395,2.514-16.788,3.773-25.202
		c3.937,0.574,7.832,1.146,11.791,1.725C316.526,10.012,313.489,18.253,310.439,26.526z"/>
	<path fill="#07B8F9" d="M345.539,19.679c2.089,3.381,4.146,6.72,6.24,10.111c-6.817,4.223-13.635,8.44-20.472,12.671
		c-1.436-2.14-2.841-4.24-4.278-6.391C333.195,30.612,339.347,25.163,345.539,19.679z"/>
	<path fill="#069211" d="M329.069,6.482c3.019,2.085,5.979,4.134,8.954,6.189c-5.377,6.412-10.737,12.806-16.136,19.239
		c-1.89-1.165-3.76-2.319-5.685-3.507C320.475,21.129,324.752,13.837,329.069,6.482z"/>
	<g>
		<path d="M412.074,158.443h-1.979v-1.621h5.791v1.621h-1.967v7.535h-1.845V158.443L412.074,158.443z"/>
		<path d="M416.851,165.979v-9.155h2.485l2.354,6.569l2.313-6.569h2.5v9.155h-1.709l0.051-7.338l-2.563,7.338h-1.213l-2.574-7.338
			l0.052,7.338H416.851z"/>
	</g>
</g>
</svg>
