<?xml version="1.0" encoding="utf-8"?>
<!-- Generator: Adobe Illustrator 16.0.0, SVG Export Plug-In . SVG Version: 6.00 Build 0)  -->
<!DOCTYPE svg PUBLIC "-//W3C//DTD SVG 1.1//EN" "http://www.w3.org/Graphics/SVG/1.1/DTD/svg11.dtd">
<svg version="1.1" id="Ebene_2" xmlns="http://www.w3.org/2000/svg" xmlns:xlink="http://www.w3.org/1999/xlink" x="0px" y="0px"
	 width="566.926px" height="179.318px" viewBox="0 0 566.926 179.318" enable-background="new 0 0 566.926 179.318"
	 xml:space="preserve">
<g>
	
		<linearGradient id="SVGID_1_" gradientUnits="userSpaceOnUse" x1="-68.7043" y1="810.4333" x2="-68.7044" y2="908.196" gradientTransform="matrix(1 0 0 1 547.3203 -810.4336)">
		<stop  offset="0" style="stop-color:#33438A"/>
		<stop  offset="1" style="stop-color:#0098DF"/>
	</linearGradient>
	<polygon fill="url(#SVGID_1_)" points="559.93,6.986 559.93,45.387 390.307,45.387 390.307,97.762 566.926,97.762 566.926,90.777 
		397.297,90.777 397.297,52.375 566.926,52.375 566.926,0 390.307,0 390.307,6.986 	"/>
	
		<linearGradient id="SVGID_2_" gradientUnits="userSpaceOnUse" x1="-276.9446" y1="810.4333" x2="-276.9446" y2="908.196" gradientTransform="matrix(1 0 0 1 547.3203 -810.4336)">
		<stop  offset="0" style="stop-color:#33438A"/>
		<stop  offset="1" style="stop-color:#0098DF"/>
	</linearGradient>
	<polygon fill="url(#SVGID_2_)" points="364.131,0 364.131,6.986 274.038,6.986 274.038,97.762 176.62,97.762 176.62,90.777 
		266.713,90.777 266.713,0 	"/>
	
		<linearGradient id="SVGID_3_" gradientUnits="userSpaceOnUse" x1="-459.01" y1="810.4333" x2="-459.01" y2="908.196" gradientTransform="matrix(1 0 0 1 547.3203 -810.4336)">
		<stop  offset="0" style="stop-color:#33438A"/>
		<stop  offset="1" style="stop-color:#0098DF"/>
	</linearGradient>
	<polygon fill="url(#SVGID_3_)" points="6.986,97.762 6.986,52.375 176.62,52.375 176.62,0 0,0 0,6.873 169.639,6.986 
		169.639,45.387 0,45.387 0,97.762 	"/>
	<path id="path788" fill="#959595" d="M143.989,131.765v34.387h5.37v-31.087h4.973c0,0,3.604-0.017,4.842,1.604
		c1.046,1.375,1.238,3.858,1.238,5.541c0,1.805-0.11,4.575-0.718,5.596c-0.915,1.551-2.409,1.857-3.791,1.857h-3.279v3.048h4.712
		c0,0,4.255,0.188,6.09-1.676c2.243-2.29,2.81-5.348,2.81-9.446c0-3.734-1.35-7.492-4.115-8.763
		c-2.288-1.063-6.414-1.063-6.414-1.063L143.989,131.765L143.989,131.765z"/>
	<polygon id="polygon790" fill="#959595" points="170.451,166.152 175.831,166.152 175.831,131.765 170.451,131.765 	"/>
	<polygon id="polygon792" fill="#959595" points="204.365,139.775 214.186,165.518 208.55,179.318 213.005,179.318 229.233,139.775 
		224.262,139.775 217.191,159.049 210.608,139.775 	"/>
	<path id="path794" fill="#959595" d="M233.277,165.93v-3.242c0,0,5.675,0.221,6.854,0.221c2.623,0,3.927-0.563,4.909-1.609
		c0.583-0.627,1.11-3.438,1.11-4.433c0-1.008-0.187-3.164-0.579-4.039c-0.403-0.868-1.315-1.675-2.691-1.786
		c-0.974-0.09-2.494-0.275-4.253-0.363c-2.479-0.112-4.115-1.413-4.91-2.337c-0.776-0.938-1.827-2.319-1.827-6.629
		c0-4.285,1.11-6.683,2.219-7.805c1.118-1.121,2.753-1.612,3.999-1.829c1.433-0.254,3.791-0.271,3.791-0.271l7.517,0.225v3.245
		c0,0-5.484-0.211-6.661-0.211c-2.623,0-3.408,0.552-4.391,1.604c-0.573,0.636-1.026,2.363-1.026,3.368c0,0.988,0.117,3,0.506,3.868
		c0.392,0.875,1.312,1.676,2.679,1.799c0.976,0.073,2.495,0.271,4.256,0.357c2.49,0.124,4.124,1.406,4.908,2.344
		c0.784,0.935,1.836,2.898,1.836,7.188c0,4.288-1.118,7.354-2.229,8.458c-1.11,1.134-2.74,1.626-3.99,1.842
		c-1.44,0.261-3.798,0.261-3.798,0.261L233.277,165.93L233.277,165.93z"/>
	<path id="path796" fill="#959595" d="M262.552,135.065h-5.361v25.229c0,0,0.129,2.301,0.257,3.104
		c0.136,0.813,1.315,2.75,4.389,2.75l5.561-0.12v-3.237c0,0-1.514,0.113-2.418,0.113c-0.921,0-2.041-0.067-2.229-1.629
		c-0.199-1.543-0.199-3.408-0.199-3.408V143.01h6.056v-3.235h-6.056L262.552,135.065L262.552,135.065z"/>
	<polygon id="polygon798" fill="#959595" points="314.327,166.152 319.696,166.152 319.696,139.775 314.327,139.775 	"/>
	<polygon id="polygon800" fill="#959595" points="314.327,136.552 319.696,136.552 319.696,131.765 314.327,131.765 	"/>
	<path id="path802" fill="#959595" d="M336.652,139.557c3.65,0,6.482,0.819,8.006,2.052c1.535,1.235,3.418,3.829,3.418,11.353
		c0,7.524-1.883,10.114-3.418,11.363c-1.521,1.229-4.354,2.049-8.006,2.049c-3.657,0-6.48-0.818-8.01-2.049
		c-1.526-1.249-3.414-3.839-3.414-11.363c0-7.521,1.888-10.112,3.414-11.353C330.17,140.38,332.994,139.557,336.652,139.557z
		 M332.98,144.615c-0.74,0.905-1.637,2.824-1.637,8.346c0,5.538,0.896,7.44,1.637,8.347c0.729,0.899,2.084,1.515,3.838,1.515
		c1.766,0,3.111-0.611,3.859-1.515c0.732-0.902,1.637-2.809,1.637-8.347c0-5.521-0.901-7.438-1.637-8.346
		c-0.748-0.901-2.098-1.501-3.859-1.501C335.064,143.114,333.709,143.714,332.98,144.615z"/>
	<path id="path804" fill="#959595" d="M359.197,143.49l5.255-0.225c1.386,0,2.997,0.373,3.778,1.359
		c0.736,0.941,1.197,2.058,1.197,3.858v17.626h5.371v-18.065c0-3.419-1.05-5.396-2.627-6.644c-2.255-1.789-6.279-1.629-6.279-1.629
		L353.863,140v26.106h5.334V143.49L359.197,143.49z"/>
	<path id="path806" fill="#959595" d="M303.659,135.065h-5.374v25.229c0,0,0.127,2.301,0.261,3.104
		c0.131,0.813,1.304,2.75,4.381,2.75l5.565-0.12v-3.237c0,0-1.509,0.113-2.425,0.113c-0.906,0-2.028-0.067-2.223-1.629
		c-0.188-1.543-0.188-3.408-0.188-3.408V143.01h6.042v-3.235h-6.041L303.659,135.065L303.659,135.065z"/>
	<path id="path808" fill="#959595" d="M196.182,148.487c0-1.803-0.46-2.917-1.194-3.858c-0.786-0.986-2.406-1.357-3.783-1.357
		l-7.079,0.223v-3.486l8.521-0.229c0,0,4.03-0.16,6.284,1.629c1.565,1.245,2.621,3.225,2.621,6.645v17.813l-10.288,0.221
		c0,0-4.662,0.023-7.001-0.935c-2.29-0.93-3.537-3.485-3.537-7.021c0-3.415,1.052-5.409,2.622-6.657
		c2.255-1.783,6.275-1.61,6.275-1.61h3.288v3.048h-1.845c-1.375,0-2.795,0.253-3.576,1.236c-0.744,0.942-1.137,1.749-1.137,3.55
		c0,2.362,0.46,3.422,1.572,4.227c0.981,0.716,2.741,0.87,4.71,0.87l3.546-0.22V148.487L196.182,148.487z"/>
	<path id="path810" fill="#959595" d="M286.663,148.487c0-1.803-0.453-2.917-1.188-3.858c-0.793-0.986-2.409-1.357-3.782-1.357
		l-7.071,0.223v-3.486l8.505-0.229c0,0,4.032-0.16,6.285,1.629c1.57,1.245,2.613,3.225,2.613,6.645v17.813l-10.271,0.221
		c0,0-4.664,0.023-7.013-0.935c-2.28-0.93-3.534-3.485-3.534-7.021c0-3.415,1.058-5.409,2.619-6.657
		c2.257-1.783,6.287-1.61,6.287-1.61h3.278v3.048h-1.843c-1.367,0-2.801,0.253-3.58,1.236c-0.734,0.942-1.135,1.749-1.135,3.55
		c0,2.362,0.471,3.422,1.571,4.227c0.98,0.716,2.749,0.87,4.714,0.87l3.545-0.22V148.487L286.663,148.487z"/>
	<path id="path816" fill="#959595" d="M422.934,136.211c0.068,3.962-0.125,6.049-1.457,8.031c-1.174,1.742-3.498,3.331-8.635,3.331
		l-6.373-0.188c-1.008,0.02-3.607,0.313-4.84,1.633c-1.056,1.14-1.139,1.992-1.244,5.024v8.896h21.66v4.355h-23.679l-1.139-0.007
		c-1.608,0-3.19-1.092-3.19-3.276v-6.637c0.112-7.752,0.667-8.862,2.352-10.896c1.168-1.405,3.912-2.979,7.24-3.146
		c0.655-0.027,1.885-0.112,3.613-0.064c1.26,0.056,2.52,0.092,3.071,0.102c2.951,0.03,4.024-0.514,4.832-1.571
		c0.922-1.188,1.416-2.595,1.416-4.896c0-2.156-0.439-4.188-1.263-5.131c-0.993-1.094-1.948-1.822-4.718-1.822
		c-7.007-0.019-15.183,0.167-15.183,0.167V126c0,0,7.99-0.34,16.14-0.46c5.074-0.087,7.872,1.264,9.296,3.118
		C422.338,130.589,422.866,132.418,422.934,136.211L422.934,136.211z"/>
</g>
</svg>
